<svg width="32" height="32" viewBox="0 0 32 32" fill="none" xmlns="http://www.w3.org/2000/svg">
<path d="M16.0007 30.6667C15.647 30.6667 15.3079 30.5262 15.0578 30.2762C14.8078 30.0261 14.6673 29.687 14.6673 29.3333V25.3333H9.33398C8.62674 25.3333 7.94846 25.0524 7.44837 24.5523C6.94827 24.0522 6.66732 23.3739 6.66732 22.6667V9.33334C6.66732 8.6261 6.94827 7.94782 7.44837 7.44773C7.94846 6.94763 8.62674 6.66668 9.33398 6.66668H28.0007C28.7079 6.66668 29.3862 6.94763 29.8863 7.44773C30.3864 7.94782 30.6673 8.6261 30.6673 9.33334V22.6667C30.6673 23.3739 30.3864 24.0522 29.8863 24.5523C29.3862 25.0524 28.7079 25.3333 28.0007 25.3333H22.534L17.6007 30.28C17.334 30.52 17.014 30.6667 16.6673 30.6667H16.0007ZM4.00065 20H1.33398V4.00001C1.33398 3.29277 1.61494 2.61449 2.11503 2.11439C2.61513 1.6143 3.29341 1.33334 4.00065 1.33334H25.334V4.00001H4.00065V20Z" fill="#0077E4"/>
</svg>
