<svg width="114" height="23" viewBox="0 0 114 23" fill="none" xmlns="http://www.w3.org/2000/svg">
<path d="M2.91918 10.6408L6.30918 13.7483L5.36751 18.08C5.27334 18.645 5.46168 19.21 5.93251 19.4925C6.12084 19.6808 6.40334 19.775 6.68584 19.775C6.87418 19.775 7.06251 19.775 7.25084 19.6808C7.25084 19.6808 7.34501 19.6808 7.34501 19.5867L11.2058 17.4208L15.0667 19.5867C15.0667 19.5867 15.1608 19.5867 15.1608 19.6808C15.6317 19.8692 16.1967 19.8692 16.5733 19.5867C17.0442 19.3042 17.2325 18.7392 17.1383 18.1742L16.1967 13.8425C16.5733 13.56 17.1383 12.995 17.7033 12.43L19.4925 10.8292L19.5867 10.735C19.9633 10.3583 20.0575 9.79334 19.8692 9.32251C19.6808 8.85168 19.3042 8.47501 18.7392 8.38085H18.645L14.2192 7.91001L12.43 3.86085C12.43 3.86085 12.43 3.76668 12.3358 3.76668C12.2417 3.10751 11.7708 2.82501 11.3 2.82501C10.8292 2.82501 10.3583 3.10751 10.0758 3.57835C10.0758 3.57835 10.0758 3.67251 9.98168 3.67251L8.19251 7.72168L3.76668 8.19251H3.67251C3.20168 8.28668 2.73084 8.66335 2.54251 9.13418C2.44834 9.69918 2.54251 10.2642 2.91918 10.6408Z" fill="#FFC800"/>
<path d="M25.5193 10.6408L28.9093 13.7483L27.9676 18.08C27.8734 18.645 28.0618 19.21 28.5326 19.4925C28.7209 19.6808 29.0034 19.775 29.2859 19.775C29.4743 19.775 29.6626 19.775 29.8509 19.6808C29.8509 19.6808 29.9451 19.6808 29.9451 19.5867L33.8059 17.4208L37.6668 19.5867C37.6668 19.5867 37.7609 19.5867 37.7609 19.6808C38.2318 19.8692 38.7968 19.8692 39.1734 19.5867C39.6443 19.3042 39.8326 18.7392 39.7384 18.1742L38.7968 13.8425C39.1734 13.56 39.7384 12.995 40.3034 12.43L42.0926 10.8292L42.1868 10.735C42.5634 10.3583 42.6576 9.79334 42.4693 9.32251C42.2809 8.85168 41.9043 8.47501 41.3393 8.38085H41.2451L36.8193 7.91001L35.0301 3.86085C35.0301 3.86085 35.0301 3.76668 34.9359 3.76668C34.8418 3.10751 34.3709 2.82501 33.9001 2.82501C33.4293 2.82501 32.9584 3.10751 32.6759 3.57835C32.6759 3.57835 32.6759 3.67251 32.5818 3.67251L30.7926 7.72168L26.3668 8.19251H26.2726C25.8018 8.28668 25.3309 8.66335 25.1426 9.13418C25.0484 9.69918 25.1426 10.2642 25.5193 10.6408Z" fill="#FFC800"/>
<path d="M47.9192 10.6408L51.3092 13.7483L50.3675 18.08C50.2733 18.645 50.4617 19.21 50.9325 19.4925C51.1208 19.6808 51.4033 19.775 51.6858 19.775C51.8742 19.775 52.0625 19.775 52.2508 19.6808C52.2508 19.6808 52.345 19.6808 52.345 19.5867L56.2058 17.4208L60.0667 19.5867C60.0667 19.5867 60.1608 19.5867 60.1608 19.6808C60.6317 19.8692 61.1967 19.8692 61.5733 19.5867C62.0442 19.3042 62.2325 18.7392 62.1383 18.1742L61.1967 13.8425C61.5733 13.56 62.1383 12.995 62.7033 12.43L64.4925 10.8292L64.5867 10.735C64.9633 10.3583 65.0575 9.79334 64.8692 9.32251C64.6808 8.85168 64.3042 8.47501 63.7392 8.38085H63.645L59.2192 7.91001L57.43 3.86085C57.43 3.86085 57.43 3.76668 57.3358 3.76668C57.2417 3.10751 56.7708 2.82501 56.3 2.82501C55.8292 2.82501 55.3583 3.10751 55.0758 3.57835C55.0758 3.57835 55.0758 3.67251 54.9817 3.67251L53.1925 7.72168L48.7667 8.19251H48.6725C48.2017 8.28668 47.7308 8.66335 47.5425 9.13418C47.4483 9.69918 47.5425 10.2642 47.9192 10.6408Z" fill="#FFC800"/>
<path d="M70.9192 10.6408L74.3092 13.7483L73.3675 18.08C73.2733 18.645 73.4617 19.21 73.9325 19.4925C74.1208 19.6808 74.4033 19.775 74.6858 19.775C74.8742 19.775 75.0625 19.775 75.2508 19.6808C75.2508 19.6808 75.345 19.6808 75.345 19.5867L79.2058 17.4208L83.0667 19.5867C83.0667 19.5867 83.1608 19.5867 83.1608 19.6808C83.6317 19.8692 84.1967 19.8692 84.5733 19.5867C85.0442 19.3042 85.2325 18.7392 85.1383 18.1742L84.1967 13.8425C84.5733 13.56 85.1383 12.995 85.7033 12.43L87.4925 10.8292L87.5867 10.735C87.9633 10.3583 88.0575 9.79334 87.8692 9.32251C87.6808 8.85168 87.3042 8.47501 86.7392 8.38085H86.645L82.2192 7.91001L80.43 3.86085C80.43 3.86085 80.43 3.76668 80.3358 3.76668C80.2417 3.10751 79.7708 2.82501 79.3 2.82501C78.8292 2.82501 78.3583 3.10751 78.0758 3.57835C78.0758 3.57835 78.0758 3.67251 77.9817 3.67251L76.1925 7.72168L71.7667 8.19251H71.6725C71.2017 8.28668 70.7308 8.66335 70.5425 9.13418C70.4483 9.69918 70.5425 10.2642 70.9192 10.6408Z" fill="#FFC800"/>
<path d="M95.7319 19.5631C95.6996 19.7012 95.699 19.8449 95.7302 19.9832C95.7613 20.1216 95.8234 20.2511 95.9117 20.3621C96 20.4731 96.1123 20.5626 96.2402 20.624C96.3681 20.6854 96.5082 20.7171 96.65 20.7167C96.836 20.7167 97.0179 20.6617 97.1726 20.5585L102.3 17.1402L107.427 20.5585C107.588 20.665 107.777 20.7198 107.969 20.7156C108.162 20.7113 108.348 20.6483 108.504 20.5348C108.66 20.4214 108.777 20.2631 108.84 20.0811C108.903 19.8991 108.908 19.7023 108.856 19.517L107.134 13.4903L111.405 9.64642C111.542 9.52324 111.639 9.36266 111.686 9.18455C111.732 9.00643 111.726 8.81859 111.667 8.64425C111.608 8.46991 111.499 8.31672 111.353 8.20362C111.208 8.09053 111.033 8.02249 110.849 8.00792L105.481 7.58041L103.158 2.43796C103.084 2.27234 102.964 2.13166 102.811 2.03291C102.659 1.93417 102.482 1.88157 102.3 1.88147C102.119 1.88137 101.941 1.93377 101.789 2.03235C101.637 2.13093 101.516 2.27148 101.442 2.43702L99.119 7.58041L93.7506 8.00698C93.5702 8.02127 93.3978 8.08722 93.2539 8.19694C93.1101 8.30667 93.0008 8.45552 92.9393 8.62568C92.8779 8.79585 92.8667 8.98013 92.9072 9.15648C92.9477 9.33282 93.0381 9.49377 93.1677 9.62006L97.1359 13.4875L95.7319 19.5631ZM102.3 5.1123L104.223 9.36957L104.777 9.41383H104.778L108.518 9.71046L105.438 12.4827L105.437 12.4846L105.001 12.8763L105.162 13.4385V13.4413L106.342 17.5705L102.3 14.8764V5.1123Z" fill="#FFC800"/>
</svg>
