<svg width="35" height="35" viewBox="0 0 35 35" fill="none" xmlns="http://www.w3.org/2000/svg">
<path d="M25.1562 25.1562H9.54297L5.72852 4.18359C5.68389 3.93243 5.55287 3.70477 5.35813 3.54C5.1634 3.37522 4.91719 3.28369 4.66211 3.28125H2.1875" stroke="#0077E4" stroke-width="2" stroke-linecap="round" stroke-linejoin="round"/>
<path d="M10.9375 30.625C12.4477 30.625 13.6719 29.4008 13.6719 27.8906C13.6719 26.3805 12.4477 25.1562 10.9375 25.1562C9.42735 25.1562 8.20312 26.3805 8.20312 27.8906C8.20312 29.4008 9.42735 30.625 10.9375 30.625Z" stroke="#0077E4" stroke-width="2" stroke-linecap="round" stroke-linejoin="round"/>
<path d="M25.1562 30.625C26.6664 30.625 27.8906 29.4008 27.8906 27.8906C27.8906 26.3805 26.6664 25.1562 25.1562 25.1562C23.6461 25.1562 22.4219 26.3805 22.4219 27.8906C22.4219 29.4008 23.6461 30.625 25.1562 30.625Z" stroke="#0077E4" stroke-width="2" stroke-linecap="round" stroke-linejoin="round"/>
<path d="M8.54492 19.6875H25.7168C26.2281 19.6891 26.7235 19.5104 27.1161 19.1828C27.5087 18.8552 27.7732 18.3998 27.8633 17.8965L29.5312 8.75H6.5625" stroke="#0077E4" stroke-width="2" stroke-linecap="round" stroke-linejoin="round"/>
</svg>
