<svg width="1710" height="829" viewBox="0 0 1710 829" fill="none" xmlns="http://www.w3.org/2000/svg">
<path d="M448.715 508.378C531.309 508.378 598.264 446.034 598.264 369.129C598.264 292.224 531.309 229.88 448.715 229.88C366.122 229.88 299.167 292.224 299.167 369.129C299.167 446.034 366.122 508.378 448.715 508.378Z" stroke="#0077E4"/>
<path d="M449.222 560.302C562.333 560.302 654.028 474.922 654.028 369.601C654.028 264.28 562.333 178.9 449.222 178.9C336.111 178.9 244.417 264.28 244.417 369.601C244.417 474.922 336.111 560.302 449.222 560.302Z" stroke="#FFC800"/>
<path d="M521.715 403.587H637.299" stroke="white"/>
<path d="M71.2986 918.478C153.892 918.478 220.847 856.134 220.847 779.229C220.847 702.324 153.892 639.979 71.2986 639.979C-11.2948 639.979 -78.25 702.324 -78.25 779.229C-78.25 856.134 -11.2948 918.478 71.2986 918.478Z" stroke="#0077E4"/>
<path d="M71.8056 970.402C184.917 970.402 276.611 885.022 276.611 779.701C276.611 674.38 184.917 589 71.8056 589C-41.3054 589 -133 674.38 -133 779.701C-133 885.022 -41.3054 970.402 71.8056 970.402Z" stroke="#FFC800"/>
<path d="M71.8056 855.226C116.602 855.226 152.917 821.412 152.917 779.701C152.917 737.99 116.602 704.176 71.8056 704.176C27.0091 704.176 -9.30554 737.99 -9.30554 779.701C-9.30554 821.412 27.0091 855.226 71.8056 855.226Z" stroke="#FFC800"/>
<path d="M1503.3 985.478C1585.89 985.478 1652.85 923.134 1652.85 846.229C1652.85 769.324 1585.89 706.979 1503.3 706.979C1420.71 706.979 1353.75 769.324 1353.75 846.229C1353.75 923.134 1420.71 985.478 1503.3 985.478Z" stroke="#0077E4"/>
<path d="M1503.81 1037.4C1616.92 1037.4 1708.61 952.022 1708.61 846.701C1708.61 741.38 1616.92 656 1503.81 656C1390.69 656 1299 741.38 1299 846.701C1299 952.022 1390.69 1037.4 1503.81 1037.4Z" stroke="#FFC800"/>
<path d="M1193.5 619C1364.98 619 1504 498.788 1504 350.5C1504 202.212 1364.98 82 1193.5 82C1022.02 82 883 202.212 883 350.5C883 498.788 1022.02 619 1193.5 619Z" stroke="#FFD024" stroke-opacity="0.63" stroke-width="2"/>
<path d="M1193.5 555C1324.12 555 1430 463.666 1430 351C1430 238.334 1324.12 147 1193.5 147C1062.88 147 957 238.334 957 351C957 463.666 1062.88 555 1193.5 555Z" stroke="#0077E4" stroke-width="2"/>
</svg>
