<svg width="720" height="500" viewBox="0 0 720 500" fill="none" xmlns="http://www.w3.org/2000/svg">
<rect width="720" height="500" fill="#0077E4"/>
<path d="M281.809 148C283.475 153 284.309 157.167 284.309 160.5C284.309 163.5 283.809 167.5 282.809 172.5C260.475 172.5 249.309 184 249.309 207C249.309 215.333 253.642 220 262.309 221C274.975 222 281.309 230.167 281.309 245.5C281.309 257.167 278.475 266.167 272.809 272.5C267.475 278.5 257.642 281.5 243.309 281.5C223.642 281.5 213.809 268.167 213.809 241.5C213.809 214.833 219.142 192.667 229.809 175C240.475 157 257.809 148 281.809 148ZM372.309 148C373.975 153 374.809 157.167 374.809 160.5C374.809 163.5 374.309 167.5 373.309 172.5C350.975 172.5 339.809 184 339.809 207C339.809 215.333 344.142 220 352.809 221C365.475 222 371.809 230.167 371.809 245.5C371.809 257.167 368.975 266.167 363.309 272.5C357.975 278.5 348.142 281.5 333.809 281.5C314.142 281.5 304.309 268.167 304.309 241.5C304.309 214.833 309.642 192.667 320.309 175C330.975 157 348.309 148 372.309 148Z" fill="white" fill-opacity="0.3"/>
<path d="M156.779 234.16C156.779 231.04 157.454 228.265 158.804 225.835C160.154 223.375 162.029 221.47 164.429 220.12C166.859 218.74 169.604 218.05 172.664 218.05C176.414 218.05 179.624 219.04 182.294 221.02C184.964 223 186.749 225.7 187.649 229.12H179.189C178.559 227.8 177.659 226.795 176.489 226.105C175.349 225.415 174.044 225.07 172.574 225.07C170.204 225.07 168.284 225.895 166.814 227.545C165.344 229.195 164.609 231.4 164.609 234.16C164.609 236.92 165.344 239.125 166.814 240.775C168.284 242.425 170.204 243.25 172.574 243.25C174.044 243.25 175.349 242.905 176.489 242.215C177.659 241.525 178.559 240.52 179.189 239.2H187.649C186.749 242.62 184.964 245.32 182.294 247.3C179.624 249.25 176.414 250.225 172.664 250.225C169.604 250.225 166.859 249.55 164.429 248.2C162.029 246.82 160.154 244.915 158.804 242.485C157.454 240.055 156.779 237.28 156.779 234.16ZM203.791 250.36C201.331 250.36 199.111 249.835 197.131 248.785C195.181 247.735 193.636 246.235 192.496 244.285C191.386 242.335 190.831 240.055 190.831 237.445C190.831 234.865 191.401 232.6 192.541 230.65C193.681 228.67 195.241 227.155 197.221 226.105C199.201 225.055 201.421 224.53 203.881 224.53C206.341 224.53 208.561 225.055 210.541 226.105C212.521 227.155 214.081 228.67 215.221 230.65C216.361 232.6 216.931 234.865 216.931 237.445C216.931 240.025 216.346 242.305 215.176 244.285C214.036 246.235 212.461 247.735 210.451 248.785C208.471 249.835 206.251 250.36 203.791 250.36ZM203.791 243.7C205.261 243.7 206.506 243.16 207.526 242.08C208.576 241 209.101 239.455 209.101 237.445C209.101 235.435 208.591 233.89 207.571 232.81C206.581 231.73 205.351 231.19 203.881 231.19C202.381 231.19 201.136 231.73 200.146 232.81C199.156 233.86 198.661 235.405 198.661 237.445C198.661 239.455 199.141 241 200.101 242.08C201.091 243.16 202.321 243.7 203.791 243.7ZM253.054 224.62C256.174 224.62 258.649 225.565 260.479 227.455C262.339 229.345 263.269 231.97 263.269 235.33V250H255.619V236.365C255.619 234.745 255.184 233.5 254.314 232.63C253.474 231.73 252.304 231.28 250.804 231.28C249.304 231.28 248.119 231.73 247.249 232.63C246.409 233.5 245.989 234.745 245.989 236.365V250H238.339V236.365C238.339 234.745 237.904 233.5 237.034 232.63C236.194 231.73 235.024 231.28 233.524 231.28C232.024 231.28 230.839 231.73 229.969 232.63C229.129 233.5 228.709 234.745 228.709 236.365V250H221.014V224.89H228.709V228.04C229.489 226.99 230.509 226.165 231.769 225.565C233.029 224.935 234.454 224.62 236.044 224.62C237.934 224.62 239.614 225.025 241.084 225.835C242.584 226.645 243.754 227.8 244.594 229.3C245.464 227.92 246.649 226.795 248.149 225.925C249.649 225.055 251.284 224.62 253.054 224.62ZM292.32 237.04C292.32 237.76 292.275 238.51 292.185 239.29H274.77C274.89 240.85 275.385 242.05 276.255 242.89C277.155 243.7 278.25 244.105 279.54 244.105C281.46 244.105 282.795 243.295 283.545 241.675H291.735C291.315 243.325 290.55 244.81 289.44 246.13C288.36 247.45 286.995 248.485 285.345 249.235C283.695 249.985 281.85 250.36 279.81 250.36C277.35 250.36 275.16 249.835 273.24 248.785C271.32 247.735 269.82 246.235 268.74 244.285C267.66 242.335 267.12 240.055 267.12 237.445C267.12 234.835 267.645 232.555 268.695 230.605C269.775 228.655 271.275 227.155 273.195 226.105C275.115 225.055 277.32 224.53 279.81 224.53C282.24 224.53 284.4 225.04 286.29 226.06C288.18 227.08 289.65 228.535 290.7 230.425C291.78 232.315 292.32 234.52 292.32 237.04ZM284.445 235.015C284.445 233.695 283.995 232.645 283.095 231.865C282.195 231.085 281.07 230.695 279.72 230.695C278.43 230.695 277.335 231.07 276.435 231.82C275.565 232.57 275.025 233.635 274.815 235.015H284.445ZM311.68 224.62C314.62 224.62 316.96 225.58 318.7 227.5C320.47 229.39 321.355 232 321.355 235.33V250H313.705V236.365C313.705 234.685 313.27 233.38 312.4 232.45C311.53 231.52 310.36 231.055 308.89 231.055C307.42 231.055 306.25 231.52 305.38 232.45C304.51 233.38 304.075 234.685 304.075 236.365V250H296.38V224.89H304.075V228.22C304.855 227.11 305.905 226.24 307.225 225.61C308.545 224.95 310.03 224.62 311.68 224.62ZM340.697 243.475V250H336.782C333.992 250 331.817 249.325 330.257 247.975C328.697 246.595 327.917 244.36 327.917 241.27V231.28H324.857V224.89H327.917V218.77H335.612V224.89H340.652V231.28H335.612V241.36C335.612 242.11 335.792 242.65 336.152 242.98C336.512 243.31 337.112 243.475 337.952 243.475H340.697ZM343.453 237.4C343.453 234.82 343.933 232.555 344.893 230.605C345.883 228.655 347.218 227.155 348.898 226.105C350.578 225.055 352.453 224.53 354.523 224.53C356.293 224.53 357.838 224.89 359.158 225.61C360.508 226.33 361.543 227.275 362.263 228.445V224.89H369.958V250H362.263V246.445C361.513 247.615 360.463 248.56 359.113 249.28C357.793 250 356.248 250.36 354.478 250.36C352.438 250.36 350.578 249.835 348.898 248.785C347.218 247.705 345.883 246.19 344.893 244.24C343.933 242.26 343.453 239.98 343.453 237.4ZM362.263 237.445C362.263 235.525 361.723 234.01 360.643 232.9C359.593 231.79 358.303 231.235 356.773 231.235C355.243 231.235 353.938 231.79 352.858 232.9C351.808 233.98 351.283 235.48 351.283 237.4C351.283 239.32 351.808 240.85 352.858 241.99C353.938 243.1 355.243 243.655 356.773 243.655C358.303 243.655 359.593 243.1 360.643 241.99C361.723 240.88 362.263 239.365 362.263 237.445ZM362.848 218.635L352.003 223.18V217.87L362.848 212.65V218.635ZM383.22 229.075C384.12 227.695 385.245 226.615 386.595 225.835C387.945 225.025 389.445 224.62 391.095 224.62V232.765H388.98C387.06 232.765 385.62 233.185 384.66 234.025C383.7 234.835 383.22 236.275 383.22 238.345V250H375.525V224.89H383.22V229.075ZM398.643 222.28C397.293 222.28 396.183 221.89 395.313 221.11C394.473 220.3 394.053 219.31 394.053 218.14C394.053 216.94 394.473 215.95 395.313 215.17C396.183 214.36 397.293 213.955 398.643 213.955C399.963 213.955 401.043 214.36 401.883 215.17C402.753 215.95 403.188 216.94 403.188 218.14C403.188 219.31 402.753 220.3 401.883 221.11C401.043 221.89 399.963 222.28 398.643 222.28ZM402.468 224.89V250H394.773V224.89H402.468ZM419.475 250.36C417.015 250.36 414.795 249.835 412.815 248.785C410.865 247.735 409.32 246.235 408.18 244.285C407.07 242.335 406.515 240.055 406.515 237.445C406.515 234.865 407.085 232.6 408.225 230.65C409.365 228.67 410.925 227.155 412.905 226.105C414.885 225.055 417.105 224.53 419.565 224.53C422.025 224.53 424.245 225.055 426.225 226.105C428.205 227.155 429.765 228.67 430.905 230.65C432.045 232.6 432.615 234.865 432.615 237.445C432.615 240.025 432.03 242.305 430.86 244.285C429.72 246.235 428.145 247.735 426.135 248.785C424.155 249.835 421.935 250.36 419.475 250.36ZM419.475 243.7C420.945 243.7 422.19 243.16 423.21 242.08C424.26 241 424.785 239.455 424.785 237.445C424.785 235.435 424.275 233.89 423.255 232.81C422.265 231.73 421.035 231.19 419.565 231.19C418.065 231.19 416.82 231.73 415.83 232.81C414.84 233.86 414.345 235.405 414.345 237.445C414.345 239.455 414.825 241 415.785 242.08C416.775 243.16 418.005 243.7 419.475 243.7ZM446.912 250.36C444.722 250.36 442.772 249.985 441.062 249.235C439.352 248.485 438.002 247.465 437.012 246.175C436.022 244.855 435.467 243.385 435.347 241.765H442.952C443.042 242.635 443.447 243.34 444.167 243.88C444.887 244.42 445.772 244.69 446.822 244.69C447.782 244.69 448.517 244.51 449.027 244.15C449.567 243.76 449.837 243.265 449.837 242.665C449.837 241.945 449.462 241.42 448.712 241.09C447.962 240.73 446.747 240.34 445.067 239.92C443.267 239.5 441.767 239.065 440.567 238.615C439.367 238.135 438.332 237.4 437.462 236.41C436.592 235.39 436.157 234.025 436.157 232.315C436.157 230.875 436.547 229.57 437.327 228.4C438.137 227.2 439.307 226.255 440.837 225.565C442.397 224.875 444.242 224.53 446.372 224.53C449.522 224.53 451.997 225.31 453.797 226.87C455.627 228.43 456.677 230.5 456.947 233.08H449.837C449.717 232.21 449.327 231.52 448.667 231.01C448.037 230.5 447.197 230.245 446.147 230.245C445.247 230.245 444.557 230.425 444.077 230.785C443.597 231.115 443.357 231.58 443.357 232.18C443.357 232.9 443.732 233.44 444.482 233.8C445.262 234.16 446.462 234.52 448.082 234.88C449.942 235.36 451.457 235.84 452.627 236.32C453.797 236.77 454.817 237.52 455.687 238.57C456.587 239.59 457.052 240.97 457.082 242.71C457.082 244.18 456.662 245.5 455.822 246.67C455.012 247.81 453.827 248.71 452.267 249.37C450.737 250.03 448.952 250.36 446.912 250.36Z" fill="white"/>
</svg>
