<svg width="42" height="42" viewBox="0 0 42 42" fill="none" xmlns="http://www.w3.org/2000/svg">
<rect width="42" height="42" fill="white"/>
<path d="M30.1875 30.1875V34.125H11.1562C9.58982 34.125 8.08754 33.5027 6.9799 32.3951C5.87226 31.2875 5.25 29.7852 5.25 28.2188C5.25 26.6523 5.87226 25.15 6.9799 24.0424C8.08754 22.9348 9.58982 22.3125 11.1562 22.3125H11.8125V19.6875H11.1562C8.89362 19.6875 6.72367 20.5863 5.12375 22.1862C3.52383 23.7862 2.625 25.9561 2.625 28.2188C2.625 30.4814 3.52383 32.6513 5.12375 34.2513C6.72367 35.8512 8.89362 36.75 11.1562 36.75H30.1875V40.6875H40.6875V30.1875H30.1875ZM38.0625 38.0625H32.8125V32.8125H38.0625V38.0625Z" fill="#0077E4"/>
<path d="M27.5625 28.875H24.9375V24.9375H17.0625V28.875H14.4375V24.9375C14.4382 24.2415 14.715 23.5742 15.2071 23.0821C15.6992 22.59 16.3665 22.3132 17.0625 22.3125H24.9375C25.6335 22.3132 26.3008 22.59 26.7929 23.0821C27.285 23.5742 27.5618 24.2415 27.5625 24.9375V28.875ZM21 21C20.2212 21 19.46 20.7691 18.8124 20.3364C18.1649 19.9038 17.6602 19.2888 17.3622 18.5693C17.0642 17.8498 16.9862 17.0581 17.1382 16.2943C17.2901 15.5305 17.6651 14.8289 18.2158 14.2783C18.7664 13.7276 19.468 13.3526 20.2318 13.2007C20.9956 13.0487 21.7873 13.1267 22.5068 13.4247C23.2263 13.7227 23.8413 14.2274 24.2739 14.8749C24.7066 15.5225 24.9375 16.2837 24.9375 17.0625C24.9365 18.1065 24.5213 19.1074 23.7831 19.8456C23.0449 20.5838 22.044 20.999 21 21ZM21 15.75C20.7404 15.75 20.4867 15.827 20.2708 15.9712C20.055 16.1154 19.8867 16.3204 19.7874 16.5602C19.6881 16.8001 19.6621 17.064 19.7127 17.3186C19.7634 17.5732 19.8884 17.807 20.0719 17.9906C20.2555 18.1741 20.4893 18.2991 20.7439 18.3498C20.9985 18.4004 21.2624 18.3744 21.5023 18.2751C21.7421 18.1758 21.9471 18.0075 22.0913 17.7917C22.2355 17.5758 22.3125 17.3221 22.3125 17.0625C22.3122 16.7145 22.1738 16.3809 21.9277 16.1348C21.6816 15.8887 21.348 15.7503 21 15.75Z" fill="#0077E4"/>
<path d="M30.8438 5.25H11.8125V1.3125H1.3125V11.8125H11.8125V7.875H30.8438C32.4102 7.875 33.9125 8.49726 35.0201 9.6049C36.1277 10.7125 36.75 12.2148 36.75 13.7812C36.75 15.3477 36.1277 16.85 35.0201 17.9576C33.9125 19.0652 32.4102 19.6875 30.8438 19.6875H30.1875V22.3125H30.8438C33.1064 22.3125 35.2763 21.4137 36.8763 19.8138C38.4762 18.2138 39.375 16.0439 39.375 13.7812C39.375 11.5186 38.4762 9.34867 36.8763 7.74874C35.2763 6.14883 33.1064 5.25 30.8438 5.25ZM9.1875 9.1875H3.9375V3.9375H9.1875V9.1875Z" fill="#0077E4"/>
</svg>
