<svg width="32" height="32" viewBox="0 0 32 32" fill="none" xmlns="http://www.w3.org/2000/svg">
<path d="M16 21.9477C19.3137 21.9477 22 19.277 22 15.9826C22 12.6882 19.3137 10.0176 16 10.0176C12.6863 10.0176 10 12.6882 10 15.9826C10 19.277 12.6863 21.9477 16 21.9477Z" stroke="#0077E4" stroke-width="2" stroke-linecap="round" stroke-linejoin="round"/>
<path d="M22.5125 7.7183C22.8292 8.00827 23.1292 8.30652 23.4125 8.61306L26.825 9.09772C27.381 10.0577 27.8096 11.0853 28.1 12.1548L26.025 14.9012C26.025 14.9012 26.0625 15.7463 26.025 16.1688L28.1 18.9152C27.8109 19.9851 27.3823 21.0129 26.825 21.9723L23.4125 22.4569C23.4125 22.4569 22.825 23.0659 22.5125 23.3517L22.025 26.7443C21.0594 27.2971 20.0258 27.7232 18.95 28.0119L16.1875 25.949C15.7633 25.9863 15.3367 25.9863 14.9125 25.949L12.15 28.0119C11.0738 27.7245 10.04 27.2984 9.075 26.7443L8.5875 23.3517C8.27917 23.0617 7.97917 22.7635 7.6875 22.4569L4.275 21.9723C3.71898 21.0123 3.29041 19.9847 3 18.9152L5.075 16.1688C5.075 16.1688 5.0375 15.3237 5.075 14.9012L3 12.1548C3.28906 11.0849 3.7177 10.0571 4.275 9.09772L7.6875 8.61306C7.97917 8.30652 8.27917 8.00827 8.5875 7.7183L9.075 4.32568C10.0406 3.77289 11.0742 3.34682 12.15 3.05811L14.9125 5.12102C15.3367 5.08373 15.7633 5.08373 16.1875 5.12102L18.95 3.05811C20.0262 3.34549 21.06 3.77163 22.025 4.32568L22.5125 7.7183Z" stroke="#0077E4" stroke-width="2" stroke-linecap="round" stroke-linejoin="round"/>
</svg>
