<svg width="27" height="28" viewBox="0 0 27 28" fill="none" xmlns="http://www.w3.org/2000/svg">
<path d="M4.5 15.3339H11.25C11.5484 15.3339 11.8345 15.216 12.0455 15.0063C12.2565 14.7965 12.375 14.5121 12.375 14.2154V5.26786C12.375 4.97123 12.2565 4.68675 12.0455 4.477C11.8345 4.26725 11.5484 4.14941 11.25 4.14941L4.5 4.14941C4.20163 4.14941 3.91548 4.26725 3.7045 4.477C3.49353 4.68675 3.375 4.97123 3.375 5.26786L3.375 14.2154C3.375 14.5121 3.49353 14.7965 3.7045 15.0063C3.91548 15.216 4.20163 15.3339 4.5 15.3339ZM3.375 23.163C3.375 23.4596 3.49353 23.7441 3.7045 23.9539C3.91548 24.1636 4.20163 24.2815 4.5 24.2815H11.25C11.5484 24.2815 11.8345 24.1636 12.0455 23.9539C12.2565 23.7441 12.375 23.4596 12.375 23.163V18.6892C12.375 18.3926 12.2565 18.1081 12.0455 17.8984C11.8345 17.6886 11.5484 17.5708 11.25 17.5708H4.5C4.20163 17.5708 3.91548 17.6886 3.7045 17.8984C3.49353 18.1081 3.375 18.3926 3.375 18.6892L3.375 23.163ZM14.625 23.163C14.625 23.4596 14.7435 23.7441 14.9545 23.9539C15.1655 24.1636 15.4516 24.2815 15.75 24.2815H22.5C22.7984 24.2815 23.0845 24.1636 23.2955 23.9539C23.5065 23.7441 23.625 23.4596 23.625 23.163V15.3339C23.625 15.0372 23.5065 14.7528 23.2955 14.543C23.0845 14.3333 22.7984 14.2154 22.5 14.2154L15.75 14.2154C15.4516 14.2154 15.1655 14.3333 14.9545 14.543C14.7435 14.7528 14.625 15.0372 14.625 15.3339L14.625 23.163ZM15.75 11.9785H22.5C22.7984 11.9785 23.0845 11.8607 23.2955 11.651C23.5065 11.4412 23.625 11.1567 23.625 10.8601V5.26786C23.625 4.97123 23.5065 4.68675 23.2955 4.477C23.0845 4.26725 22.7984 4.14941 22.5 4.14941H15.75C15.4516 4.14941 15.1655 4.26725 14.9545 4.477C14.7435 4.68675 14.625 4.97123 14.625 5.26786V10.8601C14.625 11.1567 14.7435 11.4412 14.9545 11.651C15.1655 11.8607 15.4516 11.9785 15.75 11.9785Z" fill="#0077E4"/>
</svg>
