<svg width="128" height="30" viewBox="0 0 128 30" fill="none" xmlns="http://www.w3.org/2000/svg">
<path d="M3.28886 13.7195L7.10861 17.7261L6.04757 23.311C5.94146 24.0395 6.15367 24.7679 6.68419 25.1322C6.8964 25.375 7.21471 25.4964 7.53303 25.4964C7.74523 25.4964 7.95744 25.4964 8.16965 25.375C8.16965 25.375 8.27576 25.375 8.27576 25.2536L12.626 22.4611L16.9763 25.2536C16.9763 25.2536 17.0824 25.2536 17.0824 25.375C17.6129 25.6178 18.2496 25.6178 18.674 25.2536C19.2045 24.8893 19.4167 24.1609 19.3106 23.4324L18.2496 17.8475C18.674 17.4832 19.3106 16.7548 19.9472 16.0263L21.9632 13.9623L22.0693 13.8409C22.4937 13.3553 22.5998 12.6268 22.3876 12.0197C22.1754 11.4127 21.751 10.927 21.1144 10.8056H21.0083L16.0214 10.1986L14.0054 4.97786C14.0054 4.97786 14.0054 4.85645 13.8993 4.85645C13.7932 4.00657 13.2627 3.64233 12.7321 3.64233C12.2016 3.64233 11.6711 4.00657 11.3528 4.61363C11.3528 4.61363 11.3528 4.73504 11.2467 4.73504L9.23069 9.95573L4.2438 10.5628H4.13769C3.60717 10.6842 3.07665 11.1698 2.86444 11.7769C2.75834 12.5054 2.86444 13.2338 3.28886 13.7195Z" fill="#FFC800"/>
<path d="M28.7537 13.7195L32.5735 17.7261L31.5124 23.311C31.4063 24.0395 31.6185 24.7679 32.149 25.1322C32.3612 25.375 32.6796 25.4964 32.9979 25.4964C33.2101 25.4964 33.4223 25.4964 33.6345 25.375C33.6345 25.375 33.7406 25.375 33.7406 25.2536L38.0909 22.4611L42.4411 25.2536C42.4411 25.2536 42.5472 25.2536 42.5472 25.375C43.0778 25.6178 43.7144 25.6178 44.1388 25.2536C44.6693 24.8893 44.8815 24.1609 44.7754 23.4324L43.7144 17.8475C44.1388 17.4832 44.7754 16.7548 45.4121 16.0263L47.428 13.9623L47.5341 13.8409C47.9586 13.3553 48.0647 12.6268 47.8525 12.0197C47.6402 11.4127 47.2158 10.927 46.5792 10.8056H46.4731L41.4862 10.1986L39.4702 4.97786C39.4702 4.97786 39.4702 4.85645 39.3641 4.85645C39.258 4.00657 38.7275 3.64233 38.197 3.64233C37.6665 3.64233 37.1359 4.00657 36.8176 4.61363C36.8176 4.61363 36.8176 4.73504 36.7115 4.73504L34.6955 9.95573L29.7086 10.5628H29.6025C29.072 10.6842 28.5415 11.1698 28.3293 11.7769C28.2232 12.5054 28.3293 13.2338 28.7537 13.7195Z" fill="#FFC800"/>
<path d="M53.9939 13.7195L57.8137 17.7261L56.7526 23.311C56.6465 24.0395 56.8587 24.7679 57.3893 25.1322C57.6015 25.375 57.9198 25.4964 58.2381 25.4964C58.4503 25.4964 58.6625 25.4964 58.8747 25.375C58.8747 25.375 58.9808 25.375 58.9808 25.2536L63.3311 22.4611L67.6814 25.2536C67.6814 25.2536 67.7875 25.2536 67.7875 25.375C68.318 25.6178 68.9546 25.6178 69.379 25.2536C69.9096 24.8893 70.1218 24.1609 70.0157 23.4324L68.9546 17.8475C69.379 17.4832 70.0157 16.7548 70.6523 16.0263L72.6683 13.9623L72.7744 13.8409C73.1988 13.3553 73.3049 12.6268 73.0927 12.0197C72.8805 11.4127 72.4561 10.927 71.8194 10.8056H71.7133L66.7264 10.1986L64.7105 4.97786C64.7105 4.97786 64.7105 4.85645 64.6044 4.85645C64.4983 4.00657 63.9677 3.64233 63.4372 3.64233C62.9067 3.64233 62.3762 4.00657 62.0579 4.61363C62.0579 4.61363 62.0579 4.73504 61.9518 4.73504L59.9358 9.95573L54.9489 10.5628H54.8428C54.3122 10.6842 53.7817 11.1698 53.5695 11.7769C53.4634 12.5054 53.5695 13.2338 53.9939 13.7195Z" fill="#FFC800"/>
<path d="M79.91 13.7195L83.7297 17.7261L82.6687 23.311C82.5626 24.0395 82.7748 24.7679 83.3053 25.1322C83.5175 25.375 83.8358 25.4964 84.1541 25.4964C84.3663 25.4964 84.5785 25.4964 84.7907 25.375C84.7907 25.375 84.8968 25.375 84.8968 25.2536L89.2471 22.4611L93.5974 25.2536C93.5974 25.2536 93.7035 25.2536 93.7035 25.375C94.234 25.6178 94.8706 25.6178 95.2951 25.2536C95.8256 24.8893 96.0378 24.1609 95.9317 23.4324L94.8706 17.8475C95.2951 17.4832 95.9317 16.7548 96.5683 16.0263L98.5843 13.9623L98.6904 13.8409C99.1148 13.3553 99.2209 12.6268 99.0087 12.0197C98.7965 11.4127 98.3721 10.927 97.7355 10.8056H97.6294L92.6425 10.1986L90.6265 4.97786C90.6265 4.97786 90.6265 4.85645 90.5204 4.85645C90.4143 4.00657 89.8837 3.64233 89.3532 3.64233C88.8227 3.64233 88.2922 4.00657 87.9739 4.61363C87.9739 4.61363 87.9739 4.73504 87.8678 4.73504L85.8518 9.95573L80.8649 10.5628H80.7588C80.2283 10.6842 79.6977 11.1698 79.4855 11.7769C79.3794 12.5054 79.4855 13.2338 79.91 13.7195Z" fill="#FFC800"/>
<path d="M107.936 25.7974C107.9 25.9755 107.899 26.1607 107.934 26.3391C107.969 26.5175 108.039 26.6845 108.139 26.8276C108.238 26.9707 108.365 27.0861 108.509 27.1653C108.653 27.2445 108.811 27.2853 108.971 27.2847C109.18 27.2847 109.385 27.2138 109.56 27.0807L115.337 22.6735L121.114 27.0807C121.295 27.218 121.508 27.2887 121.725 27.2833C121.942 27.2778 122.152 27.1965 122.328 27.0503C122.503 26.904 122.635 26.6999 122.706 26.4653C122.777 26.2306 122.783 25.9768 122.724 25.7379L120.783 17.9676L125.596 13.0116C125.75 12.8527 125.86 12.6457 125.913 12.416C125.965 12.1864 125.958 11.9442 125.891 11.7194C125.824 11.4946 125.702 11.2971 125.538 11.1513C125.374 11.0055 125.177 10.9178 124.97 10.899L118.921 10.3478L116.304 3.7175C116.22 3.50395 116.085 3.32258 115.913 3.19526C115.742 3.06794 115.542 3.00013 115.337 3C115.133 2.99987 114.933 3.06744 114.761 3.19454C114.59 3.32164 114.454 3.50285 114.37 3.71629L111.753 10.3478L105.704 10.8978C105.501 10.9162 105.306 11.0012 105.144 11.1427C104.982 11.2842 104.859 11.4761 104.79 11.6955C104.72 11.9149 104.708 12.1525 104.753 12.3799C104.799 12.6072 104.901 12.8147 105.047 12.9776L109.518 17.9639L107.936 25.7974ZM115.337 7.16559L117.504 12.6546L118.128 12.7117H118.129L122.343 13.0941L118.872 16.6685L118.871 16.6709L118.38 17.176L118.562 17.9008V17.9044L119.891 23.2283L115.337 19.7548V7.16559Z" fill="#FFC800"/>
</svg>
