<svg width="145" height="29" viewBox="0 0 145 29" fill="none" xmlns="http://www.w3.org/2000/svg">
<path d="M3.74591 13.6542L8.09591 17.6417L6.88758 23.2C6.76674 23.925 7.00841 24.65 7.61258 25.0125C7.85424 25.2542 8.21674 25.375 8.57924 25.375C8.82091 25.375 9.06258 25.375 9.30424 25.2542C9.30424 25.2542 9.42508 25.2542 9.42508 25.1333L14.3792 22.3542L19.3334 25.1333C19.3334 25.1333 19.4542 25.1333 19.4542 25.2542C20.0584 25.4958 20.7834 25.4958 21.2667 25.1333C21.8709 24.7708 22.1126 24.0458 21.9917 23.3208L20.7834 17.7625C21.2667 17.4 21.9917 16.675 22.7167 15.95L25.0126 13.8958L25.1334 13.775C25.6167 13.2917 25.7376 12.5667 25.4959 11.9625C25.2542 11.3583 24.7709 10.875 24.0459 10.7542H23.9251L18.2459 10.15L15.9501 4.95417C15.9501 4.95417 15.9501 4.83333 15.8292 4.83333C15.7084 3.9875 15.1042 3.625 14.5001 3.625C13.8959 3.625 13.2917 3.9875 12.9292 4.59167C12.9292 4.59167 12.9292 4.7125 12.8084 4.7125L10.5126 9.90833L4.83341 10.5125H4.71258C4.10841 10.6333 3.50424 11.1167 3.26258 11.7208C3.14174 12.4458 3.26258 13.1708 3.74591 13.6542Z" fill="#FFC800"/>
<path d="M32.7459 13.6542L37.0959 17.6417L35.8876 23.2C35.7667 23.925 36.0084 24.65 36.6126 25.0125C36.8542 25.2542 37.2167 25.375 37.5792 25.375C37.8209 25.375 38.0626 25.375 38.3042 25.2542C38.3042 25.2542 38.4251 25.2542 38.4251 25.1333L43.3792 22.3542L48.3334 25.1333C48.3334 25.1333 48.4542 25.1333 48.4542 25.2542C49.0584 25.4958 49.7834 25.4958 50.2667 25.1333C50.8709 24.7708 51.1126 24.0458 50.9917 23.3208L49.7834 17.7625C50.2667 17.4 50.9917 16.675 51.7167 15.95L54.0126 13.8958L54.1334 13.775C54.6167 13.2917 54.7376 12.5667 54.4959 11.9625C54.2542 11.3583 53.7709 10.875 53.0459 10.7542H52.9251L47.2459 10.15L44.9501 4.95417C44.9501 4.95417 44.9501 4.83333 44.8292 4.83333C44.7084 3.9875 44.1042 3.625 43.5001 3.625C42.8959 3.625 42.2917 3.9875 41.9292 4.59167C41.9292 4.59167 41.9292 4.7125 41.8084 4.7125L39.5126 9.90833L33.8334 10.5125H33.7126C33.1084 10.6333 32.5042 11.1167 32.2626 11.7208C32.1417 12.4458 32.2626 13.1708 32.7459 13.6542Z" fill="#FFC800"/>
<path d="M61.7459 13.6542L66.0959 17.6417L64.8876 23.2C64.7667 23.925 65.0084 24.65 65.6126 25.0125C65.8542 25.2542 66.2167 25.375 66.5792 25.375C66.8209 25.375 67.0626 25.375 67.3042 25.2542C67.3042 25.2542 67.4251 25.2542 67.4251 25.1333L72.3792 22.3542L77.3334 25.1333C77.3334 25.1333 77.4542 25.1333 77.4542 25.2542C78.0584 25.4958 78.7834 25.4958 79.2667 25.1333C79.8709 24.7708 80.1126 24.0458 79.9917 23.3208L78.7834 17.7625C79.2667 17.4 79.9917 16.675 80.7167 15.95L83.0126 13.8958L83.1334 13.775C83.6167 13.2917 83.7376 12.5667 83.4959 11.9625C83.2542 11.3583 82.7709 10.875 82.0459 10.7542H81.9251L76.2459 10.15L73.9501 4.95417C73.9501 4.95417 73.9501 4.83333 73.8292 4.83333C73.7084 3.9875 73.1042 3.625 72.5001 3.625C71.8959 3.625 71.2917 3.9875 70.9292 4.59167C70.9292 4.59167 70.9292 4.7125 70.8084 4.7125L68.5126 9.90833L62.8334 10.5125H62.7126C62.1084 10.6333 61.5042 11.1167 61.2626 11.7208C61.1417 12.4458 61.2626 13.1708 61.7459 13.6542Z" fill="#FFC800"/>
<path d="M90.7459 13.6542L95.0959 17.6417L93.8876 23.2C93.7667 23.925 94.0084 24.65 94.6126 25.0125C94.8542 25.2542 95.2167 25.375 95.5792 25.375C95.8209 25.375 96.0626 25.375 96.3042 25.2542C96.3042 25.2542 96.4251 25.2542 96.4251 25.1333L101.379 22.3542L106.333 25.1333C106.333 25.1333 106.454 25.1333 106.454 25.2542C107.058 25.4958 107.783 25.4958 108.267 25.1333C108.871 24.7708 109.113 24.0458 108.992 23.3208L107.783 17.7625C108.267 17.4 108.992 16.675 109.717 15.95L112.013 13.8958L112.133 13.775C112.617 13.2917 112.738 12.5667 112.496 11.9625C112.254 11.3583 111.771 10.875 111.046 10.7542H110.925L105.246 10.15L102.95 4.95417C102.95 4.95417 102.95 4.83333 102.829 4.83333C102.708 3.9875 102.104 3.625 101.5 3.625C100.896 3.625 100.292 3.9875 99.9292 4.59167C99.9292 4.59167 99.9292 4.7125 99.8084 4.7125L97.5126 9.90833L91.8334 10.5125H91.7126C91.1084 10.6333 90.5042 11.1167 90.2626 11.7208C90.1417 12.4458 90.2626 13.1708 90.7459 13.6542Z" fill="#FFC800"/>
<path d="M119.746 13.6542L124.096 17.6417L122.888 23.2C122.767 23.925 123.008 24.65 123.613 25.0125C123.854 25.2542 124.217 25.375 124.579 25.375C124.821 25.375 125.063 25.375 125.304 25.2542C125.304 25.2542 125.425 25.2542 125.425 25.1333L130.379 22.3542L135.333 25.1333C135.333 25.1333 135.454 25.1333 135.454 25.2542C136.058 25.4958 136.783 25.4958 137.267 25.1333C137.871 24.7708 138.113 24.0458 137.992 23.3208L136.783 17.7625C137.267 17.4 137.992 16.675 138.717 15.95L141.013 13.8958L141.133 13.775C141.617 13.2917 141.738 12.5667 141.496 11.9625C141.254 11.3583 140.771 10.875 140.046 10.7542H139.925L134.246 10.15L131.95 4.95417C131.95 4.95417 131.95 4.83333 131.829 4.83333C131.708 3.9875 131.104 3.625 130.5 3.625C129.896 3.625 129.292 3.9875 128.929 4.59167C128.929 4.59167 128.929 4.7125 128.808 4.7125L126.513 9.90833L120.833 10.5125H120.713C120.108 10.6333 119.504 11.1167 119.263 11.7208C119.142 12.4458 119.263 13.1708 119.746 13.6542Z" fill="#FFC800"/>
</svg>
