<svg width="43" height="43" viewBox="0 0 43 43" fill="none" xmlns="http://www.w3.org/2000/svg">
<g clip-path="url(#clip0_1101_720)">
<path fill-rule="evenodd" clip-rule="evenodd" d="M14.888 0C10.5587 0 7.07689 3.63223 7.07689 8.08185C7.07689 10.787 8.3649 13.1896 10.3447 14.6563C9.32431 15.4208 8.49725 16.4136 7.92978 17.5554C7.3623 18.6971 7.07021 19.9558 7.07689 21.2308C7.07689 23.9377 8.3649 26.3385 10.3447 27.8052C9.32431 28.5697 8.49725 29.5626 7.92978 30.7043C7.3623 31.846 7.07021 33.1048 7.07689 34.3797C7.07689 38.8293 10.5587 42.4615 14.888 42.4615C19.2156 42.4615 22.6992 38.8293 22.6992 34.3797V27.5469C24.0674 28.6877 25.792 29.3131 27.5734 29.3144C31.9027 29.3126 35.3846 25.6804 35.3846 21.2308C35.3917 19.9558 35.0998 18.6968 34.5323 17.5551C33.9648 16.4133 33.1375 15.4205 32.1168 14.6563C33.1372 13.8918 33.9642 12.899 34.5317 11.7573C35.0992 10.6156 35.3913 9.35679 35.3846 8.08185C35.3846 3.63223 31.9027 0 27.5734 0H14.888ZM10.012 8.08185C10.012 5.267 12.2094 3.013 14.888 3.013H19.7623V13.1507H14.888C12.2094 13.1507 10.012 10.8949 10.012 8.08185ZM27.5734 13.1489H22.6992V3.01123H27.5734C30.2538 3.01123 32.4494 5.267 32.4494 8.08185C32.4494 10.8949 30.2538 13.1489 27.5734 13.1489ZM10.0138 21.2308C10.0138 18.4177 12.2112 16.1619 14.8898 16.1619H19.764V26.2996H14.888C12.2077 26.2996 10.012 24.0438 10.012 21.2308H10.0138ZM22.6992 21.2308C22.6992 18.4177 24.8966 16.1619 27.5752 16.1619C30.2556 16.1619 32.4512 18.4159 32.4512 21.2308C32.4512 24.0438 30.2556 26.2996 27.5752 26.2996C24.8966 26.2996 22.701 24.0456 22.701 21.2308H22.6992ZM10.0138 34.3797C10.0138 31.5666 12.2112 29.3126 14.8898 29.3126H19.764V34.3797C19.764 37.1945 17.5702 39.4485 14.8898 39.4485C12.2112 39.4485 10.0138 37.1945 10.0138 34.3797Z" fill="white"/>
</g>
<defs>
<clipPath id="clip0_1101_720">
<rect width="42.4615" height="42.4615" fill="white"/>
</clipPath>
</defs>
</svg>
