<svg width="2207" height="1024" viewBox="0 0 2207 1024" fill="none" xmlns="http://www.w3.org/2000/svg">
<g clip-path="url(#clip0_19_2)">
<rect width="2207" height="1024" fill="white"/>
<g clip-path="url(#clip1_19_2)">
<path d="M2219.63 804C2453.6 804 2643.27 637.226 2643.27 431.5C2643.27 225.774 2453.6 59 2219.63 59C1985.67 59 1796 225.774 1796 431.5C1796 637.226 1985.67 804 2219.63 804Z" stroke="#FFD024" stroke-opacity="0.63" stroke-width="2"/>
<path d="M2220.07 715.062C2397.93 715.062 2542.11 588.107 2542.11 431.5C2542.11 274.893 2397.93 147.938 2220.07 147.938C2042.2 147.938 1898.02 274.893 1898.02 431.5C1898.02 588.107 2042.2 715.062 2220.07 715.062Z" stroke="#0077E4" stroke-width="2"/>
<path d="M2219.63 627.279C2342.35 627.279 2441.82 539.626 2441.82 431.5C2441.82 323.374 2342.35 235.721 2219.63 235.721C2096.92 235.721 1997.44 323.374 1997.44 431.5C1997.44 539.626 2096.92 627.279 2219.63 627.279Z" stroke="#FFC800"/>
<path d="M2219.2 557.977C2298.22 557.977 2362.29 501.61 2362.29 432.078C2362.29 362.545 2298.22 306.178 2219.2 306.178C2140.18 306.178 2076.12 362.545 2076.12 432.078C2076.12 501.61 2140.18 557.977 2219.2 557.977Z" stroke="#0077E4"/>
<path d="M84.3913 1096C175.154 1096 248.732 1040.71 248.732 972.5C248.732 904.293 175.154 849 84.3913 849C-6.37144 849 -79.9492 904.293 -79.9492 972.5C-79.9492 1040.71 -6.37144 1096 84.3913 1096Z" stroke="#0077E4"/>
<path d="M84.3909 1141C208.951 1141 309.927 1065.56 309.927 972.5C309.927 879.44 208.951 804 84.3909 804C-40.1694 804 -141.146 879.44 -141.146 972.5C-141.146 1065.56 -40.1694 1141 84.3909 1141Z" stroke="#FFC800"/>
<path d="M1093.89 -50.5C1093.89 -144.112 1006.83 -220 899.445 -220C792.056 -220 705 -144.112 705 -50.5C705 43.1123 792.056 119 899.445 119C1006.83 119 1093.89 43.1123 1093.89 -50.5Z" stroke="#FFD024" stroke-opacity="0.63" stroke-width="2"/>
<path d="M1046.51 -50.5C1046.51 -121.469 980.447 -179 898.952 -179C817.456 -179 751.391 -121.469 751.391 -50.5C751.391 20.4686 817.456 78 898.952 78C980.447 78 1046.51 20.4686 1046.51 -50.5Z" stroke="#0077E4" stroke-width="2"/>
<path d="M1001.11 -50.5C1001.11 -99.9295 955.592 -140 899.445 -140C843.297 -140 797.781 -99.9295 797.781 -50.5C797.781 -1.0705 843.297 39 899.445 39C955.592 39 1001.11 -1.0705 1001.11 -50.5Z" stroke="#FFC800"/>
<path d="M965.576 -50.5C965.576 -81.7041 936.189 -107 899.939 -107C863.688 -107 834.301 -81.7041 834.301 -50.5C834.301 -19.2959 863.688 6 899.939 6C936.189 6 965.576 -19.2959 965.576 -50.5Z" stroke="#0077E4"/>
<circle cx="185.5" cy="247.5" r="17.5" fill="#0077E4"/>
<line x1="187.5" y1="265" x2="187.5" y2="595" stroke="black" stroke-opacity="0.49"/>
<circle cx="185.5" cy="363.5" r="17.5" fill="#FFC800"/>
<circle cx="185.5" cy="479.5" r="17.5" fill="#0077E4"/>
<circle cx="185.5" cy="595.5" r="17.5" fill="#0077E4"/>
<path d="M219.116 247.02C219.116 245.66 219.423 244.44 220.036 243.36C220.649 242.267 221.483 241.413 222.536 240.8C223.603 240.187 224.783 239.88 226.076 239.88C227.596 239.88 228.923 240.247 230.056 240.98C231.189 241.713 232.016 242.753 232.536 244.1H230.356C229.969 243.26 229.409 242.613 228.676 242.16C227.956 241.707 227.089 241.48 226.076 241.48C225.103 241.48 224.229 241.707 223.456 242.16C222.683 242.613 222.076 243.26 221.636 244.1C221.196 244.927 220.976 245.9 220.976 247.02C220.976 248.127 221.196 249.1 221.636 249.94C222.076 250.767 222.683 251.407 223.456 251.86C224.229 252.313 225.103 252.54 226.076 252.54C227.089 252.54 227.956 252.32 228.676 251.88C229.409 251.427 229.969 250.78 230.356 249.94H232.536C232.016 251.273 231.189 252.307 230.056 253.04C228.923 253.76 227.596 254.12 226.076 254.12C224.783 254.12 223.603 253.82 222.536 253.22C221.483 252.607 220.649 251.76 220.036 250.68C219.423 249.6 219.116 248.38 219.116 247.02ZM237.065 244.82C237.385 244.193 237.838 243.707 238.425 243.36C239.025 243.013 239.752 242.84 240.605 242.84V244.72H240.125C238.085 244.72 237.065 245.827 237.065 248.04V254H235.245V243.04H237.065V244.82ZM243.646 241.26C243.299 241.26 243.006 241.14 242.766 240.9C242.526 240.66 242.406 240.367 242.406 240.02C242.406 239.673 242.526 239.38 242.766 239.14C243.006 238.9 243.299 238.78 243.646 238.78C243.979 238.78 244.259 238.9 244.486 239.14C244.726 239.38 244.846 239.673 244.846 240.02C244.846 240.367 244.726 240.66 244.486 240.9C244.259 241.14 243.979 241.26 243.646 241.26ZM244.526 243.04V254H242.706V243.04H244.526ZM257.628 248.1C257.628 248.447 257.608 248.813 257.568 249.2H248.808C248.875 250.28 249.241 251.127 249.908 251.74C250.588 252.34 251.408 252.64 252.368 252.64C253.155 252.64 253.808 252.46 254.328 252.1C254.861 251.727 255.235 251.233 255.448 250.62H257.408C257.115 251.673 256.528 252.533 255.648 253.2C254.768 253.853 253.675 254.18 252.368 254.18C251.328 254.18 250.395 253.947 249.568 253.48C248.755 253.013 248.115 252.353 247.648 251.5C247.181 250.633 246.948 249.633 246.948 248.5C246.948 247.367 247.175 246.373 247.628 245.52C248.081 244.667 248.715 244.013 249.528 243.56C250.355 243.093 251.301 242.86 252.368 242.86C253.408 242.86 254.328 243.087 255.128 243.54C255.928 243.993 256.541 244.62 256.968 245.42C257.408 246.207 257.628 247.1 257.628 248.1ZM255.748 247.72C255.748 247.027 255.595 246.433 255.288 245.94C254.981 245.433 254.561 245.053 254.028 244.8C253.508 244.533 252.928 244.4 252.288 244.4C251.368 244.4 250.581 244.693 249.928 245.28C249.288 245.867 248.921 246.68 248.828 247.72H255.748ZM269.242 254.18C268.402 254.18 267.649 254.04 266.982 253.76C266.316 253.467 265.789 253.067 265.402 252.56C265.016 252.04 264.802 251.447 264.762 250.78H266.642C266.696 251.327 266.949 251.773 267.402 252.12C267.869 252.467 268.476 252.64 269.222 252.64C269.916 252.64 270.462 252.487 270.862 252.18C271.262 251.873 271.462 251.487 271.462 251.02C271.462 250.54 271.249 250.187 270.822 249.96C270.396 249.72 269.736 249.487 268.842 249.26C268.029 249.047 267.362 248.833 266.842 248.62C266.336 248.393 265.896 248.067 265.522 247.64C265.162 247.2 264.982 246.627 264.982 245.92C264.982 245.36 265.149 244.847 265.482 244.38C265.816 243.913 266.289 243.547 266.902 243.28C267.516 243 268.216 242.86 269.002 242.86C270.216 242.86 271.196 243.167 271.942 243.78C272.689 244.393 273.089 245.233 273.142 246.3H271.322C271.282 245.727 271.049 245.267 270.622 244.92C270.209 244.573 269.649 244.4 268.942 244.4C268.289 244.4 267.769 244.54 267.382 244.82C266.996 245.1 266.802 245.467 266.802 245.92C266.802 246.28 266.916 246.58 267.142 246.82C267.382 247.047 267.676 247.233 268.022 247.38C268.382 247.513 268.876 247.667 269.502 247.84C270.289 248.053 270.929 248.267 271.422 248.48C271.916 248.68 272.336 248.987 272.682 249.4C273.042 249.813 273.229 250.353 273.242 251.02C273.242 251.62 273.076 252.16 272.742 252.64C272.409 253.12 271.936 253.5 271.322 253.78C270.722 254.047 270.029 254.18 269.242 254.18ZM285.811 248.1C285.811 248.447 285.791 248.813 285.751 249.2H276.991C277.058 250.28 277.425 251.127 278.091 251.74C278.771 252.34 279.591 252.64 280.551 252.64C281.338 252.64 281.991 252.46 282.511 252.1C283.045 251.727 283.418 251.233 283.631 250.62H285.591C285.298 251.673 284.711 252.533 283.831 253.2C282.951 253.853 281.858 254.18 280.551 254.18C279.511 254.18 278.578 253.947 277.751 253.48C276.938 253.013 276.298 252.353 275.831 251.5C275.365 250.633 275.131 249.633 275.131 248.5C275.131 247.367 275.358 246.373 275.811 245.52C276.265 244.667 276.898 244.013 277.711 243.56C278.538 243.093 279.485 242.86 280.551 242.86C281.591 242.86 282.511 243.087 283.311 243.54C284.111 243.993 284.725 244.62 285.151 245.42C285.591 246.207 285.811 247.1 285.811 248.1ZM283.931 247.72C283.931 247.027 283.778 246.433 283.471 245.94C283.165 245.433 282.745 245.053 282.211 244.8C281.691 244.533 281.111 244.4 280.471 244.4C279.551 244.4 278.765 244.693 278.111 245.28C277.471 245.867 277.105 246.68 277.011 247.72H283.931ZM297.934 243.04V254H296.114V252.38C295.767 252.94 295.28 253.38 294.654 253.7C294.04 254.007 293.36 254.16 292.614 254.16C291.76 254.16 290.994 253.987 290.314 253.64C289.634 253.28 289.094 252.747 288.694 252.04C288.307 251.333 288.114 250.473 288.114 249.46V243.04H289.914V249.22C289.914 250.3 290.187 251.133 290.734 251.72C291.28 252.293 292.027 252.58 292.974 252.58C293.947 252.58 294.714 252.28 295.274 251.68C295.834 251.08 296.114 250.207 296.114 249.06V243.04H297.934ZM308.159 239.2V254H306.339V239.2H308.159ZM316.041 254.18C315.014 254.18 314.081 253.947 313.241 253.48C312.414 253.013 311.761 252.353 311.281 251.5C310.814 250.633 310.581 249.633 310.581 248.5C310.581 247.38 310.821 246.393 311.301 245.54C311.794 244.673 312.461 244.013 313.301 243.56C314.141 243.093 315.081 242.86 316.121 242.86C317.161 242.86 318.101 243.093 318.941 243.56C319.781 244.013 320.441 244.667 320.921 245.52C321.414 246.373 321.661 247.367 321.661 248.5C321.661 249.633 321.407 250.633 320.901 251.5C320.407 252.353 319.734 253.013 318.881 253.48C318.027 253.947 317.081 254.18 316.041 254.18ZM316.041 252.58C316.694 252.58 317.307 252.427 317.881 252.12C318.454 251.813 318.914 251.353 319.261 250.74C319.621 250.127 319.801 249.38 319.801 248.5C319.801 247.62 319.627 246.873 319.281 246.26C318.934 245.647 318.481 245.193 317.921 244.9C317.361 244.593 316.754 244.44 316.101 244.44C315.434 244.44 314.821 244.593 314.261 244.9C313.714 245.193 313.274 245.647 312.941 246.26C312.607 246.873 312.441 247.62 312.441 248.5C312.441 249.393 312.601 250.147 312.921 250.76C313.254 251.373 313.694 251.833 314.241 252.14C314.787 252.433 315.387 252.58 316.041 252.58ZM328.574 242.86C329.52 242.86 330.347 243.067 331.054 243.48C331.774 243.893 332.307 244.413 332.654 245.04V243.04H334.494V254.24C334.494 255.24 334.28 256.127 333.854 256.9C333.427 257.687 332.814 258.3 332.014 258.74C331.227 259.18 330.307 259.4 329.254 259.4C327.814 259.4 326.614 259.06 325.654 258.38C324.694 257.7 324.127 256.773 323.954 255.6H325.754C325.954 256.267 326.367 256.8 326.994 257.2C327.62 257.613 328.374 257.82 329.254 257.82C330.254 257.82 331.067 257.507 331.694 256.88C332.334 256.253 332.654 255.373 332.654 254.24V251.94C332.294 252.58 331.76 253.113 331.054 253.54C330.347 253.967 329.52 254.18 328.574 254.18C327.6 254.18 326.714 253.94 325.914 253.46C325.127 252.98 324.507 252.307 324.054 251.44C323.6 250.573 323.374 249.587 323.374 248.48C323.374 247.36 323.6 246.38 324.054 245.54C324.507 244.687 325.127 244.027 325.914 243.56C326.714 243.093 327.6 242.86 328.574 242.86ZM332.654 248.5C332.654 247.673 332.487 246.953 332.154 246.34C331.82 245.727 331.367 245.26 330.794 244.94C330.234 244.607 329.614 244.44 328.934 244.44C328.254 244.44 327.634 244.6 327.074 244.92C326.514 245.24 326.067 245.707 325.734 246.32C325.4 246.933 325.234 247.653 325.234 248.48C325.234 249.32 325.4 250.053 325.734 250.68C326.067 251.293 326.514 251.767 327.074 252.1C327.634 252.42 328.254 252.58 328.934 252.58C329.614 252.58 330.234 252.42 330.794 252.1C331.367 251.767 331.82 251.293 332.154 250.68C332.487 250.053 332.654 249.327 332.654 248.5ZM338.509 241.26C338.163 241.26 337.869 241.14 337.629 240.9C337.389 240.66 337.269 240.367 337.269 240.02C337.269 239.673 337.389 239.38 337.629 239.14C337.869 238.9 338.163 238.78 338.509 238.78C338.843 238.78 339.123 238.9 339.349 239.14C339.589 239.38 339.709 239.673 339.709 240.02C339.709 240.367 339.589 240.66 339.349 240.9C339.123 241.14 338.843 241.26 338.509 241.26ZM339.389 243.04V254H337.569V243.04H339.389ZM347.831 242.84C349.165 242.84 350.245 243.247 351.071 244.06C351.898 244.86 352.311 246.02 352.311 247.54V254H350.511V247.8C350.511 246.707 350.238 245.873 349.691 245.3C349.145 244.713 348.398 244.42 347.451 244.42C346.491 244.42 345.725 244.72 345.151 245.32C344.591 245.92 344.311 246.793 344.311 247.94V254H342.491V243.04H344.311V244.6C344.671 244.04 345.158 243.607 345.771 243.3C346.398 242.993 347.085 242.84 347.831 242.84Z" fill="black"/>
<path d="M221.68 359.06V373H219.86V359.06H221.68ZM230.122 361.84C231.456 361.84 232.536 362.247 233.362 363.06C234.189 363.86 234.602 365.02 234.602 366.54V373H232.802V366.8C232.802 365.707 232.529 364.873 231.982 364.3C231.436 363.713 230.689 363.42 229.742 363.42C228.782 363.42 228.016 363.72 227.442 364.32C226.882 364.92 226.602 365.793 226.602 366.94V373H224.782V362.04H226.602V363.6C226.962 363.04 227.449 362.607 228.062 362.3C228.689 361.993 229.376 361.84 230.122 361.84ZM242.035 363.54H239.735V373H237.915V363.54H236.495V362.04H237.915V361.26C237.915 360.033 238.228 359.14 238.855 358.58C239.495 358.007 240.515 357.72 241.915 357.72V359.24C241.115 359.24 240.548 359.4 240.215 359.72C239.895 360.027 239.735 360.54 239.735 361.26V362.04H242.035V363.54ZM248.937 373.18C247.911 373.18 246.977 372.947 246.137 372.48C245.311 372.013 244.657 371.353 244.177 370.5C243.711 369.633 243.477 368.633 243.477 367.5C243.477 366.38 243.717 365.393 244.197 364.54C244.691 363.673 245.357 363.013 246.197 362.56C247.037 362.093 247.977 361.86 249.017 361.86C250.057 361.86 250.997 362.093 251.837 362.56C252.677 363.013 253.337 363.667 253.817 364.52C254.311 365.373 254.557 366.367 254.557 367.5C254.557 368.633 254.304 369.633 253.797 370.5C253.304 371.353 252.631 372.013 251.777 372.48C250.924 372.947 249.977 373.18 248.937 373.18ZM248.937 371.58C249.591 371.58 250.204 371.427 250.777 371.12C251.351 370.813 251.811 370.353 252.157 369.74C252.517 369.127 252.697 368.38 252.697 367.5C252.697 366.62 252.524 365.873 252.177 365.26C251.831 364.647 251.377 364.193 250.817 363.9C250.257 363.593 249.651 363.44 248.997 363.44C248.331 363.44 247.717 363.593 247.157 363.9C246.611 364.193 246.171 364.647 245.837 365.26C245.504 365.873 245.337 366.62 245.337 367.5C245.337 368.393 245.497 369.147 245.817 369.76C246.151 370.373 246.591 370.833 247.137 371.14C247.684 371.433 248.284 371.58 248.937 371.58ZM258.77 363.82C259.09 363.193 259.543 362.707 260.13 362.36C260.73 362.013 261.457 361.84 262.31 361.84V363.72H261.83C259.79 363.72 258.77 364.827 258.77 367.04V373H256.95V362.04H258.77V363.82ZM277.591 361.84C278.444 361.84 279.204 362.02 279.871 362.38C280.538 362.727 281.064 363.253 281.451 363.96C281.838 364.667 282.031 365.527 282.031 366.54V373H280.231V366.8C280.231 365.707 279.958 364.873 279.411 364.3C278.878 363.713 278.151 363.42 277.231 363.42C276.284 363.42 275.531 363.727 274.971 364.34C274.411 364.94 274.131 365.813 274.131 366.96V373H272.331V366.8C272.331 365.707 272.058 364.873 271.511 364.3C270.978 363.713 270.251 363.42 269.331 363.42C268.384 363.42 267.631 363.727 267.071 364.34C266.511 364.94 266.231 365.813 266.231 366.96V373H264.411V362.04H266.231V363.62C266.591 363.047 267.071 362.607 267.671 362.3C268.284 361.993 268.958 361.84 269.691 361.84C270.611 361.84 271.424 362.047 272.131 362.46C272.838 362.873 273.364 363.48 273.711 364.28C274.018 363.507 274.524 362.907 275.231 362.48C275.938 362.053 276.724 361.84 277.591 361.84ZM284.337 367.48C284.337 366.36 284.563 365.38 285.017 364.54C285.47 363.687 286.09 363.027 286.877 362.56C287.677 362.093 288.563 361.86 289.537 361.86C290.497 361.86 291.33 362.067 292.037 362.48C292.743 362.893 293.27 363.413 293.617 364.04V362.04H295.457V373H293.617V370.96C293.257 371.6 292.717 372.133 291.997 372.56C291.29 372.973 290.463 373.18 289.517 373.18C288.543 373.18 287.663 372.94 286.877 372.46C286.09 371.98 285.47 371.307 285.017 370.44C284.563 369.573 284.337 368.587 284.337 367.48ZM293.617 367.5C293.617 366.673 293.45 365.953 293.117 365.34C292.783 364.727 292.33 364.26 291.757 363.94C291.197 363.607 290.577 363.44 289.897 363.44C289.217 363.44 288.597 363.6 288.037 363.92C287.477 364.24 287.03 364.707 286.697 365.32C286.363 365.933 286.197 366.653 286.197 367.48C286.197 368.32 286.363 369.053 286.697 369.68C287.03 370.293 287.477 370.767 288.037 371.1C288.597 371.42 289.217 371.58 289.897 371.58C290.577 371.58 291.197 371.42 291.757 371.1C292.33 370.767 292.783 370.293 293.117 369.68C293.45 369.053 293.617 368.327 293.617 367.5ZM303.192 371.64C303.992 371.64 304.659 371.453 305.192 371.08C305.726 370.707 306.092 370.173 306.292 369.48H308.252C307.986 370.52 307.459 371.373 306.672 372.04C305.899 372.693 304.926 373.067 303.752 373.16V374.16C304.539 374.147 305.166 374.313 305.632 374.66C306.099 375.007 306.332 375.5 306.332 376.14C306.332 376.767 306.106 377.267 305.652 377.64C305.199 378.013 304.612 378.2 303.892 378.2H301.592V377.02H303.532C303.972 377.02 304.292 376.953 304.492 376.82C304.706 376.687 304.812 376.46 304.812 376.14C304.812 375.833 304.706 375.613 304.492 375.48C304.292 375.347 303.972 375.28 303.532 375.28H302.532V373.14C301.612 373.047 300.799 372.76 300.092 372.28C299.386 371.787 298.832 371.133 298.432 370.32C298.046 369.493 297.852 368.553 297.852 367.5C297.852 366.367 298.079 365.38 298.532 364.54C298.986 363.687 299.612 363.027 300.412 362.56C301.226 362.093 302.152 361.86 303.192 361.86C304.539 361.86 305.646 362.187 306.512 362.84C307.392 363.493 307.972 364.4 308.252 365.56H306.292C306.106 364.893 305.739 364.367 305.192 363.98C304.659 363.593 303.992 363.4 303.192 363.4C302.152 363.4 301.312 363.76 300.672 364.48C300.032 365.187 299.712 366.193 299.712 367.5C299.712 368.82 300.032 369.84 300.672 370.56C301.312 371.28 302.152 371.64 303.192 371.64ZM315.461 373.18C314.434 373.18 313.501 372.947 312.661 372.48C311.834 372.013 311.181 371.353 310.701 370.5C310.234 369.633 310.001 368.633 310.001 367.5C310.001 366.38 310.241 365.393 310.721 364.54C311.214 363.673 311.881 363.013 312.721 362.56C313.561 362.093 314.501 361.86 315.541 361.86C316.581 361.86 317.521 362.093 318.361 362.56C319.201 363.013 319.861 363.667 320.341 364.52C320.834 365.373 321.081 366.367 321.081 367.5C321.081 368.633 320.827 369.633 320.321 370.5C319.827 371.353 319.154 372.013 318.301 372.48C317.447 372.947 316.501 373.18 315.461 373.18ZM315.461 371.58C316.114 371.58 316.727 371.427 317.301 371.12C317.874 370.813 318.334 370.353 318.681 369.74C319.041 369.127 319.221 368.38 319.221 367.5C319.221 366.62 319.047 365.873 318.701 365.26C318.354 364.647 317.901 364.193 317.341 363.9C316.781 363.593 316.174 363.44 315.521 363.44C314.854 363.44 314.241 363.593 313.681 363.9C313.134 364.193 312.694 364.647 312.361 365.26C312.027 365.873 311.861 366.62 311.861 367.5C311.861 368.393 312.021 369.147 312.341 369.76C312.674 370.373 313.114 370.833 313.661 371.14C314.207 371.433 314.807 371.58 315.461 371.58ZM312.621 360.72C312.714 360.04 312.934 359.52 313.281 359.16C313.641 358.8 314.087 358.62 314.621 358.62C314.874 358.62 315.087 358.667 315.261 358.76C315.447 358.84 315.667 358.96 315.921 359.12C316.107 359.253 316.274 359.36 316.421 359.44C316.567 359.507 316.727 359.54 316.901 359.54C317.127 359.54 317.321 359.467 317.481 359.32C317.641 359.173 317.741 358.96 317.781 358.68H318.821C318.741 359.347 318.521 359.86 318.161 360.22C317.801 360.58 317.354 360.76 316.821 360.76C316.567 360.76 316.341 360.72 316.141 360.64C315.954 360.547 315.741 360.413 315.501 360.24C315.287 360.107 315.114 360.007 314.981 359.94C314.861 359.873 314.714 359.84 314.541 359.84C314.314 359.84 314.121 359.913 313.961 360.06C313.814 360.207 313.721 360.427 313.681 360.72H312.621ZM333.474 367.1C333.474 367.447 333.454 367.813 333.414 368.2H324.654C324.72 369.28 325.087 370.127 325.754 370.74C326.434 371.34 327.254 371.64 328.214 371.64C329 371.64 329.654 371.46 330.174 371.1C330.707 370.727 331.08 370.233 331.294 369.62H333.254C332.96 370.673 332.374 371.533 331.494 372.2C330.614 372.853 329.52 373.18 328.214 373.18C327.174 373.18 326.24 372.947 325.414 372.48C324.6 372.013 323.96 371.353 323.494 370.5C323.027 369.633 322.794 368.633 322.794 367.5C322.794 366.367 323.02 365.373 323.474 364.52C323.927 363.667 324.56 363.013 325.374 362.56C326.2 362.093 327.147 361.86 328.214 361.86C329.254 361.86 330.174 362.087 330.974 362.54C331.774 362.993 332.387 363.62 332.814 364.42C333.254 365.207 333.474 366.1 333.474 367.1ZM331.594 366.72C331.594 366.027 331.44 365.433 331.134 364.94C330.827 364.433 330.407 364.053 329.874 363.8C329.354 363.533 328.774 363.4 328.134 363.4C327.214 363.4 326.427 363.693 325.774 364.28C325.134 364.867 324.767 365.68 324.674 366.72H331.594ZM339.756 373.18C338.916 373.18 338.163 373.04 337.496 372.76C336.829 372.467 336.303 372.067 335.916 371.56C335.529 371.04 335.316 370.447 335.276 369.78H337.156C337.209 370.327 337.463 370.773 337.916 371.12C338.383 371.467 338.989 371.64 339.736 371.64C340.429 371.64 340.976 371.487 341.376 371.18C341.776 370.873 341.976 370.487 341.976 370.02C341.976 369.54 341.763 369.187 341.336 368.96C340.909 368.72 340.249 368.487 339.356 368.26C338.543 368.047 337.876 367.833 337.356 367.62C336.849 367.393 336.409 367.067 336.036 366.64C335.676 366.2 335.496 365.627 335.496 364.92C335.496 364.36 335.663 363.847 335.996 363.38C336.329 362.913 336.803 362.547 337.416 362.28C338.029 362 338.729 361.86 339.516 361.86C340.729 361.86 341.709 362.167 342.456 362.78C343.203 363.393 343.603 364.233 343.656 365.3H341.836C341.796 364.727 341.563 364.267 341.136 363.92C340.723 363.573 340.163 363.4 339.456 363.4C338.803 363.4 338.283 363.54 337.896 363.82C337.509 364.1 337.316 364.467 337.316 364.92C337.316 365.28 337.429 365.58 337.656 365.82C337.896 366.047 338.189 366.233 338.536 366.38C338.896 366.513 339.389 366.667 340.016 366.84C340.803 367.053 341.443 367.267 341.936 367.48C342.429 367.68 342.849 367.987 343.196 368.4C343.556 368.813 343.743 369.353 343.756 370.02C343.756 370.62 343.589 371.16 343.256 371.64C342.923 372.12 342.449 372.5 341.836 372.78C341.236 373.047 340.543 373.18 339.756 373.18ZM360.977 363.14C360.977 364.3 360.577 365.267 359.777 366.04C358.991 366.8 357.784 367.18 356.157 367.18H353.477V373H351.657V359.06H356.157C357.731 359.06 358.924 359.44 359.737 360.2C360.564 360.96 360.977 361.94 360.977 363.14ZM356.157 365.68C357.171 365.68 357.917 365.46 358.397 365.02C358.877 364.58 359.117 363.953 359.117 363.14C359.117 361.42 358.131 360.56 356.157 360.56H353.477V365.68H356.157ZM373.239 367.1C373.239 367.447 373.219 367.813 373.179 368.2H364.419C364.486 369.28 364.853 370.127 365.519 370.74C366.199 371.34 367.019 371.64 367.979 371.64C368.766 371.64 369.419 371.46 369.939 371.1C370.473 370.727 370.846 370.233 371.059 369.62H373.019C372.726 370.673 372.139 371.533 371.259 372.2C370.379 372.853 369.286 373.18 367.979 373.18C366.939 373.18 366.006 372.947 365.179 372.48C364.366 372.013 363.726 371.353 363.259 370.5C362.793 369.633 362.559 368.633 362.559 367.5C362.559 366.367 362.786 365.373 363.239 364.52C363.693 363.667 364.326 363.013 365.139 362.56C365.966 362.093 366.913 361.86 367.979 361.86C369.019 361.86 369.939 362.087 370.739 362.54C371.539 362.993 372.153 363.62 372.579 364.42C373.019 365.207 373.239 366.1 373.239 367.1ZM371.359 366.72C371.359 366.027 371.206 365.433 370.899 364.94C370.593 364.433 370.173 364.053 369.639 363.8C369.119 363.533 368.539 363.4 367.899 363.4C366.979 363.4 366.193 363.693 365.539 364.28C364.899 364.867 364.533 365.68 364.439 366.72H371.359ZM379.522 373.18C378.682 373.18 377.928 373.04 377.262 372.76C376.595 372.467 376.068 372.067 375.682 371.56C375.295 371.04 375.082 370.447 375.042 369.78H376.922C376.975 370.327 377.228 370.773 377.682 371.12C378.148 371.467 378.755 371.64 379.502 371.64C380.195 371.64 380.742 371.487 381.142 371.18C381.542 370.873 381.742 370.487 381.742 370.02C381.742 369.54 381.528 369.187 381.102 368.96C380.675 368.72 380.015 368.487 379.122 368.26C378.308 368.047 377.642 367.833 377.122 367.62C376.615 367.393 376.175 367.067 375.802 366.64C375.442 366.2 375.262 365.627 375.262 364.92C375.262 364.36 375.428 363.847 375.762 363.38C376.095 362.913 376.568 362.547 377.182 362.28C377.795 362 378.495 361.86 379.282 361.86C380.495 361.86 381.475 362.167 382.222 362.78C382.968 363.393 383.368 364.233 383.422 365.3H381.602C381.562 364.727 381.328 364.267 380.902 363.92C380.488 363.573 379.928 363.4 379.222 363.4C378.568 363.4 378.048 363.54 377.662 363.82C377.275 364.1 377.082 364.467 377.082 364.92C377.082 365.28 377.195 365.58 377.422 365.82C377.662 366.047 377.955 366.233 378.302 366.38C378.662 366.513 379.155 366.667 379.782 366.84C380.568 367.053 381.208 367.267 381.702 367.48C382.195 367.68 382.615 367.987 382.962 368.4C383.322 368.813 383.508 369.353 383.522 370.02C383.522 370.62 383.355 371.16 383.022 371.64C382.688 372.12 382.215 372.5 381.602 372.78C381.002 373.047 380.308 373.18 379.522 373.18ZM389.971 373.18C389.131 373.18 388.377 373.04 387.711 372.76C387.044 372.467 386.517 372.067 386.131 371.56C385.744 371.04 385.531 370.447 385.491 369.78H387.371C387.424 370.327 387.677 370.773 388.131 371.12C388.597 371.467 389.204 371.64 389.951 371.64C390.644 371.64 391.191 371.487 391.591 371.18C391.991 370.873 392.191 370.487 392.191 370.02C392.191 369.54 391.977 369.187 391.551 368.96C391.124 368.72 390.464 368.487 389.571 368.26C388.757 368.047 388.091 367.833 387.571 367.62C387.064 367.393 386.624 367.067 386.251 366.64C385.891 366.2 385.711 365.627 385.711 364.92C385.711 364.36 385.877 363.847 386.211 363.38C386.544 362.913 387.017 362.547 387.631 362.28C388.244 362 388.944 361.86 389.731 361.86C390.944 361.86 391.924 362.167 392.671 362.78C393.417 363.393 393.817 364.233 393.871 365.3H392.051C392.011 364.727 391.777 364.267 391.351 363.92C390.937 363.573 390.377 363.4 389.671 363.4C389.017 363.4 388.497 363.54 388.111 363.82C387.724 364.1 387.531 364.467 387.531 364.92C387.531 365.28 387.644 365.58 387.871 365.82C388.111 366.047 388.404 366.233 388.751 366.38C389.111 366.513 389.604 366.667 390.231 366.84C391.017 367.053 391.657 367.267 392.151 367.48C392.644 367.68 393.064 367.987 393.411 368.4C393.771 368.813 393.957 369.353 393.971 370.02C393.971 370.62 393.804 371.16 393.471 371.64C393.137 372.12 392.664 372.5 392.051 372.78C391.451 373.047 390.757 373.18 389.971 373.18ZM401.32 373.18C400.293 373.18 399.36 372.947 398.52 372.48C397.693 372.013 397.04 371.353 396.56 370.5C396.093 369.633 395.86 368.633 395.86 367.5C395.86 366.38 396.1 365.393 396.58 364.54C397.073 363.673 397.74 363.013 398.58 362.56C399.42 362.093 400.36 361.86 401.4 361.86C402.44 361.86 403.38 362.093 404.22 362.56C405.06 363.013 405.72 363.667 406.2 364.52C406.693 365.373 406.94 366.367 406.94 367.5C406.94 368.633 406.687 369.633 406.18 370.5C405.687 371.353 405.013 372.013 404.16 372.48C403.307 372.947 402.36 373.18 401.32 373.18ZM401.32 371.58C401.973 371.58 402.587 371.427 403.16 371.12C403.733 370.813 404.193 370.353 404.54 369.74C404.9 369.127 405.08 368.38 405.08 367.5C405.08 366.62 404.907 365.873 404.56 365.26C404.213 364.647 403.76 364.193 403.2 363.9C402.64 363.593 402.033 363.44 401.38 363.44C400.713 363.44 400.1 363.593 399.54 363.9C398.993 364.193 398.553 364.647 398.22 365.26C397.887 365.873 397.72 366.62 397.72 367.5C397.72 368.393 397.88 369.147 398.2 369.76C398.533 370.373 398.973 370.833 399.52 371.14C400.067 371.433 400.667 371.58 401.32 371.58ZM408.653 367.48C408.653 366.36 408.88 365.38 409.333 364.54C409.786 363.687 410.406 363.027 411.193 362.56C411.993 362.093 412.88 361.86 413.853 361.86C414.813 361.86 415.646 362.067 416.353 362.48C417.06 362.893 417.586 363.413 417.933 364.04V362.04H419.773V373H417.933V370.96C417.573 371.6 417.033 372.133 416.313 372.56C415.606 372.973 414.78 373.18 413.833 373.18C412.86 373.18 411.98 372.94 411.193 372.46C410.406 371.98 409.786 371.307 409.333 370.44C408.88 369.573 408.653 368.587 408.653 367.48ZM417.933 367.5C417.933 366.673 417.766 365.953 417.433 365.34C417.1 364.727 416.646 364.26 416.073 363.94C415.513 363.607 414.893 363.44 414.213 363.44C413.533 363.44 412.913 363.6 412.353 363.92C411.793 364.24 411.346 364.707 411.013 365.32C410.68 365.933 410.513 366.653 410.513 367.48C410.513 368.32 410.68 369.053 411.013 369.68C411.346 370.293 411.793 370.767 412.353 371.1C412.913 371.42 413.533 371.58 414.213 371.58C414.893 371.58 415.513 371.42 416.073 371.1C416.646 370.767 417.1 370.293 417.433 369.68C417.766 369.053 417.933 368.327 417.933 367.5ZM423.789 360.26C423.442 360.26 423.149 360.14 422.909 359.9C422.669 359.66 422.549 359.367 422.549 359.02C422.549 358.673 422.669 358.38 422.909 358.14C423.149 357.9 423.442 357.78 423.789 357.78C424.122 357.78 424.402 357.9 424.629 358.14C424.869 358.38 424.989 358.673 424.989 359.02C424.989 359.367 424.869 359.66 424.629 359.9C424.402 360.14 424.122 360.26 423.789 360.26ZM424.669 362.04V373H422.849V362.04H424.669ZM431.65 373.18C430.81 373.18 430.057 373.04 429.39 372.76C428.724 372.467 428.197 372.067 427.81 371.56C427.424 371.04 427.21 370.447 427.17 369.78H429.05C429.104 370.327 429.357 370.773 429.81 371.12C430.277 371.467 430.884 371.64 431.63 371.64C432.324 371.64 432.87 371.487 433.27 371.18C433.67 370.873 433.87 370.487 433.87 370.02C433.87 369.54 433.657 369.187 433.23 368.96C432.804 368.72 432.144 368.487 431.25 368.26C430.437 368.047 429.77 367.833 429.25 367.62C428.744 367.393 428.304 367.067 427.93 366.64C427.57 366.2 427.39 365.627 427.39 364.92C427.39 364.36 427.557 363.847 427.89 363.38C428.224 362.913 428.697 362.547 429.31 362.28C429.924 362 430.624 361.86 431.41 361.86C432.624 361.86 433.604 362.167 434.35 362.78C435.097 363.393 435.497 364.233 435.55 365.3H433.73C433.69 364.727 433.457 364.267 433.03 363.92C432.617 363.573 432.057 363.4 431.35 363.4C430.697 363.4 430.177 363.54 429.79 363.82C429.404 364.1 429.21 364.467 429.21 364.92C429.21 365.28 429.324 365.58 429.55 365.82C429.79 366.047 430.084 366.233 430.43 366.38C430.79 366.513 431.284 366.667 431.91 366.84C432.697 367.053 433.337 367.267 433.83 367.48C434.324 367.68 434.744 367.987 435.09 368.4C435.45 368.813 435.637 369.353 435.65 370.02C435.65 370.62 435.484 371.16 435.15 371.64C434.817 372.12 434.344 372.5 433.73 372.78C433.13 373.047 432.437 373.18 431.65 373.18Z" fill="black"/>
<path d="M227.917 482.9H221.837L220.717 486H218.797L223.837 472.14H225.937L230.957 486H229.037L227.917 482.9ZM227.397 481.42L224.877 474.38L222.357 481.42H227.397ZM232.473 480.48C232.473 479.36 232.7 478.38 233.153 477.54C233.607 476.687 234.227 476.027 235.013 475.56C235.813 475.093 236.707 474.86 237.693 474.86C238.547 474.86 239.34 475.06 240.073 475.46C240.807 475.847 241.367 476.36 241.753 477V471.2H243.593V486H241.753V483.94C241.393 484.593 240.86 485.133 240.153 485.56C239.447 485.973 238.62 486.18 237.673 486.18C236.7 486.18 235.813 485.94 235.013 485.46C234.227 484.98 233.607 484.307 233.153 483.44C232.7 482.573 232.473 481.587 232.473 480.48ZM241.753 480.5C241.753 479.673 241.587 478.953 241.253 478.34C240.92 477.727 240.467 477.26 239.893 476.94C239.333 476.607 238.713 476.44 238.033 476.44C237.353 476.44 236.733 476.6 236.173 476.92C235.613 477.24 235.167 477.707 234.833 478.32C234.5 478.933 234.333 479.653 234.333 480.48C234.333 481.32 234.5 482.053 234.833 482.68C235.167 483.293 235.613 483.767 236.173 484.1C236.733 484.42 237.353 484.58 238.033 484.58C238.713 484.58 239.333 484.42 239.893 484.1C240.467 483.767 240.92 483.293 241.253 482.68C241.587 482.053 241.753 481.327 241.753 480.5ZM245.989 480.5C245.989 479.367 246.216 478.38 246.669 477.54C247.122 476.687 247.749 476.027 248.549 475.56C249.362 475.093 250.289 474.86 251.329 474.86C252.676 474.86 253.782 475.187 254.649 475.84C255.529 476.493 256.109 477.4 256.389 478.56H254.429C254.242 477.893 253.876 477.367 253.329 476.98C252.796 476.593 252.129 476.4 251.329 476.4C250.289 476.4 249.449 476.76 248.809 477.48C248.169 478.187 247.849 479.193 247.849 480.5C247.849 481.82 248.169 482.84 248.809 483.56C249.449 484.28 250.289 484.64 251.329 484.64C252.129 484.64 252.796 484.453 253.329 484.08C253.862 483.707 254.229 483.173 254.429 482.48H256.389C256.096 483.6 255.509 484.5 254.629 485.18C253.749 485.847 252.649 486.18 251.329 486.18C250.289 486.18 249.362 485.947 248.549 485.48C247.749 485.013 247.122 484.353 246.669 483.5C246.216 482.647 245.989 481.647 245.989 480.5ZM259.757 473.26C259.411 473.26 259.117 473.14 258.877 472.9C258.637 472.66 258.517 472.367 258.517 472.02C258.517 471.673 258.637 471.38 258.877 471.14C259.117 470.9 259.411 470.78 259.757 470.78C260.091 470.78 260.371 470.9 260.597 471.14C260.837 471.38 260.957 471.673 260.957 472.02C260.957 472.367 260.837 472.66 260.597 472.9C260.371 473.14 260.091 473.26 259.757 473.26ZM260.637 475.04V486H258.817V475.04H260.637ZM268.519 486.18C267.493 486.18 266.559 485.947 265.719 485.48C264.893 485.013 264.239 484.353 263.759 483.5C263.293 482.633 263.059 481.633 263.059 480.5C263.059 479.38 263.299 478.393 263.779 477.54C264.273 476.673 264.939 476.013 265.779 475.56C266.619 475.093 267.559 474.86 268.599 474.86C269.639 474.86 270.579 475.093 271.419 475.56C272.259 476.013 272.919 476.667 273.399 477.52C273.893 478.373 274.139 479.367 274.139 480.5C274.139 481.633 273.886 482.633 273.379 483.5C272.886 484.353 272.213 485.013 271.359 485.48C270.506 485.947 269.559 486.18 268.519 486.18ZM268.519 484.58C269.173 484.58 269.786 484.427 270.359 484.12C270.933 483.813 271.393 483.353 271.739 482.74C272.099 482.127 272.279 481.38 272.279 480.5C272.279 479.62 272.106 478.873 271.759 478.26C271.413 477.647 270.959 477.193 270.399 476.9C269.839 476.593 269.233 476.44 268.579 476.44C267.913 476.44 267.299 476.593 266.739 476.9C266.193 477.193 265.753 477.647 265.419 478.26C265.086 478.873 264.919 479.62 264.919 480.5C264.919 481.393 265.079 482.147 265.399 482.76C265.733 483.373 266.173 483.833 266.719 484.14C267.266 484.433 267.866 484.58 268.519 484.58ZM281.872 474.84C283.206 474.84 284.286 475.247 285.112 476.06C285.939 476.86 286.352 478.02 286.352 479.54V486H284.552V479.8C284.552 478.707 284.279 477.873 283.732 477.3C283.186 476.713 282.439 476.42 281.492 476.42C280.532 476.42 279.766 476.72 279.192 477.32C278.632 477.92 278.352 478.793 278.352 479.94V486H276.532V475.04H278.352V476.6C278.712 476.04 279.199 475.607 279.812 475.3C280.439 474.993 281.126 474.84 281.872 474.84ZM288.645 480.48C288.645 479.36 288.872 478.38 289.325 477.54C289.778 476.687 290.398 476.027 291.185 475.56C291.985 475.093 292.872 474.86 293.845 474.86C294.805 474.86 295.638 475.067 296.345 475.48C297.052 475.893 297.578 476.413 297.925 477.04V475.04H299.765V486H297.925V483.96C297.565 484.6 297.025 485.133 296.305 485.56C295.598 485.973 294.772 486.18 293.825 486.18C292.852 486.18 291.972 485.94 291.185 485.46C290.398 484.98 289.778 484.307 289.325 483.44C288.872 482.573 288.645 481.587 288.645 480.48ZM297.925 480.5C297.925 479.673 297.758 478.953 297.425 478.34C297.092 477.727 296.638 477.26 296.065 476.94C295.505 476.607 294.885 476.44 294.205 476.44C293.525 476.44 292.905 476.6 292.345 476.92C291.785 477.24 291.338 477.707 291.005 478.32C290.672 478.933 290.505 479.653 290.505 480.48C290.505 481.32 290.672 482.053 291.005 482.68C291.338 483.293 291.785 483.767 292.345 484.1C292.905 484.42 293.525 484.58 294.205 484.58C294.885 484.58 295.505 484.42 296.065 484.1C296.638 483.767 297.092 483.293 297.425 482.68C297.758 482.053 297.925 481.327 297.925 480.5ZM304.661 476.82C304.981 476.193 305.434 475.707 306.021 475.36C306.621 475.013 307.347 474.84 308.201 474.84V476.72H307.721C305.681 476.72 304.661 477.827 304.661 480.04V486H302.841V475.04H304.661V476.82ZM317.454 473.54V478.2H322.534V479.7H317.454V484.5H323.134V486H315.634V472.04H323.134V473.54H317.454ZM331.228 474.84C332.561 474.84 333.641 475.247 334.468 476.06C335.294 476.86 335.708 478.02 335.708 479.54V486H333.908V479.8C333.908 478.707 333.634 477.873 333.088 477.3C332.541 476.713 331.794 476.42 330.848 476.42C329.888 476.42 329.121 476.72 328.548 477.32C327.988 477.92 327.708 478.793 327.708 479.94V486H325.888V475.04H327.708V476.6C328.068 476.04 328.554 475.607 329.168 475.3C329.794 474.993 330.481 474.84 331.228 474.84ZM338.001 480.48C338.001 479.36 338.227 478.38 338.681 477.54C339.134 476.687 339.754 476.027 340.541 475.56C341.341 475.093 342.234 474.86 343.221 474.86C344.074 474.86 344.867 475.06 345.601 475.46C346.334 475.847 346.894 476.36 347.281 477V471.2H349.121V486H347.281V483.94C346.921 484.593 346.387 485.133 345.681 485.56C344.974 485.973 344.147 486.18 343.201 486.18C342.227 486.18 341.341 485.94 340.541 485.46C339.754 484.98 339.134 484.307 338.681 483.44C338.227 482.573 338.001 481.587 338.001 480.48ZM347.281 480.5C347.281 479.673 347.114 478.953 346.781 478.34C346.447 477.727 345.994 477.26 345.421 476.94C344.861 476.607 344.241 476.44 343.561 476.44C342.881 476.44 342.261 476.6 341.701 476.92C341.141 477.24 340.694 477.707 340.361 478.32C340.027 478.933 339.861 479.653 339.861 480.48C339.861 481.32 340.027 482.053 340.361 482.68C340.694 483.293 341.141 483.767 341.701 484.1C342.261 484.42 342.881 484.58 343.561 484.58C344.241 484.58 344.861 484.42 345.421 484.1C345.994 483.767 346.447 483.293 346.781 482.68C347.114 482.053 347.281 481.327 347.281 480.5ZM362.196 480.1C362.196 480.447 362.176 480.813 362.136 481.2H353.376C353.443 482.28 353.81 483.127 354.476 483.74C355.156 484.34 355.976 484.64 356.936 484.64C357.723 484.64 358.376 484.46 358.896 484.1C359.43 483.727 359.803 483.233 360.016 482.62H361.976C361.683 483.673 361.096 484.533 360.216 485.2C359.336 485.853 358.243 486.18 356.936 486.18C355.896 486.18 354.963 485.947 354.136 485.48C353.323 485.013 352.683 484.353 352.216 483.5C351.75 482.633 351.516 481.633 351.516 480.5C351.516 479.367 351.743 478.373 352.196 477.52C352.65 476.667 353.283 476.013 354.096 475.56C354.923 475.093 355.87 474.86 356.936 474.86C357.976 474.86 358.896 475.087 359.696 475.54C360.496 475.993 361.11 476.62 361.536 477.42C361.976 478.207 362.196 479.1 362.196 480.1ZM360.316 479.72C360.316 479.027 360.163 478.433 359.856 477.94C359.55 477.433 359.13 477.053 358.596 476.8C358.076 476.533 357.496 476.4 356.856 476.4C355.936 476.4 355.15 476.693 354.496 477.28C353.856 477.867 353.49 478.68 353.396 479.72H360.316ZM366.419 476.82C366.739 476.193 367.192 475.707 367.779 475.36C368.379 475.013 369.105 474.84 369.959 474.84V476.72H369.479C367.439 476.72 366.419 477.827 366.419 480.04V486H364.599V475.04H366.419V476.82ZM382.06 480.1C382.06 480.447 382.04 480.813 382 481.2H373.24C373.306 482.28 373.673 483.127 374.34 483.74C375.02 484.34 375.84 484.64 376.8 484.64C377.586 484.64 378.24 484.46 378.76 484.1C379.293 483.727 379.666 483.233 379.88 482.62H381.84C381.546 483.673 380.96 484.533 380.08 485.2C379.2 485.853 378.106 486.18 376.8 486.18C375.76 486.18 374.826 485.947 374 485.48C373.186 485.013 372.546 484.353 372.08 483.5C371.613 482.633 371.38 481.633 371.38 480.5C371.38 479.367 371.606 478.373 372.06 477.52C372.513 476.667 373.146 476.013 373.96 475.56C374.786 475.093 375.733 474.86 376.8 474.86C377.84 474.86 378.76 475.087 379.56 475.54C380.36 475.993 380.973 476.62 381.4 477.42C381.84 478.207 382.06 479.1 382.06 480.1ZM380.18 479.72C380.18 479.027 380.026 478.433 379.72 477.94C379.413 477.433 378.993 477.053 378.46 476.8C377.94 476.533 377.36 476.4 376.72 476.4C375.8 476.4 375.013 476.693 374.36 477.28C373.72 477.867 373.353 478.68 373.26 479.72H380.18ZM389.122 484.64C389.922 484.64 390.589 484.453 391.122 484.08C391.655 483.707 392.022 483.173 392.222 482.48H394.182C393.915 483.52 393.389 484.373 392.602 485.04C391.829 485.693 390.855 486.067 389.682 486.16V487.16C390.469 487.147 391.095 487.313 391.562 487.66C392.029 488.007 392.262 488.5 392.262 489.14C392.262 489.767 392.035 490.267 391.582 490.64C391.129 491.013 390.542 491.2 389.822 491.2H387.522V490.02H389.462C389.902 490.02 390.222 489.953 390.422 489.82C390.635 489.687 390.742 489.46 390.742 489.14C390.742 488.833 390.635 488.613 390.422 488.48C390.222 488.347 389.902 488.28 389.462 488.28H388.462V486.14C387.542 486.047 386.729 485.76 386.022 485.28C385.315 484.787 384.762 484.133 384.362 483.32C383.975 482.493 383.782 481.553 383.782 480.5C383.782 479.367 384.009 478.38 384.462 477.54C384.915 476.687 385.542 476.027 386.342 475.56C387.155 475.093 388.082 474.86 389.122 474.86C390.469 474.86 391.575 475.187 392.442 475.84C393.322 476.493 393.902 477.4 394.182 478.56H392.222C392.035 477.893 391.669 477.367 391.122 476.98C390.589 476.593 389.922 476.4 389.122 476.4C388.082 476.4 387.242 476.76 386.602 477.48C385.962 478.187 385.642 479.193 385.642 480.5C385.642 481.82 385.962 482.84 386.602 483.56C387.242 484.28 388.082 484.64 389.122 484.64ZM401.39 486.18C400.364 486.18 399.43 485.947 398.59 485.48C397.764 485.013 397.11 484.353 396.63 483.5C396.164 482.633 395.93 481.633 395.93 480.5C395.93 479.38 396.17 478.393 396.65 477.54C397.144 476.673 397.81 476.013 398.65 475.56C399.49 475.093 400.43 474.86 401.47 474.86C402.51 474.86 403.45 475.093 404.29 475.56C405.13 476.013 405.79 476.667 406.27 477.52C406.764 478.373 407.01 479.367 407.01 480.5C407.01 481.633 406.757 482.633 406.25 483.5C405.757 484.353 405.084 485.013 404.23 485.48C403.377 485.947 402.43 486.18 401.39 486.18ZM401.39 484.58C402.044 484.58 402.657 484.427 403.23 484.12C403.804 483.813 404.264 483.353 404.61 482.74C404.97 482.127 405.15 481.38 405.15 480.5C405.15 479.62 404.977 478.873 404.63 478.26C404.284 477.647 403.83 477.193 403.27 476.9C402.71 476.593 402.104 476.44 401.45 476.44C400.784 476.44 400.17 476.593 399.61 476.9C399.064 477.193 398.624 477.647 398.29 478.26C397.957 478.873 397.79 479.62 397.79 480.5C397.79 481.393 397.95 482.147 398.27 482.76C398.604 483.373 399.044 483.833 399.59 484.14C400.137 484.433 400.737 484.58 401.39 484.58Z" fill="black"/>
<path d="M227.15 600L223.83 594.3H221.63V600H219.81V586.06H224.31C225.363 586.06 226.25 586.24 226.97 586.6C227.703 586.96 228.25 587.447 228.61 588.06C228.97 588.673 229.15 589.373 229.15 590.16C229.15 591.12 228.87 591.967 228.31 592.7C227.763 593.433 226.936 593.92 225.83 594.16L229.33 600H227.15ZM221.63 592.84H224.31C225.296 592.84 226.036 592.6 226.53 592.12C227.023 591.627 227.27 590.973 227.27 590.16C227.27 589.333 227.023 588.693 226.53 588.24C226.05 587.787 225.31 587.56 224.31 587.56H221.63V592.84ZM241.978 594.1C241.978 594.447 241.958 594.813 241.918 595.2H233.158C233.224 596.28 233.591 597.127 234.258 597.74C234.938 598.34 235.758 598.64 236.718 598.64C237.504 598.64 238.158 598.46 238.678 598.1C239.211 597.727 239.584 597.233 239.798 596.62H241.758C241.464 597.673 240.878 598.533 239.998 599.2C239.118 599.853 238.024 600.18 236.718 600.18C235.678 600.18 234.744 599.947 233.918 599.48C233.104 599.013 232.464 598.353 231.998 597.5C231.531 596.633 231.298 595.633 231.298 594.5C231.298 593.367 231.524 592.373 231.978 591.52C232.431 590.667 233.064 590.013 233.878 589.56C234.704 589.093 235.651 588.86 236.718 588.86C237.758 588.86 238.678 589.087 239.478 589.54C240.278 589.993 240.891 590.62 241.318 591.42C241.758 592.207 241.978 593.1 241.978 594.1ZM240.098 593.72C240.098 593.027 239.944 592.433 239.638 591.94C239.331 591.433 238.911 591.053 238.378 590.8C237.858 590.533 237.278 590.4 236.638 590.4C235.718 590.4 234.931 590.693 234.278 591.28C233.638 591.867 233.271 592.68 233.178 593.72H240.098ZM248.46 598.32L251.86 589.04H253.8L249.5 600H247.38L243.08 589.04H245.04L248.46 598.32ZM256.531 587.26C256.184 587.26 255.891 587.14 255.651 586.9C255.411 586.66 255.291 586.367 255.291 586.02C255.291 585.673 255.411 585.38 255.651 585.14C255.891 584.9 256.184 584.78 256.531 584.78C256.864 584.78 257.144 584.9 257.371 585.14C257.611 585.38 257.731 585.673 257.731 586.02C257.731 586.367 257.611 586.66 257.371 586.9C257.144 587.14 256.864 587.26 256.531 587.26ZM257.411 589.04V600H255.591V589.04H257.411ZM264.393 600.18C263.553 600.18 262.799 600.04 262.133 599.76C261.466 599.467 260.939 599.067 260.553 598.56C260.166 598.04 259.953 597.447 259.913 596.78H261.793C261.846 597.327 262.099 597.773 262.553 598.12C263.019 598.467 263.626 598.64 264.373 598.64C265.066 598.64 265.613 598.487 266.013 598.18C266.413 597.873 266.613 597.487 266.613 597.02C266.613 596.54 266.399 596.187 265.973 595.96C265.546 595.72 264.886 595.487 263.993 595.26C263.179 595.047 262.513 594.833 261.993 594.62C261.486 594.393 261.046 594.067 260.673 593.64C260.313 593.2 260.133 592.627 260.133 591.92C260.133 591.36 260.299 590.847 260.633 590.38C260.966 589.913 261.439 589.547 262.053 589.28C262.666 589 263.366 588.86 264.153 588.86C265.366 588.86 266.346 589.167 267.093 589.78C267.839 590.393 268.239 591.233 268.293 592.3H266.473C266.433 591.727 266.199 591.267 265.773 590.92C265.359 590.573 264.799 590.4 264.093 590.4C263.439 590.4 262.919 590.54 262.533 590.82C262.146 591.1 261.953 591.467 261.953 591.92C261.953 592.28 262.066 592.58 262.293 592.82C262.533 593.047 262.826 593.233 263.173 593.38C263.533 593.513 264.026 593.667 264.653 593.84C265.439 594.053 266.079 594.267 266.573 594.48C267.066 594.68 267.486 594.987 267.833 595.4C268.193 595.813 268.379 596.353 268.393 597.02C268.393 597.62 268.226 598.16 267.893 598.64C267.559 599.12 267.086 599.5 266.473 599.78C265.873 600.047 265.179 600.18 264.393 600.18ZM270.282 594.48C270.282 593.36 270.509 592.38 270.962 591.54C271.415 590.687 272.035 590.027 272.822 589.56C273.622 589.093 274.509 588.86 275.482 588.86C276.442 588.86 277.275 589.067 277.982 589.48C278.689 589.893 279.215 590.413 279.562 591.04V589.04H281.402V600H279.562V597.96C279.202 598.6 278.662 599.133 277.942 599.56C277.235 599.973 276.409 600.18 275.462 600.18C274.489 600.18 273.609 599.94 272.822 599.46C272.035 598.98 271.415 598.307 270.962 597.44C270.509 596.573 270.282 595.587 270.282 594.48ZM279.562 594.5C279.562 593.673 279.395 592.953 279.062 592.34C278.729 591.727 278.275 591.26 277.702 590.94C277.142 590.607 276.522 590.44 275.842 590.44C275.162 590.44 274.542 590.6 273.982 590.92C273.422 591.24 272.975 591.707 272.642 592.32C272.309 592.933 272.142 593.653 272.142 594.48C272.142 595.32 272.309 596.053 272.642 596.68C272.975 597.293 273.422 597.767 273.982 598.1C274.542 598.42 275.162 598.58 275.842 598.58C276.522 598.58 277.142 598.42 277.702 598.1C278.275 597.767 278.729 597.293 279.062 596.68C279.395 596.053 279.562 595.327 279.562 594.5ZM273.262 587.86C273.355 587.18 273.575 586.66 273.922 586.3C274.282 585.94 274.729 585.76 275.262 585.76C275.515 585.76 275.729 585.807 275.902 585.9C276.089 585.98 276.309 586.1 276.562 586.26C276.749 586.393 276.915 586.5 277.062 586.58C277.209 586.647 277.369 586.68 277.542 586.68C277.769 586.68 277.962 586.607 278.122 586.46C278.282 586.313 278.382 586.1 278.422 585.82H279.462C279.382 586.487 279.162 587 278.802 587.36C278.442 587.72 277.995 587.9 277.462 587.9C277.209 587.9 276.982 587.86 276.782 587.78C276.595 587.687 276.382 587.553 276.142 587.38C275.929 587.247 275.755 587.147 275.622 587.08C275.502 587.013 275.355 586.98 275.182 586.98C274.955 586.98 274.762 587.053 274.602 587.2C274.455 587.347 274.362 587.567 274.322 587.86H273.262ZM289.258 600.18C288.231 600.18 287.298 599.947 286.458 599.48C285.631 599.013 284.978 598.353 284.498 597.5C284.031 596.633 283.798 595.633 283.798 594.5C283.798 593.38 284.038 592.393 284.518 591.54C285.011 590.673 285.678 590.013 286.518 589.56C287.358 589.093 288.298 588.86 289.338 588.86C290.378 588.86 291.318 589.093 292.158 589.56C292.998 590.013 293.658 590.667 294.138 591.52C294.631 592.373 294.878 593.367 294.878 594.5C294.878 595.633 294.624 596.633 294.118 597.5C293.624 598.353 292.951 599.013 292.098 599.48C291.244 599.947 290.298 600.18 289.258 600.18ZM289.258 598.58C289.911 598.58 290.524 598.427 291.098 598.12C291.671 597.813 292.131 597.353 292.478 596.74C292.838 596.127 293.018 595.38 293.018 594.5C293.018 593.62 292.844 592.873 292.498 592.26C292.151 591.647 291.698 591.193 291.138 590.9C290.578 590.593 289.971 590.44 289.318 590.44C288.651 590.44 288.038 590.593 287.478 590.9C286.931 591.193 286.491 591.647 286.158 592.26C285.824 592.873 285.658 593.62 285.658 594.5C285.658 595.393 285.818 596.147 286.138 596.76C286.471 597.373 286.911 597.833 287.458 598.14C288.004 598.433 288.604 598.58 289.258 598.58Z" fill="black"/>
</g>
</g>
<defs>
<clipPath id="clip0_19_2">
<rect width="2207" height="1024" fill="white"/>
</clipPath>
<clipPath id="clip1_19_2">
<rect width="2207" height="1047" fill="white"/>
</clipPath>
</defs>
</svg>
