<svg width="2207" height="1024" viewBox="0 0 2207 1024" fill="none" xmlns="http://www.w3.org/2000/svg">
<g clip-path="url(#clip0_19_3)">
<path d="M2219.63 804C2453.6 804 2643.27 637.226 2643.27 431.5C2643.27 225.774 2453.6 59 2219.63 59C1985.67 59 1796 225.774 1796 431.5C1796 637.226 1985.67 804 2219.63 804Z" stroke="#FFD024" stroke-opacity="0.63" stroke-width="2"/>
<path d="M2220.07 715.062C2397.93 715.062 2542.11 588.107 2542.11 431.5C2542.11 274.893 2397.93 147.938 2220.07 147.938C2042.2 147.938 1898.02 274.893 1898.02 431.5C1898.02 588.107 2042.2 715.062 2220.07 715.062Z" stroke="#0077E4" stroke-width="2"/>
<path d="M2219.63 627.279C2342.35 627.279 2441.82 539.626 2441.82 431.5C2441.82 323.374 2342.35 235.721 2219.63 235.721C2096.92 235.721 1997.44 323.374 1997.44 431.5C1997.44 539.626 2096.92 627.279 2219.63 627.279Z" stroke="#FFC800"/>
<path d="M2219.2 557.977C2298.22 557.977 2362.29 501.61 2362.29 432.078C2362.29 362.545 2298.22 306.178 2219.2 306.178C2140.18 306.178 2076.12 362.545 2076.12 432.078C2076.12 501.61 2140.18 557.977 2219.2 557.977Z" stroke="#0077E4"/>
<path d="M84.3913 1096C175.154 1096 248.732 1040.71 248.732 972.5C248.732 904.293 175.154 849 84.3913 849C-6.37144 849 -79.9492 904.293 -79.9492 972.5C-79.9492 1040.71 -6.37144 1096 84.3913 1096Z" stroke="#0077E4"/>
<path d="M84.3909 1141C208.951 1141 309.927 1065.56 309.927 972.5C309.927 879.44 208.951 804 84.3909 804C-40.1694 804 -141.146 879.44 -141.146 972.5C-141.146 1065.56 -40.1694 1141 84.3909 1141Z" stroke="#FFC800"/>
<path d="M1103.5 -11.5C1103.5 -105.112 1016.44 -181 909.055 -181C801.666 -181 714.61 -105.112 714.61 -11.5C714.61 82.1123 801.666 158 909.055 158C1016.44 158 1103.5 82.1123 1103.5 -11.5Z" stroke="#FFD024" stroke-opacity="0.63" stroke-width="2"/>
<path d="M1056.12 -11.5C1056.12 -82.4686 990.057 -140 908.562 -140C827.066 -140 761 -82.4686 761 -11.5C761 59.4686 827.066 117 908.562 117C990.057 117 1056.12 59.4686 1056.12 -11.5Z" stroke="#0077E4" stroke-width="2"/>
<path d="M1010.72 -11.5C1010.72 -60.9295 965.202 -101 909.055 -101C852.907 -101 807.391 -60.9295 807.391 -11.5C807.391 37.9295 852.907 78 909.055 78C965.202 78 1010.72 37.9295 1010.72 -11.5Z" stroke="#FFC800"/>
<path d="M975.186 -11.5C975.186 -42.7041 945.799 -68 909.549 -68C873.298 -68 843.911 -42.7041 843.911 -11.5C843.911 19.7041 873.298 45 909.549 45C945.799 45 975.186 19.7041 975.186 -11.5Z" stroke="#0077E4"/>
<circle cx="196.5" cy="261.5" r="17.5" fill="#FFC800"/>
<line x1="198.5" y1="279" x2="198.5" y2="609" stroke="black" stroke-opacity="0.49"/>
<circle cx="196.5" cy="377.5" r="17.5" fill="#0077E4"/>
<circle cx="196.5" cy="493.5" r="17.5" fill="#0077E4"/>
<circle cx="196.5" cy="609.5" r="17.5" fill="#0077E4"/>
<path d="M230.116 261.02C230.116 259.66 230.423 258.44 231.036 257.36C231.649 256.267 232.483 255.413 233.536 254.8C234.603 254.187 235.783 253.88 237.076 253.88C238.596 253.88 239.923 254.247 241.056 254.98C242.189 255.713 243.016 256.753 243.536 258.1H241.356C240.969 257.26 240.409 256.613 239.676 256.16C238.956 255.707 238.089 255.48 237.076 255.48C236.103 255.48 235.229 255.707 234.456 256.16C233.683 256.613 233.076 257.26 232.636 258.1C232.196 258.927 231.976 259.9 231.976 261.02C231.976 262.127 232.196 263.1 232.636 263.94C233.076 264.767 233.683 265.407 234.456 265.86C235.229 266.313 236.103 266.54 237.076 266.54C238.089 266.54 238.956 266.32 239.676 265.88C240.409 265.427 240.969 264.78 241.356 263.94H243.536C243.016 265.273 242.189 266.307 241.056 267.04C239.923 267.76 238.596 268.12 237.076 268.12C235.783 268.12 234.603 267.82 233.536 267.22C232.483 266.607 231.649 265.76 231.036 264.68C230.423 263.6 230.116 262.38 230.116 261.02ZM248.065 258.82C248.385 258.193 248.838 257.707 249.425 257.36C250.025 257.013 250.752 256.84 251.605 256.84V258.72H251.125C249.085 258.72 248.065 259.827 248.065 262.04V268H246.245V257.04H248.065V258.82ZM254.646 255.26C254.299 255.26 254.006 255.14 253.766 254.9C253.526 254.66 253.406 254.367 253.406 254.02C253.406 253.673 253.526 253.38 253.766 253.14C254.006 252.9 254.299 252.78 254.646 252.78C254.979 252.78 255.259 252.9 255.486 253.14C255.726 253.38 255.846 253.673 255.846 254.02C255.846 254.367 255.726 254.66 255.486 254.9C255.259 255.14 254.979 255.26 254.646 255.26ZM255.526 257.04V268H253.706V257.04H255.526ZM268.628 262.1C268.628 262.447 268.608 262.813 268.568 263.2H259.808C259.875 264.28 260.241 265.127 260.908 265.74C261.588 266.34 262.408 266.64 263.368 266.64C264.155 266.64 264.808 266.46 265.328 266.1C265.861 265.727 266.235 265.233 266.448 264.62H268.408C268.115 265.673 267.528 266.533 266.648 267.2C265.768 267.853 264.675 268.18 263.368 268.18C262.328 268.18 261.395 267.947 260.568 267.48C259.755 267.013 259.115 266.353 258.648 265.5C258.181 264.633 257.948 263.633 257.948 262.5C257.948 261.367 258.175 260.373 258.628 259.52C259.081 258.667 259.715 258.013 260.528 257.56C261.355 257.093 262.301 256.86 263.368 256.86C264.408 256.86 265.328 257.087 266.128 257.54C266.928 257.993 267.541 258.62 267.968 259.42C268.408 260.207 268.628 261.1 268.628 262.1ZM266.748 261.72C266.748 261.027 266.595 260.433 266.288 259.94C265.981 259.433 265.561 259.053 265.028 258.8C264.508 258.533 263.928 258.4 263.288 258.4C262.368 258.4 261.581 258.693 260.928 259.28C260.288 259.867 259.921 260.68 259.828 261.72H266.748ZM280.242 268.18C279.402 268.18 278.649 268.04 277.982 267.76C277.316 267.467 276.789 267.067 276.402 266.56C276.016 266.04 275.802 265.447 275.762 264.78H277.642C277.696 265.327 277.949 265.773 278.402 266.12C278.869 266.467 279.476 266.64 280.222 266.64C280.916 266.64 281.462 266.487 281.862 266.18C282.262 265.873 282.462 265.487 282.462 265.02C282.462 264.54 282.249 264.187 281.822 263.96C281.396 263.72 280.736 263.487 279.842 263.26C279.029 263.047 278.362 262.833 277.842 262.62C277.336 262.393 276.896 262.067 276.522 261.64C276.162 261.2 275.982 260.627 275.982 259.92C275.982 259.36 276.149 258.847 276.482 258.38C276.816 257.913 277.289 257.547 277.902 257.28C278.516 257 279.216 256.86 280.002 256.86C281.216 256.86 282.196 257.167 282.942 257.78C283.689 258.393 284.089 259.233 284.142 260.3H282.322C282.282 259.727 282.049 259.267 281.622 258.92C281.209 258.573 280.649 258.4 279.942 258.4C279.289 258.4 278.769 258.54 278.382 258.82C277.996 259.1 277.802 259.467 277.802 259.92C277.802 260.28 277.916 260.58 278.142 260.82C278.382 261.047 278.676 261.233 279.022 261.38C279.382 261.513 279.876 261.667 280.502 261.84C281.289 262.053 281.929 262.267 282.422 262.48C282.916 262.68 283.336 262.987 283.682 263.4C284.042 263.813 284.229 264.353 284.242 265.02C284.242 265.62 284.076 266.16 283.742 266.64C283.409 267.12 282.936 267.5 282.322 267.78C281.722 268.047 281.029 268.18 280.242 268.18ZM296.811 262.1C296.811 262.447 296.791 262.813 296.751 263.2H287.991C288.058 264.28 288.425 265.127 289.091 265.74C289.771 266.34 290.591 266.64 291.551 266.64C292.338 266.64 292.991 266.46 293.511 266.1C294.045 265.727 294.418 265.233 294.631 264.62H296.591C296.298 265.673 295.711 266.533 294.831 267.2C293.951 267.853 292.858 268.18 291.551 268.18C290.511 268.18 289.578 267.947 288.751 267.48C287.938 267.013 287.298 266.353 286.831 265.5C286.365 264.633 286.131 263.633 286.131 262.5C286.131 261.367 286.358 260.373 286.811 259.52C287.265 258.667 287.898 258.013 288.711 257.56C289.538 257.093 290.485 256.86 291.551 256.86C292.591 256.86 293.511 257.087 294.311 257.54C295.111 257.993 295.725 258.62 296.151 259.42C296.591 260.207 296.811 261.1 296.811 262.1ZM294.931 261.72C294.931 261.027 294.778 260.433 294.471 259.94C294.165 259.433 293.745 259.053 293.211 258.8C292.691 258.533 292.111 258.4 291.471 258.4C290.551 258.4 289.765 258.693 289.111 259.28C288.471 259.867 288.105 260.68 288.011 261.72H294.931ZM308.934 257.04V268H307.114V266.38C306.767 266.94 306.28 267.38 305.654 267.7C305.04 268.007 304.36 268.16 303.614 268.16C302.76 268.16 301.994 267.987 301.314 267.64C300.634 267.28 300.094 266.747 299.694 266.04C299.307 265.333 299.114 264.473 299.114 263.46V257.04H300.914V263.22C300.914 264.3 301.187 265.133 301.734 265.72C302.28 266.293 303.027 266.58 303.974 266.58C304.947 266.58 305.714 266.28 306.274 265.68C306.834 265.08 307.114 264.207 307.114 263.06V257.04H308.934ZM319.159 253.2V268H317.339V253.2H319.159ZM327.041 268.18C326.014 268.18 325.081 267.947 324.241 267.48C323.414 267.013 322.761 266.353 322.281 265.5C321.814 264.633 321.581 263.633 321.581 262.5C321.581 261.38 321.821 260.393 322.301 259.54C322.794 258.673 323.461 258.013 324.301 257.56C325.141 257.093 326.081 256.86 327.121 256.86C328.161 256.86 329.101 257.093 329.941 257.56C330.781 258.013 331.441 258.667 331.921 259.52C332.414 260.373 332.661 261.367 332.661 262.5C332.661 263.633 332.407 264.633 331.901 265.5C331.407 266.353 330.734 267.013 329.881 267.48C329.027 267.947 328.081 268.18 327.041 268.18ZM327.041 266.58C327.694 266.58 328.307 266.427 328.881 266.12C329.454 265.813 329.914 265.353 330.261 264.74C330.621 264.127 330.801 263.38 330.801 262.5C330.801 261.62 330.627 260.873 330.281 260.26C329.934 259.647 329.481 259.193 328.921 258.9C328.361 258.593 327.754 258.44 327.101 258.44C326.434 258.44 325.821 258.593 325.261 258.9C324.714 259.193 324.274 259.647 323.941 260.26C323.607 260.873 323.441 261.62 323.441 262.5C323.441 263.393 323.601 264.147 323.921 264.76C324.254 265.373 324.694 265.833 325.241 266.14C325.787 266.433 326.387 266.58 327.041 266.58ZM339.574 256.86C340.52 256.86 341.347 257.067 342.054 257.48C342.774 257.893 343.307 258.413 343.654 259.04V257.04H345.494V268.24C345.494 269.24 345.28 270.127 344.854 270.9C344.427 271.687 343.814 272.3 343.014 272.74C342.227 273.18 341.307 273.4 340.254 273.4C338.814 273.4 337.614 273.06 336.654 272.38C335.694 271.7 335.127 270.773 334.954 269.6H336.754C336.954 270.267 337.367 270.8 337.994 271.2C338.62 271.613 339.374 271.82 340.254 271.82C341.254 271.82 342.067 271.507 342.694 270.88C343.334 270.253 343.654 269.373 343.654 268.24V265.94C343.294 266.58 342.76 267.113 342.054 267.54C341.347 267.967 340.52 268.18 339.574 268.18C338.6 268.18 337.714 267.94 336.914 267.46C336.127 266.98 335.507 266.307 335.054 265.44C334.6 264.573 334.374 263.587 334.374 262.48C334.374 261.36 334.6 260.38 335.054 259.54C335.507 258.687 336.127 258.027 336.914 257.56C337.714 257.093 338.6 256.86 339.574 256.86ZM343.654 262.5C343.654 261.673 343.487 260.953 343.154 260.34C342.82 259.727 342.367 259.26 341.794 258.94C341.234 258.607 340.614 258.44 339.934 258.44C339.254 258.44 338.634 258.6 338.074 258.92C337.514 259.24 337.067 259.707 336.734 260.32C336.4 260.933 336.234 261.653 336.234 262.48C336.234 263.32 336.4 264.053 336.734 264.68C337.067 265.293 337.514 265.767 338.074 266.1C338.634 266.42 339.254 266.58 339.934 266.58C340.614 266.58 341.234 266.42 341.794 266.1C342.367 265.767 342.82 265.293 343.154 264.68C343.487 264.053 343.654 263.327 343.654 262.5ZM349.509 255.26C349.163 255.26 348.869 255.14 348.629 254.9C348.389 254.66 348.269 254.367 348.269 254.02C348.269 253.673 348.389 253.38 348.629 253.14C348.869 252.9 349.163 252.78 349.509 252.78C349.843 252.78 350.123 252.9 350.349 253.14C350.589 253.38 350.709 253.673 350.709 254.02C350.709 254.367 350.589 254.66 350.349 254.9C350.123 255.14 349.843 255.26 349.509 255.26ZM350.389 257.04V268H348.569V257.04H350.389ZM358.831 256.84C360.165 256.84 361.245 257.247 362.071 258.06C362.898 258.86 363.311 260.02 363.311 261.54V268H361.511V261.8C361.511 260.707 361.238 259.873 360.691 259.3C360.145 258.713 359.398 258.42 358.451 258.42C357.491 258.42 356.725 258.72 356.151 259.32C355.591 259.92 355.311 260.793 355.311 261.94V268H353.491V257.04H355.311V258.6C355.671 258.04 356.158 257.607 356.771 257.3C357.398 256.993 358.085 256.84 358.831 256.84Z" fill="black"/>
<path d="M232.68 373.06V387H230.86V373.06H232.68ZM241.122 375.84C242.456 375.84 243.536 376.247 244.362 377.06C245.189 377.86 245.602 379.02 245.602 380.54V387H243.802V380.8C243.802 379.707 243.529 378.873 242.982 378.3C242.436 377.713 241.689 377.42 240.742 377.42C239.782 377.42 239.016 377.72 238.442 378.32C237.882 378.92 237.602 379.793 237.602 380.94V387H235.782V376.04H237.602V377.6C237.962 377.04 238.449 376.607 239.062 376.3C239.689 375.993 240.376 375.84 241.122 375.84ZM253.035 377.54H250.735V387H248.915V377.54H247.495V376.04H248.915V375.26C248.915 374.033 249.228 373.14 249.855 372.58C250.495 372.007 251.515 371.72 252.915 371.72V373.24C252.115 373.24 251.548 373.4 251.215 373.72C250.895 374.027 250.735 374.54 250.735 375.26V376.04H253.035V377.54ZM259.937 387.18C258.911 387.18 257.977 386.947 257.137 386.48C256.311 386.013 255.657 385.353 255.177 384.5C254.711 383.633 254.477 382.633 254.477 381.5C254.477 380.38 254.717 379.393 255.197 378.54C255.691 377.673 256.357 377.013 257.197 376.56C258.037 376.093 258.977 375.86 260.017 375.86C261.057 375.86 261.997 376.093 262.837 376.56C263.677 377.013 264.337 377.667 264.817 378.52C265.311 379.373 265.557 380.367 265.557 381.5C265.557 382.633 265.304 383.633 264.797 384.5C264.304 385.353 263.631 386.013 262.777 386.48C261.924 386.947 260.977 387.18 259.937 387.18ZM259.937 385.58C260.591 385.58 261.204 385.427 261.777 385.12C262.351 384.813 262.811 384.353 263.157 383.74C263.517 383.127 263.697 382.38 263.697 381.5C263.697 380.62 263.524 379.873 263.177 379.26C262.831 378.647 262.377 378.193 261.817 377.9C261.257 377.593 260.651 377.44 259.997 377.44C259.331 377.44 258.717 377.593 258.157 377.9C257.611 378.193 257.171 378.647 256.837 379.26C256.504 379.873 256.337 380.62 256.337 381.5C256.337 382.393 256.497 383.147 256.817 383.76C257.151 384.373 257.591 384.833 258.137 385.14C258.684 385.433 259.284 385.58 259.937 385.58ZM269.77 377.82C270.09 377.193 270.543 376.707 271.13 376.36C271.73 376.013 272.457 375.84 273.31 375.84V377.72H272.83C270.79 377.72 269.77 378.827 269.77 381.04V387H267.95V376.04H269.77V377.82ZM288.591 375.84C289.444 375.84 290.204 376.02 290.871 376.38C291.538 376.727 292.064 377.253 292.451 377.96C292.838 378.667 293.031 379.527 293.031 380.54V387H291.231V380.8C291.231 379.707 290.958 378.873 290.411 378.3C289.878 377.713 289.151 377.42 288.231 377.42C287.284 377.42 286.531 377.727 285.971 378.34C285.411 378.94 285.131 379.813 285.131 380.96V387H283.331V380.8C283.331 379.707 283.058 378.873 282.511 378.3C281.978 377.713 281.251 377.42 280.331 377.42C279.384 377.42 278.631 377.727 278.071 378.34C277.511 378.94 277.231 379.813 277.231 380.96V387H275.411V376.04H277.231V377.62C277.591 377.047 278.071 376.607 278.671 376.3C279.284 375.993 279.958 375.84 280.691 375.84C281.611 375.84 282.424 376.047 283.131 376.46C283.838 376.873 284.364 377.48 284.711 378.28C285.018 377.507 285.524 376.907 286.231 376.48C286.938 376.053 287.724 375.84 288.591 375.84ZM295.337 381.48C295.337 380.36 295.563 379.38 296.017 378.54C296.47 377.687 297.09 377.027 297.877 376.56C298.677 376.093 299.563 375.86 300.537 375.86C301.497 375.86 302.33 376.067 303.037 376.48C303.743 376.893 304.27 377.413 304.617 378.04V376.04H306.457V387H304.617V384.96C304.257 385.6 303.717 386.133 302.997 386.56C302.29 386.973 301.463 387.18 300.517 387.18C299.543 387.18 298.663 386.94 297.877 386.46C297.09 385.98 296.47 385.307 296.017 384.44C295.563 383.573 295.337 382.587 295.337 381.48ZM304.617 381.5C304.617 380.673 304.45 379.953 304.117 379.34C303.783 378.727 303.33 378.26 302.757 377.94C302.197 377.607 301.577 377.44 300.897 377.44C300.217 377.44 299.597 377.6 299.037 377.92C298.477 378.24 298.03 378.707 297.697 379.32C297.363 379.933 297.197 380.653 297.197 381.48C297.197 382.32 297.363 383.053 297.697 383.68C298.03 384.293 298.477 384.767 299.037 385.1C299.597 385.42 300.217 385.58 300.897 385.58C301.577 385.58 302.197 385.42 302.757 385.1C303.33 384.767 303.783 384.293 304.117 383.68C304.45 383.053 304.617 382.327 304.617 381.5ZM314.192 385.64C314.992 385.64 315.659 385.453 316.192 385.08C316.726 384.707 317.092 384.173 317.292 383.48H319.252C318.986 384.52 318.459 385.373 317.672 386.04C316.899 386.693 315.926 387.067 314.752 387.16V388.16C315.539 388.147 316.166 388.313 316.632 388.66C317.099 389.007 317.332 389.5 317.332 390.14C317.332 390.767 317.106 391.267 316.652 391.64C316.199 392.013 315.612 392.2 314.892 392.2H312.592V391.02H314.532C314.972 391.02 315.292 390.953 315.492 390.82C315.706 390.687 315.812 390.46 315.812 390.14C315.812 389.833 315.706 389.613 315.492 389.48C315.292 389.347 314.972 389.28 314.532 389.28H313.532V387.14C312.612 387.047 311.799 386.76 311.092 386.28C310.386 385.787 309.832 385.133 309.432 384.32C309.046 383.493 308.852 382.553 308.852 381.5C308.852 380.367 309.079 379.38 309.532 378.54C309.986 377.687 310.612 377.027 311.412 376.56C312.226 376.093 313.152 375.86 314.192 375.86C315.539 375.86 316.646 376.187 317.512 376.84C318.392 377.493 318.972 378.4 319.252 379.56H317.292C317.106 378.893 316.739 378.367 316.192 377.98C315.659 377.593 314.992 377.4 314.192 377.4C313.152 377.4 312.312 377.76 311.672 378.48C311.032 379.187 310.712 380.193 310.712 381.5C310.712 382.82 311.032 383.84 311.672 384.56C312.312 385.28 313.152 385.64 314.192 385.64ZM326.461 387.18C325.434 387.18 324.501 386.947 323.661 386.48C322.834 386.013 322.181 385.353 321.701 384.5C321.234 383.633 321.001 382.633 321.001 381.5C321.001 380.38 321.241 379.393 321.721 378.54C322.214 377.673 322.881 377.013 323.721 376.56C324.561 376.093 325.501 375.86 326.541 375.86C327.581 375.86 328.521 376.093 329.361 376.56C330.201 377.013 330.861 377.667 331.341 378.52C331.834 379.373 332.081 380.367 332.081 381.5C332.081 382.633 331.827 383.633 331.321 384.5C330.827 385.353 330.154 386.013 329.301 386.48C328.447 386.947 327.501 387.18 326.461 387.18ZM326.461 385.58C327.114 385.58 327.727 385.427 328.301 385.12C328.874 384.813 329.334 384.353 329.681 383.74C330.041 383.127 330.221 382.38 330.221 381.5C330.221 380.62 330.047 379.873 329.701 379.26C329.354 378.647 328.901 378.193 328.341 377.9C327.781 377.593 327.174 377.44 326.521 377.44C325.854 377.44 325.241 377.593 324.681 377.9C324.134 378.193 323.694 378.647 323.361 379.26C323.027 379.873 322.861 380.62 322.861 381.5C322.861 382.393 323.021 383.147 323.341 383.76C323.674 384.373 324.114 384.833 324.661 385.14C325.207 385.433 325.807 385.58 326.461 385.58ZM323.621 374.72C323.714 374.04 323.934 373.52 324.281 373.16C324.641 372.8 325.087 372.62 325.621 372.62C325.874 372.62 326.087 372.667 326.261 372.76C326.447 372.84 326.667 372.96 326.921 373.12C327.107 373.253 327.274 373.36 327.421 373.44C327.567 373.507 327.727 373.54 327.901 373.54C328.127 373.54 328.321 373.467 328.481 373.32C328.641 373.173 328.741 372.96 328.781 372.68H329.821C329.741 373.347 329.521 373.86 329.161 374.22C328.801 374.58 328.354 374.76 327.821 374.76C327.567 374.76 327.341 374.72 327.141 374.64C326.954 374.547 326.741 374.413 326.501 374.24C326.287 374.107 326.114 374.007 325.981 373.94C325.861 373.873 325.714 373.84 325.541 373.84C325.314 373.84 325.121 373.913 324.961 374.06C324.814 374.207 324.721 374.427 324.681 374.72H323.621ZM344.474 381.1C344.474 381.447 344.454 381.813 344.414 382.2H335.654C335.72 383.28 336.087 384.127 336.754 384.74C337.434 385.34 338.254 385.64 339.214 385.64C340 385.64 340.654 385.46 341.174 385.1C341.707 384.727 342.08 384.233 342.294 383.62H344.254C343.96 384.673 343.374 385.533 342.494 386.2C341.614 386.853 340.52 387.18 339.214 387.18C338.174 387.18 337.24 386.947 336.414 386.48C335.6 386.013 334.96 385.353 334.494 384.5C334.027 383.633 333.794 382.633 333.794 381.5C333.794 380.367 334.02 379.373 334.474 378.52C334.927 377.667 335.56 377.013 336.374 376.56C337.2 376.093 338.147 375.86 339.214 375.86C340.254 375.86 341.174 376.087 341.974 376.54C342.774 376.993 343.387 377.62 343.814 378.42C344.254 379.207 344.474 380.1 344.474 381.1ZM342.594 380.72C342.594 380.027 342.44 379.433 342.134 378.94C341.827 378.433 341.407 378.053 340.874 377.8C340.354 377.533 339.774 377.4 339.134 377.4C338.214 377.4 337.427 377.693 336.774 378.28C336.134 378.867 335.767 379.68 335.674 380.72H342.594ZM350.756 387.18C349.916 387.18 349.163 387.04 348.496 386.76C347.829 386.467 347.303 386.067 346.916 385.56C346.529 385.04 346.316 384.447 346.276 383.78H348.156C348.209 384.327 348.463 384.773 348.916 385.12C349.383 385.467 349.989 385.64 350.736 385.64C351.429 385.64 351.976 385.487 352.376 385.18C352.776 384.873 352.976 384.487 352.976 384.02C352.976 383.54 352.763 383.187 352.336 382.96C351.909 382.72 351.249 382.487 350.356 382.26C349.543 382.047 348.876 381.833 348.356 381.62C347.849 381.393 347.409 381.067 347.036 380.64C346.676 380.2 346.496 379.627 346.496 378.92C346.496 378.36 346.663 377.847 346.996 377.38C347.329 376.913 347.803 376.547 348.416 376.28C349.029 376 349.729 375.86 350.516 375.86C351.729 375.86 352.709 376.167 353.456 376.78C354.203 377.393 354.603 378.233 354.656 379.3H352.836C352.796 378.727 352.563 378.267 352.136 377.92C351.723 377.573 351.163 377.4 350.456 377.4C349.803 377.4 349.283 377.54 348.896 377.82C348.509 378.1 348.316 378.467 348.316 378.92C348.316 379.28 348.429 379.58 348.656 379.82C348.896 380.047 349.189 380.233 349.536 380.38C349.896 380.513 350.389 380.667 351.016 380.84C351.803 381.053 352.443 381.267 352.936 381.48C353.429 381.68 353.849 381.987 354.196 382.4C354.556 382.813 354.743 383.353 354.756 384.02C354.756 384.62 354.589 385.16 354.256 385.64C353.923 386.12 353.449 386.5 352.836 386.78C352.236 387.047 351.543 387.18 350.756 387.18ZM371.977 377.14C371.977 378.3 371.577 379.267 370.777 380.04C369.991 380.8 368.784 381.18 367.157 381.18H364.477V387H362.657V373.06H367.157C368.731 373.06 369.924 373.44 370.737 374.2C371.564 374.96 371.977 375.94 371.977 377.14ZM367.157 379.68C368.171 379.68 368.917 379.46 369.397 379.02C369.877 378.58 370.117 377.953 370.117 377.14C370.117 375.42 369.131 374.56 367.157 374.56H364.477V379.68H367.157ZM384.239 381.1C384.239 381.447 384.219 381.813 384.179 382.2H375.419C375.486 383.28 375.853 384.127 376.519 384.74C377.199 385.34 378.019 385.64 378.979 385.64C379.766 385.64 380.419 385.46 380.939 385.1C381.473 384.727 381.846 384.233 382.059 383.62H384.019C383.726 384.673 383.139 385.533 382.259 386.2C381.379 386.853 380.286 387.18 378.979 387.18C377.939 387.18 377.006 386.947 376.179 386.48C375.366 386.013 374.726 385.353 374.259 384.5C373.793 383.633 373.559 382.633 373.559 381.5C373.559 380.367 373.786 379.373 374.239 378.52C374.693 377.667 375.326 377.013 376.139 376.56C376.966 376.093 377.913 375.86 378.979 375.86C380.019 375.86 380.939 376.087 381.739 376.54C382.539 376.993 383.153 377.62 383.579 378.42C384.019 379.207 384.239 380.1 384.239 381.1ZM382.359 380.72C382.359 380.027 382.206 379.433 381.899 378.94C381.593 378.433 381.173 378.053 380.639 377.8C380.119 377.533 379.539 377.4 378.899 377.4C377.979 377.4 377.193 377.693 376.539 378.28C375.899 378.867 375.533 379.68 375.439 380.72H382.359ZM390.522 387.18C389.682 387.18 388.928 387.04 388.262 386.76C387.595 386.467 387.068 386.067 386.682 385.56C386.295 385.04 386.082 384.447 386.042 383.78H387.922C387.975 384.327 388.228 384.773 388.682 385.12C389.148 385.467 389.755 385.64 390.502 385.64C391.195 385.64 391.742 385.487 392.142 385.18C392.542 384.873 392.742 384.487 392.742 384.02C392.742 383.54 392.528 383.187 392.102 382.96C391.675 382.72 391.015 382.487 390.122 382.26C389.308 382.047 388.642 381.833 388.122 381.62C387.615 381.393 387.175 381.067 386.802 380.64C386.442 380.2 386.262 379.627 386.262 378.92C386.262 378.36 386.428 377.847 386.762 377.38C387.095 376.913 387.568 376.547 388.182 376.28C388.795 376 389.495 375.86 390.282 375.86C391.495 375.86 392.475 376.167 393.222 376.78C393.968 377.393 394.368 378.233 394.422 379.3H392.602C392.562 378.727 392.328 378.267 391.902 377.92C391.488 377.573 390.928 377.4 390.222 377.4C389.568 377.4 389.048 377.54 388.662 377.82C388.275 378.1 388.082 378.467 388.082 378.92C388.082 379.28 388.195 379.58 388.422 379.82C388.662 380.047 388.955 380.233 389.302 380.38C389.662 380.513 390.155 380.667 390.782 380.84C391.568 381.053 392.208 381.267 392.702 381.48C393.195 381.68 393.615 381.987 393.962 382.4C394.322 382.813 394.508 383.353 394.522 384.02C394.522 384.62 394.355 385.16 394.022 385.64C393.688 386.12 393.215 386.5 392.602 386.78C392.002 387.047 391.308 387.18 390.522 387.18ZM400.971 387.18C400.131 387.18 399.377 387.04 398.711 386.76C398.044 386.467 397.517 386.067 397.131 385.56C396.744 385.04 396.531 384.447 396.491 383.78H398.371C398.424 384.327 398.677 384.773 399.131 385.12C399.597 385.467 400.204 385.64 400.951 385.64C401.644 385.64 402.191 385.487 402.591 385.18C402.991 384.873 403.191 384.487 403.191 384.02C403.191 383.54 402.977 383.187 402.551 382.96C402.124 382.72 401.464 382.487 400.571 382.26C399.757 382.047 399.091 381.833 398.571 381.62C398.064 381.393 397.624 381.067 397.251 380.64C396.891 380.2 396.711 379.627 396.711 378.92C396.711 378.36 396.877 377.847 397.211 377.38C397.544 376.913 398.017 376.547 398.631 376.28C399.244 376 399.944 375.86 400.731 375.86C401.944 375.86 402.924 376.167 403.671 376.78C404.417 377.393 404.817 378.233 404.871 379.3H403.051C403.011 378.727 402.777 378.267 402.351 377.92C401.937 377.573 401.377 377.4 400.671 377.4C400.017 377.4 399.497 377.54 399.111 377.82C398.724 378.1 398.531 378.467 398.531 378.92C398.531 379.28 398.644 379.58 398.871 379.82C399.111 380.047 399.404 380.233 399.751 380.38C400.111 380.513 400.604 380.667 401.231 380.84C402.017 381.053 402.657 381.267 403.151 381.48C403.644 381.68 404.064 381.987 404.411 382.4C404.771 382.813 404.957 383.353 404.971 384.02C404.971 384.62 404.804 385.16 404.471 385.64C404.137 386.12 403.664 386.5 403.051 386.78C402.451 387.047 401.757 387.18 400.971 387.18ZM412.32 387.18C411.293 387.18 410.36 386.947 409.52 386.48C408.693 386.013 408.04 385.353 407.56 384.5C407.093 383.633 406.86 382.633 406.86 381.5C406.86 380.38 407.1 379.393 407.58 378.54C408.073 377.673 408.74 377.013 409.58 376.56C410.42 376.093 411.36 375.86 412.4 375.86C413.44 375.86 414.38 376.093 415.22 376.56C416.06 377.013 416.72 377.667 417.2 378.52C417.693 379.373 417.94 380.367 417.94 381.5C417.94 382.633 417.687 383.633 417.18 384.5C416.687 385.353 416.013 386.013 415.16 386.48C414.307 386.947 413.36 387.18 412.32 387.18ZM412.32 385.58C412.973 385.58 413.587 385.427 414.16 385.12C414.733 384.813 415.193 384.353 415.54 383.74C415.9 383.127 416.08 382.38 416.08 381.5C416.08 380.62 415.907 379.873 415.56 379.26C415.213 378.647 414.76 378.193 414.2 377.9C413.64 377.593 413.033 377.44 412.38 377.44C411.713 377.44 411.1 377.593 410.54 377.9C409.993 378.193 409.553 378.647 409.22 379.26C408.887 379.873 408.72 380.62 408.72 381.5C408.72 382.393 408.88 383.147 409.2 383.76C409.533 384.373 409.973 384.833 410.52 385.14C411.067 385.433 411.667 385.58 412.32 385.58ZM419.653 381.48C419.653 380.36 419.88 379.38 420.333 378.54C420.786 377.687 421.406 377.027 422.193 376.56C422.993 376.093 423.88 375.86 424.853 375.86C425.813 375.86 426.646 376.067 427.353 376.48C428.06 376.893 428.586 377.413 428.933 378.04V376.04H430.773V387H428.933V384.96C428.573 385.6 428.033 386.133 427.313 386.56C426.606 386.973 425.78 387.18 424.833 387.18C423.86 387.18 422.98 386.94 422.193 386.46C421.406 385.98 420.786 385.307 420.333 384.44C419.88 383.573 419.653 382.587 419.653 381.48ZM428.933 381.5C428.933 380.673 428.766 379.953 428.433 379.34C428.1 378.727 427.646 378.26 427.073 377.94C426.513 377.607 425.893 377.44 425.213 377.44C424.533 377.44 423.913 377.6 423.353 377.92C422.793 378.24 422.346 378.707 422.013 379.32C421.68 379.933 421.513 380.653 421.513 381.48C421.513 382.32 421.68 383.053 422.013 383.68C422.346 384.293 422.793 384.767 423.353 385.1C423.913 385.42 424.533 385.58 425.213 385.58C425.893 385.58 426.513 385.42 427.073 385.1C427.646 384.767 428.1 384.293 428.433 383.68C428.766 383.053 428.933 382.327 428.933 381.5ZM434.789 374.26C434.442 374.26 434.149 374.14 433.909 373.9C433.669 373.66 433.549 373.367 433.549 373.02C433.549 372.673 433.669 372.38 433.909 372.14C434.149 371.9 434.442 371.78 434.789 371.78C435.122 371.78 435.402 371.9 435.629 372.14C435.869 372.38 435.989 372.673 435.989 373.02C435.989 373.367 435.869 373.66 435.629 373.9C435.402 374.14 435.122 374.26 434.789 374.26ZM435.669 376.04V387H433.849V376.04H435.669ZM442.65 387.18C441.81 387.18 441.057 387.04 440.39 386.76C439.724 386.467 439.197 386.067 438.81 385.56C438.424 385.04 438.21 384.447 438.17 383.78H440.05C440.104 384.327 440.357 384.773 440.81 385.12C441.277 385.467 441.884 385.64 442.63 385.64C443.324 385.64 443.87 385.487 444.27 385.18C444.67 384.873 444.87 384.487 444.87 384.02C444.87 383.54 444.657 383.187 444.23 382.96C443.804 382.72 443.144 382.487 442.25 382.26C441.437 382.047 440.77 381.833 440.25 381.62C439.744 381.393 439.304 381.067 438.93 380.64C438.57 380.2 438.39 379.627 438.39 378.92C438.39 378.36 438.557 377.847 438.89 377.38C439.224 376.913 439.697 376.547 440.31 376.28C440.924 376 441.624 375.86 442.41 375.86C443.624 375.86 444.604 376.167 445.35 376.78C446.097 377.393 446.497 378.233 446.55 379.3H444.73C444.69 378.727 444.457 378.267 444.03 377.92C443.617 377.573 443.057 377.4 442.35 377.4C441.697 377.4 441.177 377.54 440.79 377.82C440.404 378.1 440.21 378.467 440.21 378.92C440.21 379.28 440.324 379.58 440.55 379.82C440.79 380.047 441.084 380.233 441.43 380.38C441.79 380.513 442.284 380.667 442.91 380.84C443.697 381.053 444.337 381.267 444.83 381.48C445.324 381.68 445.744 381.987 446.09 382.4C446.45 382.813 446.637 383.353 446.65 384.02C446.65 384.62 446.484 385.16 446.15 385.64C445.817 386.12 445.344 386.5 444.73 386.78C444.13 387.047 443.437 387.18 442.65 387.18Z" fill="black"/>
<path d="M238.917 496.9H232.837L231.717 500H229.797L234.837 486.14H236.937L241.957 500H240.037L238.917 496.9ZM238.397 495.42L235.877 488.38L233.357 495.42H238.397ZM243.473 494.48C243.473 493.36 243.7 492.38 244.153 491.54C244.607 490.687 245.227 490.027 246.013 489.56C246.813 489.093 247.707 488.86 248.693 488.86C249.547 488.86 250.34 489.06 251.073 489.46C251.807 489.847 252.367 490.36 252.753 491V485.2H254.593V500H252.753V497.94C252.393 498.593 251.86 499.133 251.153 499.56C250.447 499.973 249.62 500.18 248.673 500.18C247.7 500.18 246.813 499.94 246.013 499.46C245.227 498.98 244.607 498.307 244.153 497.44C243.7 496.573 243.473 495.587 243.473 494.48ZM252.753 494.5C252.753 493.673 252.587 492.953 252.253 492.34C251.92 491.727 251.467 491.26 250.893 490.94C250.333 490.607 249.713 490.44 249.033 490.44C248.353 490.44 247.733 490.6 247.173 490.92C246.613 491.24 246.167 491.707 245.833 492.32C245.5 492.933 245.333 493.653 245.333 494.48C245.333 495.32 245.5 496.053 245.833 496.68C246.167 497.293 246.613 497.767 247.173 498.1C247.733 498.42 248.353 498.58 249.033 498.58C249.713 498.58 250.333 498.42 250.893 498.1C251.467 497.767 251.92 497.293 252.253 496.68C252.587 496.053 252.753 495.327 252.753 494.5ZM256.989 494.5C256.989 493.367 257.216 492.38 257.669 491.54C258.122 490.687 258.749 490.027 259.549 489.56C260.362 489.093 261.289 488.86 262.329 488.86C263.676 488.86 264.782 489.187 265.649 489.84C266.529 490.493 267.109 491.4 267.389 492.56H265.429C265.242 491.893 264.876 491.367 264.329 490.98C263.796 490.593 263.129 490.4 262.329 490.4C261.289 490.4 260.449 490.76 259.809 491.48C259.169 492.187 258.849 493.193 258.849 494.5C258.849 495.82 259.169 496.84 259.809 497.56C260.449 498.28 261.289 498.64 262.329 498.64C263.129 498.64 263.796 498.453 264.329 498.08C264.862 497.707 265.229 497.173 265.429 496.48H267.389C267.096 497.6 266.509 498.5 265.629 499.18C264.749 499.847 263.649 500.18 262.329 500.18C261.289 500.18 260.362 499.947 259.549 499.48C258.749 499.013 258.122 498.353 257.669 497.5C257.216 496.647 256.989 495.647 256.989 494.5ZM270.757 487.26C270.411 487.26 270.117 487.14 269.877 486.9C269.637 486.66 269.517 486.367 269.517 486.02C269.517 485.673 269.637 485.38 269.877 485.14C270.117 484.9 270.411 484.78 270.757 484.78C271.091 484.78 271.371 484.9 271.597 485.14C271.837 485.38 271.957 485.673 271.957 486.02C271.957 486.367 271.837 486.66 271.597 486.9C271.371 487.14 271.091 487.26 270.757 487.26ZM271.637 489.04V500H269.817V489.04H271.637ZM279.519 500.18C278.493 500.18 277.559 499.947 276.719 499.48C275.893 499.013 275.239 498.353 274.759 497.5C274.293 496.633 274.059 495.633 274.059 494.5C274.059 493.38 274.299 492.393 274.779 491.54C275.273 490.673 275.939 490.013 276.779 489.56C277.619 489.093 278.559 488.86 279.599 488.86C280.639 488.86 281.579 489.093 282.419 489.56C283.259 490.013 283.919 490.667 284.399 491.52C284.893 492.373 285.139 493.367 285.139 494.5C285.139 495.633 284.886 496.633 284.379 497.5C283.886 498.353 283.213 499.013 282.359 499.48C281.506 499.947 280.559 500.18 279.519 500.18ZM279.519 498.58C280.173 498.58 280.786 498.427 281.359 498.12C281.933 497.813 282.393 497.353 282.739 496.74C283.099 496.127 283.279 495.38 283.279 494.5C283.279 493.62 283.106 492.873 282.759 492.26C282.413 491.647 281.959 491.193 281.399 490.9C280.839 490.593 280.233 490.44 279.579 490.44C278.913 490.44 278.299 490.593 277.739 490.9C277.193 491.193 276.753 491.647 276.419 492.26C276.086 492.873 275.919 493.62 275.919 494.5C275.919 495.393 276.079 496.147 276.399 496.76C276.733 497.373 277.173 497.833 277.719 498.14C278.266 498.433 278.866 498.58 279.519 498.58ZM292.872 488.84C294.206 488.84 295.286 489.247 296.112 490.06C296.939 490.86 297.352 492.02 297.352 493.54V500H295.552V493.8C295.552 492.707 295.279 491.873 294.732 491.3C294.186 490.713 293.439 490.42 292.492 490.42C291.532 490.42 290.766 490.72 290.192 491.32C289.632 491.92 289.352 492.793 289.352 493.94V500H287.532V489.04H289.352V490.6C289.712 490.04 290.199 489.607 290.812 489.3C291.439 488.993 292.126 488.84 292.872 488.84ZM299.645 494.48C299.645 493.36 299.872 492.38 300.325 491.54C300.778 490.687 301.398 490.027 302.185 489.56C302.985 489.093 303.872 488.86 304.845 488.86C305.805 488.86 306.638 489.067 307.345 489.48C308.052 489.893 308.578 490.413 308.925 491.04V489.04H310.765V500H308.925V497.96C308.565 498.6 308.025 499.133 307.305 499.56C306.598 499.973 305.772 500.18 304.825 500.18C303.852 500.18 302.972 499.94 302.185 499.46C301.398 498.98 300.778 498.307 300.325 497.44C299.872 496.573 299.645 495.587 299.645 494.48ZM308.925 494.5C308.925 493.673 308.758 492.953 308.425 492.34C308.092 491.727 307.638 491.26 307.065 490.94C306.505 490.607 305.885 490.44 305.205 490.44C304.525 490.44 303.905 490.6 303.345 490.92C302.785 491.24 302.338 491.707 302.005 492.32C301.672 492.933 301.505 493.653 301.505 494.48C301.505 495.32 301.672 496.053 302.005 496.68C302.338 497.293 302.785 497.767 303.345 498.1C303.905 498.42 304.525 498.58 305.205 498.58C305.885 498.58 306.505 498.42 307.065 498.1C307.638 497.767 308.092 497.293 308.425 496.68C308.758 496.053 308.925 495.327 308.925 494.5ZM315.661 490.82C315.981 490.193 316.434 489.707 317.021 489.36C317.621 489.013 318.347 488.84 319.201 488.84V490.72H318.721C316.681 490.72 315.661 491.827 315.661 494.04V500H313.841V489.04H315.661V490.82ZM328.454 487.54V492.2H333.534V493.7H328.454V498.5H334.134V500H326.634V486.04H334.134V487.54H328.454ZM342.228 488.84C343.561 488.84 344.641 489.247 345.468 490.06C346.294 490.86 346.708 492.02 346.708 493.54V500H344.908V493.8C344.908 492.707 344.634 491.873 344.088 491.3C343.541 490.713 342.794 490.42 341.848 490.42C340.888 490.42 340.121 490.72 339.548 491.32C338.988 491.92 338.708 492.793 338.708 493.94V500H336.888V489.04H338.708V490.6C339.068 490.04 339.554 489.607 340.168 489.3C340.794 488.993 341.481 488.84 342.228 488.84ZM349.001 494.48C349.001 493.36 349.227 492.38 349.681 491.54C350.134 490.687 350.754 490.027 351.541 489.56C352.341 489.093 353.234 488.86 354.221 488.86C355.074 488.86 355.867 489.06 356.601 489.46C357.334 489.847 357.894 490.36 358.281 491V485.2H360.121V500H358.281V497.94C357.921 498.593 357.387 499.133 356.681 499.56C355.974 499.973 355.147 500.18 354.201 500.18C353.227 500.18 352.341 499.94 351.541 499.46C350.754 498.98 350.134 498.307 349.681 497.44C349.227 496.573 349.001 495.587 349.001 494.48ZM358.281 494.5C358.281 493.673 358.114 492.953 357.781 492.34C357.447 491.727 356.994 491.26 356.421 490.94C355.861 490.607 355.241 490.44 354.561 490.44C353.881 490.44 353.261 490.6 352.701 490.92C352.141 491.24 351.694 491.707 351.361 492.32C351.027 492.933 350.861 493.653 350.861 494.48C350.861 495.32 351.027 496.053 351.361 496.68C351.694 497.293 352.141 497.767 352.701 498.1C353.261 498.42 353.881 498.58 354.561 498.58C355.241 498.58 355.861 498.42 356.421 498.1C356.994 497.767 357.447 497.293 357.781 496.68C358.114 496.053 358.281 495.327 358.281 494.5ZM373.196 494.1C373.196 494.447 373.176 494.813 373.136 495.2H364.376C364.443 496.28 364.81 497.127 365.476 497.74C366.156 498.34 366.976 498.64 367.936 498.64C368.723 498.64 369.376 498.46 369.896 498.1C370.43 497.727 370.803 497.233 371.016 496.62H372.976C372.683 497.673 372.096 498.533 371.216 499.2C370.336 499.853 369.243 500.18 367.936 500.18C366.896 500.18 365.963 499.947 365.136 499.48C364.323 499.013 363.683 498.353 363.216 497.5C362.75 496.633 362.516 495.633 362.516 494.5C362.516 493.367 362.743 492.373 363.196 491.52C363.65 490.667 364.283 490.013 365.096 489.56C365.923 489.093 366.87 488.86 367.936 488.86C368.976 488.86 369.896 489.087 370.696 489.54C371.496 489.993 372.11 490.62 372.536 491.42C372.976 492.207 373.196 493.1 373.196 494.1ZM371.316 493.72C371.316 493.027 371.163 492.433 370.856 491.94C370.55 491.433 370.13 491.053 369.596 490.8C369.076 490.533 368.496 490.4 367.856 490.4C366.936 490.4 366.15 490.693 365.496 491.28C364.856 491.867 364.49 492.68 364.396 493.72H371.316ZM377.419 490.82C377.739 490.193 378.192 489.707 378.779 489.36C379.379 489.013 380.105 488.84 380.959 488.84V490.72H380.479C378.439 490.72 377.419 491.827 377.419 494.04V500H375.599V489.04H377.419V490.82ZM393.06 494.1C393.06 494.447 393.04 494.813 393 495.2H384.24C384.306 496.28 384.673 497.127 385.34 497.74C386.02 498.34 386.84 498.64 387.8 498.64C388.586 498.64 389.24 498.46 389.76 498.1C390.293 497.727 390.666 497.233 390.88 496.62H392.84C392.546 497.673 391.96 498.533 391.08 499.2C390.2 499.853 389.106 500.18 387.8 500.18C386.76 500.18 385.826 499.947 385 499.48C384.186 499.013 383.546 498.353 383.08 497.5C382.613 496.633 382.38 495.633 382.38 494.5C382.38 493.367 382.606 492.373 383.06 491.52C383.513 490.667 384.146 490.013 384.96 489.56C385.786 489.093 386.733 488.86 387.8 488.86C388.84 488.86 389.76 489.087 390.56 489.54C391.36 489.993 391.973 490.62 392.4 491.42C392.84 492.207 393.06 493.1 393.06 494.1ZM391.18 493.72C391.18 493.027 391.026 492.433 390.72 491.94C390.413 491.433 389.993 491.053 389.46 490.8C388.94 490.533 388.36 490.4 387.72 490.4C386.8 490.4 386.013 490.693 385.36 491.28C384.72 491.867 384.353 492.68 384.26 493.72H391.18ZM400.122 498.64C400.922 498.64 401.589 498.453 402.122 498.08C402.655 497.707 403.022 497.173 403.222 496.48H405.182C404.915 497.52 404.389 498.373 403.602 499.04C402.829 499.693 401.855 500.067 400.682 500.16V501.16C401.469 501.147 402.095 501.313 402.562 501.66C403.029 502.007 403.262 502.5 403.262 503.14C403.262 503.767 403.035 504.267 402.582 504.64C402.129 505.013 401.542 505.2 400.822 505.2H398.522V504.02H400.462C400.902 504.02 401.222 503.953 401.422 503.82C401.635 503.687 401.742 503.46 401.742 503.14C401.742 502.833 401.635 502.613 401.422 502.48C401.222 502.347 400.902 502.28 400.462 502.28H399.462V500.14C398.542 500.047 397.729 499.76 397.022 499.28C396.315 498.787 395.762 498.133 395.362 497.32C394.975 496.493 394.782 495.553 394.782 494.5C394.782 493.367 395.009 492.38 395.462 491.54C395.915 490.687 396.542 490.027 397.342 489.56C398.155 489.093 399.082 488.86 400.122 488.86C401.469 488.86 402.575 489.187 403.442 489.84C404.322 490.493 404.902 491.4 405.182 492.56H403.222C403.035 491.893 402.669 491.367 402.122 490.98C401.589 490.593 400.922 490.4 400.122 490.4C399.082 490.4 398.242 490.76 397.602 491.48C396.962 492.187 396.642 493.193 396.642 494.5C396.642 495.82 396.962 496.84 397.602 497.56C398.242 498.28 399.082 498.64 400.122 498.64ZM412.39 500.18C411.364 500.18 410.43 499.947 409.59 499.48C408.764 499.013 408.11 498.353 407.63 497.5C407.164 496.633 406.93 495.633 406.93 494.5C406.93 493.38 407.17 492.393 407.65 491.54C408.144 490.673 408.81 490.013 409.65 489.56C410.49 489.093 411.43 488.86 412.47 488.86C413.51 488.86 414.45 489.093 415.29 489.56C416.13 490.013 416.79 490.667 417.27 491.52C417.764 492.373 418.01 493.367 418.01 494.5C418.01 495.633 417.757 496.633 417.25 497.5C416.757 498.353 416.084 499.013 415.23 499.48C414.377 499.947 413.43 500.18 412.39 500.18ZM412.39 498.58C413.044 498.58 413.657 498.427 414.23 498.12C414.804 497.813 415.264 497.353 415.61 496.74C415.97 496.127 416.15 495.38 416.15 494.5C416.15 493.62 415.977 492.873 415.63 492.26C415.284 491.647 414.83 491.193 414.27 490.9C413.71 490.593 413.104 490.44 412.45 490.44C411.784 490.44 411.17 490.593 410.61 490.9C410.064 491.193 409.624 491.647 409.29 492.26C408.957 492.873 408.79 493.62 408.79 494.5C408.79 495.393 408.95 496.147 409.27 496.76C409.604 497.373 410.044 497.833 410.59 498.14C411.137 498.433 411.737 498.58 412.39 498.58Z" fill="black"/>
<path d="M238.15 614L234.83 608.3H232.63V614H230.81V600.06H235.31C236.363 600.06 237.25 600.24 237.97 600.6C238.703 600.96 239.25 601.447 239.61 602.06C239.97 602.673 240.15 603.373 240.15 604.16C240.15 605.12 239.87 605.967 239.31 606.7C238.763 607.433 237.936 607.92 236.83 608.16L240.33 614H238.15ZM232.63 606.84H235.31C236.296 606.84 237.036 606.6 237.53 606.12C238.023 605.627 238.27 604.973 238.27 604.16C238.27 603.333 238.023 602.693 237.53 602.24C237.05 601.787 236.31 601.56 235.31 601.56H232.63V606.84ZM252.978 608.1C252.978 608.447 252.958 608.813 252.918 609.2H244.158C244.224 610.28 244.591 611.127 245.258 611.74C245.938 612.34 246.758 612.64 247.718 612.64C248.504 612.64 249.158 612.46 249.678 612.1C250.211 611.727 250.584 611.233 250.798 610.62H252.758C252.464 611.673 251.878 612.533 250.998 613.2C250.118 613.853 249.024 614.18 247.718 614.18C246.678 614.18 245.744 613.947 244.918 613.48C244.104 613.013 243.464 612.353 242.998 611.5C242.531 610.633 242.298 609.633 242.298 608.5C242.298 607.367 242.524 606.373 242.978 605.52C243.431 604.667 244.064 604.013 244.878 603.56C245.704 603.093 246.651 602.86 247.718 602.86C248.758 602.86 249.678 603.087 250.478 603.54C251.278 603.993 251.891 604.62 252.318 605.42C252.758 606.207 252.978 607.1 252.978 608.1ZM251.098 607.72C251.098 607.027 250.944 606.433 250.638 605.94C250.331 605.433 249.911 605.053 249.378 604.8C248.858 604.533 248.278 604.4 247.638 604.4C246.718 604.4 245.931 604.693 245.278 605.28C244.638 605.867 244.271 606.68 244.178 607.72H251.098ZM259.46 612.32L262.86 603.04H264.8L260.5 614H258.38L254.08 603.04H256.04L259.46 612.32ZM267.531 601.26C267.184 601.26 266.891 601.14 266.651 600.9C266.411 600.66 266.291 600.367 266.291 600.02C266.291 599.673 266.411 599.38 266.651 599.14C266.891 598.9 267.184 598.78 267.531 598.78C267.864 598.78 268.144 598.9 268.371 599.14C268.611 599.38 268.731 599.673 268.731 600.02C268.731 600.367 268.611 600.66 268.371 600.9C268.144 601.14 267.864 601.26 267.531 601.26ZM268.411 603.04V614H266.591V603.04H268.411ZM275.393 614.18C274.553 614.18 273.799 614.04 273.133 613.76C272.466 613.467 271.939 613.067 271.553 612.56C271.166 612.04 270.953 611.447 270.913 610.78H272.793C272.846 611.327 273.099 611.773 273.553 612.12C274.019 612.467 274.626 612.64 275.373 612.64C276.066 612.64 276.613 612.487 277.013 612.18C277.413 611.873 277.613 611.487 277.613 611.02C277.613 610.54 277.399 610.187 276.973 609.96C276.546 609.72 275.886 609.487 274.993 609.26C274.179 609.047 273.513 608.833 272.993 608.62C272.486 608.393 272.046 608.067 271.673 607.64C271.313 607.2 271.133 606.627 271.133 605.92C271.133 605.36 271.299 604.847 271.633 604.38C271.966 603.913 272.439 603.547 273.053 603.28C273.666 603 274.366 602.86 275.153 602.86C276.366 602.86 277.346 603.167 278.093 603.78C278.839 604.393 279.239 605.233 279.293 606.3H277.473C277.433 605.727 277.199 605.267 276.773 604.92C276.359 604.573 275.799 604.4 275.093 604.4C274.439 604.4 273.919 604.54 273.533 604.82C273.146 605.1 272.953 605.467 272.953 605.92C272.953 606.28 273.066 606.58 273.293 606.82C273.533 607.047 273.826 607.233 274.173 607.38C274.533 607.513 275.026 607.667 275.653 607.84C276.439 608.053 277.079 608.267 277.573 608.48C278.066 608.68 278.486 608.987 278.833 609.4C279.193 609.813 279.379 610.353 279.393 611.02C279.393 611.62 279.226 612.16 278.893 612.64C278.559 613.12 278.086 613.5 277.473 613.78C276.873 614.047 276.179 614.18 275.393 614.18ZM281.282 608.48C281.282 607.36 281.509 606.38 281.962 605.54C282.415 604.687 283.035 604.027 283.822 603.56C284.622 603.093 285.509 602.86 286.482 602.86C287.442 602.86 288.275 603.067 288.982 603.48C289.689 603.893 290.215 604.413 290.562 605.04V603.04H292.402V614H290.562V611.96C290.202 612.6 289.662 613.133 288.942 613.56C288.235 613.973 287.409 614.18 286.462 614.18C285.489 614.18 284.609 613.94 283.822 613.46C283.035 612.98 282.415 612.307 281.962 611.44C281.509 610.573 281.282 609.587 281.282 608.48ZM290.562 608.5C290.562 607.673 290.395 606.953 290.062 606.34C289.729 605.727 289.275 605.26 288.702 604.94C288.142 604.607 287.522 604.44 286.842 604.44C286.162 604.44 285.542 604.6 284.982 604.92C284.422 605.24 283.975 605.707 283.642 606.32C283.309 606.933 283.142 607.653 283.142 608.48C283.142 609.32 283.309 610.053 283.642 610.68C283.975 611.293 284.422 611.767 284.982 612.1C285.542 612.42 286.162 612.58 286.842 612.58C287.522 612.58 288.142 612.42 288.702 612.1C289.275 611.767 289.729 611.293 290.062 610.68C290.395 610.053 290.562 609.327 290.562 608.5ZM284.262 601.86C284.355 601.18 284.575 600.66 284.922 600.3C285.282 599.94 285.729 599.76 286.262 599.76C286.515 599.76 286.729 599.807 286.902 599.9C287.089 599.98 287.309 600.1 287.562 600.26C287.749 600.393 287.915 600.5 288.062 600.58C288.209 600.647 288.369 600.68 288.542 600.68C288.769 600.68 288.962 600.607 289.122 600.46C289.282 600.313 289.382 600.1 289.422 599.82H290.462C290.382 600.487 290.162 601 289.802 601.36C289.442 601.72 288.995 601.9 288.462 601.9C288.209 601.9 287.982 601.86 287.782 601.78C287.595 601.687 287.382 601.553 287.142 601.38C286.929 601.247 286.755 601.147 286.622 601.08C286.502 601.013 286.355 600.98 286.182 600.98C285.955 600.98 285.762 601.053 285.602 601.2C285.455 601.347 285.362 601.567 285.322 601.86H284.262ZM300.258 614.18C299.231 614.18 298.298 613.947 297.458 613.48C296.631 613.013 295.978 612.353 295.498 611.5C295.031 610.633 294.798 609.633 294.798 608.5C294.798 607.38 295.038 606.393 295.518 605.54C296.011 604.673 296.678 604.013 297.518 603.56C298.358 603.093 299.298 602.86 300.338 602.86C301.378 602.86 302.318 603.093 303.158 603.56C303.998 604.013 304.658 604.667 305.138 605.52C305.631 606.373 305.878 607.367 305.878 608.5C305.878 609.633 305.624 610.633 305.118 611.5C304.624 612.353 303.951 613.013 303.098 613.48C302.244 613.947 301.298 614.18 300.258 614.18ZM300.258 612.58C300.911 612.58 301.524 612.427 302.098 612.12C302.671 611.813 303.131 611.353 303.478 610.74C303.838 610.127 304.018 609.38 304.018 608.5C304.018 607.62 303.844 606.873 303.498 606.26C303.151 605.647 302.698 605.193 302.138 604.9C301.578 604.593 300.971 604.44 300.318 604.44C299.651 604.44 299.038 604.593 298.478 604.9C297.931 605.193 297.491 605.647 297.158 606.26C296.824 606.873 296.658 607.62 296.658 608.5C296.658 609.393 296.818 610.147 297.138 610.76C297.471 611.373 297.911 611.833 298.458 612.14C299.004 612.433 299.604 612.58 300.258 612.58Z" fill="black"/>
</g>
<defs>
<clipPath id="clip0_19_3">
<rect width="2207" height="1047" fill="white"/>
</clipPath>
</defs>
</svg>
