<svg width="1440" height="500" viewBox="0 0 1440 500" fill="none" xmlns="http://www.w3.org/2000/svg">
<g clip-path="url(#clip0_1424_1229)">
<rect width="720" height="500" fill="#0077E4"/>
<rect x="720" width="720" height="500" fill="#FFD024"/>
<path d="M281.809 147C283.475 152 284.309 156.167 284.309 159.5C284.309 162.5 283.809 166.5 282.809 171.5C260.475 171.5 249.309 183 249.309 206C249.309 214.333 253.642 219 262.309 220C274.975 221 281.309 229.167 281.309 244.5C281.309 256.167 278.475 265.167 272.809 271.5C267.475 277.5 257.642 280.5 243.309 280.5C223.642 280.5 213.809 267.167 213.809 240.5C213.809 213.833 219.142 191.667 229.809 174C240.475 156 257.809 147 281.809 147ZM372.309 147C373.975 152 374.809 156.167 374.809 159.5C374.809 162.5 374.309 166.5 373.309 171.5C350.975 171.5 339.809 183 339.809 206C339.809 214.333 344.142 219 352.809 220C365.475 221 371.809 229.167 371.809 244.5C371.809 256.167 368.975 265.167 363.309 271.5C357.975 277.5 348.142 280.5 333.809 280.5C314.142 280.5 304.309 267.167 304.309 240.5C304.309 213.833 309.642 191.667 320.309 174C330.975 156 348.309 147 372.309 147ZM288.434 696.5C321.767 696.5 346.6 704.833 362.934 721.5C379.267 737.833 387.434 759 387.434 785C387.434 789.333 386.934 793.5 385.934 797.5C380.267 800.5 373.267 802 364.934 802C356.934 802 348.934 801.667 340.934 801C341.267 798.333 341.434 794.833 341.434 790.5C341.434 770.833 336.767 755.167 327.434 743.5C318.1 731.833 305.1 726 288.434 726C233.1 726 205.434 770.833 205.434 860.5C205.434 949.833 233.1 994.5 288.434 994.5C301.434 994.5 314.934 991.333 328.934 985C342.934 978.667 354.767 970 364.434 959C374.767 967.333 381.434 980.5 384.434 998.5C354.767 1020.5 322.767 1031.5 288.434 1031.5C248.1 1031.5 217.934 1020.33 197.934 998C181.267 979.667 170.934 951.667 166.934 914C165.267 898.667 164.434 880.833 164.434 860.5C164.434 751.167 205.767 696.5 288.434 696.5ZM194.59 1441.5C194.59 1361.17 225.923 1321 288.59 1321C351.257 1321 382.59 1361.17 382.59 1441.5C382.59 1478.5 376.757 1507.83 365.09 1529.5C351.757 1554.83 326.257 1567.5 288.59 1567.5C250.923 1567.5 225.423 1554.83 212.09 1529.5C200.423 1507.83 194.59 1478.5 194.59 1441.5ZM235.59 1440.5C235.59 1501.17 253.257 1531.5 288.59 1531.5C323.923 1531.5 341.59 1501.17 341.59 1440.5C341.59 1379.5 323.923 1349 288.59 1349C253.257 1349 235.59 1379.5 235.59 1440.5ZM359.652 1928.5L359.152 1969.5C359.152 2012.5 362.486 2053.17 369.152 2091.5C358.152 2095.83 347.319 2098 336.652 2098C326.319 2098 319.152 2097.67 315.152 2097C319.152 2052.67 321.152 2013.67 321.152 1980C321.152 1946 318.986 1922.33 314.652 1909C310.319 1895.67 300.819 1889 286.152 1889C271.486 1889 254.486 1900 235.152 1922L234.652 1969.5C234.652 2012.5 237.986 2053.17 244.652 2091.5C233.652 2095.83 222.819 2098 212.152 2098C201.819 2098 194.652 2097.67 190.652 2097C194.652 2052.67 196.652 2013.67 196.652 1980C196.652 1946 194.486 1922.33 190.152 1909C185.819 1895.67 176.319 1889 161.652 1889C146.986 1889 130.152 1899.67 111.152 1921C110.486 1931.33 110.152 1947 110.152 1968C110.152 2022.67 113.152 2064.33 119.152 2093C107.152 2096.33 96.319 2098 86.6523 2098C76.9857 2098 70.1523 2097.67 66.1523 2097C71.1523 2051.67 73.6523 2012 73.6523 1978C73.6523 1944 70.319 1907 63.6523 1867C76.9857 1863.67 87.4857 1862 95.1523 1862C102.819 1862 108.819 1862.67 113.152 1864V1889.5C122.486 1879.83 133.152 1872 145.152 1866C157.486 1860 169.319 1857 180.652 1857C208.319 1857 225.486 1869.83 232.152 1895.5C242.152 1883.83 253.819 1874.5 267.152 1867.5C280.819 1860.5 293.486 1857 305.152 1857C324.152 1857 337.986 1863 346.652 1875C355.319 1886.67 359.652 1904.5 359.652 1928.5ZM373.414 2509C348.414 2517 323.414 2521 298.414 2521C273.747 2521 255.247 2520.17 242.914 2518.5C242.914 2548.5 247.747 2570.33 257.414 2584C266.414 2597 280.414 2603.5 299.414 2603.5C318.414 2603.5 339.081 2593.17 361.414 2572.5C371.081 2582.5 377.247 2595.67 379.914 2612C352.914 2630.33 324.747 2639.5 295.414 2639.5C260.414 2639.5 236.081 2628.17 222.414 2605.5C208.747 2582.5 201.914 2552.17 201.914 2514.5C201.914 2476.83 209.414 2447.17 224.414 2425.5C239.747 2403.83 264.581 2393 298.914 2393C322.914 2393 342.081 2400.33 356.414 2415C371.081 2429.33 378.414 2446.5 378.414 2466.5C378.747 2486.17 377.081 2500.33 373.414 2509ZM295.414 2421C264.747 2421 247.414 2443.83 243.414 2489.5C257.747 2491.17 273.914 2492 291.914 2492C310.247 2492 324.581 2490.33 334.914 2487C336.247 2475 336.914 2468.83 336.914 2468.5C336.914 2455.5 333.581 2444.33 326.914 2435C320.247 2425.67 309.747 2421 295.414 2421Z" fill="white" fill-opacity="0.3"/>
</g>
<defs>
<clipPath id="clip0_1424_1229">
<rect width="1440" height="500" fill="white"/>
</clipPath>
</defs>
</svg>
