<svg width="565" height="800" viewBox="0 0 565 800" fill="none" xmlns="http://www.w3.org/2000/svg">
<g clip-path="url(#clip0_102_2)">
<rect width="565" height="800" fill="white"/>
<circle cx="536.5" cy="134.5" r="110.908" transform="rotate(-90 536.5 134.5)" stroke="#FFD024" stroke-opacity="0.63" stroke-width="1.18302"/>
<circle cx="536.5" cy="134.5" r="84.2384" transform="rotate(-90 536.5 134.5)" stroke="#0077E4" stroke-width="1.18302"/>
<circle cx="536.5" cy="134.5" r="58.1855" transform="rotate(-90 536.5 134.5)" stroke="#FFC800" stroke-width="0.591512"/>
<circle cx="536.661" cy="134.661" r="37.46" transform="rotate(-90 536.661 134.661)" stroke="#0077E4" stroke-width="0.591512"/>
<circle cx="-12.5" cy="677.5" r="110.908" transform="rotate(-90 -12.5 677.5)" stroke="#FFD024" stroke-opacity="0.63" stroke-width="1.18302"/>
<circle cx="-12.5001" cy="677.5" r="84.2384" transform="rotate(-90 -12.5001 677.5)" stroke="#0077E4" stroke-width="1.18302"/>
<circle cx="-12.4997" cy="677.5" r="58.1855" transform="rotate(-90 -12.4997 677.5)" stroke="#FFC800" stroke-width="0.591512"/>
<circle cx="-12.3395" cy="677.661" r="37.46" transform="rotate(-90 -12.3395 677.661)" stroke="#0077E4" stroke-width="0.591512"/>
<circle cx="-0.726021" cy="277.274" r="66.6481" stroke="#0077E4" stroke-width="0.451852"/>
<circle cx="-0.5" cy="277.5" r="91.2741" stroke="#FFC800" stroke-width="0.451852"/>
<circle cx="536.837" cy="484.837" r="48.0741" stroke="#0077E4" stroke-width="0.325926"/>
<circle cx="537" cy="485" r="65.837" stroke="#FFC800" stroke-width="0.325926"/>
</g>
<defs>
<clipPath id="clip0_102_2">
<rect width="565" height="800" fill="white"/>
</clipPath>
</defs>
</svg>
