<svg width="43" height="43" viewBox="0 0 43 43" fill="none" xmlns="http://www.w3.org/2000/svg">
<path d="M21.23 3.53833C18.9067 3.53833 16.6061 3.99594 14.4597 4.88503C12.3132 5.77412 10.3629 7.07728 8.7201 8.7201C5.40227 12.0379 3.53833 16.5379 3.53833 21.23C3.53833 29.0497 8.61584 35.6841 15.6394 38.0371C16.524 38.1786 16.8071 37.6302 16.8071 37.1525V34.1626C11.9065 35.2241 10.8627 31.7919 10.8627 31.7919C10.0489 29.7397 8.89891 29.1912 8.89891 29.1912C7.28896 28.0944 9.02275 28.1297 9.02275 28.1297C10.7919 28.2536 11.7296 29.952 11.7296 29.952C13.2687 32.6411 15.8694 31.845 16.8778 31.4204C17.0371 30.2704 17.4971 29.492 17.9924 29.0497C14.0649 28.6074 9.94271 27.0859 9.94271 20.3454C9.94271 18.3816 10.615 16.8071 11.765 15.551C11.588 15.1087 10.9688 13.2687 11.9419 10.8804C11.9419 10.8804 13.428 10.4027 16.8071 12.6849C18.2047 12.2957 19.7262 12.1011 21.23 12.1011C22.7338 12.1011 24.2553 12.2957 25.6529 12.6849C29.032 10.4027 30.5181 10.8804 30.5181 10.8804C31.4912 13.2687 30.872 15.1087 30.695 15.551C31.845 16.8071 32.5173 18.3816 32.5173 20.3454C32.5173 27.1036 28.3774 28.5897 24.4322 29.032C25.0691 29.5805 25.6529 30.6597 25.6529 32.305V37.1525C25.6529 37.6302 25.936 38.1963 26.8383 38.0371C33.8618 35.6664 38.9217 29.0497 38.9217 21.23C38.9217 18.9067 38.4641 16.6061 37.575 14.4597C36.6859 12.3132 35.3827 10.3629 33.7399 8.7201C32.0971 7.07728 30.1468 5.77412 28.0003 4.88503C25.8539 3.99594 23.5533 3.53833 21.23 3.53833V3.53833Z" fill="white"/>
</svg>
