<svg width="672" height="274" viewBox="0 0 672 274" fill="none" xmlns="http://www.w3.org/2000/svg">
<rect x="1" y="1" width="670" height="272" rx="9" fill="white" stroke="#0077E4" stroke-width="2"/>
<path d="M21.43 58.51C21.43 57.83 21.5833 57.22 21.89 56.68C22.1967 56.1333 22.6133 55.7067 23.14 55.4C23.6733 55.0933 24.2633 54.94 24.91 54.94C25.67 54.94 26.3333 55.1233 26.9 55.49C27.4667 55.8567 27.88 56.3767 28.14 57.05H27.05C26.8567 56.63 26.5767 56.3067 26.21 56.08C25.85 55.8533 25.4167 55.74 24.91 55.74C24.4233 55.74 23.9867 55.8533 23.6 56.08C23.2133 56.3067 22.91 56.63 22.69 57.05C22.47 57.4633 22.36 57.95 22.36 58.51C22.36 59.0633 22.47 59.55 22.69 59.97C22.91 60.3833 23.2133 60.7033 23.6 60.93C23.9867 61.1567 24.4233 61.27 24.91 61.27C25.4167 61.27 25.85 61.16 26.21 60.94C26.5767 60.7133 26.8567 60.39 27.05 59.97H28.14C27.88 60.6367 27.4667 61.1533 26.9 61.52C26.3333 61.88 25.67 62.06 24.91 62.06C24.2633 62.06 23.6733 61.91 23.14 61.61C22.6133 61.3033 22.1967 60.88 21.89 60.34C21.5833 59.8 21.43 59.19 21.43 58.51ZM31.8846 62.09C31.3713 62.09 30.9046 61.9733 30.4846 61.74C30.0713 61.5067 29.7446 61.1767 29.5046 60.75C29.2713 60.3167 29.1546 59.8167 29.1546 59.25C29.1546 58.69 29.2746 58.1967 29.5146 57.77C29.7613 57.3367 30.0946 57.0067 30.5146 56.78C30.9346 56.5467 31.4046 56.43 31.9246 56.43C32.4446 56.43 32.9146 56.5467 33.3346 56.78C33.7546 57.0067 34.0846 57.3333 34.3246 57.76C34.5713 58.1867 34.6946 58.6833 34.6946 59.25C34.6946 59.8167 34.5679 60.3167 34.3146 60.75C34.0679 61.1767 33.7313 61.5067 33.3046 61.74C32.8779 61.9733 32.4046 62.09 31.8846 62.09ZM31.8846 61.29C32.2113 61.29 32.5179 61.2133 32.8046 61.06C33.0913 60.9067 33.3213 60.6767 33.4946 60.37C33.6746 60.0633 33.7646 59.69 33.7646 59.25C33.7646 58.81 33.6779 58.4367 33.5046 58.13C33.3313 57.8233 33.1046 57.5967 32.8246 57.45C32.5446 57.2967 32.2413 57.22 31.9146 57.22C31.5813 57.22 31.2746 57.2967 30.9946 57.45C30.7213 57.5967 30.5013 57.8233 30.3346 58.13C30.1679 58.4367 30.0846 58.81 30.0846 59.25C30.0846 59.6967 30.1646 60.0733 30.3246 60.38C30.4913 60.6867 30.7113 60.9167 30.9846 61.07C31.2579 61.2167 31.5579 61.29 31.8846 61.29ZM38.5611 56.42C39.2278 56.42 39.7678 56.6233 40.1811 57.03C40.5944 57.43 40.8011 58.01 40.8011 58.77V62H39.9011V58.9C39.9011 58.3533 39.7644 57.9367 39.4911 57.65C39.2178 57.3567 38.8444 57.21 38.3711 57.21C37.8911 57.21 37.5078 57.36 37.2211 57.66C36.9411 57.96 36.8011 58.3967 36.8011 58.97V62H35.8911V56.52H36.8011V57.3C36.9811 57.02 37.2244 56.8033 37.5311 56.65C37.8444 56.4967 38.1878 56.42 38.5611 56.42ZM44.5176 57.27H43.3676V62H42.4576V57.27H41.7476V56.52H42.4576V56.13C42.4576 55.5167 42.6142 55.07 42.9276 54.79C43.2476 54.5033 43.7576 54.36 44.4576 54.36V55.12C44.0576 55.12 43.7742 55.2 43.6076 55.36C43.4476 55.5133 43.3676 55.77 43.3676 56.13V56.52H44.5176V57.27ZM46.0486 55.63C45.8753 55.63 45.7286 55.57 45.6086 55.45C45.4886 55.33 45.4286 55.1833 45.4286 55.01C45.4286 54.8367 45.4886 54.69 45.6086 54.57C45.7286 54.45 45.8753 54.39 46.0486 54.39C46.2153 54.39 46.3553 54.45 46.4686 54.57C46.5886 54.69 46.6486 54.8367 46.6486 55.01C46.6486 55.1833 46.5886 55.33 46.4686 55.45C46.3553 55.57 46.2153 55.63 46.0486 55.63ZM46.4886 56.52V62H45.5786V56.52H46.4886ZM48.9495 57.41C49.1095 57.0967 49.3362 56.8533 49.6295 56.68C49.9295 56.5067 50.2929 56.42 50.7195 56.42V57.36H50.4795C49.4595 57.36 48.9495 57.9133 48.9495 59.02V62H48.0395V56.52H48.9495V57.41ZM51.43 59.24C51.43 58.68 51.5433 58.19 51.77 57.77C51.9967 57.3433 52.3067 57.0133 52.7 56.78C53.1 56.5467 53.5433 56.43 54.03 56.43C54.51 56.43 54.9267 56.5333 55.28 56.74C55.6333 56.9467 55.8967 57.2067 56.07 57.52V56.52H56.99V62H56.07V60.98C55.89 61.3 55.62 61.5667 55.26 61.78C54.9067 61.9867 54.4933 62.09 54.02 62.09C53.5333 62.09 53.0933 61.97 52.7 61.73C52.3067 61.49 51.9967 61.1533 51.77 60.72C51.5433 60.2867 51.43 59.7933 51.43 59.24ZM56.07 59.25C56.07 58.8367 55.9867 58.4767 55.82 58.17C55.6533 57.8633 55.4267 57.63 55.14 57.47C54.86 57.3033 54.55 57.22 54.21 57.22C53.87 57.22 53.56 57.3 53.28 57.46C53 57.62 52.7767 57.8533 52.61 58.16C52.4433 58.4667 52.36 58.8267 52.36 59.24C52.36 59.66 52.4433 60.0267 52.61 60.34C52.7767 60.6467 53 60.8833 53.28 61.05C53.56 61.21 53.87 61.29 54.21 61.29C54.55 61.29 54.86 61.21 55.14 61.05C55.4267 60.8833 55.6533 60.6467 55.82 60.34C55.9867 60.0267 56.07 59.6633 56.07 59.25ZM63.1338 62.09C62.7138 62.09 62.3372 62.02 62.0038 61.88C61.6705 61.7333 61.4072 61.5333 61.2138 61.28C61.0205 61.02 60.9138 60.7233 60.8938 60.39H61.8338C61.8605 60.6633 61.9872 60.8867 62.2138 61.06C62.4472 61.2333 62.7505 61.32 63.1238 61.32C63.4705 61.32 63.7438 61.2433 63.9438 61.09C64.1438 60.9367 64.2438 60.7433 64.2438 60.51C64.2438 60.27 64.1372 60.0933 63.9238 59.98C63.7105 59.86 63.3805 59.7433 62.9338 59.63C62.5272 59.5233 62.1938 59.4167 61.9338 59.31C61.6805 59.1967 61.4605 59.0333 61.2738 58.82C61.0938 58.6 61.0038 58.3133 61.0038 57.96C61.0038 57.68 61.0872 57.4233 61.2538 57.19C61.4205 56.9567 61.6572 56.7733 61.9638 56.64C62.2705 56.5 62.6205 56.43 63.0138 56.43C63.6205 56.43 64.1105 56.5833 64.4838 56.89C64.8572 57.1967 65.0572 57.6167 65.0838 58.15H64.1738C64.1538 57.8633 64.0372 57.6333 63.8238 57.46C63.6172 57.2867 63.3372 57.2 62.9838 57.2C62.6572 57.2 62.3972 57.27 62.2038 57.41C62.0105 57.55 61.9138 57.7333 61.9138 57.96C61.9138 58.14 61.9705 58.29 62.0838 58.41C62.2038 58.5233 62.3505 58.6167 62.5238 58.69C62.7038 58.7567 62.9505 58.8333 63.2638 58.92C63.6572 59.0267 63.9772 59.1333 64.2238 59.24C64.4705 59.34 64.6805 59.4933 64.8538 59.7C65.0338 59.9067 65.1272 60.1767 65.1338 60.51C65.1338 60.81 65.0505 61.08 64.8838 61.32C64.7172 61.56 64.4805 61.75 64.1738 61.89C63.8738 62.0233 63.5272 62.09 63.1338 62.09ZM71.2784 56.52V62H70.3684V61.19C70.1951 61.47 69.9518 61.69 69.6384 61.85C69.3318 62.0033 68.9918 62.08 68.6184 62.08C68.1918 62.08 67.8084 61.9933 67.4684 61.82C67.1284 61.64 66.8584 61.3733 66.6584 61.02C66.4651 60.6667 66.3684 60.2367 66.3684 59.73V56.52H67.2684V59.61C67.2684 60.15 67.4051 60.5667 67.6784 60.86C67.9518 61.1467 68.3251 61.29 68.7984 61.29C69.2851 61.29 69.6684 61.14 69.9484 60.84C70.2284 60.54 70.3684 60.1033 70.3684 59.53V56.52H71.2784ZM72.4749 59.24C72.4749 58.68 72.5883 58.19 72.8149 57.77C73.0416 57.3433 73.3516 57.0133 73.7449 56.78C74.1449 56.5467 74.5883 56.43 75.0749 56.43C75.5549 56.43 75.9716 56.5333 76.3249 56.74C76.6783 56.9467 76.9416 57.2067 77.1149 57.52V56.52H78.0349V62H77.1149V60.98C76.9349 61.3 76.6649 61.5667 76.3049 61.78C75.9516 61.9867 75.5383 62.09 75.0649 62.09C74.5783 62.09 74.1383 61.97 73.7449 61.73C73.3516 61.49 73.0416 61.1533 72.8149 60.72C72.5883 60.2867 72.4749 59.7933 72.4749 59.24ZM77.1149 59.25C77.1149 58.8367 77.0316 58.4767 76.8649 58.17C76.6983 57.8633 76.4716 57.63 76.1849 57.47C75.9049 57.3033 75.5949 57.22 75.2549 57.22C74.9149 57.22 74.6049 57.3 74.3249 57.46C74.0449 57.62 73.8216 57.8533 73.6549 58.16C73.4883 58.4667 73.4049 58.8267 73.4049 59.24C73.4049 59.66 73.4883 60.0267 73.6549 60.34C73.8216 60.6467 74.0449 60.8833 74.3249 61.05C74.6049 61.21 74.9149 61.29 75.2549 61.29C75.5949 61.29 75.9049 61.21 76.1849 61.05C76.4716 60.8833 76.6983 60.6467 76.8649 60.34C77.0316 60.0267 77.1149 59.6633 77.1149 59.25ZM81.5127 62.09C81.0927 62.09 80.7161 62.02 80.3827 61.88C80.0494 61.7333 79.7861 61.5333 79.5927 61.28C79.3994 61.02 79.2927 60.7233 79.2727 60.39H80.2127C80.2394 60.6633 80.3661 60.8867 80.5927 61.06C80.8261 61.2333 81.1294 61.32 81.5027 61.32C81.8494 61.32 82.1227 61.2433 82.3227 61.09C82.5227 60.9367 82.6227 60.7433 82.6227 60.51C82.6227 60.27 82.5161 60.0933 82.3027 59.98C82.0894 59.86 81.7594 59.7433 81.3127 59.63C80.9061 59.5233 80.5727 59.4167 80.3127 59.31C80.0594 59.1967 79.8394 59.0333 79.6527 58.82C79.4727 58.6 79.3827 58.3133 79.3827 57.96C79.3827 57.68 79.4661 57.4233 79.6327 57.19C79.7994 56.9567 80.0361 56.7733 80.3427 56.64C80.6494 56.5 80.9994 56.43 81.3927 56.43C81.9994 56.43 82.4894 56.5833 82.8627 56.89C83.2361 57.1967 83.4361 57.6167 83.4627 58.15H82.5527C82.5327 57.8633 82.4161 57.6333 82.2027 57.46C81.9961 57.2867 81.7161 57.2 81.3627 57.2C81.0361 57.2 80.7761 57.27 80.5827 57.41C80.3894 57.55 80.2927 57.7333 80.2927 57.96C80.2927 58.14 80.3494 58.29 80.4627 58.41C80.5827 58.5233 80.7294 58.6167 80.9027 58.69C81.0827 58.7567 81.3294 58.8333 81.6427 58.92C82.0361 59.0267 82.3561 59.1333 82.6027 59.24C82.8494 59.34 83.0594 59.4933 83.2327 59.7C83.4127 59.9067 83.5061 60.1767 83.5127 60.51C83.5127 60.81 83.4294 61.08 83.2627 61.32C83.0961 61.56 82.8594 61.75 82.5527 61.89C82.2527 62.0233 81.9061 62.09 81.5127 62.09ZM94.0534 56.42C94.48 56.42 94.86 56.51 95.1934 56.69C95.5267 56.8633 95.79 57.1267 95.9834 57.48C96.1767 57.8333 96.2734 58.2633 96.2734 58.77V62H95.3734V58.9C95.3734 58.3533 95.2367 57.9367 94.9634 57.65C94.6967 57.3567 94.3334 57.21 93.8734 57.21C93.4 57.21 93.0234 57.3633 92.7434 57.67C92.4634 57.97 92.3234 58.4067 92.3234 58.98V62H91.4234V58.9C91.4234 58.3533 91.2867 57.9367 91.0134 57.65C90.7467 57.3567 90.3834 57.21 89.9234 57.21C89.45 57.21 89.0734 57.3633 88.7934 57.67C88.5134 57.97 88.3734 58.4067 88.3734 58.98V62H87.4634V56.52H88.3734V57.31C88.5534 57.0233 88.7934 56.8033 89.0934 56.65C89.4 56.4967 89.7367 56.42 90.1034 56.42C90.5634 56.42 90.97 56.5233 91.3234 56.73C91.6767 56.9367 91.94 57.24 92.1134 57.64C92.2667 57.2533 92.52 56.9533 92.8734 56.74C93.2267 56.5267 93.62 56.42 94.0534 56.42ZM102.766 59.05C102.766 59.2233 102.756 59.4067 102.736 59.6H98.3561C98.3894 60.14 98.5728 60.5633 98.9061 60.87C99.2461 61.17 99.6561 61.32 100.136 61.32C100.529 61.32 100.856 61.23 101.116 61.05C101.383 60.8633 101.569 60.6167 101.676 60.31H102.656C102.509 60.8367 102.216 61.2667 101.776 61.6C101.336 61.9267 100.789 62.09 100.136 62.09C99.6161 62.09 99.1494 61.9733 98.7361 61.74C98.3294 61.5067 98.0094 61.1767 97.7761 60.75C97.5428 60.3167 97.4261 59.8167 97.4261 59.25C97.4261 58.6833 97.5394 58.1867 97.7661 57.76C97.9928 57.3333 98.3094 57.0067 98.7161 56.78C99.1294 56.5467 99.6028 56.43 100.136 56.43C100.656 56.43 101.116 56.5433 101.516 56.77C101.916 56.9967 102.223 57.31 102.436 57.71C102.656 58.1033 102.766 58.55 102.766 59.05ZM101.826 58.86C101.826 58.5133 101.749 58.2167 101.596 57.97C101.443 57.7167 101.233 57.5267 100.966 57.4C100.706 57.2667 100.416 57.2 100.096 57.2C99.6361 57.2 99.2428 57.3467 98.9161 57.64C98.5961 57.9333 98.4128 58.34 98.3661 58.86H101.826ZM104.877 54.6V62H103.967V54.6H104.877ZM109.148 56.42C109.562 56.42 109.935 56.51 110.268 56.69C110.602 56.8633 110.862 57.1267 111.048 57.48C111.242 57.8333 111.338 58.2633 111.338 58.77V62H110.438V58.9C110.438 58.3533 110.302 57.9367 110.028 57.65C109.755 57.3567 109.382 57.21 108.908 57.21C108.428 57.21 108.045 57.36 107.758 57.66C107.478 57.96 107.338 58.3967 107.338 58.97V62H106.428V54.6H107.338V57.3C107.518 57.02 107.765 56.8033 108.078 56.65C108.398 56.4967 108.755 56.42 109.148 56.42ZM115.215 62.09C114.701 62.09 114.235 61.9733 113.815 61.74C113.401 61.5067 113.075 61.1767 112.835 60.75C112.601 60.3167 112.485 59.8167 112.485 59.25C112.485 58.69 112.605 58.1967 112.845 57.77C113.091 57.3367 113.425 57.0067 113.845 56.78C114.265 56.5467 114.735 56.43 115.255 56.43C115.775 56.43 116.245 56.5467 116.665 56.78C117.085 57.0067 117.415 57.3333 117.655 57.76C117.901 58.1867 118.025 58.6833 118.025 59.25C118.025 59.8167 117.898 60.3167 117.645 60.75C117.398 61.1767 117.061 61.5067 116.635 61.74C116.208 61.9733 115.735 62.09 115.215 62.09ZM115.215 61.29C115.541 61.29 115.848 61.2133 116.135 61.06C116.421 60.9067 116.651 60.6767 116.825 60.37C117.005 60.0633 117.095 59.69 117.095 59.25C117.095 58.81 117.008 58.4367 116.835 58.13C116.661 57.8233 116.435 57.5967 116.155 57.45C115.875 57.2967 115.571 57.22 115.245 57.22C114.911 57.22 114.605 57.2967 114.325 57.45C114.051 57.5967 113.831 57.8233 113.665 58.13C113.498 58.4367 113.415 58.81 113.415 59.25C113.415 59.6967 113.495 60.0733 113.655 60.38C113.821 60.6867 114.041 60.9167 114.315 61.07C114.588 61.2167 114.888 61.29 115.215 61.29ZM120.131 57.41C120.291 57.0967 120.518 56.8533 120.811 56.68C121.111 56.5067 121.475 56.42 121.901 56.42V57.36H121.661C120.641 57.36 120.131 57.9133 120.131 59.02V62H119.221V56.52H120.131V57.41ZM127.952 59.05C127.952 59.2233 127.942 59.4067 127.922 59.6H123.542C123.575 60.14 123.758 60.5633 124.092 60.87C124.432 61.17 124.842 61.32 125.322 61.32C125.715 61.32 126.042 61.23 126.302 61.05C126.568 60.8633 126.755 60.6167 126.862 60.31H127.842C127.695 60.8367 127.402 61.2667 126.962 61.6C126.522 61.9267 125.975 62.09 125.322 62.09C124.802 62.09 124.335 61.9733 123.922 61.74C123.515 61.5067 123.195 61.1767 122.962 60.75C122.728 60.3167 122.612 59.8167 122.612 59.25C122.612 58.6833 122.725 58.1867 122.952 57.76C123.178 57.3333 123.495 57.0067 123.902 56.78C124.315 56.5467 124.788 56.43 125.322 56.43C125.842 56.43 126.302 56.5433 126.702 56.77C127.102 56.9967 127.408 57.31 127.622 57.71C127.842 58.1033 127.952 58.55 127.952 59.05ZM127.012 58.86C127.012 58.5133 126.935 58.2167 126.782 57.97C126.628 57.7167 126.418 57.5267 126.152 57.4C125.892 57.2667 125.602 57.2 125.282 57.2C124.822 57.2 124.428 57.3467 124.102 57.64C123.782 57.9333 123.598 58.34 123.552 58.86H127.012ZM131.093 62.09C130.673 62.09 130.296 62.02 129.963 61.88C129.629 61.7333 129.366 61.5333 129.173 61.28C128.979 61.02 128.873 60.7233 128.853 60.39H129.793C129.819 60.6633 129.946 60.8867 130.173 61.06C130.406 61.2333 130.709 61.32 131.083 61.32C131.429 61.32 131.703 61.2433 131.903 61.09C132.103 60.9367 132.203 60.7433 132.203 60.51C132.203 60.27 132.096 60.0933 131.883 59.98C131.669 59.86 131.339 59.7433 130.893 59.63C130.486 59.5233 130.153 59.4167 129.893 59.31C129.639 59.1967 129.419 59.0333 129.233 58.82C129.053 58.6 128.963 58.3133 128.963 57.96C128.963 57.68 129.046 57.4233 129.213 57.19C129.379 56.9567 129.616 56.7733 129.923 56.64C130.229 56.5 130.579 56.43 130.973 56.43C131.579 56.43 132.069 56.5833 132.443 56.89C132.816 57.1967 133.016 57.6167 133.043 58.15H132.133C132.113 57.8633 131.996 57.6333 131.783 57.46C131.576 57.2867 131.296 57.2 130.943 57.2C130.616 57.2 130.356 57.27 130.163 57.41C129.969 57.55 129.873 57.7333 129.873 57.96C129.873 58.14 129.929 58.29 130.043 58.41C130.163 58.5233 130.309 58.6167 130.483 58.69C130.663 58.7567 130.909 58.8333 131.223 58.92C131.616 59.0267 131.936 59.1333 132.183 59.24C132.429 59.34 132.639 59.4933 132.813 59.7C132.993 59.9067 133.086 60.1767 133.093 60.51C133.093 60.81 133.009 61.08 132.843 61.32C132.676 61.56 132.439 61.75 132.133 61.89C131.833 62.0233 131.486 62.09 131.093 62.09ZM139.083 61.16L140.783 56.52H141.753L139.603 62H138.543L136.393 56.52H137.373L139.083 61.16ZM147.649 59.05C147.649 59.2233 147.639 59.4067 147.619 59.6H143.239C143.272 60.14 143.456 60.5633 143.789 60.87C144.129 61.17 144.539 61.32 145.019 61.32C145.412 61.32 145.739 61.23 145.999 61.05C146.266 60.8633 146.452 60.6167 146.559 60.31H147.539C147.392 60.8367 147.099 61.2667 146.659 61.6C146.219 61.9267 145.672 62.09 145.019 62.09C144.499 62.09 144.032 61.9733 143.619 61.74C143.212 61.5067 142.892 61.1767 142.659 60.75C142.426 60.3167 142.309 59.8167 142.309 59.25C142.309 58.6833 142.422 58.1867 142.649 57.76C142.876 57.3333 143.192 57.0067 143.599 56.78C144.012 56.5467 144.486 56.43 145.019 56.43C145.539 56.43 145.999 56.5433 146.399 56.77C146.799 56.9967 147.106 57.31 147.319 57.71C147.539 58.1033 147.649 58.55 147.649 59.05ZM146.709 58.86C146.709 58.5133 146.632 58.2167 146.479 57.97C146.326 57.7167 146.116 57.5267 145.849 57.4C145.589 57.2667 145.299 57.2 144.979 57.2C144.519 57.2 144.126 57.3467 143.799 57.64C143.479 57.9333 143.296 58.34 143.249 58.86H146.709ZM151.52 56.42C152.187 56.42 152.727 56.6233 153.14 57.03C153.553 57.43 153.76 58.01 153.76 58.77V62H152.86V58.9C152.86 58.3533 152.723 57.9367 152.45 57.65C152.177 57.3567 151.803 57.21 151.33 57.21C150.85 57.21 150.467 57.36 150.18 57.66C149.9 57.96 149.76 58.3967 149.76 58.97V62H148.85V56.52H149.76V57.3C149.94 57.02 150.183 56.8033 150.49 56.65C150.803 56.4967 151.147 56.42 151.52 56.42ZM154.907 59.24C154.907 58.68 155.02 58.19 155.247 57.77C155.473 57.3433 155.783 57.0133 156.177 56.78C156.577 56.5467 157.023 56.43 157.517 56.43C157.943 56.43 158.34 56.53 158.707 56.73C159.073 56.9233 159.353 57.18 159.547 57.5V54.6H160.467V62H159.547V60.97C159.367 61.2967 159.1 61.5667 158.747 61.78C158.393 61.9867 157.98 62.09 157.507 62.09C157.02 62.09 156.577 61.97 156.177 61.73C155.783 61.49 155.473 61.1533 155.247 60.72C155.02 60.2867 154.907 59.7933 154.907 59.24ZM159.547 59.25C159.547 58.8367 159.463 58.4767 159.297 58.17C159.13 57.8633 158.903 57.63 158.617 57.47C158.337 57.3033 158.027 57.22 157.687 57.22C157.347 57.22 157.037 57.3 156.757 57.46C156.477 57.62 156.253 57.8533 156.087 58.16C155.92 58.4667 155.837 58.8267 155.837 59.24C155.837 59.66 155.92 60.0267 156.087 60.34C156.253 60.6467 156.477 60.8833 156.757 61.05C157.037 61.21 157.347 61.29 157.687 61.29C158.027 61.29 158.337 61.21 158.617 61.05C158.903 60.8833 159.13 60.6467 159.297 60.34C159.463 60.0267 159.547 59.6633 159.547 59.25ZM161.664 59.24C161.664 58.68 161.778 58.19 162.004 57.77C162.231 57.3433 162.541 57.0133 162.934 56.78C163.334 56.5467 163.778 56.43 164.264 56.43C164.744 56.43 165.161 56.5333 165.514 56.74C165.868 56.9467 166.131 57.2067 166.304 57.52V56.52H167.224V62H166.304V60.98C166.124 61.3 165.854 61.5667 165.494 61.78C165.141 61.9867 164.728 62.09 164.254 62.09C163.768 62.09 163.328 61.97 162.934 61.73C162.541 61.49 162.231 61.1533 162.004 60.72C161.778 60.2867 161.664 59.7933 161.664 59.24ZM166.304 59.25C166.304 58.8367 166.221 58.4767 166.054 58.17C165.888 57.8633 165.661 57.63 165.374 57.47C165.094 57.3033 164.784 57.22 164.444 57.22C164.104 57.22 163.794 57.3 163.514 57.46C163.234 57.62 163.011 57.8533 162.844 58.16C162.678 58.4667 162.594 58.8267 162.594 59.24C162.594 59.66 162.678 60.0267 162.844 60.34C163.011 60.6467 163.234 60.8833 163.514 61.05C163.794 61.21 164.104 61.29 164.444 61.29C164.784 61.29 165.094 61.21 165.374 61.05C165.661 60.8833 165.888 60.6467 166.054 60.34C166.221 60.0267 166.304 59.6633 166.304 59.25ZM170.702 62.09C170.282 62.09 169.906 62.02 169.572 61.88C169.239 61.7333 168.976 61.5333 168.782 61.28C168.589 61.02 168.482 60.7233 168.462 60.39H169.402C169.429 60.6633 169.556 60.8867 169.782 61.06C170.016 61.2333 170.319 61.32 170.692 61.32C171.039 61.32 171.312 61.2433 171.512 61.09C171.712 60.9367 171.812 60.7433 171.812 60.51C171.812 60.27 171.706 60.0933 171.492 59.98C171.279 59.86 170.949 59.7433 170.502 59.63C170.096 59.5233 169.762 59.4167 169.502 59.31C169.249 59.1967 169.029 59.0333 168.842 58.82C168.662 58.6 168.572 58.3133 168.572 57.96C168.572 57.68 168.656 57.4233 168.822 57.19C168.989 56.9567 169.226 56.7733 169.532 56.64C169.839 56.5 170.189 56.43 170.582 56.43C171.189 56.43 171.679 56.5833 172.052 56.89C172.426 57.1967 172.626 57.6167 172.652 58.15H171.742C171.722 57.8633 171.606 57.6333 171.392 57.46C171.186 57.2867 170.906 57.2 170.552 57.2C170.226 57.2 169.966 57.27 169.772 57.41C169.579 57.55 169.482 57.7333 169.482 57.96C169.482 58.14 169.539 58.29 169.652 58.41C169.772 58.5233 169.919 58.6167 170.092 58.69C170.272 58.7567 170.519 58.8333 170.832 58.92C171.226 59.0267 171.546 59.1333 171.792 59.24C172.039 59.34 172.249 59.4933 172.422 59.7C172.602 59.9067 172.696 60.1767 172.702 60.51C172.702 60.81 172.619 61.08 172.452 61.32C172.286 61.56 172.049 61.75 171.742 61.89C171.442 62.0233 171.096 62.09 170.702 62.09ZM176.313 59.24C176.313 58.68 176.426 58.19 176.653 57.77C176.879 57.3433 177.189 57.0133 177.583 56.78C177.983 56.5467 178.429 56.43 178.923 56.43C179.349 56.43 179.746 56.53 180.113 56.73C180.479 56.9233 180.759 57.18 180.953 57.5V54.6H181.873V62H180.953V60.97C180.773 61.2967 180.506 61.5667 180.153 61.78C179.799 61.9867 179.386 62.09 178.913 62.09C178.426 62.09 177.983 61.97 177.583 61.73C177.189 61.49 176.879 61.1533 176.653 60.72C176.426 60.2867 176.313 59.7933 176.313 59.24ZM180.953 59.25C180.953 58.8367 180.869 58.4767 180.703 58.17C180.536 57.8633 180.309 57.63 180.023 57.47C179.743 57.3033 179.433 57.22 179.093 57.22C178.753 57.22 178.443 57.3 178.163 57.46C177.883 57.62 177.659 57.8533 177.493 58.16C177.326 58.4667 177.243 58.8267 177.243 59.24C177.243 59.66 177.326 60.0267 177.493 60.34C177.659 60.6467 177.883 60.8833 178.163 61.05C178.443 61.21 178.753 61.29 179.093 61.29C179.433 61.29 179.743 61.21 180.023 61.05C180.309 60.8833 180.536 60.6467 180.703 60.34C180.869 60.0267 180.953 59.6633 180.953 59.25ZM185.801 62.09C185.287 62.09 184.821 61.9733 184.401 61.74C183.987 61.5067 183.661 61.1767 183.421 60.75C183.187 60.3167 183.071 59.8167 183.071 59.25C183.071 58.69 183.191 58.1967 183.431 57.77C183.677 57.3367 184.011 57.0067 184.431 56.78C184.851 56.5467 185.321 56.43 185.841 56.43C186.361 56.43 186.831 56.5467 187.251 56.78C187.671 57.0067 188.001 57.3333 188.241 57.76C188.487 58.1867 188.611 58.6833 188.611 59.25C188.611 59.8167 188.484 60.3167 188.231 60.75C187.984 61.1767 187.647 61.5067 187.221 61.74C186.794 61.9733 186.321 62.09 185.801 62.09ZM185.801 61.29C186.127 61.29 186.434 61.2133 186.721 61.06C187.007 60.9067 187.237 60.6767 187.411 60.37C187.591 60.0633 187.681 59.69 187.681 59.25C187.681 58.81 187.594 58.4367 187.421 58.13C187.247 57.8233 187.021 57.5967 186.741 57.45C186.461 57.2967 186.157 57.22 185.831 57.22C185.497 57.22 185.191 57.2967 184.911 57.45C184.637 57.5967 184.417 57.8233 184.251 58.13C184.084 58.4367 184.001 58.81 184.001 59.25C184.001 59.6967 184.081 60.0733 184.241 60.38C184.407 60.6867 184.627 60.9167 184.901 61.07C185.174 61.2167 185.474 61.29 185.801 61.29ZM192.133 59.24C192.133 58.68 192.246 58.19 192.473 57.77C192.7 57.3433 193.01 57.0133 193.403 56.78C193.803 56.5467 194.246 56.43 194.733 56.43C195.213 56.43 195.63 56.5333 195.983 56.74C196.336 56.9467 196.6 57.2067 196.773 57.52V56.52H197.693V62H196.773V60.98C196.593 61.3 196.323 61.5667 195.963 61.78C195.61 61.9867 195.196 62.09 194.723 62.09C194.236 62.09 193.796 61.97 193.403 61.73C193.01 61.49 192.7 61.1533 192.473 60.72C192.246 60.2867 192.133 59.7933 192.133 59.24ZM196.773 59.25C196.773 58.8367 196.69 58.4767 196.523 58.17C196.356 57.8633 196.13 57.63 195.843 57.47C195.563 57.3033 195.253 57.22 194.913 57.22C194.573 57.22 194.263 57.3 193.983 57.46C193.703 57.62 193.48 57.8533 193.313 58.16C193.146 58.4667 193.063 58.8267 193.063 59.24C193.063 59.66 193.146 60.0267 193.313 60.34C193.48 60.6467 193.703 60.8833 193.983 61.05C194.263 61.21 194.573 61.29 194.913 61.29C195.253 61.29 195.563 61.21 195.843 61.05C196.13 60.8833 196.356 60.6467 196.523 60.34C196.69 60.0267 196.773 59.6633 196.773 59.25ZM201.901 56.42C202.568 56.42 203.108 56.6233 203.521 57.03C203.934 57.43 204.141 58.01 204.141 58.77V62H203.241V58.9C203.241 58.3533 203.104 57.9367 202.831 57.65C202.558 57.3567 202.184 57.21 201.711 57.21C201.231 57.21 200.848 57.36 200.561 57.66C200.281 57.96 200.141 58.3967 200.141 58.97V62H199.231V56.52H200.141V57.3C200.321 57.02 200.564 56.8033 200.871 56.65C201.184 56.4967 201.528 56.42 201.901 56.42ZM208.017 62.09C207.504 62.09 207.037 61.9733 206.617 61.74C206.204 61.5067 205.877 61.1767 205.637 60.75C205.404 60.3167 205.287 59.8167 205.287 59.25C205.287 58.69 205.407 58.1967 205.647 57.77C205.894 57.3367 206.227 57.0067 206.647 56.78C207.067 56.5467 207.537 56.43 208.057 56.43C208.577 56.43 209.047 56.5467 209.467 56.78C209.887 57.0067 210.217 57.3333 210.457 57.76C210.704 58.1867 210.827 58.6833 210.827 59.25C210.827 59.8167 210.701 60.3167 210.447 60.75C210.201 61.1767 209.864 61.5067 209.437 61.74C209.011 61.9733 208.537 62.09 208.017 62.09ZM208.017 61.29C208.344 61.29 208.651 61.2133 208.937 61.06C209.224 60.9067 209.454 60.6767 209.627 60.37C209.807 60.0633 209.897 59.69 209.897 59.25C209.897 58.81 209.811 58.4367 209.637 58.13C209.464 57.8233 209.237 57.5967 208.957 57.45C208.677 57.2967 208.374 57.22 208.047 57.22C207.714 57.22 207.407 57.2967 207.127 57.45C206.854 57.5967 206.634 57.8233 206.467 58.13C206.301 58.4367 206.217 58.81 206.217 59.25C206.217 59.6967 206.297 60.0733 206.457 60.38C206.624 60.6867 206.844 60.9167 207.117 61.07C207.391 61.2167 207.691 61.29 208.017 61.29Z" fill="black"/>
<path d="M118.359 103.22C86.8612 102.329 57.12 157.366 0 163.337V261H672V194.378C636.257 173.106 589.15 91.2072 551.712 91.2072C514.274 91.2072 506.433 99.5287 485.184 144.875C463.935 190.221 416.42 165.246 370.944 130.504C325.468 95.7617 319.2 69.0001 291.16 69C263.121 68.9999 244.608 130.504 203.217 130.504C161.825 130.504 149.856 104.111 118.359 103.22Z" fill="url(#paint0_linear_793_979)"/>
<path d="M37.85 23.625L31.325 41H28.025L21.475 23.625H24.525L29.675 38.075L34.85 23.625H37.85ZM52.8584 33.775C52.8584 34.2917 52.8251 34.7583 52.7584 35.175H42.2334C42.3167 36.275 42.7251 37.1583 43.4584 37.825C44.1917 38.4917 45.0917 38.825 46.1584 38.825C47.6917 38.825 48.7751 38.1833 49.4084 36.9H52.4834C52.0667 38.1667 51.3084 39.2083 50.2084 40.025C49.1251 40.825 47.7751 41.225 46.1584 41.225C44.8417 41.225 43.6584 40.9333 42.6084 40.35C41.5751 39.75 40.7584 38.9167 40.1584 37.85C39.5751 36.7667 39.2834 35.5167 39.2834 34.1C39.2834 32.6833 39.5667 31.4417 40.1334 30.375C40.7167 29.2917 41.5251 28.4583 42.5584 27.875C43.6084 27.2917 44.8084 27 46.1584 27C47.4584 27 48.6167 27.2833 49.6334 27.85C50.6501 28.4167 51.4417 29.2167 52.0084 30.25C52.5751 31.2667 52.8584 32.4417 52.8584 33.775ZM49.8834 32.875C49.8667 31.825 49.4917 30.9833 48.7584 30.35C48.0251 29.7167 47.1167 29.4 46.0334 29.4C45.0501 29.4 44.2084 29.7167 43.5084 30.35C42.8084 30.9667 42.3917 31.8083 42.2584 32.875H49.8834ZM62.6131 27C63.6964 27 64.6631 27.225 65.5131 27.675C66.3798 28.125 67.0548 28.7917 67.5381 29.675C68.0214 30.5583 68.2631 31.625 68.2631 32.875V41H65.4381V33.3C65.4381 32.0667 65.1298 31.125 64.5131 30.475C63.8964 29.8083 63.0548 29.475 61.9881 29.475C60.9214 29.475 60.0714 29.8083 59.4381 30.475C58.8214 31.125 58.5131 32.0667 58.5131 33.3V41H55.6631V27.225H58.5131V28.8C58.9798 28.2333 59.5714 27.7917 60.2881 27.475C61.0214 27.1583 61.7964 27 62.6131 27ZM70.9484 34.05C70.9484 32.6667 71.2318 31.4417 71.7984 30.375C72.3818 29.3083 73.1651 28.4833 74.1484 27.9C75.1484 27.3 76.2568 27 77.4734 27C78.3734 27 79.2568 27.2 80.1234 27.6C81.0068 27.9833 81.7068 28.5 82.2234 29.15V22.5H85.0984V41H82.2234V38.925C81.7568 39.5917 81.1068 40.1417 80.2734 40.575C79.4568 41.0083 78.5151 41.225 77.4484 41.225C76.2484 41.225 75.1484 40.925 74.1484 40.325C73.1651 39.7083 72.3818 38.8583 71.7984 37.775C71.2318 36.675 70.9484 35.4333 70.9484 34.05ZM82.2234 34.1C82.2234 33.15 82.0234 32.325 81.6234 31.625C81.2401 30.925 80.7318 30.3917 80.0984 30.025C79.4651 29.6583 78.7818 29.475 78.0484 29.475C77.3151 29.475 76.6318 29.6583 75.9984 30.025C75.3651 30.375 74.8484 30.9 74.4484 31.6C74.0651 32.2833 73.8734 33.1 73.8734 34.05C73.8734 35 74.0651 35.8333 74.4484 36.55C74.8484 37.2667 75.3651 37.8167 75.9984 38.2C76.6484 38.5667 77.3318 38.75 78.0484 38.75C78.7818 38.75 79.4651 38.5667 80.0984 38.2C80.7318 37.8333 81.2401 37.3 81.6234 36.6C82.0234 35.8833 82.2234 35.05 82.2234 34.1ZM87.8918 34.05C87.8918 32.6667 88.1751 31.4417 88.7418 30.375C89.3251 29.3083 90.1085 28.4833 91.0918 27.9C92.0918 27.3 93.1918 27 94.3918 27C95.4751 27 96.4168 27.2167 97.2168 27.65C98.0335 28.0667 98.6835 28.5917 99.1668 29.225V27.225H102.042V41H99.1668V38.95C98.6835 39.6 98.0251 40.1417 97.1918 40.575C96.3585 41.0083 95.4085 41.225 94.3418 41.225C93.1585 41.225 92.0751 40.925 91.0918 40.325C90.1085 39.7083 89.3251 38.8583 88.7418 37.775C88.1751 36.675 87.8918 35.4333 87.8918 34.05ZM99.1668 34.1C99.1668 33.15 98.9668 32.325 98.5668 31.625C98.1835 30.925 97.6751 30.3917 97.0418 30.025C96.4085 29.6583 95.7251 29.475 94.9918 29.475C94.2585 29.475 93.5751 29.6583 92.9418 30.025C92.3085 30.375 91.7918 30.9 91.3918 31.6C91.0085 32.2833 90.8168 33.1 90.8168 34.05C90.8168 35 91.0085 35.8333 91.3918 36.55C91.7918 37.2667 92.3085 37.8167 92.9418 38.2C93.5918 38.5667 94.2751 38.75 94.9918 38.75C95.7251 38.75 96.4085 38.5667 97.0418 38.2C97.6751 37.8333 98.1835 37.3 98.5668 36.6C98.9668 35.8833 99.1668 35.05 99.1668 34.1ZM110.785 41.225C109.702 41.225 108.727 41.0333 107.86 40.65C107.01 40.25 106.335 39.7167 105.835 39.05C105.335 38.3667 105.068 37.6083 105.035 36.775H107.985C108.035 37.3583 108.31 37.85 108.81 38.25C109.327 38.6333 109.968 38.825 110.735 38.825C111.535 38.825 112.152 38.675 112.585 38.375C113.035 38.0583 113.26 37.6583 113.26 37.175C113.26 36.6583 113.01 36.275 112.51 36.025C112.027 35.775 111.252 35.5 110.185 35.2C109.152 34.9167 108.31 34.6417 107.66 34.375C107.01 34.1083 106.443 33.7 105.96 33.15C105.493 32.6 105.26 31.875 105.26 30.975C105.26 30.2417 105.477 29.575 105.91 28.975C106.343 28.3583 106.96 27.875 107.76 27.525C108.577 27.175 109.51 27 110.56 27C112.127 27 113.385 27.4 114.335 28.2C115.302 28.9833 115.818 30.0583 115.885 31.425H113.035C112.985 30.8083 112.735 30.3167 112.285 29.95C111.835 29.5833 111.227 29.4 110.46 29.4C109.71 29.4 109.135 29.5417 108.735 29.825C108.335 30.1083 108.135 30.4833 108.135 30.95C108.135 31.3167 108.268 31.625 108.535 31.875C108.802 32.125 109.127 32.325 109.51 32.475C109.893 32.6083 110.46 32.7833 111.21 33C112.21 33.2667 113.027 33.5417 113.66 33.825C114.31 34.0917 114.868 34.4917 115.335 35.025C115.802 35.5583 116.043 36.2667 116.06 37.15C116.06 37.9333 115.843 38.6333 115.41 39.25C114.977 39.8667 114.36 40.35 113.56 40.7C112.777 41.05 111.852 41.225 110.785 41.225Z" fill="black"/>
<rect x="621" y="188" width="41.5769" height="67.3512" rx="6" fill="#0077E4"/>
<path d="M634.622 243H631.797V234.273H634.711C635.567 234.273 636.301 234.447 636.915 234.797C637.528 235.143 637.998 235.642 638.325 236.293C638.655 236.94 638.819 237.717 638.819 238.624C638.819 239.533 638.653 240.314 638.321 240.967C637.991 241.621 637.514 242.124 636.889 242.476C636.264 242.825 635.508 243 634.622 243ZM633.113 241.849H634.55C635.214 241.849 635.767 241.724 636.207 241.474C636.648 241.222 636.977 240.857 637.196 240.379C637.415 239.899 637.524 239.314 637.524 238.624C637.524 237.939 637.415 237.358 637.196 236.881C636.98 236.403 636.657 236.041 636.229 235.794C635.8 235.547 635.267 235.423 634.631 235.423H633.113V241.849ZM643.176 243.132C642.531 243.132 641.975 242.994 641.509 242.719C641.046 242.44 640.688 242.05 640.436 241.547C640.186 241.041 640.061 240.449 640.061 239.77C640.061 239.099 640.186 238.509 640.436 237.997C640.688 237.486 641.041 237.087 641.492 236.8C641.947 236.513 642.478 236.369 643.086 236.369C643.455 236.369 643.813 236.43 644.16 236.553C644.507 236.675 644.818 236.866 645.093 237.128C645.369 237.389 645.586 237.729 645.745 238.146C645.904 238.561 645.984 239.065 645.984 239.659V240.111H640.781V239.156H644.735C644.735 238.821 644.667 238.524 644.531 238.266C644.394 238.004 644.203 237.798 643.955 237.648C643.711 237.497 643.424 237.422 643.095 237.422C642.737 237.422 642.424 237.51 642.157 237.686C641.893 237.859 641.688 238.087 641.544 238.368C641.401 238.646 641.33 238.949 641.33 239.276V240.021C641.33 240.459 641.407 240.831 641.561 241.138C641.717 241.445 641.934 241.679 642.213 241.841C642.491 242 642.816 242.08 643.188 242.08C643.43 242.08 643.65 242.045 643.849 241.977C644.048 241.906 644.22 241.801 644.365 241.662C644.509 241.523 644.62 241.351 644.697 241.146L645.903 241.364C645.806 241.719 645.633 242.03 645.383 242.297C645.136 242.561 644.825 242.767 644.45 242.915C644.078 243.06 643.653 243.132 643.176 243.132ZM647.261 243V242.126L650.807 237.622V237.562H647.376V236.455H652.396V237.384L648.987 241.832V241.892H652.515V243H647.261Z" fill="white"/>
<rect x="565.385" y="140.198" width="41.5769" height="114.901" rx="6" fill="#0077E4"/>
<path d="M584.128 238.636C584.128 239.568 583.957 240.369 583.616 241.04C583.275 241.707 582.808 242.222 582.214 242.582C581.623 242.94 580.952 243.119 580.199 243.119C579.443 243.119 578.768 242.94 578.175 242.582C577.584 242.222 577.118 241.706 576.777 241.036C576.436 240.365 576.265 239.565 576.265 238.636C576.265 237.705 576.436 236.905 576.777 236.237C577.118 235.567 577.584 235.053 578.175 234.695C578.768 234.334 579.443 234.153 580.199 234.153C580.952 234.153 581.623 234.334 582.214 234.695C582.808 235.053 583.275 235.567 583.616 236.237C583.957 236.905 584.128 237.705 584.128 238.636ZM582.824 238.636C582.824 237.926 582.709 237.328 582.479 236.842C582.251 236.354 581.939 235.984 581.541 235.734C581.146 235.482 580.699 235.355 580.199 235.355C579.696 235.355 579.247 235.482 578.852 235.734C578.457 235.984 578.145 236.354 577.915 236.842C577.687 237.328 577.574 237.926 577.574 238.636C577.574 239.347 577.687 239.946 577.915 240.435C578.145 240.92 578.457 241.29 578.852 241.543C579.247 241.793 579.696 241.918 580.199 241.918C580.699 241.918 581.146 241.793 581.541 241.543C581.939 241.29 582.251 240.92 582.479 240.435C582.709 239.946 582.824 239.347 582.824 238.636ZM589.813 240.286V236.455H591.092V243H589.839V241.866H589.771C589.62 242.216 589.379 242.507 589.046 242.74C588.717 242.97 588.306 243.085 587.815 243.085C587.394 243.085 587.022 242.993 586.698 242.808C586.377 242.621 586.124 242.344 585.94 241.977C585.758 241.611 585.667 241.158 585.667 240.618V236.455H586.941V240.464C586.941 240.911 587.065 241.266 587.312 241.53C587.559 241.794 587.88 241.926 588.275 241.926C588.514 241.926 588.751 241.866 588.987 241.747C589.225 241.628 589.423 241.447 589.579 241.206C589.738 240.964 589.816 240.658 589.813 240.286ZM595.859 236.455V237.477H592.284V236.455H595.859ZM593.243 234.886H594.517V241.078C594.517 241.325 594.554 241.511 594.628 241.636C594.702 241.759 594.797 241.842 594.913 241.888C595.032 241.93 595.162 241.952 595.301 241.952C595.403 241.952 595.493 241.945 595.569 241.93C595.646 241.916 595.706 241.905 595.748 241.896L595.979 242.949C595.905 242.977 595.8 243.006 595.663 243.034C595.527 243.065 595.356 243.082 595.152 243.085C594.817 243.091 594.504 243.031 594.214 242.906C593.925 242.781 593.69 242.588 593.511 242.327C593.332 242.065 593.243 241.737 593.243 241.342V234.886Z" fill="white"/>
<rect x="509.346" y="140.198" width="41.5769" height="114.901" rx="6" fill="#0077E4"/>
<path d="M528.128 239.636C528.128 240.568 527.957 241.369 527.616 242.04C527.275 242.707 526.808 243.222 526.214 243.582C525.623 243.94 524.952 244.119 524.199 244.119C523.443 244.119 522.768 243.94 522.175 243.582C521.584 243.222 521.118 242.706 520.777 242.036C520.436 241.365 520.265 240.565 520.265 239.636C520.265 238.705 520.436 237.905 520.777 237.237C521.118 236.567 521.584 236.053 522.175 235.695C522.768 235.334 523.443 235.153 524.199 235.153C524.952 235.153 525.623 235.334 526.214 235.695C526.808 236.053 527.275 236.567 527.616 237.237C527.957 237.905 528.128 238.705 528.128 239.636ZM526.824 239.636C526.824 238.926 526.709 238.328 526.479 237.842C526.251 237.354 525.939 236.984 525.541 236.734C525.146 236.482 524.699 236.355 524.199 236.355C523.696 236.355 523.247 236.482 522.852 236.734C522.457 236.984 522.145 237.354 521.915 237.842C521.687 238.328 521.574 238.926 521.574 239.636C521.574 240.347 521.687 240.946 521.915 241.435C522.145 241.92 522.457 242.29 522.852 242.543C523.247 242.793 523.696 242.918 524.199 242.918C524.699 242.918 525.146 242.793 525.541 242.543C525.939 242.29 526.251 241.92 526.479 241.435C526.709 240.946 526.824 240.347 526.824 239.636ZM533.813 241.286V237.455H535.092V244H533.839V242.866H533.771C533.62 243.216 533.379 243.507 533.046 243.74C532.717 243.97 532.306 244.085 531.815 244.085C531.394 244.085 531.022 243.993 530.698 243.808C530.377 243.621 530.124 243.344 529.94 242.977C529.758 242.611 529.667 242.158 529.667 241.618V237.455H530.941V241.464C530.941 241.911 531.065 242.266 531.312 242.53C531.559 242.794 531.88 242.926 532.275 242.926C532.514 242.926 532.751 242.866 532.987 242.747C533.225 242.628 533.423 242.447 533.579 242.206C533.738 241.964 533.816 241.658 533.813 241.286ZM539.859 237.455V238.477H536.284V237.455H539.859ZM537.243 235.886H538.517V242.078C538.517 242.325 538.554 242.511 538.628 242.636C538.702 242.759 538.797 242.842 538.913 242.888C539.032 242.93 539.162 242.952 539.301 242.952C539.403 242.952 539.493 242.945 539.569 242.93C539.646 242.916 539.706 242.905 539.748 242.896L539.979 243.949C539.905 243.977 539.8 244.006 539.663 244.034C539.527 244.065 539.356 244.082 539.152 244.085C538.817 244.091 538.504 244.031 538.214 243.906C537.925 243.781 537.69 243.588 537.511 243.327C537.332 243.065 537.243 242.737 537.243 242.342V235.886Z" fill="white"/>
<rect x="453.308" y="181.389" width="41.5769" height="73.71" rx="6" fill="#0077E4"/>
<path d="M471.618 234.273V243H470.408L465.972 236.599H465.891V243H464.574V234.273H465.793L470.233 240.682H470.314V234.273H471.618ZM476.194 243.132C475.58 243.132 475.045 242.991 474.587 242.71C474.13 242.429 473.775 242.036 473.522 241.53C473.269 241.024 473.143 240.433 473.143 239.757C473.143 239.078 473.269 238.484 473.522 237.976C473.775 237.467 474.13 237.072 474.587 236.791C475.045 236.51 475.58 236.369 476.194 236.369C476.807 236.369 477.343 236.51 477.8 236.791C478.258 237.072 478.613 237.467 478.866 237.976C479.118 238.484 479.245 239.078 479.245 239.757C479.245 240.433 479.118 241.024 478.866 241.53C478.613 242.036 478.258 242.429 477.8 242.71C477.343 242.991 476.807 243.132 476.194 243.132ZM476.198 242.062C476.596 242.062 476.925 241.957 477.187 241.747C477.448 241.537 477.641 241.257 477.766 240.908C477.894 240.558 477.958 240.173 477.958 239.753C477.958 239.335 477.894 238.952 477.766 238.602C477.641 238.25 477.448 237.967 477.187 237.754C476.925 237.541 476.596 237.435 476.198 237.435C475.797 237.435 475.465 237.541 475.201 237.754C474.939 237.967 474.745 238.25 474.617 238.602C474.492 238.952 474.43 239.335 474.43 239.753C474.43 240.173 474.492 240.558 474.617 240.908C474.745 241.257 474.939 241.537 475.201 241.747C475.465 241.957 475.797 242.062 476.198 242.062ZM486.044 236.455L483.67 243H482.307L479.929 236.455H481.297L482.954 241.491H483.023L484.676 236.455H486.044Z" fill="white"/>
<rect x="397.269" y="191.145" width="41.5769" height="63.9543" rx="6" fill="#0077E4"/>
<path d="M408.229 243H406.831L409.972 234.273H411.493L414.634 243H413.236L410.769 235.858H410.701L408.229 243ZM408.464 239.582H412.998V240.69H408.464V239.582ZM418.431 245.591C417.911 245.591 417.464 245.523 417.089 245.386C416.716 245.25 416.412 245.07 416.177 244.845C415.941 244.621 415.765 244.375 415.648 244.108L416.743 243.656C416.82 243.781 416.922 243.913 417.05 244.053C417.181 244.195 417.357 244.315 417.579 244.415C417.803 244.514 418.091 244.564 418.444 244.564C418.927 244.564 419.326 244.446 419.641 244.21C419.956 243.977 420.114 243.605 420.114 243.094V241.807H420.033C419.956 241.946 419.846 242.101 419.701 242.271C419.559 242.442 419.363 242.589 419.113 242.714C418.863 242.839 418.537 242.902 418.137 242.902C417.62 242.902 417.154 242.781 416.739 242.54C416.327 242.295 416.001 241.936 415.759 241.462C415.52 240.984 415.401 240.398 415.401 239.702C415.401 239.006 415.519 238.409 415.755 237.912C415.993 237.415 416.32 237.034 416.735 236.77C417.15 236.503 417.62 236.369 418.145 236.369C418.552 236.369 418.88 236.438 419.13 236.574C419.38 236.707 419.574 236.864 419.714 237.043C419.856 237.222 419.965 237.379 420.042 237.516H420.135V236.455H421.384V243.145C421.384 243.707 421.253 244.169 420.992 244.53C420.731 244.891 420.377 245.158 419.931 245.331C419.488 245.504 418.988 245.591 418.431 245.591ZM418.418 241.845C418.785 241.845 419.094 241.76 419.347 241.589C419.603 241.416 419.796 241.169 419.927 240.848C420.06 240.524 420.127 240.136 420.127 239.685C420.127 239.244 420.062 238.857 419.931 238.521C419.8 238.186 419.608 237.925 419.356 237.737C419.103 237.547 418.79 237.452 418.418 237.452C418.035 237.452 417.715 237.551 417.459 237.75C417.204 237.946 417.01 238.213 416.88 238.551C416.752 238.889 416.688 239.267 416.688 239.685C416.688 240.114 416.753 240.49 416.884 240.814C417.015 241.138 417.208 241.391 417.464 241.572C417.722 241.754 418.04 241.845 418.418 241.845ZM425.85 243.132C425.236 243.132 424.701 242.991 424.243 242.71C423.786 242.429 423.431 242.036 423.178 241.53C422.925 241.024 422.799 240.433 422.799 239.757C422.799 239.078 422.925 238.484 423.178 237.976C423.431 237.467 423.786 237.072 424.243 236.791C424.701 236.51 425.236 236.369 425.85 236.369C426.464 236.369 426.999 236.51 427.456 236.791C427.914 237.072 428.269 237.467 428.522 237.976C428.775 238.484 428.901 239.078 428.901 239.757C428.901 240.433 428.775 241.024 428.522 241.53C428.269 242.036 427.914 242.429 427.456 242.71C426.999 242.991 426.464 243.132 425.85 243.132ZM425.854 242.062C426.252 242.062 426.581 241.957 426.843 241.747C427.104 241.537 427.297 241.257 427.422 240.908C427.55 240.558 427.614 240.173 427.614 239.753C427.614 239.335 427.55 238.952 427.422 238.602C427.297 238.25 427.104 237.967 426.843 237.754C426.581 237.541 426.252 237.435 425.854 237.435C425.454 237.435 425.121 237.541 424.857 237.754C424.596 237.967 424.401 238.25 424.273 238.602C424.148 238.952 424.086 239.335 424.086 239.753C424.086 240.173 424.148 240.558 424.273 240.908C424.401 241.257 424.596 241.537 424.857 241.747C425.121 241.957 425.454 242.062 425.854 242.062Z" fill="white"/>
<rect x="341.231" y="140.198" width="41.5769" height="114.901" rx="6" fill="#0077E4"/>
<path d="M357.978 236.273H359.29V242.46C359.29 243.02 359.18 243.499 358.958 243.896C358.739 244.294 358.431 244.598 358.033 244.808C357.635 245.016 357.17 245.119 356.635 245.119C356.144 245.119 355.702 245.03 355.31 244.851C354.921 244.672 354.613 244.412 354.385 244.071C354.161 243.727 354.049 243.31 354.049 242.818H355.357C355.357 243.06 355.412 243.268 355.523 243.445C355.637 243.621 355.792 243.759 355.988 243.858C356.187 243.955 356.414 244.003 356.67 244.003C356.948 244.003 357.184 243.945 357.377 243.828C357.573 243.709 357.722 243.534 357.824 243.304C357.927 243.074 357.978 242.793 357.978 242.46V236.273ZM365.251 242.286V238.455H366.529V245H365.276V243.866H365.208C365.058 244.216 364.816 244.507 364.484 244.74C364.154 244.97 363.744 245.085 363.252 245.085C362.832 245.085 362.46 244.993 362.136 244.808C361.815 244.621 361.562 244.344 361.377 243.977C361.195 243.611 361.105 243.158 361.105 242.618V238.455H362.379V242.464C362.379 242.911 362.502 243.266 362.749 243.53C362.997 243.794 363.318 243.926 363.713 243.926C363.951 243.926 364.188 243.866 364.424 243.747C364.663 243.628 364.86 243.447 365.017 243.206C365.176 242.964 365.254 242.658 365.251 242.286ZM369.515 236.273V245H368.241V236.273H369.515Z" fill="white"/>
<rect x="285.192" y="86" width="41.5769" height="169.099" rx="6" fill="#0077E4"/>
<path d="M299.886 237.273H301.199V243.46C301.199 244.02 301.088 244.499 300.866 244.896C300.647 245.294 300.339 245.598 299.941 245.808C299.544 246.016 299.078 246.119 298.544 246.119C298.052 246.119 297.61 246.03 297.218 245.851C296.829 245.672 296.521 245.412 296.294 245.071C296.069 244.727 295.957 244.31 295.957 243.818H297.265C297.265 244.06 297.321 244.268 297.431 244.445C297.545 244.621 297.7 244.759 297.896 244.858C298.095 244.955 298.322 245.003 298.578 245.003C298.856 245.003 299.092 244.945 299.285 244.828C299.481 244.709 299.63 244.534 299.733 244.304C299.835 244.074 299.886 243.793 299.886 243.46V237.273ZM307.159 243.286V239.455H308.438V246H307.185V244.866H307.116C306.966 245.216 306.724 245.507 306.392 245.74C306.063 245.97 305.652 246.085 305.161 246.085C304.74 246.085 304.368 245.993 304.044 245.808C303.723 245.621 303.47 245.344 303.286 244.977C303.104 244.611 303.013 244.158 303.013 243.618V239.455H304.287V243.464C304.287 243.911 304.411 244.266 304.658 244.53C304.905 244.794 305.226 244.926 305.621 244.926C305.859 244.926 306.097 244.866 306.332 244.747C306.571 244.628 306.768 244.447 306.925 244.206C307.084 243.964 307.162 243.658 307.159 243.286ZM311.424 242.114V246H310.15V239.455H311.373V240.52H311.453C311.604 240.173 311.84 239.895 312.161 239.685C312.485 239.474 312.892 239.369 313.384 239.369C313.83 239.369 314.221 239.463 314.556 239.651C314.891 239.835 315.151 240.111 315.336 240.477C315.52 240.844 315.613 241.297 315.613 241.837V246H314.338V241.99C314.338 241.516 314.215 241.145 313.968 240.878C313.721 240.608 313.381 240.473 312.949 240.473C312.654 240.473 312.391 240.537 312.161 240.665C311.934 240.793 311.753 240.98 311.62 241.227C311.489 241.472 311.424 241.767 311.424 242.114Z" fill="white"/>
<rect x="229.154" y="146.702" width="41.5769" height="108.397" rx="6" fill="#0077E4"/>
<path d="M240.664 238.273H242.262L245.04 245.057H245.143L247.921 238.273H249.519V247H248.266V240.685H248.185L245.611 246.987H244.572L241.998 240.68H241.917V247H240.664V238.273ZM253.236 247.145C252.821 247.145 252.446 247.068 252.111 246.915C251.776 246.759 251.51 246.533 251.314 246.237C251.121 245.942 251.024 245.58 251.024 245.151C251.024 244.781 251.095 244.477 251.237 244.239C251.379 244 251.571 243.811 251.813 243.672C252.054 243.533 252.324 243.428 252.622 243.357C252.921 243.286 253.225 243.232 253.534 243.195C253.926 243.149 254.244 243.112 254.489 243.084C254.733 243.053 254.911 243.003 255.021 242.935C255.132 242.866 255.188 242.756 255.188 242.602V242.572C255.188 242.2 255.083 241.912 254.872 241.707C254.665 241.503 254.355 241.401 253.943 241.401C253.514 241.401 253.176 241.496 252.929 241.686C252.685 241.874 252.516 242.082 252.422 242.312L251.225 242.04C251.367 241.642 251.574 241.321 251.847 241.077C252.122 240.83 252.439 240.651 252.797 240.54C253.155 240.426 253.531 240.369 253.926 240.369C254.188 240.369 254.465 240.401 254.757 240.463C255.053 240.523 255.328 240.634 255.584 240.795C255.843 240.957 256.054 241.189 256.219 241.49C256.384 241.788 256.466 242.176 256.466 242.653V247H255.222V246.105H255.171C255.088 246.27 254.965 246.432 254.8 246.591C254.635 246.75 254.423 246.882 254.165 246.987C253.906 247.092 253.597 247.145 253.236 247.145ZM253.513 246.122C253.865 246.122 254.166 246.053 254.416 245.913C254.669 245.774 254.861 245.592 254.992 245.368C255.125 245.141 255.192 244.898 255.192 244.639V243.795C255.146 243.841 255.058 243.884 254.928 243.923C254.8 243.96 254.654 243.993 254.489 244.021C254.324 244.047 254.164 244.071 254.007 244.094C253.851 244.114 253.72 244.131 253.615 244.145C253.368 244.176 253.142 244.229 252.938 244.303C252.736 244.376 252.574 244.483 252.452 244.622C252.333 244.759 252.273 244.94 252.273 245.168C252.273 245.483 252.389 245.722 252.622 245.884C252.855 246.043 253.152 246.122 253.513 246.122ZM258.163 247V240.455H259.437V247H258.163ZM258.807 239.445C258.585 239.445 258.395 239.371 258.236 239.223C258.079 239.072 258.001 238.893 258.001 238.686C258.001 238.476 258.079 238.297 258.236 238.149C258.395 237.999 258.585 237.923 258.807 237.923C259.028 237.923 259.217 237.999 259.373 238.149C259.532 238.297 259.612 238.476 259.612 238.686C259.612 238.893 259.532 239.072 259.373 239.223C259.217 239.371 259.028 239.445 258.807 239.445Z" fill="white"/>
<rect x="173.115" y="127.191" width="41.5769" height="127.909" rx="6" fill="#0077E4"/>
<path d="M185.436 247H184.039L187.179 238.273H188.7L191.841 247H190.443L187.976 239.858H187.908L185.436 247ZM185.671 243.582H190.205V244.69H185.671V243.582ZM193.101 247V238.273H194.376V241.516H194.452C194.526 241.379 194.633 241.222 194.772 241.043C194.911 240.864 195.104 240.707 195.351 240.574C195.599 240.438 195.925 240.369 196.331 240.369C196.86 240.369 197.331 240.503 197.746 240.77C198.161 241.037 198.486 241.422 198.722 241.925C198.961 242.428 199.08 243.033 199.08 243.74C199.08 244.447 198.962 245.054 198.726 245.56C198.491 246.062 198.167 246.45 197.755 246.723C197.343 246.993 196.873 247.128 196.344 247.128C195.947 247.128 195.621 247.061 195.368 246.928C195.118 246.794 194.922 246.638 194.78 246.459C194.638 246.28 194.529 246.121 194.452 245.982H194.346V247H193.101ZM194.35 243.727C194.35 244.187 194.417 244.591 194.55 244.938C194.684 245.284 194.877 245.555 195.13 245.751C195.383 245.945 195.692 246.041 196.059 246.041C196.439 246.041 196.758 245.94 197.013 245.739C197.269 245.534 197.462 245.257 197.593 244.908C197.726 244.558 197.793 244.165 197.793 243.727C197.793 243.295 197.728 242.908 197.597 242.564C197.469 242.22 197.276 241.949 197.018 241.75C196.762 241.551 196.442 241.452 196.059 241.452C195.689 241.452 195.377 241.547 195.121 241.737C194.868 241.928 194.677 242.193 194.546 242.534C194.415 242.875 194.35 243.273 194.35 243.727ZM200.511 247V240.455H201.742V241.494H201.811C201.93 241.142 202.14 240.865 202.441 240.663C202.745 240.459 203.089 240.357 203.472 240.357C203.552 240.357 203.646 240.359 203.754 240.365C203.865 240.371 203.951 240.378 204.014 240.386V241.605C203.963 241.591 203.872 241.575 203.741 241.558C203.61 241.538 203.48 241.528 203.349 241.528C203.048 241.528 202.779 241.592 202.544 241.72C202.311 241.845 202.126 242.02 201.99 242.244C201.853 242.466 201.785 242.719 201.785 243.003V247H200.511Z" fill="white"/>
<rect x="117.077" y="178.137" width="41.5769" height="76.9619" rx="6" fill="#0077E4"/>
<path d="M127.855 237.273H129.453L132.232 244.057H132.334L135.112 237.273H136.71V246H135.458V239.685H135.377L132.803 245.987H131.763L129.189 239.68H129.108V246H127.855V237.273ZM140.427 246.145C140.013 246.145 139.638 246.068 139.302 245.915C138.967 245.759 138.702 245.533 138.506 245.237C138.312 244.942 138.216 244.58 138.216 244.151C138.216 243.781 138.287 243.477 138.429 243.239C138.571 243 138.763 242.811 139.004 242.672C139.246 242.533 139.515 242.428 139.814 242.357C140.112 242.286 140.416 242.232 140.726 242.195C141.118 242.149 141.436 242.112 141.68 242.084C141.925 242.053 142.102 242.003 142.213 241.935C142.324 241.866 142.379 241.756 142.379 241.602V241.572C142.379 241.2 142.274 240.912 142.064 240.707C141.856 240.503 141.547 240.401 141.135 240.401C140.706 240.401 140.368 240.496 140.121 240.686C139.876 240.874 139.707 241.082 139.613 241.312L138.416 241.04C138.558 240.642 138.765 240.321 139.038 240.077C139.314 239.83 139.631 239.651 139.988 239.54C140.346 239.426 140.723 239.369 141.118 239.369C141.379 239.369 141.656 239.401 141.949 239.463C142.244 239.523 142.52 239.634 142.775 239.795C143.034 239.957 143.246 240.189 143.41 240.49C143.575 240.788 143.657 241.176 143.657 241.653V246H142.413V245.105H142.362C142.28 245.27 142.156 245.432 141.991 245.591C141.827 245.75 141.615 245.882 141.356 245.987C141.098 246.092 140.788 246.145 140.427 246.145ZM140.704 245.122C141.057 245.122 141.358 245.053 141.608 244.913C141.861 244.774 142.052 244.592 142.183 244.368C142.317 244.141 142.383 243.898 142.383 243.639V242.795C142.338 242.841 142.25 242.884 142.119 242.923C141.991 242.96 141.845 242.993 141.68 243.021C141.515 243.047 141.355 243.071 141.199 243.094C141.042 243.114 140.912 243.131 140.807 243.145C140.559 243.176 140.334 243.229 140.129 243.303C139.927 243.376 139.765 243.483 139.643 243.622C139.524 243.759 139.464 243.94 139.464 244.168C139.464 244.483 139.581 244.722 139.814 244.884C140.047 245.043 140.344 245.122 140.704 245.122ZM145.355 246V239.455H146.586V240.494H146.654C146.774 240.142 146.984 239.865 147.285 239.663C147.589 239.459 147.933 239.357 148.316 239.357C148.396 239.357 148.49 239.359 148.597 239.365C148.708 239.371 148.795 239.378 148.857 239.386V240.605C148.806 240.591 148.715 240.575 148.585 240.558C148.454 240.538 148.323 240.528 148.193 240.528C147.892 240.528 147.623 240.592 147.387 240.72C147.154 240.845 146.97 241.02 146.833 241.244C146.697 241.466 146.629 241.719 146.629 242.003V246H145.355Z" fill="white"/>
<rect x="61.0386" y="196.565" width="41.5769" height="58.5344" rx="6" fill="#0077E4"/>
<path d="M72.8572 247V238.273H78.2692V239.406H74.174V242.065H77.8814V243.195H74.174V247H72.8572ZM82.1268 247.132C81.4819 247.132 80.9265 246.994 80.4606 246.719C79.9975 246.44 79.6396 246.05 79.3867 245.547C79.1367 245.041 79.0117 244.449 79.0117 243.77C79.0117 243.099 79.1367 242.509 79.3867 241.997C79.6396 241.486 79.9918 241.087 80.4435 240.8C80.8981 240.513 81.4293 240.369 82.0373 240.369C82.4066 240.369 82.7646 240.43 83.1112 240.553C83.4577 240.675 83.7688 240.866 84.0444 241.128C84.32 241.389 84.5373 241.729 84.6964 242.146C84.8555 242.561 84.935 243.065 84.935 243.659V244.111H79.7319V243.156H83.6864C83.6864 242.821 83.6183 242.524 83.4819 242.266C83.3455 242.004 83.1538 241.798 82.9066 241.648C82.6623 241.497 82.3754 241.422 82.0458 241.422C81.6879 241.422 81.3754 241.51 81.1083 241.686C80.8441 241.859 80.6396 242.087 80.4947 242.368C80.3526 242.646 80.2816 242.949 80.2816 243.276V244.021C80.2816 244.459 80.3583 244.831 80.5117 245.138C80.668 245.445 80.8853 245.679 81.1637 245.841C81.4421 246 81.7674 246.08 82.1396 246.08C82.381 246.08 82.6012 246.045 82.8001 245.977C82.9989 245.906 83.1708 245.801 83.3157 245.662C83.4606 245.523 83.5714 245.351 83.6481 245.146L84.854 245.364C84.7575 245.719 84.5842 246.03 84.3342 246.297C84.087 246.561 83.7759 246.767 83.4009 246.915C83.0288 247.06 82.604 247.132 82.1268 247.132ZM91.7607 240.455L89.3871 247H88.0234L85.6456 240.455H87.0135L88.6712 245.491H88.7393L90.3928 240.455H91.7607Z" fill="white"/>
<rect x="5" y="191" width="41.5769" height="63.9543" rx="6" fill="#0077E4"/>
<path d="M20.0384 238.273H21.3509V244.46C21.3509 245.02 21.2401 245.499 21.0185 245.896C20.7997 246.294 20.4915 246.598 20.0938 246.808C19.696 247.016 19.2301 247.119 18.696 247.119C18.2045 247.119 17.7628 247.03 17.3707 246.851C16.9815 246.672 16.6733 246.412 16.446 246.071C16.2216 245.727 16.1094 245.31 16.1094 244.818H17.4176C17.4176 245.06 17.473 245.268 17.5838 245.445C17.6974 245.621 17.8523 245.759 18.0483 245.858C18.2472 245.955 18.4744 246.003 18.7301 246.003C19.0085 246.003 19.2443 245.945 19.4375 245.828C19.6335 245.709 19.7827 245.534 19.8849 245.304C19.9872 245.074 20.0384 244.793 20.0384 244.46V238.273ZM25.07 247.145C24.6552 247.145 24.2802 247.068 23.945 246.915C23.6097 246.759 23.3441 246.533 23.1481 246.237C22.9549 245.942 22.8583 245.58 22.8583 245.151C22.8583 244.781 22.9293 244.477 23.0714 244.239C23.2134 244 23.4052 243.811 23.6467 243.672C23.8881 243.533 24.158 243.428 24.4563 243.357C24.7546 243.286 25.0586 243.232 25.3683 243.195C25.7603 243.149 26.0785 243.112 26.3228 243.084C26.5671 243.053 26.7447 243.003 26.8555 242.935C26.9663 242.866 27.0217 242.756 27.0217 242.602V242.572C27.0217 242.2 26.9165 241.912 26.7063 241.707C26.4989 241.503 26.1893 241.401 25.7773 241.401C25.3484 241.401 25.0103 241.496 24.7631 241.686C24.5188 241.874 24.3498 242.082 24.256 242.312L23.0586 242.04C23.2006 241.642 23.408 241.321 23.6808 241.077C23.9563 240.83 24.2731 240.651 24.631 240.54C24.989 240.426 25.3654 240.369 25.7603 240.369C26.0217 240.369 26.2987 240.401 26.5913 240.463C26.8867 240.523 27.1623 240.634 27.418 240.795C27.6765 240.957 27.8881 241.189 28.0529 241.49C28.2177 241.788 28.3001 242.176 28.3001 242.653V247H27.0558V246.105H27.0046C26.9222 246.27 26.7987 246.432 26.6339 246.591C26.4691 246.75 26.2575 246.882 25.9989 246.987C25.7404 247.092 25.4308 247.145 25.07 247.145ZM25.3469 246.122C25.6992 246.122 26.0004 246.053 26.2504 245.913C26.5032 245.774 26.695 245.592 26.8256 245.368C26.9592 245.141 27.0259 244.898 27.0259 244.639V243.795C26.9805 243.841 26.8924 243.884 26.7617 243.923C26.6339 243.96 26.4876 243.993 26.3228 244.021C26.158 244.047 25.9975 244.071 25.8413 244.094C25.685 244.114 25.5543 244.131 25.4492 244.145C25.2021 244.176 24.9762 244.229 24.7717 244.303C24.57 244.376 24.408 244.483 24.2859 244.622C24.1665 244.759 24.1069 244.94 24.1069 245.168C24.1069 245.483 24.2234 245.722 24.4563 245.884C24.6893 246.043 24.9862 246.122 25.3469 246.122ZM31.2713 243.114V247H29.9972V240.455H31.2202V241.52H31.3011C31.4517 241.173 31.6875 240.895 32.0085 240.685C32.3324 240.474 32.7401 240.369 33.2315 240.369C33.6776 240.369 34.0682 240.463 34.4034 240.651C34.7386 240.835 34.9986 241.111 35.1832 241.477C35.3679 241.844 35.4602 242.297 35.4602 242.837V247H34.1861V242.99C34.1861 242.516 34.0625 242.145 33.8153 241.878C33.5682 241.608 33.2287 241.473 32.7969 241.473C32.5014 241.473 32.2386 241.537 32.0085 241.665C31.7813 241.793 31.6009 241.98 31.4673 242.227C31.3366 242.472 31.2713 242.767 31.2713 243.114Z" fill="white"/>
<defs>
<linearGradient id="paint0_linear_793_979" x1="336" y1="69" x2="336" y2="261" gradientUnits="userSpaceOnUse">
<stop stop-color="#0077E4"/>
<stop offset="1" stop-color="#8956F8" stop-opacity="0"/>
</linearGradient>
</defs>
</svg>
