<svg width="52" height="52" viewBox="0 0 52 52" fill="none" xmlns="http://www.w3.org/2000/svg">
<circle cx="26" cy="26" r="26" fill="#0077E4"/>
<path d="M17.28 19.16C17.28 17.7733 17.8533 16.5333 19 15.44C20.0133 14.5067 21.2933 13.7867 22.84 13.28C24.3867 12.7733 26 12.52 27.68 12.52C30.2667 12.52 32.4533 13.12 34.24 14.32C36.0533 15.52 36.96 17.24 36.96 19.48C36.96 20.2 36.8667 20.8667 36.68 21.48C36.4933 22.0667 36.1733 22.6267 35.72 23.16C35.2667 23.6667 34.8267 24.1067 34.4 24.48C34 24.8533 33.3867 25.2667 32.56 25.72C31.7333 26.1733 31.0533 26.5333 30.52 26.8C29.9867 27.0667 29.1867 27.44 28.12 27.92C28.36 28.5067 28.48 29.2533 28.48 30.16C28.48 31.04 28.36 31.9867 28.12 33C27.6133 33.1333 26.88 33.2 25.92 33.2C24.5067 33.2 23.6667 33.1333 23.4 33C23.0267 32.28 22.84 31.2133 22.84 29.8C22.84 28.36 22.96 27.12 23.2 26.08C24.96 25.6 26.2533 24.9333 27.08 24.08C27.9333 23.2267 28.36 22.32 28.36 21.36C28.36 20.4 28.0133 19.6 27.32 18.96C26.6267 18.32 25.8267 18 24.92 18C24.1467 18 23.4533 18.2667 22.84 18.8C22.2533 19.3333 21.8533 20.1333 21.64 21.2C20.9733 21.3867 20.3467 21.48 19.76 21.48C18.9333 21.48 18.3067 21.2667 17.88 20.84C17.48 20.4133 17.28 19.8533 17.28 19.16ZM22.88 38.24C22.88 37.4133 23.0533 36.6133 23.4 35.84C24.0667 35.52 25 35.36 26.2 35.36C26.84 35.36 27.5067 35.52 28.2 35.84C28.7067 36.8533 28.96 37.6533 28.96 38.24C28.96 38.9333 28.7067 39.72 28.2 40.6C27.4 41 26.6667 41.2 26 41.2C24.7733 41.2 23.9067 41 23.4 40.6C23.0533 39.8267 22.88 39.04 22.88 38.24Z" fill="white"/>
</svg>
