<svg width="55" height="55" viewBox="0 0 55 55" fill="none" xmlns="http://www.w3.org/2000/svg">
<circle cx="27.5" cy="27.5" r="27.5" fill="#0077E4"/>
<path d="M46.4882 8.51196H8.51196V46.4882H46.4882V8.51196Z" fill="#0077E4"/>
<path d="M40.9847 19.0444C41.7631 20.862 41.9537 22.8776 41.5297 24.809C41.1057 26.7403 40.0883 28.4907 38.62 29.8151C37.1518 31.1395 35.3061 31.9716 33.3414 32.1948C31.3767 32.4181 29.3914 32.0214 27.6634 31.0603L19.3412 40.7027C18.6724 41.3715 17.7653 41.7473 16.8194 41.7473C15.8735 41.7473 14.9664 41.3715 14.2975 40.7027C13.6287 40.0339 13.2529 39.1267 13.2529 38.1808C13.2529 37.235 13.6287 36.3278 14.2975 35.659L23.9399 27.3369C22.9788 25.6088 22.5821 23.6235 22.8054 21.6588C23.0286 19.6941 23.8607 17.8484 25.1851 16.3802C26.5095 14.9119 28.2599 13.8945 30.1912 13.4705C32.1226 13.0465 34.1382 13.2371 35.9558 14.0155L29.7253 20.2311L30.5709 24.4293L34.7691 25.2749L40.9847 19.0444Z" fill="#0077E4" stroke="white" stroke-width="2" stroke-linecap="round" stroke-linejoin="round"/>
</svg>
