<svg width="55" height="55" viewBox="0 0 55 55" fill="none" xmlns="http://www.w3.org/2000/svg">
<circle cx="27.5" cy="27.5" r="27.5" fill="#0077E4"/>
<path d="M13.7475 18.4951H34.32C35.1904 18.4951 35.9025 17.783 35.9025 16.9126C35.9025 16.0422 35.1904 15.3301 34.32 15.3301H13.7475C12.8771 15.3301 12.165 16.0422 12.165 16.9126C12.165 17.783 12.8771 18.4951 13.7475 18.4951ZM32.7375 35.9026H35.9025V31.1551H36.1873C37.1843 31.1551 37.9281 30.2372 37.7382 29.2561L36.1557 21.3436C36.0133 20.6156 35.3644 20.0776 34.6048 20.0776H13.4626C12.703 20.0776 12.0542 20.6156 11.9118 21.3436L10.3293 29.2561C10.1394 30.2372 10.8832 31.1551 11.8801 31.1551H12.165V39.0676C12.165 39.938 12.8771 40.6501 13.7475 40.6501H24.825C25.6954 40.6501 26.4075 39.938 26.4075 39.0676V31.1551H32.7375V35.9026ZM23.2425 37.4851H15.33V31.1551H23.2425V37.4851Z" fill="white"/>
<path d="M43.815 37.485H40.65V34.32C40.65 33.4497 39.9379 32.7375 39.0675 32.7375C38.1972 32.7375 37.485 33.4497 37.485 34.32V37.485H34.32C33.4497 37.485 32.7375 38.1972 32.7375 39.0675C32.7375 39.9379 33.4497 40.65 34.32 40.65H37.485V43.815C37.485 44.6854 38.1972 45.3975 39.0675 45.3975C39.9379 45.3975 40.65 44.6854 40.65 43.815V40.65H43.815C44.6854 40.65 45.3975 39.9379 45.3975 39.0675C45.3975 38.1972 44.6854 37.485 43.815 37.485Z" fill="white"/>
</svg>
