<svg width="24" height="24" viewBox="0 0 24 24" fill="none" xmlns="http://www.w3.org/2000/svg">
<path d="M1 12.0802C1 18.1998 5.9247 23.1604 12 23.1604C18.0753 23.1604 23 18.1998 23 12.0802C23 5.9606 18.0753 1 12 1C5.9247 1 1 5.9606 1 12.0802Z" stroke="white" stroke-width="1.5" stroke-linecap="round" stroke-linejoin="round"/>
<path d="M13.1 1.05542C13.1 1.05542 16.4 5.43209 16.4 12.0802C16.4 18.7283 13.1 23.105 13.1 23.105M10.9 23.105C10.9 23.105 7.59999 18.7283 7.59999 12.0802C7.59999 5.43209 10.9 1.05542 10.9 1.05542M1.69299 15.9583H22.307M1.69299 8.20214H22.307" stroke="white" stroke-width="1.5" stroke-linecap="round" stroke-linejoin="round"/>
</svg>
