<svg width="52" height="52" viewBox="0 0 52 52" fill="none" xmlns="http://www.w3.org/2000/svg">
<path d="M48.0641 25.6444L27.1473 4.74288C26.9967 4.59198 26.8178 4.47226 26.6208 4.39057C26.4239 4.30889 26.2128 4.26685 25.9996 4.26685C25.7864 4.26685 25.5753 4.30889 25.3784 4.39057C25.1814 4.47226 25.0026 4.59198 24.852 4.74288L3.93516 25.6444C3.32578 26.2538 2.98047 27.0816 2.98047 27.9448C2.98047 29.7374 4.43789 31.1948 6.23047 31.1948H8.43438V46.1093C8.43438 47.0081 9.16055 47.7343 10.0594 47.7343H22.7496V36.3593H28.4371V47.7343H41.9398C42.8387 47.7343 43.5648 47.0081 43.5648 46.1093V31.1948H45.7687C46.632 31.1948 47.4598 30.8546 48.0691 30.2401C49.3336 28.9706 49.3336 26.914 48.0641 25.6444Z" fill="#0077E4"/>
</svg>
