<svg width="52" height="42" viewBox="0 0 52 42" fill="none" xmlns="http://www.w3.org/2000/svg">
<path d="M15.6 21C20.6294 21 24.7 16.8902 24.7 11.8125C24.7 6.73477 20.6294 2.625 15.6 2.625C10.5706 2.625 6.5 6.73477 6.5 11.8125C6.5 16.8902 10.5706 21 15.6 21ZM21.84 23.625H21.1656C19.4756 24.4453 17.5987 24.9375 15.6 24.9375C13.6012 24.9375 11.7325 24.4453 10.0344 23.625H9.36C4.1925 23.625 0 27.8578 0 33.075V35.4375C0 37.6113 1.74687 39.375 3.9 39.375H27.3C29.4531 39.375 31.2 37.6113 31.2 35.4375V33.075C31.2 27.8578 27.0075 23.625 21.84 23.625ZM39 21C43.3062 21 46.8 17.4727 46.8 13.125C46.8 8.77734 43.3062 5.25 39 5.25C34.6937 5.25 31.2 8.77734 31.2 13.125C31.2 17.4727 34.6937 21 39 21ZM42.9 23.625H42.5912C41.4619 24.0187 40.2675 24.2812 39 24.2812C37.7325 24.2812 36.5381 24.0187 35.4087 23.625H35.1C33.4425 23.625 31.915 24.109 30.5744 24.8883C32.5569 27.0457 33.8 29.9086 33.8 33.075V36.225C33.8 36.4055 33.7594 36.5777 33.7512 36.75H48.1C50.2531 36.75 52 34.9863 52 32.8125C52 27.7348 47.9294 23.625 42.9 23.625Z" fill="#0077E4"/>
</svg>
