<svg width="38" height="38" viewBox="0 0 38 38" fill="none" xmlns="http://www.w3.org/2000/svg">
<g clip-path="url(#clip0_793_1333)">
<path d="M19 38.0001C20.2598 38.0001 21.468 37.4997 22.3588 36.6089C23.2496 35.7181 23.75 34.5099 23.75 33.2501H14.25C14.25 34.5099 14.7504 35.7181 15.6412 36.6089C16.532 37.4997 17.7402 38.0001 19 38.0001ZM21.3631 2.61025C21.3963 2.28002 21.3598 1.9465 21.2562 1.63121C21.1525 1.31592 20.9839 1.02586 20.7612 0.779738C20.5386 0.533613 20.2668 0.336887 19.9635 0.202248C19.6601 0.0676094 19.3319 -0.00195313 19 -0.00195312C18.6681 -0.00195313 18.3399 0.0676094 18.0365 0.202248C17.7332 0.336887 17.4614 0.533613 17.2388 0.779738C17.0161 1.02586 16.8475 1.31592 16.7438 1.63121C16.6402 1.9465 16.6037 2.28002 16.6369 2.61025C13.9525 3.15626 11.5392 4.61323 9.80582 6.73444C8.07241 8.85565 7.12535 11.5107 7.125 14.2501C7.125 16.8579 5.9375 28.5001 2.375 30.8751H35.625C32.0625 28.5001 30.875 16.8579 30.875 14.2501C30.875 8.50262 26.79 3.70512 21.3631 2.61025Z" fill="#0077E4"/>
</g>
<defs>
<clipPath id="clip0_793_1333">
<rect width="38" height="38" fill="white"/>
</clipPath>
</defs>
</svg>
