<svg width="64" height="64" viewBox="0 0 64 64" fill="none" xmlns="http://www.w3.org/2000/svg">
<circle cx="32" cy="32" r="32" fill="#0077E4"/>
<path d="M21.0904 15.8572L19.4184 17.5268L21.9062 20.0134L23.5759 18.3438L21.0892 15.8572H21.0904ZM42.9107 15.8572L40.4229 18.3438L42.0938 20.0134L44.5804 17.528L42.9096 15.8572H42.9107ZM32 16.5982C31.6081 16.6029 31.2115 16.6255 30.8125 16.6742C30.8006 16.6742 30.7888 16.6718 30.7769 16.6742C25.9604 17.2264 22.1271 21.1178 21.4609 25.9129C20.9289 29.7723 22.5202 33.2719 25.1719 35.5257C26.2565 36.4514 26.9902 37.7217 27.25 39.1239V46.2489H29.9575C30.3707 46.9578 31.1248 47.4364 32 47.4364C32.8752 47.4364 33.6292 46.9578 34.0425 46.2489H36.75V41.4989H36.8616V40.0881C36.8616 38.3472 37.7665 36.5921 39.2366 35.2277C41.2031 33.2588 42.6875 30.4622 42.6875 27.2501C42.6875 21.3838 37.8591 16.5436 32 16.5982ZM32 18.9732C36.5897 18.9091 40.3125 22.6663 40.3125 27.2501C40.3125 29.7367 39.1606 31.9264 37.5658 33.5201L37.6038 33.5581C36.0189 35.0195 34.9941 36.9885 34.7063 39.1251H29.5122C29.2509 37.0897 28.3781 35.1196 26.7287 33.7065C24.6304 31.9252 23.3799 29.2415 23.7979 26.211C24.3169 22.4704 27.3521 19.4624 31.0714 19.0504C31.3784 19.0076 31.6877 18.9822 31.9976 18.9744L32 18.9732ZM15.375 27.2501V29.6251H18.9375V27.2501H15.375ZM45.0625 27.2501V29.6251H48.625V27.2501H45.0625ZM21.9062 36.8617L19.4196 39.3471L21.0904 41.0179L23.5747 38.5313L21.9062 36.8617ZM42.0938 36.8617L40.4241 38.5313L42.9096 41.0179L44.5804 39.3471L42.0938 36.8617ZM29.625 41.5001H34.375V43.8751H29.625V41.5001Z" fill="white"/>
</svg>
