<svg width="43" height="43" viewBox="0 0 43 43" fill="none" xmlns="http://www.w3.org/2000/svg">
<path fill-rule="evenodd" clip-rule="evenodd" d="M13.2074 1.88606C15.2827 1.79052 15.9444 1.76929 21.2308 1.76929C26.5173 1.76929 27.179 1.79229 29.2525 1.88606C31.3261 1.97983 32.7414 2.31067 33.9799 2.79013C35.2768 3.28021 36.4533 4.04629 37.4264 5.03706C38.4171 6.00836 39.1814 7.18313 39.6698 8.48175C40.151 9.72021 40.4801 11.1356 40.5756 13.2056C40.6711 15.2844 40.6924 15.9461 40.6924 21.2308C40.6924 26.5173 40.6694 27.179 40.5756 29.2543C40.4818 31.3243 40.151 32.7397 39.6698 33.9781C39.1814 35.2769 38.4159 36.4536 37.4264 37.4264C36.4533 38.4171 35.2768 39.1814 33.9799 39.6698C32.7414 40.151 31.3261 40.4801 29.2561 40.5756C27.179 40.6711 26.5173 40.6924 21.2308 40.6924C15.9444 40.6924 15.2827 40.6694 13.2074 40.5756C11.1374 40.4818 9.72198 40.151 8.48352 39.6698C7.18476 39.1814 6.00805 38.4158 5.03529 37.4264C4.04519 36.4545 3.279 35.2783 2.79013 33.9799C2.31067 32.7414 1.98159 31.3261 1.88606 29.2561C1.79052 27.1772 1.76929 26.5155 1.76929 21.2308C1.76929 15.9444 1.79229 15.2827 1.88606 13.2091C1.97983 11.1356 2.31067 9.72021 2.79013 8.48175C3.27972 7.18328 4.0465 6.00715 5.03706 5.03529C6.00844 4.0454 7.18397 3.27923 8.48175 2.79013C9.72021 2.31067 11.1356 1.98159 13.2056 1.88606H13.2074ZM29.0951 5.38913C27.0428 5.29536 26.4271 5.2759 21.2308 5.2759C16.0346 5.2759 15.4189 5.29536 13.3666 5.38913C11.4682 5.47583 10.4385 5.79252 9.75206 6.05967C8.84444 6.41352 8.19513 6.83283 7.51398 7.51398C6.86829 8.14215 6.37138 8.90686 6.05967 9.75206C5.79252 10.4385 5.47583 11.4682 5.38913 13.3666C5.29536 15.4189 5.2759 16.0346 5.2759 21.2308C5.2759 26.4271 5.29536 27.0428 5.38913 29.0951C5.47583 30.9934 5.79252 32.0231 6.05967 32.7096C6.37106 33.5535 6.86821 34.3196 7.51398 34.9477C8.14206 35.5934 8.90813 36.0906 9.75206 36.402C10.4385 36.6691 11.4682 36.9858 13.3666 37.0725C15.4189 37.1663 16.0328 37.1858 21.2308 37.1858C26.4288 37.1858 27.0428 37.1663 29.0951 37.0725C30.9934 36.9858 32.0231 36.6691 32.7096 36.402C33.6172 36.0481 34.2665 35.6288 34.9477 34.9477C35.5934 34.3196 36.0906 33.5535 36.402 32.7096C36.6691 32.0231 36.9858 30.9934 37.0725 29.0951C37.1663 27.0428 37.1858 26.4271 37.1858 21.2308C37.1858 16.0346 37.1663 15.4189 37.0725 13.3666C36.9858 11.4682 36.6691 10.4385 36.402 9.75206C36.0481 8.84444 35.6288 8.19513 34.9477 7.51398C34.3195 6.86834 33.5548 6.37143 32.7096 6.05967C32.0231 5.79252 30.9934 5.47583 29.0951 5.38913ZM18.7451 27.2303C20.1333 27.8082 21.6791 27.8862 23.1185 27.451C24.5578 27.0157 25.8014 26.0943 26.6369 24.844C27.4724 23.5938 27.8478 22.0922 27.6992 20.5959C27.5506 19.0995 26.8871 17.7012 25.822 16.6397C25.143 15.9611 24.3221 15.4416 23.4182 15.1184C22.5143 14.7952 21.55 14.6765 20.5948 14.7707C19.6395 14.8649 18.717 15.1698 17.8937 15.6633C17.0704 16.1568 16.3668 16.8268 15.8334 17.6249C15.3001 18.423 14.9504 19.3294 14.8094 20.2789C14.6685 21.2284 14.7398 22.1973 15.0182 23.116C15.2967 24.0346 15.7754 24.8801 16.4198 25.5915C17.0642 26.3029 17.8584 26.8626 18.7451 27.2303ZM14.1574 14.1574C15.0863 13.2286 16.1891 12.4917 17.4027 11.989C18.6164 11.4863 19.9172 11.2275 21.2308 11.2275C22.5445 11.2275 23.8453 11.4863 25.0589 11.989C26.2726 12.4917 27.3753 13.2286 28.3042 14.1574C29.2331 15.0863 29.9699 16.1891 30.4727 17.4027C30.9754 18.6164 31.2341 19.9172 31.2341 21.2308C31.2341 22.5445 30.9754 23.8453 30.4727 25.0589C29.9699 26.2726 29.2331 27.3753 28.3042 28.3042C26.4282 30.1802 23.8839 31.2341 21.2308 31.2341C18.5778 31.2341 16.0334 30.1802 14.1574 28.3042C12.2815 26.4282 11.2276 23.8839 11.2276 21.2308C11.2276 18.5778 12.2815 16.0334 14.1574 14.1574ZM33.4527 12.7173C33.6829 12.5001 33.8671 12.239 33.9946 11.9494C34.1221 11.6598 34.1901 11.3475 34.1947 11.0311C34.1993 10.7147 34.1404 10.4006 34.0215 10.1073C33.9025 9.81411 33.7259 9.54773 33.5021 9.32397C33.2784 9.10021 33.012 8.92363 32.7188 8.80467C32.4256 8.6857 32.1114 8.62678 31.795 8.6314C31.4786 8.63601 31.1664 8.70406 30.8767 8.83152C30.5871 8.95898 30.326 9.14326 30.1088 9.37344C29.6865 9.82111 29.4553 10.4157 29.4643 11.0311C29.4733 11.6464 29.7217 12.2341 30.1569 12.6692C30.592 13.1044 31.1797 13.3528 31.795 13.3618C32.4104 13.3708 33.005 13.1396 33.4527 12.7173Z" fill="white"/>
</svg>
