<svg width="60" height="60" viewBox="0 0 60 60" fill="none" xmlns="http://www.w3.org/2000/svg">
<path d="M29.5 7C17.0744 7 7 17.0744 7 29.5C7 41.9256 17.0744 52 29.5 52C41.9256 52 52 41.9256 52 29.5C52 17.0744 41.9256 7 29.5 7ZM21.055 17.1306C22.6338 17.1306 23.6856 18.1825 23.6856 19.585C23.6856 20.9875 22.6337 22.0394 20.8806 22.0394C19.3019 22.0413 18.25 20.9875 18.25 19.585C18.25 18.1825 19.3019 17.1306 21.055 17.1306ZM23.875 38.875H18.25V23.875H23.875V38.875ZM42.625 38.875H37.33V30.6775C37.33 28.4106 35.9181 27.8875 35.3894 27.8875C34.8606 27.8875 33.0944 28.2362 33.0944 30.6775C33.0944 31.0263 33.0944 38.875 33.0944 38.875H27.625V23.875H33.0962V25.9675C33.8012 24.7469 35.2131 23.875 37.8606 23.875C40.5081 23.875 42.625 25.9675 42.625 30.6775V38.875Z" fill="#0077E4"/>
</svg>
