<svg width="100" height="163" viewBox="0 0 100 163" fill="none" xmlns="http://www.w3.org/2000/svg">
<path d="M21.0347 52.3747V122.175H7.03472V52.3747H21.0347Z" fill="#FFC800"/>
<rect width="14.5761" height="14.5761" transform="matrix(0.707352 -0.706861 0.707352 0.706861 3.5647 39.3032)" fill="#FFC800"/>
<path d="M17.2554 140.04V154H14.4554V140.04H17.2554ZM26.1618 142.76C27.4818 142.76 28.5484 143.18 29.3618 144.02C30.1751 144.847 30.5818 146.007 30.5818 147.5V154H27.7818V147.88C27.7818 147 27.5618 146.327 27.1218 145.86C26.6818 145.38 26.0818 145.14 25.3218 145.14C24.5484 145.14 23.9351 145.38 23.4818 145.86C23.0418 146.327 22.8218 147 22.8218 147.88V154H20.0218V142.92H22.8218V144.3C23.1951 143.82 23.6684 143.447 24.2418 143.18C24.8284 142.9 25.4684 142.76 26.1618 142.76ZM32.5244 148.42C32.5244 147.3 32.7444 146.307 33.1844 145.44C33.6378 144.573 34.2511 143.907 35.0244 143.44C35.7978 142.973 36.6578 142.74 37.6044 142.74C38.3244 142.74 39.0111 142.9 39.6644 143.22C40.3178 143.527 40.8378 143.94 41.2244 144.46V139.2H44.0644V154H41.2244V152.36C40.8778 152.907 40.3911 153.347 39.7644 153.68C39.1378 154.013 38.4111 154.18 37.5844 154.18C36.6511 154.18 35.7978 153.94 35.0244 153.46C34.2511 152.98 33.6378 152.307 33.1844 151.44C32.7444 150.56 32.5244 149.553 32.5244 148.42ZM41.2444 148.46C41.2444 147.78 41.1111 147.2 40.8444 146.72C40.5778 146.227 40.2178 145.853 39.7644 145.6C39.3111 145.333 38.8244 145.2 38.3044 145.2C37.7844 145.2 37.3044 145.327 36.8644 145.58C36.4244 145.833 36.0644 146.207 35.7844 146.7C35.5178 147.18 35.3844 147.753 35.3844 148.42C35.3844 149.087 35.5178 149.673 35.7844 150.18C36.0644 150.673 36.4244 151.053 36.8644 151.32C37.3178 151.587 37.7978 151.72 38.3044 151.72C38.8244 151.72 39.3111 151.593 39.7644 151.34C40.2178 151.073 40.5778 150.7 40.8444 150.22C41.1111 149.727 41.2444 149.14 41.2444 148.46ZM48.2191 141.6C47.7258 141.6 47.3124 141.447 46.9791 141.14C46.6591 140.82 46.4991 140.427 46.4991 139.96C46.4991 139.493 46.6591 139.107 46.9791 138.8C47.3124 138.48 47.7258 138.32 48.2191 138.32C48.7124 138.32 49.1191 138.48 49.4391 138.8C49.7724 139.107 49.9391 139.493 49.9391 139.96C49.9391 140.427 49.7724 140.82 49.4391 141.14C49.1191 141.447 48.7124 141.6 48.2191 141.6ZM49.5991 142.92V154H46.7991V142.92H49.5991Z" fill="#0077E4"/>
<path d="M58.9255 154L55.1655 149.28V154H52.3655V139.2H55.1655V147.62L58.8855 142.92H62.5255L57.6455 148.48L62.5655 154H58.9255ZM74.3452 148.22C74.3452 148.62 74.3185 148.98 74.2652 149.3H66.1652C66.2319 150.1 66.5119 150.727 67.0052 151.18C67.4985 151.633 68.1052 151.86 68.8252 151.86C69.8652 151.86 70.6052 151.413 71.0452 150.52H74.0652C73.7452 151.587 73.1319 152.467 72.2252 153.16C71.3185 153.84 70.2052 154.18 68.8852 154.18C67.8185 154.18 66.8585 153.947 66.0052 153.48C65.1652 153 64.5052 152.327 64.0252 151.46C63.5585 150.593 63.3252 149.593 63.3252 148.46C63.3252 147.313 63.5585 146.307 64.0252 145.44C64.4919 144.573 65.1452 143.907 65.9852 143.44C66.8252 142.973 67.7919 142.74 68.8852 142.74C69.9385 142.74 70.8785 142.967 71.7052 143.42C72.5452 143.873 73.1919 144.52 73.6452 145.36C74.1119 146.187 74.3452 147.14 74.3452 148.22ZM71.4452 147.42C71.4319 146.7 71.1719 146.127 70.6652 145.7C70.1585 145.26 69.5385 145.04 68.8052 145.04C68.1119 145.04 67.5252 145.253 67.0452 145.68C66.5785 146.093 66.2919 146.673 66.1852 147.42H71.4452ZM86.989 142.92L80.129 159.24H77.149L79.549 153.72L75.109 142.92H78.249L81.109 150.66L84.009 142.92H86.989Z" fill="#FFC800"/>
<path d="M78.8358 122.023L53.6292 90.7667L53.4363 121.866L39.4366 121.779L39.8696 51.9807L53.8693 52.0674L53.6751 83.3668L79.2688 52.2248L96.1685 52.3295L67.1544 86.7504L96.5355 122.133L78.8358 122.023Z" fill="#0077E4"/>
<ellipse rx="23.5123" ry="23.504" transform="matrix(0.868719 -0.495305 0.495824 0.868423 49.6539 32.0572)" fill="#0077E4"/>
<ellipse rx="7.0055" ry="7.00303" transform="matrix(0.868719 -0.495305 0.495824 0.868423 50.1484 21.5514)" fill="black"/>
<rect width="14.124" height="14.123" transform="matrix(0.741291 -0.671183 0.671695 0.740828 39.5896 122.057)" fill="#0077E4"/>
<rect width="14.124" height="14.123" transform="matrix(0.741291 -0.671183 0.671695 0.740828 39.5896 108.48)" fill="#0077E4"/>
<rect width="12.2494" height="12.2485" transform="matrix(0.741291 -0.671183 0.671695 0.740828 41.2375 63.6102)" fill="#0077E4"/>
<rect x="44.593" y="50" width="14.1284" height="14.1186" fill="#0077E4"/>
<rect width="12.2494" height="12.2485" transform="matrix(0.741291 -0.671183 0.671695 0.740828 41.5911 72.2216)" fill="#0077E4"/>
</svg>
