<svg width="143" height="143" viewBox="0 0 143 143" fill="none" xmlns="http://www.w3.org/2000/svg">
<g filter="url(#filter0_d_82_28)">
<circle cx="71.5" cy="69.5" r="45.5" fill="#0077E4"/>
</g>
<path d="M83.265 47.3085C83.5565 47.429 83.8056 47.6332 83.9809 47.8954C84.1563 48.1575 84.2499 48.4658 84.2499 48.7812V56.7499H92.2187C92.5343 56.7494 92.843 56.8425 93.1056 57.0176C93.3682 57.1927 93.573 57.4418 93.6938 57.7334C93.8147 58.025 93.8462 58.3458 93.7845 58.6554C93.7228 58.9649 93.5705 59.2491 93.3471 59.472L86.9721 65.847C86.8238 65.995 86.6478 66.1122 86.4542 66.192C86.2606 66.2719 86.0531 66.3128 85.8437 66.3124H76.941L74.5823 68.6744C74.7083 69.1469 74.724 69.6421 74.6283 70.1217C74.5325 70.6013 74.3277 71.0524 74.0298 71.4403C73.7319 71.8281 73.3488 72.1423 72.9102 72.3586C72.4715 72.5748 71.989 72.6873 71.4999 72.6874C70.6546 72.6874 69.8438 72.3516 69.246 71.7538C68.6483 71.156 68.3124 70.3453 68.3124 69.4999L68.3156 69.3533C68.3375 68.8772 68.4659 68.412 68.6913 67.992C68.9167 67.572 69.2334 67.208 69.6182 66.9266C70.0029 66.6452 70.4459 66.4537 70.9144 66.3662C71.3829 66.2787 71.8651 66.2973 72.3255 66.4208L74.6874 64.0589V55.1562C74.6871 54.9467 74.728 54.7393 74.8078 54.5457C74.8877 54.3521 75.0049 54.1761 75.1528 54.0278L81.5278 47.6528C81.7509 47.43 82.035 47.2784 82.3442 47.2172C82.6534 47.1559 82.9739 47.1877 83.265 47.3085ZM85.1839 63.1249L88.3714 59.9374H82.6562C82.2335 59.9374 81.8281 59.7695 81.5292 59.4706C81.2303 59.1717 81.0624 58.7664 81.0624 58.3437V52.6285L77.8749 55.816V63.1249H85.1839ZM90.4496 66.8734C90.9996 70.8423 90.2891 74.8837 88.4185 78.4271C86.5479 81.9704 83.6117 84.8368 80.0243 86.6215C76.4369 88.4062 72.3796 89.0191 68.4251 88.3737C64.4706 87.7283 60.8187 85.8572 57.9849 83.0245C55.1511 80.1918 53.2785 76.5406 52.6316 72.5864C51.9846 68.6321 52.596 64.5746 54.3793 60.9865C56.1626 57.3984 59.0278 54.461 62.5704 52.589C66.113 50.7171 70.1541 50.005 74.1233 50.5534L72.9024 51.7742C72.3972 52.2795 72.0116 52.8917 71.7741 53.5656L71.4999 53.5624C68.3362 53.5629 65.2442 54.5049 62.6177 56.2686C59.9912 58.0322 57.949 60.5377 56.7512 63.4659C55.5534 66.3941 55.2542 69.6126 55.8917 72.7114C56.5292 75.8102 58.0746 78.6492 60.331 80.8668C62.5874 83.0844 65.4527 84.5802 68.5621 85.1639C71.6715 85.7475 74.8843 85.3925 77.7913 84.1441C80.6983 82.8957 83.1679 80.8104 84.8858 78.1536C86.6036 75.4969 87.4919 72.389 87.4374 69.2258C88.1088 68.9883 88.7187 68.6039 89.2224 68.1006L90.4464 66.8734H90.4496ZM71.4999 58.3437C69.2934 58.3437 67.1365 58.998 65.3019 60.2238C63.4672 61.4497 62.0373 63.1921 61.1929 65.2306C60.3485 67.2691 60.1276 69.5123 60.5581 71.6764C60.9885 73.8405 62.0511 75.8283 63.6113 77.3886C65.1715 78.9488 67.1594 80.0113 69.3235 80.4418C71.4876 80.8723 73.7307 80.6513 75.7692 79.8069C77.8078 78.9626 79.5502 77.5326 80.776 75.698C82.0019 73.8634 82.6562 71.7064 82.6562 69.4999H79.4687C79.4687 71.076 79.0013 72.6167 78.1257 73.9271C77.2501 75.2376 76.0055 76.2589 74.5494 76.8621C73.0933 77.4652 71.4911 77.623 69.9453 77.3156C68.3995 77.0081 66.9796 76.2491 65.8652 75.1347C64.7507 74.0202 63.9918 72.6003 63.6843 71.0545C63.3768 69.5088 63.5346 67.9065 64.1378 66.4504C64.7409 64.9943 65.7623 63.7498 67.0727 62.8741C68.3832 61.9985 69.9239 61.5312 71.4999 61.5312V58.3437Z" fill="white"/>
<defs>
<filter id="filter0_d_82_28" x="0" y="0" width="143" height="143" filterUnits="userSpaceOnUse" color-interpolation-filters="sRGB">
<feFlood flood-opacity="0" result="BackgroundImageFix"/>
<feColorMatrix in="SourceAlpha" type="matrix" values="0 0 0 0 0 0 0 0 0 0 0 0 0 0 0 0 0 0 127 0" result="hardAlpha"/>
<feMorphology radius="1" operator="dilate" in="SourceAlpha" result="effect1_dropShadow_82_28"/>
<feOffset dy="2"/>
<feGaussianBlur stdDeviation="12.5"/>
<feComposite in2="hardAlpha" operator="out"/>
<feColorMatrix type="matrix" values="0 0 0 0 0 0 0 0 0 0 0 0 0 0 0 0 0 0 0.25 0"/>
<feBlend mode="normal" in2="BackgroundImageFix" result="effect1_dropShadow_82_28"/>
<feBlend mode="normal" in="SourceGraphic" in2="effect1_dropShadow_82_28" result="shape"/>
</filter>
</defs>
</svg>
