<svg width="49" height="32" viewBox="0 0 49 32" fill="none" xmlns="http://www.w3.org/2000/svg">
<rect width="48.0822" height="31.0139" rx="4" fill="white"/>
<g clip-path="url(#clip0_1615_740)">
<path d="M13.1624 28.9409V27.149C13.1624 26.4635 12.754 26.0147 12.0531 26.0147C11.7026 26.0147 11.3215 26.133 11.0595 26.5227C10.8553 26.1956 10.5627 26.0147 10.1237 26.0147C9.83109 26.0147 9.53846 26.1052 9.30707 26.4322V26.0739H8.69458V28.9409H9.30707V27.3577C9.30707 26.8498 9.56908 26.6097 9.97741 26.6097C10.3857 26.6097 10.5899 26.8776 10.5899 27.3577V28.9409H11.2024V27.3577C11.2024 26.8498 11.495 26.6097 11.8727 26.6097C12.281 26.6097 12.4852 26.8776 12.4852 27.3577V28.9409H13.1624ZM22.2476 26.0739H21.254V25.2075H20.6415V26.0739H20.0869V26.641H20.6415V27.9562C20.6415 28.6138 20.9035 29 21.6045 29C21.8665 29 22.1592 28.9095 22.3633 28.7913L22.1864 28.2519C22.0094 28.3702 21.8053 28.4016 21.659 28.4016C21.3663 28.4016 21.2506 28.2206 21.2506 27.9249V26.641H22.2442V26.0739H22.2476ZM27.447 26.0112C27.0965 26.0112 26.8617 26.1922 26.7154 26.4288V26.0704H26.1029V28.9374H26.7154V27.323C26.7154 26.8463 26.9196 26.5749 27.3007 26.5749C27.4164 26.5749 27.5627 26.6062 27.6818 26.634L27.8587 26.0356C27.7362 26.0112 27.5627 26.0112 27.447 26.0112ZM19.5901 26.3105C19.2975 26.1017 18.8891 26.0112 18.4502 26.0112C17.7492 26.0112 17.2831 26.3696 17.2831 26.9367C17.2831 27.4134 17.6335 27.6848 18.246 27.7718L18.5387 27.8031C18.8585 27.8623 19.0355 27.9527 19.0355 28.1023C19.0355 28.3111 18.8007 28.4607 18.3923 28.4607C17.984 28.4607 17.6608 28.3111 17.4566 28.1615L17.164 28.6382C17.4838 28.8782 17.9228 28.9965 18.3617 28.9965C19.1784 28.9965 19.6479 28.6068 19.6479 28.071C19.6479 27.563 19.2668 27.2951 18.685 27.2047L18.3923 27.1733C18.1303 27.142 17.9262 27.0829 17.9262 26.9054C17.9262 26.6967 18.1303 26.5784 18.4536 26.5784C18.8041 26.5784 19.1545 26.728 19.3315 26.8184L19.5901 26.3105ZM35.8857 26.0112C35.5353 26.0112 35.3005 26.1922 35.1541 26.4288V26.0704H34.5417V28.9374H35.1541V27.323C35.1541 26.8463 35.3583 26.5749 35.7394 26.5749C35.8551 26.5749 36.0014 26.6062 36.1205 26.634L36.2975 26.0425C36.1784 26.0112 36.0048 26.0112 35.8857 26.0112ZM28.0595 27.5074C28.0595 28.3737 28.6447 29 29.5499 29C29.9582 29 30.2508 28.9095 30.5435 28.673L30.2508 28.165C30.016 28.3459 29.7847 28.4329 29.5192 28.4329C29.0224 28.4329 28.672 28.0745 28.672 27.5074C28.672 26.9681 29.0224 26.6097 29.5192 26.5818C29.7812 26.5818 30.016 26.6723 30.2508 26.8498L30.5435 26.3418C30.2508 26.1017 29.9582 26.0147 29.5499 26.0147C28.6447 26.0112 28.0595 26.641 28.0595 27.5074ZM33.725 27.5074V26.0739H33.1125V26.4322C32.9084 26.1643 32.6157 26.0147 32.2346 26.0147C31.4452 26.0147 30.8327 26.641 30.8327 27.5074C30.8327 28.3737 31.4452 29 32.2346 29C32.6429 29 32.9356 28.8504 33.1125 28.5825V28.9409H33.725V27.5074ZM31.4758 27.5074C31.4758 26.9994 31.7957 26.5818 32.3231 26.5818C32.8199 26.5818 33.1704 26.9715 33.1704 27.5074C33.1704 28.0153 32.8199 28.4329 32.3231 28.4329C31.7991 28.4016 31.4758 28.0119 31.4758 27.5074ZM24.1463 26.0112C23.3297 26.0112 22.7444 26.6097 22.7444 27.5039C22.7444 28.4016 23.3297 28.9965 24.177 28.9965C24.5853 28.9965 24.9936 28.8782 25.3169 28.6068L25.0242 28.158C24.7895 28.3389 24.4968 28.4572 24.2076 28.4572C23.8265 28.4572 23.4488 28.2763 23.3603 27.7718H25.4326C25.4326 27.6813 25.4326 27.6222 25.4326 27.5317C25.4598 26.6097 24.9324 26.0112 24.1463 26.0112ZM24.1463 26.5505C24.5274 26.5505 24.7895 26.7906 24.8473 27.236H23.3875C23.4454 26.8498 23.7074 26.5505 24.1463 26.5505ZM39.3633 27.5074V24.9396H38.7508V26.4322C38.5467 26.1643 38.254 26.0147 37.8729 26.0147C37.0835 26.0147 36.471 26.641 36.471 27.5074C36.471 28.3737 37.0835 29 37.8729 29C38.2812 29 38.5739 28.8504 38.7508 28.5825V28.9409H39.3633V27.5074ZM37.1141 27.5074C37.1141 26.9994 37.434 26.5818 37.9614 26.5818C38.4582 26.5818 38.8087 26.9715 38.8087 27.5074C38.8087 28.0153 38.4582 28.4329 37.9614 28.4329C37.434 28.4016 37.1141 28.0119 37.1141 27.5074ZM16.6093 27.5074V26.0739H15.9968V26.4322C15.7927 26.1643 15.5 26.0147 15.1189 26.0147C14.3295 26.0147 13.717 26.641 13.717 27.5074C13.717 28.3737 14.3295 29 15.1189 29C15.5272 29 15.8199 28.8504 15.9968 28.5825V28.9409H16.6093V27.5074ZM14.3329 27.5074C14.3329 26.9994 14.6527 26.5818 15.1802 26.5818C15.677 26.5818 16.0274 26.9715 16.0274 27.5074C16.0274 28.0153 15.677 28.4329 15.1802 28.4329C14.6527 28.4016 14.3329 28.0119 14.3329 27.5074Z" fill="#FF0000"/>
<path d="M28.5868 4.29993H19.3859V21.2028H28.5868V4.29993Z" fill="#FF5A00"/>
<path d="M19.9984 12.7513C19.9984 9.31714 21.5773 6.2692 24 4.29987C22.217 2.86637 19.9678 2 17.5144 2C11.7026 2 7 6.80851 7 12.7513C7 18.6941 11.7026 23.5026 17.5144 23.5026C19.9678 23.5026 22.217 22.6362 24 21.2027C21.5739 19.2612 19.9984 16.1854 19.9984 12.7513Z" fill="#EB001B"/>
<path d="M41 12.7513C41 18.6941 36.2974 23.5026 30.4856 23.5026C28.0322 23.5026 25.783 22.6362 24 21.2027C26.4534 19.2299 28.0016 16.1854 28.0016 12.7513C28.0016 9.31714 26.4227 6.2692 24 4.29987C25.7796 2.86637 28.0288 2 30.4822 2C36.2974 2 41 6.83982 41 12.7513Z" fill="#F79E1B"/>
</g>
<defs>
<clipPath id="clip0_1615_740">
<rect width="34" height="27" fill="white" transform="translate(7 2)"/>
</clipPath>
</defs>
</svg>
