<svg width="80" height="80" viewBox="0 0 80 80" fill="none" xmlns="http://www.w3.org/2000/svg">
<circle cx="40" cy="40" r="40" fill="#0077E4"/>
<path d="M50.5002 22.9374C50.5007 22.6775 50.4239 22.4233 50.2798 22.207C50.1356 21.9907 49.9304 21.8221 49.6903 21.7226C49.4502 21.6231 49.1859 21.5971 48.931 21.6479C48.6761 21.6987 48.442 21.8241 48.2585 22.0082L43.0085 27.2582C42.8867 27.3803 42.7901 27.5252 42.7243 27.6846C42.6586 27.8441 42.6249 28.0149 42.6252 28.1874V35.519L40.6801 37.4615C40.291 37.3583 39.8833 37.3457 39.4886 37.4248C39.0939 37.5039 38.7226 37.6726 38.4033 37.9178C38.084 38.1631 37.8253 38.4783 37.647 38.8393C37.4688 39.2002 37.3758 39.5973 37.3752 39.9999C37.3754 40.3735 37.4553 40.7427 37.6096 41.0829C37.7639 41.4232 37.989 41.7265 38.27 41.9728C38.5509 42.219 38.8812 42.4024 39.2387 42.5108C39.5962 42.6192 39.9727 42.65 40.3431 42.6012C40.7134 42.5524 41.0691 42.4251 41.3864 42.2279C41.7036 42.0306 41.9751 41.7679 42.1827 41.4573C42.3902 41.1467 42.5291 40.7954 42.5901 40.4268C42.651 40.0582 42.6325 39.6809 42.536 39.32L44.4811 37.3749H51.8127C51.9852 37.3752 52.156 37.3415 52.3155 37.2758C52.4749 37.21 52.6198 37.1135 52.742 36.9917L57.992 31.7417C58.176 31.5581 58.3014 31.324 58.3522 31.0691C58.403 30.8142 58.3771 30.5499 58.2775 30.3098C58.178 30.0697 58.0094 29.8645 57.7931 29.7204C57.5769 29.5762 57.3226 29.4994 57.0627 29.4999H50.5002V22.9374ZM55.6032 37.8422C56.0549 41.1107 55.4686 44.4386 53.9272 47.356C52.3857 50.2735 49.9669 52.6331 47.0122 54.1019C44.0575 55.5706 40.7161 56.0743 37.4597 55.5418C34.2033 55.0093 31.1964 53.4675 28.8635 51.1341C26.5305 48.8006 24.9893 45.7934 24.4574 42.537C23.9256 39.2805 24.4299 35.9392 25.8992 32.9848C27.3685 30.0303 29.7286 27.612 32.6464 26.0711C35.5641 24.5302 38.8921 23.9446 42.1606 24.3969L41.1552 25.4023C40.7892 25.7679 40.4987 26.202 40.3006 26.6799C40.1024 27.1578 40.0003 27.6701 40.0002 28.1874C37.6639 28.1874 35.3801 28.8802 33.4375 30.1782C31.495 31.4761 29.9809 33.321 29.0869 35.4795C28.1928 37.6379 27.9589 40.013 28.4147 42.3044C28.8705 44.5958 29.9955 46.7006 31.6475 48.3526C33.2995 50.0046 35.4043 51.1296 37.6957 51.5854C39.9871 52.0412 42.3622 51.8073 44.5207 50.9132C46.6791 50.0192 48.524 48.5051 49.8219 46.5626C51.1199 44.62 51.8127 42.3362 51.8127 39.9999C52.8566 39.999 53.8575 39.5835 54.5952 38.8449L55.6032 37.8422ZM40.0002 30.8124C38.1831 30.8124 36.4068 31.3512 34.8959 32.3608C33.385 33.3703 32.2074 34.8052 31.5121 36.484C30.8167 38.1628 30.6347 40.0101 30.9892 41.7923C31.3437 43.5745 32.2188 45.2116 33.5037 46.4965C34.7886 47.7813 36.4256 48.6564 38.2078 49.0109C39.99 49.3654 41.8373 49.1834 43.5161 48.4881C45.1949 47.7927 46.6298 46.6151 47.6393 45.1042C48.6489 43.5933 49.1877 41.817 49.1877 39.9999H45.5678L45.2397 40.328C45.1766 41.3365 44.8238 42.3053 44.2237 43.1182C43.6236 43.9311 42.8017 44.5536 41.8565 44.9109C40.9114 45.2682 39.8832 45.3452 38.8954 45.1327C37.9076 44.9201 37.0021 44.4269 36.2876 43.7125C35.5732 42.998 35.08 42.0925 34.8675 41.1047C34.6549 40.1169 34.7319 39.0887 35.0892 38.1436C35.4465 37.1984 36.069 36.3765 36.8819 35.7764C37.6948 35.1763 38.6636 34.8235 39.6721 34.7604L40.0002 34.4323V30.8124Z" fill="white"/>
</svg>
