<svg width="50" height="32" viewBox="0 0 50 32" fill="none" xmlns="http://www.w3.org/2000/svg">
<rect x="0.945312" width="48.0822" height="31.0139" rx="4" fill="white"/>
<path d="M20.1614 11.6587H18.0656C17.9222 11.6587 17.8002 11.7926 17.7778 11.9746L16.9302 18.8831C16.9133 19.0194 16.9955 19.1424 17.103 19.1424H18.1036C18.247 19.1424 18.369 19.0084 18.3913 18.826L18.62 16.9627C18.642 16.7803 18.7643 16.6464 18.9074 16.6464H19.5709C20.9514 16.6464 21.7482 15.7876 21.9563 14.0858C22.0501 13.3412 21.9603 12.7562 21.6891 12.3465C21.3912 11.8966 20.8629 11.6587 20.1614 11.6587ZM20.4032 14.1819C20.2886 15.1486 19.714 15.1486 19.1584 15.1486H18.8421L19.064 13.3432C19.0772 13.2341 19.1507 13.1537 19.2365 13.1537H19.3815C19.76 13.1537 20.117 13.1537 20.3015 13.431C20.4115 13.5965 20.4452 13.8423 20.4032 14.1819Z" fill="#253B80"/>
<path d="M26.4262 14.1508H25.4226C25.3371 14.1508 25.2633 14.2311 25.2501 14.3402L25.2057 14.7011L25.1355 14.5703C24.9182 14.1649 24.4337 14.0294 23.9501 14.0294C22.8411 14.0294 21.8938 15.1092 21.7093 16.6239C21.6134 17.3795 21.7498 18.102 22.0832 18.6058C22.3891 19.0691 22.8267 19.2621 23.3473 19.2621C24.2409 19.2621 24.7365 18.5235 24.7365 18.5235L24.6917 18.882C24.6749 19.0191 24.757 19.142 24.864 19.142H25.768C25.9117 19.142 26.0331 19.008 26.0557 18.8256L26.5982 14.41C26.6153 14.2741 26.5335 14.1508 26.4262 14.1508ZM25.0273 16.6617C24.9305 17.3988 24.4754 17.8936 23.895 17.8936C23.6035 17.8936 23.3706 17.7734 23.2211 17.5457C23.0727 17.3196 23.0164 16.9978 23.0636 16.6393C23.154 15.9085 23.6167 15.3976 24.1882 15.3976C24.4732 15.3976 24.7049 15.5193 24.8575 15.749C25.0104 15.981 25.0711 16.3048 25.0273 16.6617Z" fill="#253B80"/>
<path d="M31.7714 14.1508H30.7628C30.6666 14.1508 30.5762 14.2122 30.5217 14.315L29.1307 16.9489L28.5411 14.4178C28.504 14.2595 28.3903 14.1508 28.2616 14.1508H27.2705C27.1501 14.1508 27.0664 14.302 27.1047 14.4478L28.2156 18.6385L27.1712 20.5338C27.0891 20.6831 27.1718 20.8883 27.3137 20.8883H28.321C28.4166 20.8883 28.5061 20.8284 28.5604 20.7276L31.9148 14.5033C31.9951 14.3544 31.9126 14.1508 31.7714 14.1508Z" fill="#253B80"/>
<path d="M35.1105 11.6587H33.0144C32.8713 11.6587 32.7493 11.7926 32.7269 11.9746L31.8793 18.8831C31.8624 19.0194 31.9446 19.1424 32.0515 19.1424H33.1271C33.227 19.1424 33.3126 19.0486 33.3282 18.921L33.5687 16.9627C33.5908 16.7803 33.7131 16.6464 33.8562 16.6464H34.5194C35.9002 16.6464 36.6967 15.7876 36.9051 14.0858C36.9992 13.3412 36.9088 12.7562 36.6376 12.3465C36.34 11.8966 35.812 11.6587 35.1105 11.6587ZM35.3523 14.1819C35.238 15.1486 34.6634 15.1486 34.1075 15.1486H33.7915L34.0137 13.3432C34.0269 13.2341 34.0998 13.1537 34.1859 13.1537H34.3309C34.7091 13.1537 35.0664 13.1537 35.2509 13.431C35.3609 13.5965 35.3943 13.8423 35.3523 14.1819Z" fill="#179BD7"/>
<path d="M41.3749 14.1508H40.3719C40.2858 14.1508 40.2125 14.2311 40.1996 14.3402L40.1552 14.7011L40.0847 14.5703C39.8675 14.1649 39.3833 14.0294 38.8997 14.0294C37.7906 14.0294 36.8437 15.1092 36.6592 16.6239C36.5636 17.3795 36.6994 18.102 37.0328 18.6058C37.3392 19.0691 37.7762 19.2621 38.2969 19.2621C39.1905 19.2621 39.686 18.5235 39.686 18.5235L39.6413 18.882C39.6244 19.0191 39.7066 19.142 39.8141 19.142H40.7179C40.861 19.142 40.9829 19.008 41.0053 18.8256L41.548 14.41C41.5646 14.2741 41.4825 14.1508 41.3749 14.1508ZM39.9759 16.6617C39.8797 17.3988 39.424 17.8936 38.8436 17.8936C38.5528 17.8936 38.3193 17.7734 38.1697 17.5457C38.0214 17.3196 37.9656 16.9978 38.0122 16.6393C38.1032 15.9085 38.5653 15.3976 39.1369 15.3976C39.4219 15.3976 39.6536 15.5193 39.8062 15.749C39.9597 15.981 40.0204 16.3048 39.9759 16.6617Z" fill="#179BD7"/>
<path d="M42.5581 11.8482L41.6979 18.8832C41.681 19.0195 41.7632 19.1424 41.8701 19.1424H42.7349C42.8786 19.1424 43.0006 19.0084 43.0227 18.8261L43.8709 11.9179C43.8878 11.7816 43.8057 11.6583 43.6987 11.6583H42.7303C42.6448 11.6587 42.5713 11.7391 42.5581 11.8482Z" fill="#179BD7"/>
<path d="M8.22673 20.485L8.387 19.1763L8.02999 19.1657H6.3252L7.50994 9.50902C7.51361 9.47987 7.52557 9.45268 7.54303 9.43338C7.5605 9.41408 7.58287 9.40344 7.60616 9.40344H10.4807C11.435 9.40344 12.0935 9.65872 12.4374 10.1626C12.5986 10.3989 12.7012 10.6459 12.7509 10.9177C12.803 11.203 12.8039 11.5437 12.753 11.9593L12.7493 11.9897V12.256L12.9105 12.3734C13.0463 12.4659 13.1542 12.5719 13.2369 12.6932C13.3748 12.8953 13.464 13.1522 13.5017 13.4567C13.5406 13.7699 13.5277 14.1425 13.464 14.5644C13.3904 15.0498 13.2715 15.4725 13.111 15.8184C12.9632 16.137 12.7751 16.4014 12.5517 16.6062C12.3384 16.8008 12.085 16.9486 11.7984 17.0431C11.5208 17.1361 11.2042 17.183 10.857 17.183H10.6333C10.4733 17.183 10.318 17.257 10.196 17.3898C10.0737 17.5253 9.99281 17.7104 9.96799 17.9129L9.95113 18.0307L9.66797 20.3372L9.6551 20.4219C9.65173 20.4487 9.64591 20.4621 9.63732 20.4712C9.62966 20.4794 9.61863 20.485 9.60791 20.485H8.22673Z" fill="#253B80"/>
<path d="M13.063 12.0203C13.0545 12.0908 13.0446 12.1629 13.0336 12.2369C12.6545 14.7388 11.3576 15.6031 9.70126 15.6031H8.85791C8.65534 15.6031 8.48465 15.7922 8.45308 16.0491L8.02129 19.5693L7.89902 20.5672C7.87849 20.7358 7.97962 20.8878 8.112 20.8878H9.60779C9.78492 20.8878 9.93539 20.7224 9.96328 20.4978L9.97799 20.4001L10.2596 18.1027L10.2777 17.9766C10.3053 17.7513 10.4561 17.5858 10.6332 17.5858H10.8569C12.3061 17.5858 13.4406 16.8295 13.7722 14.6407C13.9107 13.7264 13.839 12.963 13.4725 12.426C13.3615 12.2641 13.2239 12.1298 13.063 12.0203Z" fill="#179BD7"/>
<path d="M12.6665 11.8171C12.6086 11.7955 12.5489 11.7758 12.4876 11.758C12.426 11.7407 12.3628 11.7253 12.2979 11.7119C12.0705 11.6647 11.8213 11.6422 11.5544 11.6422H9.30138C9.24592 11.6422 9.19321 11.6584 9.14601 11.6875C9.04212 11.7517 8.9649 11.8782 8.94621 12.033L8.46692 15.9354L8.45312 16.0492C8.48469 15.7924 8.65538 15.6033 8.85795 15.6033H9.7013C11.3577 15.6033 12.6546 14.7386 13.0337 12.2371C13.045 12.163 13.0545 12.0909 13.0631 12.0204C12.9672 11.955 12.8633 11.8991 12.7514 11.8514C12.7238 11.8396 12.6953 11.8282 12.6665 11.8171Z" fill="#222D65"/>
<path d="M8.94622 12.0329C8.96492 11.8781 9.04214 11.7517 9.14603 11.6878C9.19353 11.6587 9.24593 11.6425 9.3014 11.6425H11.5544C11.8214 11.6425 12.0705 11.665 12.2979 11.7123C12.3629 11.7257 12.426 11.741 12.4876 11.7584C12.5489 11.7761 12.6086 11.7958 12.6665 11.8175C12.6954 11.8285 12.7239 11.8399 12.7517 11.8513C12.8636 11.899 12.9675 11.9553 13.0634 12.0203C13.1762 11.0958 13.0625 10.4662 12.6736 9.89621C12.2449 9.26867 11.4711 9 10.4809 9H7.60642C7.40416 9 7.23163 9.18909 7.20037 9.44633L6.00306 19.2022C5.97946 19.3953 6.0953 19.5694 6.24669 19.5694H8.02135L8.46693 15.9353L8.94622 12.0329Z" fill="#253B80"/>
</svg>
