<svg width="557" height="517" viewBox="0 0 557 517" fill="none" xmlns="http://www.w3.org/2000/svg">
<rect x="355.753" y="208.358" width="54.23" height="38.5318" rx="19.2659" fill="#FFC800"/>
<rect x="447.088" y="251.171" width="59.9384" height="34.2505" rx="17.1253" fill="#FFC800"/>
<rect x="385.722" y="299.692" width="49.9487" height="28.5421" rx="14.2711" fill="#FFC800"/>
<rect x="291.534" y="161.263" width="45.6674" height="25.6879" rx="12.8439" fill="#FFC800"/>
<rect x="258.711" y="455.247" width="45.6674" height="25.6879" rx="12.8439" transform="rotate(-90 258.711 455.247)" fill="#FFC800"/>
<rect x="345.763" y="372.474" width="45.6674" height="25.6879" rx="12.8439" transform="rotate(-90 345.763 372.474)" fill="#FFC800"/>
<rect x="174.511" y="261.161" width="45.6674" height="25.6879" rx="12.8439" transform="rotate(-90 174.511 261.161)" fill="#FFC800"/>
<rect x="247.294" y="194.086" width="54.23" height="25.6879" rx="12.8439" transform="rotate(-90 247.294 194.086)" fill="#FFC800"/>
<rect x="449.942" y="239.753" width="47.0945" height="25.6879" rx="12.8439" transform="rotate(-90 449.942 239.753)" fill="#FFC800"/>
<rect x="116" y="194.086" width="41.3861" height="62.7926" rx="20" fill="#FFC800"/>
<rect x="187.355" y="274.004" width="38.5318" height="49.9487" rx="5" fill="#FFC800"/>
<path d="M0 154C0 149.582 3.58172 146 8 146H129.002C133.42 146 137.002 149.582 137.002 154V189.376C137.002 193.794 133.42 197.376 129.002 197.376H0V154Z" fill="#17BF6B"/>
<path d="M12.43 157.51C12.43 156.83 12.5833 156.22 12.89 155.68C13.1967 155.133 13.6133 154.707 14.14 154.4C14.6733 154.093 15.2633 153.94 15.91 153.94C16.67 153.94 17.3333 154.123 17.9 154.49C18.4667 154.857 18.88 155.377 19.14 156.05H18.05C17.8567 155.63 17.5767 155.307 17.21 155.08C16.85 154.853 16.4167 154.74 15.91 154.74C15.4233 154.74 14.9867 154.853 14.6 155.08C14.2133 155.307 13.91 155.63 13.69 156.05C13.47 156.463 13.36 156.95 13.36 157.51C13.36 158.063 13.47 158.55 13.69 158.97C13.91 159.383 14.2133 159.703 14.6 159.93C14.9867 160.157 15.4233 160.27 15.91 160.27C16.4167 160.27 16.85 160.16 17.21 159.94C17.5767 159.713 17.8567 159.39 18.05 158.97H19.14C18.88 159.637 18.4667 160.153 17.9 160.52C17.3333 160.88 16.67 161.06 15.91 161.06C15.2633 161.06 14.6733 160.91 14.14 160.61C13.6133 160.303 13.1967 159.88 12.89 159.34C12.5833 158.8 12.43 158.19 12.43 157.51ZM22.8846 161.09C22.3713 161.09 21.9046 160.973 21.4846 160.74C21.0713 160.507 20.7446 160.177 20.5046 159.75C20.2713 159.317 20.1546 158.817 20.1546 158.25C20.1546 157.69 20.2746 157.197 20.5146 156.77C20.7613 156.337 21.0946 156.007 21.5146 155.78C21.9346 155.547 22.4046 155.43 22.9246 155.43C23.4446 155.43 23.9146 155.547 24.3346 155.78C24.7546 156.007 25.0846 156.333 25.3246 156.76C25.5713 157.187 25.6946 157.683 25.6946 158.25C25.6946 158.817 25.5679 159.317 25.3146 159.75C25.0679 160.177 24.7313 160.507 24.3046 160.74C23.8779 160.973 23.4046 161.09 22.8846 161.09ZM22.8846 160.29C23.2113 160.29 23.5179 160.213 23.8046 160.06C24.0913 159.907 24.3213 159.677 24.4946 159.37C24.6746 159.063 24.7646 158.69 24.7646 158.25C24.7646 157.81 24.6779 157.437 24.5046 157.13C24.3313 156.823 24.1046 156.597 23.8246 156.45C23.5446 156.297 23.2413 156.22 22.9146 156.22C22.5813 156.22 22.2746 156.297 21.9946 156.45C21.7213 156.597 21.5013 156.823 21.3346 157.13C21.1679 157.437 21.0846 157.81 21.0846 158.25C21.0846 158.697 21.1646 159.073 21.3246 159.38C21.4913 159.687 21.7113 159.917 21.9846 160.07C22.2579 160.217 22.5579 160.29 22.8846 160.29ZM33.4811 155.42C33.9078 155.42 34.2878 155.51 34.6211 155.69C34.9544 155.863 35.2178 156.127 35.4111 156.48C35.6044 156.833 35.7011 157.263 35.7011 157.77V161H34.8011V157.9C34.8011 157.353 34.6644 156.937 34.3911 156.65C34.1244 156.357 33.7611 156.21 33.3011 156.21C32.8278 156.21 32.4511 156.363 32.1711 156.67C31.8911 156.97 31.7511 157.407 31.7511 157.98V161H30.8511V157.9C30.8511 157.353 30.7144 156.937 30.4411 156.65C30.1744 156.357 29.8111 156.21 29.3511 156.21C28.8778 156.21 28.5011 156.363 28.2211 156.67C27.9411 156.97 27.8011 157.407 27.8011 157.98V161H26.8911V155.52H27.8011V156.31C27.9811 156.023 28.2211 155.803 28.5211 155.65C28.8278 155.497 29.1644 155.42 29.5311 155.42C29.9911 155.42 30.3978 155.523 30.7511 155.73C31.1044 155.937 31.3678 156.24 31.5411 156.64C31.6944 156.253 31.9478 155.953 32.3011 155.74C32.6544 155.527 33.0478 155.42 33.4811 155.42ZM42.2498 161.09C41.7365 161.09 41.2698 160.973 40.8498 160.74C40.4365 160.507 40.1098 160.177 39.8698 159.75C39.6365 159.317 39.5198 158.817 39.5198 158.25C39.5198 157.69 39.6398 157.197 39.8798 156.77C40.1265 156.337 40.4598 156.007 40.8798 155.78C41.2998 155.547 41.7698 155.43 42.2898 155.43C42.8098 155.43 43.2798 155.547 43.6998 155.78C44.1198 156.007 44.4498 156.333 44.6898 156.76C44.9365 157.187 45.0598 157.683 45.0598 158.25C45.0598 158.817 44.9332 159.317 44.6798 159.75C44.4332 160.177 44.0965 160.507 43.6698 160.74C43.2432 160.973 42.7698 161.09 42.2498 161.09ZM42.2498 160.29C42.5765 160.29 42.8832 160.213 43.1698 160.06C43.4565 159.907 43.6865 159.677 43.8598 159.37C44.0398 159.063 44.1298 158.69 44.1298 158.25C44.1298 157.81 44.0432 157.437 43.8698 157.13C43.6965 156.823 43.4698 156.597 43.1898 156.45C42.9098 156.297 42.6065 156.22 42.2798 156.22C41.9465 156.22 41.6398 156.297 41.3598 156.45C41.0865 156.597 40.8665 156.823 40.6998 157.13C40.5332 157.437 40.4498 157.81 40.4498 158.25C40.4498 158.697 40.5298 159.073 40.6898 159.38C40.8565 159.687 41.0765 159.917 41.3498 160.07C41.6232 160.217 41.9232 160.29 42.2498 160.29ZM49.3923 154.63C49.219 154.63 49.0723 154.57 48.9523 154.45C48.8323 154.33 48.7723 154.183 48.7723 154.01C48.7723 153.837 48.8323 153.69 48.9523 153.57C49.0723 153.45 49.219 153.39 49.3923 153.39C49.559 153.39 49.699 153.45 49.8123 153.57C49.9323 153.69 49.9923 153.837 49.9923 154.01C49.9923 154.183 49.9323 154.33 49.8123 154.45C49.699 154.57 49.559 154.63 49.3923 154.63ZM49.8323 155.52V161H48.9223V155.52H49.8323ZM54.0533 155.42C54.7199 155.42 55.2599 155.623 55.6733 156.03C56.0866 156.43 56.2933 157.01 56.2933 157.77V161H55.3933V157.9C55.3933 157.353 55.2566 156.937 54.9833 156.65C54.7099 156.357 54.3366 156.21 53.8633 156.21C53.3833 156.21 52.9999 156.36 52.7133 156.66C52.4333 156.96 52.2933 157.397 52.2933 157.97V161H51.3833V155.52H52.2933V156.3C52.4733 156.02 52.7166 155.803 53.0233 155.65C53.3366 155.497 53.6799 155.42 54.0533 155.42ZM57.4398 158.24C57.4398 157.68 57.5531 157.19 57.7798 156.77C58.0064 156.343 58.3164 156.013 58.7098 155.78C59.1098 155.547 59.5564 155.43 60.0498 155.43C60.4764 155.43 60.8731 155.53 61.2398 155.73C61.6064 155.923 61.8864 156.18 62.0798 156.5V153.6H62.9998V161H62.0798V159.97C61.8998 160.297 61.6331 160.567 61.2798 160.78C60.9264 160.987 60.5131 161.09 60.0398 161.09C59.5531 161.09 59.1098 160.97 58.7098 160.73C58.3164 160.49 58.0064 160.153 57.7798 159.72C57.5531 159.287 57.4398 158.793 57.4398 158.24ZM62.0798 158.25C62.0798 157.837 61.9964 157.477 61.8298 157.17C61.6631 156.863 61.4364 156.63 61.1498 156.47C60.8698 156.303 60.5598 156.22 60.2198 156.22C59.8798 156.22 59.5698 156.3 59.2898 156.46C59.0098 156.62 58.7864 156.853 58.6198 157.16C58.4531 157.467 58.3698 157.827 58.3698 158.24C58.3698 158.66 58.4531 159.027 58.6198 159.34C58.7864 159.647 59.0098 159.883 59.2898 160.05C59.5698 160.21 59.8798 160.29 60.2198 160.29C60.5598 160.29 60.8698 160.21 61.1498 160.05C61.4364 159.883 61.6631 159.647 61.8298 159.34C61.9964 159.027 62.0798 158.663 62.0798 158.25ZM65.0076 154.63C64.8342 154.63 64.6876 154.57 64.5676 154.45C64.4476 154.33 64.3876 154.183 64.3876 154.01C64.3876 153.837 64.4476 153.69 64.5676 153.57C64.6876 153.45 64.8342 153.39 65.0076 153.39C65.1742 153.39 65.3142 153.45 65.4276 153.57C65.5476 153.69 65.6076 153.837 65.6076 154.01C65.6076 154.183 65.5476 154.33 65.4276 154.45C65.3142 154.57 65.1742 154.63 65.0076 154.63ZM65.4476 155.52V161H64.5376V155.52H65.4476ZM70.0585 161L67.9085 158.58V161H66.9985V153.6H67.9085V157.95L70.0185 155.52H71.2885L68.7085 158.25L71.2985 161H70.0585ZM77.145 158.05C77.145 158.223 77.135 158.407 77.115 158.6H72.735C72.7683 159.14 72.9517 159.563 73.285 159.87C73.625 160.17 74.035 160.32 74.515 160.32C74.9083 160.32 75.235 160.23 75.495 160.05C75.7617 159.863 75.9483 159.617 76.055 159.31H77.035C76.8883 159.837 76.595 160.267 76.155 160.6C75.715 160.927 75.1683 161.09 74.515 161.09C73.995 161.09 73.5283 160.973 73.115 160.74C72.7083 160.507 72.3883 160.177 72.155 159.75C71.9217 159.317 71.805 158.817 71.805 158.25C71.805 157.683 71.9183 157.187 72.145 156.76C72.3717 156.333 72.6883 156.007 73.095 155.78C73.5083 155.547 73.9817 155.43 74.515 155.43C75.035 155.43 75.495 155.543 75.895 155.77C76.295 155.997 76.6017 156.31 76.815 156.71C77.035 157.103 77.145 157.55 77.145 158.05ZM76.205 157.86C76.205 157.513 76.1283 157.217 75.975 156.97C75.8217 156.717 75.6117 156.527 75.345 156.4C75.085 156.267 74.795 156.2 74.475 156.2C74.015 156.2 73.6217 156.347 73.295 156.64C72.975 156.933 72.7917 157.34 72.745 157.86H76.205ZM83.0662 155.52L79.7662 163.58H78.8262L79.9062 160.94L77.6962 155.52H78.7062L80.4262 159.96L82.1262 155.52H83.0662ZM84.9209 159.74L83.8009 162.43H83.1909L83.9209 159.74H84.9209ZM95.2194 155.42C95.646 155.42 96.026 155.51 96.3594 155.69C96.6927 155.863 96.956 156.127 97.1494 156.48C97.3427 156.833 97.4394 157.263 97.4394 157.77V161H96.5394V157.9C96.5394 157.353 96.4027 156.937 96.1294 156.65C95.8627 156.357 95.4994 156.21 95.0394 156.21C94.566 156.21 94.1894 156.363 93.9094 156.67C93.6294 156.97 93.4894 157.407 93.4894 157.98V161H92.5894V157.9C92.5894 157.353 92.4527 156.937 92.1794 156.65C91.9127 156.357 91.5494 156.21 91.0894 156.21C90.616 156.21 90.2394 156.363 89.9594 156.67C89.6794 156.97 89.5394 157.407 89.5394 157.98V161H88.6294V155.52H89.5394V156.31C89.7194 156.023 89.9594 155.803 90.2594 155.65C90.566 155.497 90.9027 155.42 91.2694 155.42C91.7294 155.42 92.136 155.523 92.4894 155.73C92.8427 155.937 93.106 156.24 93.2794 156.64C93.4327 156.253 93.686 155.953 94.0394 155.74C94.3927 155.527 94.786 155.42 95.2194 155.42ZM103.932 158.05C103.932 158.223 103.922 158.407 103.902 158.6H99.5221C99.5554 159.14 99.7388 159.563 100.072 159.87C100.412 160.17 100.822 160.32 101.302 160.32C101.695 160.32 102.022 160.23 102.282 160.05C102.549 159.863 102.735 159.617 102.842 159.31H103.822C103.675 159.837 103.382 160.267 102.942 160.6C102.502 160.927 101.955 161.09 101.302 161.09C100.782 161.09 100.315 160.973 99.9021 160.74C99.4954 160.507 99.1754 160.177 98.9421 159.75C98.7088 159.317 98.5921 158.817 98.5921 158.25C98.5921 157.683 98.7054 157.187 98.9321 156.76C99.1588 156.333 99.4754 156.007 99.8821 155.78C100.295 155.547 100.769 155.43 101.302 155.43C101.822 155.43 102.282 155.543 102.682 155.77C103.082 155.997 103.389 156.31 103.602 156.71C103.822 157.103 103.932 157.55 103.932 158.05ZM102.992 157.86C102.992 157.513 102.915 157.217 102.762 156.97C102.609 156.717 102.399 156.527 102.132 156.4C101.872 156.267 101.582 156.2 101.262 156.2C100.802 156.2 100.409 156.347 100.082 156.64C99.7621 156.933 99.5788 157.34 99.5321 157.86H102.992ZM109.993 155.52V161H109.083V160.19C108.91 160.47 108.667 160.69 108.353 160.85C108.047 161.003 107.707 161.08 107.333 161.08C106.907 161.08 106.523 160.993 106.183 160.82C105.843 160.64 105.573 160.373 105.373 160.02C105.18 159.667 105.083 159.237 105.083 158.73V155.52H105.983V158.61C105.983 159.15 106.12 159.567 106.393 159.86C106.667 160.147 107.04 160.29 107.513 160.29C108 160.29 108.383 160.14 108.663 159.84C108.943 159.54 109.083 159.103 109.083 158.53V155.52H109.993ZM15.44 170.42C16.1067 170.42 16.6467 170.623 17.06 171.03C17.4733 171.43 17.68 172.01 17.68 172.77V176H16.78V172.9C16.78 172.353 16.6433 171.937 16.37 171.65C16.0967 171.357 15.7233 171.21 15.25 171.21C14.77 171.21 14.3867 171.36 14.1 171.66C13.82 171.96 13.68 172.397 13.68 172.97V176H12.77V170.52H13.68V171.3C13.86 171.02 14.1033 170.803 14.41 170.65C14.7233 170.497 15.0667 170.42 15.44 170.42ZM24.1665 173.05C24.1665 173.223 24.1565 173.407 24.1365 173.6H19.7565C19.7898 174.14 19.9732 174.563 20.3065 174.87C20.6465 175.17 21.0565 175.32 21.5365 175.32C21.9298 175.32 22.2565 175.23 22.5165 175.05C22.7832 174.863 22.9698 174.617 23.0765 174.31H24.0565C23.9098 174.837 23.6165 175.267 23.1765 175.6C22.7365 175.927 22.1898 176.09 21.5365 176.09C21.0165 176.09 20.5498 175.973 20.1365 175.74C19.7298 175.507 19.4098 175.177 19.1765 174.75C18.9432 174.317 18.8265 173.817 18.8265 173.25C18.8265 172.683 18.9398 172.187 19.1665 171.76C19.3932 171.333 19.7098 171.007 20.1165 170.78C20.5298 170.547 21.0032 170.43 21.5365 170.43C22.0565 170.43 22.5165 170.543 22.9165 170.77C23.3165 170.997 23.6232 171.31 23.8365 171.71C24.0565 172.103 24.1665 172.55 24.1665 173.05ZM23.2265 172.86C23.2265 172.513 23.1498 172.217 22.9965 171.97C22.8432 171.717 22.6332 171.527 22.3665 171.4C22.1065 171.267 21.8165 171.2 21.4965 171.2C21.0365 171.2 20.6432 171.347 20.3165 171.64C19.9965 171.933 19.8132 172.34 19.7665 172.86H23.2265ZM27.6277 170.43C28.101 170.43 28.5143 170.533 28.8677 170.74C29.2277 170.947 29.4943 171.207 29.6677 171.52V170.52H30.5877V176.12C30.5877 176.62 30.481 177.063 30.2677 177.45C30.0543 177.843 29.7477 178.15 29.3477 178.37C28.9543 178.59 28.4943 178.7 27.9677 178.7C27.2477 178.7 26.6477 178.53 26.1677 178.19C25.6877 177.85 25.4043 177.387 25.3177 176.8H26.2177C26.3177 177.133 26.5243 177.4 26.8377 177.6C27.151 177.807 27.5277 177.91 27.9677 177.91C28.4677 177.91 28.8743 177.753 29.1877 177.44C29.5077 177.127 29.6677 176.687 29.6677 176.12V174.97C29.4877 175.29 29.221 175.557 28.8677 175.77C28.5143 175.983 28.101 176.09 27.6277 176.09C27.141 176.09 26.6977 175.97 26.2977 175.73C25.9043 175.49 25.5943 175.153 25.3677 174.72C25.141 174.287 25.0277 173.793 25.0277 173.24C25.0277 172.68 25.141 172.19 25.3677 171.77C25.5943 171.343 25.9043 171.013 26.2977 170.78C26.6977 170.547 27.141 170.43 27.6277 170.43ZM29.6677 173.25C29.6677 172.837 29.5843 172.477 29.4177 172.17C29.251 171.863 29.0243 171.63 28.7377 171.47C28.4577 171.303 28.1477 171.22 27.8077 171.22C27.4677 171.22 27.1577 171.3 26.8777 171.46C26.5977 171.62 26.3743 171.853 26.2077 172.16C26.041 172.467 25.9577 172.827 25.9577 173.24C25.9577 173.66 26.041 174.027 26.2077 174.34C26.3743 174.647 26.5977 174.883 26.8777 175.05C27.1577 175.21 27.4677 175.29 27.8077 175.29C28.1477 175.29 28.4577 175.21 28.7377 175.05C29.0243 174.883 29.251 174.647 29.4177 174.34C29.5843 174.027 29.6677 173.663 29.6677 173.25ZM34.5155 176.09C34.0021 176.09 33.5355 175.973 33.1155 175.74C32.7021 175.507 32.3755 175.177 32.1355 174.75C31.9021 174.317 31.7855 173.817 31.7855 173.25C31.7855 172.69 31.9055 172.197 32.1455 171.77C32.3921 171.337 32.7255 171.007 33.1455 170.78C33.5655 170.547 34.0355 170.43 34.5555 170.43C35.0755 170.43 35.5455 170.547 35.9655 170.78C36.3855 171.007 36.7155 171.333 36.9555 171.76C37.2021 172.187 37.3255 172.683 37.3255 173.25C37.3255 173.817 37.1988 174.317 36.9455 174.75C36.6988 175.177 36.3621 175.507 35.9355 175.74C35.5088 175.973 35.0355 176.09 34.5155 176.09ZM34.5155 175.29C34.8421 175.29 35.1488 175.213 35.4355 175.06C35.7221 174.907 35.9521 174.677 36.1255 174.37C36.3055 174.063 36.3955 173.69 36.3955 173.25C36.3955 172.81 36.3088 172.437 36.1355 172.13C35.9621 171.823 35.7355 171.597 35.4555 171.45C35.1755 171.297 34.8721 171.22 34.5455 171.22C34.2121 171.22 33.9055 171.297 33.6255 171.45C33.3521 171.597 33.1321 171.823 32.9655 172.13C32.7988 172.437 32.7155 172.81 32.7155 173.25C32.7155 173.697 32.7955 174.073 32.9555 174.38C33.1221 174.687 33.3421 174.917 33.6155 175.07C33.8888 175.217 34.1888 175.29 34.5155 175.29ZM35.5355 168.9L33.4055 170.04V169.36L35.5355 168.11V168.9ZM38.182 173.25C38.182 172.683 38.2953 172.19 38.522 171.77C38.7486 171.343 39.062 171.013 39.462 170.78C39.8686 170.547 40.332 170.43 40.852 170.43C41.5253 170.43 42.0786 170.593 42.512 170.92C42.952 171.247 43.242 171.7 43.382 172.28H42.402C42.3086 171.947 42.1253 171.683 41.852 171.49C41.5853 171.297 41.252 171.2 40.852 171.2C40.332 171.2 39.912 171.38 39.592 171.74C39.272 172.093 39.112 172.597 39.112 173.25C39.112 173.91 39.272 174.42 39.592 174.78C39.912 175.14 40.332 175.32 40.852 175.32C41.252 175.32 41.5853 175.227 41.852 175.04C42.1186 174.853 42.302 174.587 42.402 174.24H43.382C43.2353 174.8 42.942 175.25 42.502 175.59C42.062 175.923 41.512 176.09 40.852 176.09C40.332 176.09 39.8686 175.973 39.462 175.74C39.062 175.507 38.7486 175.177 38.522 174.75C38.2953 174.323 38.182 173.823 38.182 173.25ZM45.0662 169.63C44.8928 169.63 44.7462 169.57 44.6262 169.45C44.5062 169.33 44.4462 169.183 44.4462 169.01C44.4462 168.837 44.5062 168.69 44.6262 168.57C44.7462 168.45 44.8928 168.39 45.0662 168.39C45.2328 168.39 45.3728 168.45 45.4862 168.57C45.6062 168.69 45.6662 168.837 45.6662 169.01C45.6662 169.183 45.6062 169.33 45.4862 169.45C45.3728 169.57 45.2328 169.63 45.0662 169.63ZM45.5062 170.52V176H44.5962V170.52H45.5062ZM49.4471 176.09C48.9338 176.09 48.4671 175.973 48.0471 175.74C47.6338 175.507 47.3071 175.177 47.0671 174.75C46.8338 174.317 46.7171 173.817 46.7171 173.25C46.7171 172.69 46.8371 172.197 47.0771 171.77C47.3238 171.337 47.6571 171.007 48.0771 170.78C48.4971 170.547 48.9671 170.43 49.4871 170.43C50.0071 170.43 50.4771 170.547 50.8971 170.78C51.3171 171.007 51.6471 171.333 51.8871 171.76C52.1338 172.187 52.2571 172.683 52.2571 173.25C52.2571 173.817 52.1304 174.317 51.8771 174.75C51.6304 175.177 51.2938 175.507 50.8671 175.74C50.4404 175.973 49.9671 176.09 49.4471 176.09ZM49.4471 175.29C49.7738 175.29 50.0804 175.213 50.3671 175.06C50.6538 174.907 50.8838 174.677 51.0571 174.37C51.2371 174.063 51.3271 173.69 51.3271 173.25C51.3271 172.81 51.2404 172.437 51.0671 172.13C50.8938 171.823 50.6671 171.597 50.3871 171.45C50.1071 171.297 49.8038 171.22 49.4771 171.22C49.1438 171.22 48.8371 171.297 48.5571 171.45C48.2838 171.597 48.0638 171.823 47.8971 172.13C47.7304 172.437 47.6471 172.81 47.6471 173.25C47.6471 173.697 47.7271 174.073 47.8871 174.38C48.0538 174.687 48.2738 174.917 48.5471 175.07C48.8204 175.217 49.1204 175.29 49.4471 175.29ZM58.3496 171.27H57.1996V176H56.2896V171.27H55.5796V170.52H56.2896V170.13C56.2896 169.517 56.4463 169.07 56.7596 168.79C57.0796 168.503 57.5896 168.36 58.2896 168.36V169.12C57.8896 169.12 57.6063 169.2 57.4396 169.36C57.2796 169.513 57.1996 169.77 57.1996 170.13V170.52H58.3496V171.27ZM59.8806 169.63C59.7073 169.63 59.5606 169.57 59.4406 169.45C59.3206 169.33 59.2606 169.183 59.2606 169.01C59.2606 168.837 59.3206 168.69 59.4406 168.57C59.5606 168.45 59.7073 168.39 59.8806 168.39C60.0473 168.39 60.1873 168.45 60.3006 168.57C60.4206 168.69 60.4806 168.837 60.4806 169.01C60.4806 169.183 60.4206 169.33 60.3006 169.45C60.1873 169.57 60.0473 169.63 59.8806 169.63ZM60.3206 170.52V176H59.4106V170.52H60.3206ZM64.5416 170.42C65.2082 170.42 65.7482 170.623 66.1616 171.03C66.5749 171.43 66.7816 172.01 66.7816 172.77V176H65.8816V172.9C65.8816 172.353 65.7449 171.937 65.4716 171.65C65.1982 171.357 64.8249 171.21 64.3516 171.21C63.8716 171.21 63.4882 171.36 63.2016 171.66C62.9216 171.96 62.7816 172.397 62.7816 172.97V176H61.8716V170.52H62.7816V171.3C62.9616 171.02 63.2049 170.803 63.5116 170.65C63.8249 170.497 64.1682 170.42 64.5416 170.42ZM67.928 173.24C67.928 172.68 68.0414 172.19 68.268 171.77C68.4947 171.343 68.8047 171.013 69.198 170.78C69.598 170.547 70.0414 170.43 70.528 170.43C71.008 170.43 71.4247 170.533 71.778 170.74C72.1314 170.947 72.3947 171.207 72.568 171.52V170.52H73.488V176H72.568V174.98C72.388 175.3 72.118 175.567 71.758 175.78C71.4047 175.987 70.9914 176.09 70.518 176.09C70.0314 176.09 69.5914 175.97 69.198 175.73C68.8047 175.49 68.4947 175.153 68.268 174.72C68.0414 174.287 67.928 173.793 67.928 173.24ZM72.568 173.25C72.568 172.837 72.4847 172.477 72.318 172.17C72.1514 171.863 71.9247 171.63 71.638 171.47C71.358 171.303 71.048 171.22 70.708 171.22C70.368 171.22 70.058 171.3 69.778 171.46C69.498 171.62 69.2747 171.853 69.108 172.16C68.9414 172.467 68.858 172.827 68.858 173.24C68.858 173.66 68.9414 174.027 69.108 174.34C69.2747 174.647 69.498 174.883 69.778 175.05C70.058 175.21 70.368 175.29 70.708 175.29C71.048 175.29 71.358 175.21 71.638 175.05C71.9247 174.883 72.1514 174.647 72.318 174.34C72.4847 174.027 72.568 173.663 72.568 173.25ZM75.9359 168.6V176H75.0259V168.6H75.9359ZM84.0768 170.42C84.5035 170.42 84.8835 170.51 85.2168 170.69C85.5501 170.863 85.8135 171.127 86.0068 171.48C86.2001 171.833 86.2968 172.263 86.2968 172.77V176H85.3968V172.9C85.3968 172.353 85.2601 171.937 84.9868 171.65C84.7201 171.357 84.3568 171.21 83.8968 171.21C83.4235 171.21 83.0468 171.363 82.7668 171.67C82.4868 171.97 82.3468 172.407 82.3468 172.98V176H81.4468V172.9C81.4468 172.353 81.3101 171.937 81.0368 171.65C80.7701 171.357 80.4068 171.21 79.9468 171.21C79.4735 171.21 79.0968 171.363 78.8168 171.67C78.5368 171.97 78.3968 172.407 78.3968 172.98V176H77.4868V170.52H78.3968V171.31C78.5768 171.023 78.8168 170.803 79.1168 170.65C79.4235 170.497 79.7601 170.42 80.1268 170.42C80.5868 170.42 80.9935 170.523 81.3468 170.73C81.7001 170.937 81.9635 171.24 82.1368 171.64C82.2901 171.253 82.5435 170.953 82.8968 170.74C83.2501 170.527 83.6435 170.42 84.0768 170.42ZM92.7895 173.05C92.7895 173.223 92.7795 173.407 92.7595 173.6H88.3795C88.4129 174.14 88.5962 174.563 88.9295 174.87C89.2695 175.17 89.6795 175.32 90.1595 175.32C90.5529 175.32 90.8795 175.23 91.1395 175.05C91.4062 174.863 91.5929 174.617 91.6995 174.31H92.6795C92.5329 174.837 92.2395 175.267 91.7995 175.6C91.3595 175.927 90.8129 176.09 90.1595 176.09C89.6395 176.09 89.1729 175.973 88.7595 175.74C88.3529 175.507 88.0329 175.177 87.7995 174.75C87.5662 174.317 87.4495 173.817 87.4495 173.25C87.4495 172.683 87.5629 172.187 87.7895 171.76C88.0162 171.333 88.3329 171.007 88.7395 170.78C89.1529 170.547 89.6262 170.43 90.1595 170.43C90.6795 170.43 91.1395 170.543 91.5395 170.77C91.9395 170.997 92.2462 171.31 92.4595 171.71C92.6795 172.103 92.7895 172.55 92.7895 173.05ZM91.8495 172.86C91.8495 172.513 91.7729 172.217 91.6195 171.97C91.4662 171.717 91.2562 171.527 90.9895 171.4C90.7295 171.267 90.4395 171.2 90.1195 171.2C89.6595 171.2 89.2662 171.347 88.9395 171.64C88.6195 171.933 88.4362 172.34 88.3895 172.86H91.8495ZM96.6607 170.42C97.3274 170.42 97.8674 170.623 98.2807 171.03C98.694 171.43 98.9007 172.01 98.9007 172.77V176H98.0007V172.9C98.0007 172.353 97.864 171.937 97.5907 171.65C97.3174 171.357 96.944 171.21 96.4707 171.21C95.9907 171.21 95.6074 171.36 95.3207 171.66C95.0407 171.96 94.9007 172.397 94.9007 172.97V176H93.9907V170.52H94.9007V171.3C95.0807 171.02 95.324 170.803 95.6307 170.65C95.944 170.497 96.2874 170.42 96.6607 170.42ZM101.497 171.27V174.5C101.497 174.767 101.554 174.957 101.667 175.07C101.781 175.177 101.977 175.23 102.257 175.23H102.927V176H102.107C101.601 176 101.221 175.883 100.967 175.65C100.714 175.417 100.587 175.033 100.587 174.5V171.27H99.8772V170.52H100.587V169.14H101.497V170.52H102.927V171.27H101.497ZM109.03 173.05C109.03 173.223 109.02 173.407 109 173.6H104.62C104.653 174.14 104.836 174.563 105.17 174.87C105.51 175.17 105.92 175.32 106.4 175.32C106.793 175.32 107.12 175.23 107.38 175.05C107.646 174.863 107.833 174.617 107.94 174.31H108.92C108.773 174.837 108.48 175.267 108.04 175.6C107.6 175.927 107.053 176.09 106.4 176.09C105.88 176.09 105.413 175.973 105 175.74C104.593 175.507 104.273 175.177 104.04 174.75C103.806 174.317 103.69 173.817 103.69 173.25C103.69 172.683 103.803 172.187 104.03 171.76C104.256 171.333 104.573 171.007 104.98 170.78C105.393 170.547 105.866 170.43 106.4 170.43C106.92 170.43 107.38 170.543 107.78 170.77C108.18 170.997 108.486 171.31 108.7 171.71C108.92 172.103 109.03 172.55 109.03 173.05ZM108.09 172.86C108.09 172.513 108.013 172.217 107.86 171.97C107.706 171.717 107.496 171.527 107.23 171.4C106.97 171.267 106.68 171.2 106.36 171.2C105.9 171.2 105.506 171.347 105.18 171.64C104.86 171.933 104.676 172.34 104.63 172.86H108.09ZM12.43 188.25C12.43 187.683 12.5433 187.19 12.77 186.77C12.9967 186.343 13.31 186.013 13.71 185.78C14.1167 185.547 14.58 185.43 15.1 185.43C15.7733 185.43 16.3267 185.593 16.76 185.92C17.2 186.247 17.49 186.7 17.63 187.28H16.65C16.5567 186.947 16.3733 186.683 16.1 186.49C15.8333 186.297 15.5 186.2 15.1 186.2C14.58 186.2 14.16 186.38 13.84 186.74C13.52 187.093 13.36 187.597 13.36 188.25C13.36 188.91 13.52 189.42 13.84 189.78C14.16 190.14 14.58 190.32 15.1 190.32C15.5 190.32 15.8333 190.227 16.1 190.04C16.3667 189.853 16.55 189.587 16.65 189.24H17.63C17.4833 189.8 17.19 190.25 16.75 190.59C16.31 190.923 15.76 191.09 15.1 191.09C14.58 191.09 14.1167 190.973 13.71 190.74C13.31 190.507 12.9967 190.177 12.77 189.75C12.5433 189.323 12.43 188.823 12.43 188.25ZM19.7542 186.41C19.9142 186.097 20.1409 185.853 20.4342 185.68C20.7342 185.507 21.0976 185.42 21.5242 185.42V186.36H21.2842C20.2642 186.36 19.7542 186.913 19.7542 188.02V191H18.8442V185.52H19.7542V186.41ZM27.5747 188.05C27.5747 188.223 27.5647 188.407 27.5447 188.6H23.1647C23.198 189.14 23.3814 189.563 23.7147 189.87C24.0547 190.17 24.4647 190.32 24.9447 190.32C25.338 190.32 25.6647 190.23 25.9247 190.05C26.1914 189.863 26.378 189.617 26.4847 189.31H27.4647C27.318 189.837 27.0247 190.267 26.5847 190.6C26.1447 190.927 25.598 191.09 24.9447 191.09C24.4247 191.09 23.958 190.973 23.5447 190.74C23.138 190.507 22.818 190.177 22.5847 189.75C22.3514 189.317 22.2347 188.817 22.2347 188.25C22.2347 187.683 22.348 187.187 22.5747 186.76C22.8014 186.333 23.118 186.007 23.5247 185.78C23.938 185.547 24.4114 185.43 24.9447 185.43C25.4647 185.43 25.9247 185.543 26.3247 185.77C26.7247 185.997 27.0314 186.31 27.2447 186.71C27.4647 187.103 27.5747 187.55 27.5747 188.05ZM26.6347 187.86C26.6347 187.513 26.558 187.217 26.4047 186.97C26.2514 186.717 26.0414 186.527 25.7747 186.4C25.5147 186.267 25.2247 186.2 24.9047 186.2C24.4447 186.2 24.0514 186.347 23.7247 186.64C23.4047 186.933 23.2214 187.34 23.1747 187.86H26.6347ZM30.7159 191.09C30.2959 191.09 29.9192 191.02 29.5859 190.88C29.2525 190.733 28.9892 190.533 28.7959 190.28C28.6025 190.02 28.4959 189.723 28.4759 189.39H29.4159C29.4425 189.663 29.5692 189.887 29.7959 190.06C30.0292 190.233 30.3325 190.32 30.7059 190.32C31.0525 190.32 31.3259 190.243 31.5259 190.09C31.7259 189.937 31.8259 189.743 31.8259 189.51C31.8259 189.27 31.7192 189.093 31.5059 188.98C31.2925 188.86 30.9625 188.743 30.5159 188.63C30.1092 188.523 29.7759 188.417 29.5159 188.31C29.2625 188.197 29.0425 188.033 28.8559 187.82C28.6759 187.6 28.5859 187.313 28.5859 186.96C28.5859 186.68 28.6692 186.423 28.8359 186.19C29.0025 185.957 29.2392 185.773 29.5459 185.64C29.8525 185.5 30.2025 185.43 30.5959 185.43C31.2025 185.43 31.6925 185.583 32.0659 185.89C32.4392 186.197 32.6392 186.617 32.6659 187.15H31.7559C31.7359 186.863 31.6192 186.633 31.4059 186.46C31.1992 186.287 30.9192 186.2 30.5659 186.2C30.2392 186.2 29.9792 186.27 29.7859 186.41C29.5925 186.55 29.4959 186.733 29.4959 186.96C29.4959 187.14 29.5525 187.29 29.6659 187.41C29.7859 187.523 29.9325 187.617 30.1059 187.69C30.2859 187.757 30.5325 187.833 30.8459 187.92C31.2392 188.027 31.5592 188.133 31.8059 188.24C32.0525 188.34 32.2625 188.493 32.4359 188.7C32.6159 188.907 32.7092 189.177 32.7159 189.51C32.7159 189.81 32.6325 190.08 32.4659 190.32C32.2992 190.56 32.0625 190.75 31.7559 190.89C31.4559 191.023 31.1092 191.09 30.7159 191.09ZM33.6605 188.25C33.6605 187.683 33.7738 187.19 34.0005 186.77C34.2271 186.343 34.5405 186.013 34.9405 185.78C35.3471 185.547 35.8105 185.43 36.3305 185.43C37.0038 185.43 37.5571 185.593 37.9905 185.92C38.4305 186.247 38.7205 186.7 38.8605 187.28H37.8805C37.7871 186.947 37.6038 186.683 37.3305 186.49C37.0638 186.297 36.7305 186.2 36.3305 186.2C35.8105 186.2 35.3905 186.38 35.0705 186.74C34.7505 187.093 34.5905 187.597 34.5905 188.25C34.5905 188.91 34.7505 189.42 35.0705 189.78C35.3905 190.14 35.8105 190.32 36.3305 190.32C36.7305 190.32 37.0638 190.227 37.3305 190.04C37.5971 189.853 37.7805 189.587 37.8805 189.24H38.8605C38.7138 189.8 38.4205 190.25 37.9805 190.59C37.5405 190.923 36.9905 191.09 36.3305 191.09C35.8105 191.09 35.3471 190.973 34.9405 190.74C34.5405 190.507 34.2271 190.177 34.0005 189.75C33.7738 189.323 33.6605 188.823 33.6605 188.25ZM45.0747 188.05C45.0747 188.223 45.0647 188.407 45.0447 188.6H40.6647C40.698 189.14 40.8814 189.563 41.2147 189.87C41.5547 190.17 41.9647 190.32 42.4447 190.32C42.838 190.32 43.1647 190.23 43.4247 190.05C43.6914 189.863 43.878 189.617 43.9847 189.31H44.9647C44.818 189.837 44.5247 190.267 44.0847 190.6C43.6447 190.927 43.098 191.09 42.4447 191.09C41.9247 191.09 41.458 190.973 41.0447 190.74C40.638 190.507 40.318 190.177 40.0847 189.75C39.8514 189.317 39.7347 188.817 39.7347 188.25C39.7347 187.683 39.848 187.187 40.0747 186.76C40.3014 186.333 40.618 186.007 41.0247 185.78C41.438 185.547 41.9114 185.43 42.4447 185.43C42.9647 185.43 43.4247 185.543 43.8247 185.77C44.2247 185.997 44.5314 186.31 44.7447 186.71C44.9647 187.103 45.0747 187.55 45.0747 188.05ZM44.1347 187.86C44.1347 187.513 44.058 187.217 43.9047 186.97C43.7514 186.717 43.5414 186.527 43.2747 186.4C43.0147 186.267 42.7247 186.2 42.4047 186.2C41.9447 186.2 41.5514 186.347 41.2247 186.64C40.9047 186.933 40.7214 187.34 40.6747 187.86H44.1347ZM51.1359 185.52V191H50.2259V190.19C50.0525 190.47 49.8092 190.69 49.4959 190.85C49.1892 191.003 48.8492 191.08 48.4759 191.08C48.0492 191.08 47.6659 190.993 47.3259 190.82C46.9859 190.64 46.7159 190.373 46.5159 190.02C46.3225 189.667 46.2259 189.237 46.2259 188.73V185.52H47.1259V188.61C47.1259 189.15 47.2625 189.567 47.5359 189.86C47.8092 190.147 48.1825 190.29 48.6559 190.29C49.1425 190.29 49.5259 190.14 49.8059 189.84C50.0859 189.54 50.2259 189.103 50.2259 188.53V185.52H51.1359Z" fill="white"/>
<circle cx="218.752" cy="15.6982" r="15.6982" fill="#0077E4"/>
<circle cx="193.064" cy="67.0741" r="15.6982" fill="#0077E4"/>
<circle cx="277.977" cy="100.611" r="22.1201" fill="#0077E4"/>
<circle cx="209.476" cy="151.987" r="22.1201" fill="#0077E4"/>
<circle cx="267.274" cy="246.889" r="35.6776" fill="#0077E4"/>
<circle cx="356.467" cy="280.426" r="24.9743" fill="#0077E4"/>
<circle cx="145.969" cy="309.682" r="17.1253" fill="#0077E4"/>
<circle cx="232.31" cy="387.459" r="19.2659" fill="#0077E4"/>
<circle cx="223.747" cy="450.252" r="19.2659" fill="#0077E4"/>
<circle cx="311.926" cy="417.295" r="14.3437" transform="rotate(2.06408 311.926 417.295)" fill="#0077E4"/>
<circle cx="285.113" cy="320.386" r="24.9743" fill="#0077E4"/>
<circle cx="542.705" cy="201.222" r="14.2711" fill="#0077E4"/>
<circle cx="257.998" cy="503.055" r="13.5575" fill="#0077E4"/>
<path d="M303.055 57.4319C303.055 53.0136 306.637 49.4319 311.055 49.4319H432.057C436.475 49.4319 440.057 53.0136 440.057 57.4319V92.8077C440.057 97.2259 436.475 100.808 432.057 100.808H303.055V57.4319Z" fill="#17BF6B"/>
<path d="M319.16 65.09C318.647 65.09 318.18 64.9733 317.76 64.74C317.347 64.5067 317.02 64.1767 316.78 63.75C316.547 63.3167 316.43 62.8167 316.43 62.25C316.43 61.69 316.55 61.1967 316.79 60.77C317.037 60.3367 317.37 60.0067 317.79 59.78C318.21 59.5467 318.68 59.43 319.2 59.43C319.72 59.43 320.19 59.5467 320.61 59.78C321.03 60.0067 321.36 60.3333 321.6 60.76C321.847 61.1867 321.97 61.6833 321.97 62.25C321.97 62.8167 321.843 63.3167 321.59 63.75C321.343 64.1767 321.007 64.5067 320.58 64.74C320.153 64.9733 319.68 65.09 319.16 65.09ZM319.16 64.29C319.487 64.29 319.793 64.2133 320.08 64.06C320.367 63.9067 320.597 63.6767 320.77 63.37C320.95 63.0633 321.04 62.69 321.04 62.25C321.04 61.81 320.953 61.4367 320.78 61.13C320.607 60.8233 320.38 60.5967 320.1 60.45C319.82 60.2967 319.517 60.22 319.19 60.22C318.857 60.22 318.55 60.2967 318.27 60.45C317.997 60.5967 317.777 60.8233 317.61 61.13C317.443 61.4367 317.36 61.81 317.36 62.25C317.36 62.6967 317.44 63.0733 317.6 63.38C317.767 63.6867 317.987 63.9167 318.26 64.07C318.533 64.2167 318.833 64.29 319.16 64.29ZM320.18 57.9L318.05 59.04V58.36L320.18 57.11V57.9ZM324.276 60.27V63.5C324.276 63.7667 324.333 63.9567 324.446 64.07C324.56 64.1767 324.756 64.23 325.036 64.23H325.706V65H324.886C324.38 65 324 64.8833 323.746 64.65C323.493 64.4167 323.366 64.0333 323.366 63.5V60.27H322.656V59.52H323.366V58.14H324.276V59.52H325.706V60.27H324.276ZM327.279 58.63C327.106 58.63 326.959 58.57 326.839 58.45C326.719 58.33 326.659 58.1833 326.659 58.01C326.659 57.8367 326.719 57.69 326.839 57.57C326.959 57.45 327.106 57.39 327.279 57.39C327.446 57.39 327.586 57.45 327.699 57.57C327.819 57.69 327.879 57.8367 327.879 58.01C327.879 58.1833 327.819 58.33 327.699 58.45C327.586 58.57 327.446 58.63 327.279 58.63ZM327.719 59.52V65H326.809V59.52H327.719ZM335.86 59.42C336.287 59.42 336.667 59.51 337 59.69C337.333 59.8633 337.597 60.1267 337.79 60.48C337.983 60.8333 338.08 61.2633 338.08 61.77V65H337.18V61.9C337.18 61.3533 337.043 60.9367 336.77 60.65C336.503 60.3567 336.14 60.21 335.68 60.21C335.207 60.21 334.83 60.3633 334.55 60.67C334.27 60.97 334.13 61.4067 334.13 61.98V65H333.23V61.9C333.23 61.3533 333.093 60.9367 332.82 60.65C332.553 60.3567 332.19 60.21 331.73 60.21C331.257 60.21 330.88 60.3633 330.6 60.67C330.32 60.97 330.18 61.4067 330.18 61.98V65H329.27V59.52H330.18V60.31C330.36 60.0233 330.6 59.8033 330.9 59.65C331.207 59.4967 331.543 59.42 331.91 59.42C332.37 59.42 332.777 59.5233 333.13 59.73C333.483 59.9367 333.747 60.24 333.92 60.64C334.073 60.2533 334.327 59.9533 334.68 59.74C335.033 59.5267 335.427 59.42 335.86 59.42ZM339.233 62.24C339.233 61.68 339.346 61.19 339.573 60.77C339.799 60.3433 340.109 60.0133 340.503 59.78C340.903 59.5467 341.346 59.43 341.833 59.43C342.313 59.43 342.729 59.5333 343.083 59.74C343.436 59.9467 343.699 60.2067 343.873 60.52V59.52H344.793V65H343.873V63.98C343.693 64.3 343.423 64.5667 343.063 64.78C342.709 64.9867 342.296 65.09 341.823 65.09C341.336 65.09 340.896 64.97 340.503 64.73C340.109 64.49 339.799 64.1533 339.573 63.72C339.346 63.2867 339.233 62.7933 339.233 62.24ZM343.873 62.25C343.873 61.8367 343.789 61.4767 343.623 61.17C343.456 60.8633 343.229 60.63 342.943 60.47C342.663 60.3033 342.353 60.22 342.013 60.22C341.673 60.22 341.363 60.3 341.083 60.46C340.803 60.62 340.579 60.8533 340.413 61.16C340.246 61.4667 340.163 61.8267 340.163 62.24C340.163 62.66 340.246 63.0267 340.413 63.34C340.579 63.6467 340.803 63.8833 341.083 64.05C341.363 64.21 341.673 64.29 342.013 64.29C342.353 64.29 342.663 64.21 342.943 64.05C343.229 63.8833 343.456 63.6467 343.623 63.34C343.789 63.0267 343.873 62.6633 343.873 62.25ZM349.907 60.53C350.087 60.2167 350.353 59.9567 350.707 59.75C351.067 59.5367 351.483 59.43 351.957 59.43C352.443 59.43 352.883 59.5467 353.277 59.78C353.677 60.0133 353.99 60.3433 354.217 60.77C354.443 61.19 354.557 61.68 354.557 62.24C354.557 62.7933 354.443 63.2867 354.217 63.72C353.99 64.1533 353.677 64.49 353.277 64.73C352.883 64.97 352.443 65.09 351.957 65.09C351.49 65.09 351.077 64.9867 350.717 64.78C350.363 64.5667 350.093 64.3033 349.907 63.99V67.6H348.997V59.52H349.907V60.53ZM353.627 62.24C353.627 61.8267 353.543 61.4667 353.377 61.16C353.21 60.8533 352.983 60.62 352.697 60.46C352.417 60.3 352.107 60.22 351.767 60.22C351.433 60.22 351.123 60.3033 350.837 60.47C350.557 60.63 350.33 60.8667 350.157 61.18C349.99 61.4867 349.907 61.8433 349.907 62.25C349.907 62.6633 349.99 63.0267 350.157 63.34C350.33 63.6467 350.557 63.8833 350.837 64.05C351.123 64.21 351.433 64.29 351.767 64.29C352.107 64.29 352.417 64.21 352.697 64.05C352.983 63.8833 353.21 63.6467 353.377 63.34C353.543 63.0267 353.627 62.66 353.627 62.24ZM356.664 57.6V65H355.754V57.6H356.664ZM357.875 62.24C357.875 61.68 357.989 61.19 358.215 60.77C358.442 60.3433 358.752 60.0133 359.145 59.78C359.545 59.5467 359.989 59.43 360.475 59.43C360.955 59.43 361.372 59.5333 361.725 59.74C362.079 59.9467 362.342 60.2067 362.515 60.52V59.52H363.435V65H362.515V63.98C362.335 64.3 362.065 64.5667 361.705 64.78C361.352 64.9867 360.939 65.09 360.465 65.09C359.979 65.09 359.539 64.97 359.145 64.73C358.752 64.49 358.442 64.1533 358.215 63.72C357.989 63.2867 357.875 62.7933 357.875 62.24ZM362.515 62.25C362.515 61.8367 362.432 61.4767 362.265 61.17C362.099 60.8633 361.872 60.63 361.585 60.47C361.305 60.3033 360.995 60.22 360.655 60.22C360.315 60.22 360.005 60.3 359.725 60.46C359.445 60.62 359.222 60.8533 359.055 61.16C358.889 61.4667 358.805 61.8267 358.805 62.24C358.805 62.66 358.889 63.0267 359.055 63.34C359.222 63.6467 359.445 63.8833 359.725 64.05C360.005 64.21 360.315 64.29 360.655 64.29C360.995 64.29 361.305 64.21 361.585 64.05C361.872 63.8833 362.099 63.6467 362.265 63.34C362.432 63.0267 362.515 62.6633 362.515 62.25ZM366.083 60.27V63.5C366.083 63.7667 366.14 63.9567 366.253 64.07C366.366 64.1767 366.563 64.23 366.843 64.23H367.513V65H366.693C366.186 65 365.806 64.8833 365.553 64.65C365.3 64.4167 365.173 64.0333 365.173 63.5V60.27H364.463V59.52H365.173V58.14H366.083V59.52H367.513V60.27H366.083ZM368.276 62.24C368.276 61.68 368.389 61.19 368.616 60.77C368.842 60.3433 369.152 60.0133 369.546 59.78C369.946 59.5467 370.389 59.43 370.876 59.43C371.356 59.43 371.772 59.5333 372.126 59.74C372.479 59.9467 372.742 60.2067 372.916 60.52V59.52H373.836V65H372.916V63.98C372.736 64.3 372.466 64.5667 372.106 64.78C371.752 64.9867 371.339 65.09 370.866 65.09C370.379 65.09 369.939 64.97 369.546 64.73C369.152 64.49 368.842 64.1533 368.616 63.72C368.389 63.2867 368.276 62.7933 368.276 62.24ZM372.916 62.25C372.916 61.8367 372.832 61.4767 372.666 61.17C372.499 60.8633 372.272 60.63 371.986 60.47C371.706 60.3033 371.396 60.22 371.056 60.22C370.716 60.22 370.406 60.3 370.126 60.46C369.846 60.62 369.622 60.8533 369.456 61.16C369.289 61.4667 369.206 61.8267 369.206 62.24C369.206 62.66 369.289 63.0267 369.456 63.34C369.622 63.6467 369.846 63.8833 370.126 64.05C370.406 64.21 370.716 64.29 371.056 64.29C371.396 64.29 371.706 64.21 371.986 64.05C372.272 63.8833 372.499 63.6467 372.666 63.34C372.832 63.0267 372.916 62.6633 372.916 62.25ZM377.604 60.27H376.454V65H375.544V60.27H374.834V59.52H375.544V59.13C375.544 58.5167 375.7 58.07 376.014 57.79C376.334 57.5033 376.844 57.36 377.544 57.36V58.12C377.144 58.12 376.86 58.2 376.694 58.36C376.534 58.5133 376.454 58.77 376.454 59.13V59.52H377.604V60.27ZM381.055 65.09C380.541 65.09 380.075 64.9733 379.655 64.74C379.241 64.5067 378.915 64.1767 378.675 63.75C378.441 63.3167 378.325 62.8167 378.325 62.25C378.325 61.69 378.445 61.1967 378.685 60.77C378.931 60.3367 379.265 60.0067 379.685 59.78C380.105 59.5467 380.575 59.43 381.095 59.43C381.615 59.43 382.085 59.5467 382.505 59.78C382.925 60.0067 383.255 60.3333 383.495 60.76C383.741 61.1867 383.865 61.6833 383.865 62.25C383.865 62.8167 383.738 63.3167 383.485 63.75C383.238 64.1767 382.901 64.5067 382.475 64.74C382.048 64.9733 381.575 65.09 381.055 65.09ZM381.055 64.29C381.381 64.29 381.688 64.2133 381.975 64.06C382.261 63.9067 382.491 63.6767 382.665 63.37C382.845 63.0633 382.935 62.69 382.935 62.25C382.935 61.81 382.848 61.4367 382.675 61.13C382.501 60.8233 382.275 60.5967 381.995 60.45C381.715 60.2967 381.411 60.22 381.085 60.22C380.751 60.22 380.445 60.2967 380.165 60.45C379.891 60.5967 379.671 60.8233 379.505 61.13C379.338 61.4367 379.255 61.81 379.255 62.25C379.255 62.6967 379.335 63.0733 379.495 63.38C379.661 63.6867 379.881 63.9167 380.155 64.07C380.428 64.2167 380.728 64.29 381.055 64.29ZM385.971 60.41C386.131 60.0967 386.358 59.8533 386.651 59.68C386.951 59.5067 387.314 59.42 387.741 59.42V60.36H387.501C386.481 60.36 385.971 60.9133 385.971 62.02V65H385.061V59.52H385.971V60.41ZM395.381 59.42C395.808 59.42 396.188 59.51 396.521 59.69C396.855 59.8633 397.118 60.1267 397.311 60.48C397.505 60.8333 397.601 61.2633 397.601 61.77V65H396.701V61.9C396.701 61.3533 396.565 60.9367 396.291 60.65C396.025 60.3567 395.661 60.21 395.201 60.21C394.728 60.21 394.351 60.3633 394.071 60.67C393.791 60.97 393.651 61.4067 393.651 61.98V65H392.751V61.9C392.751 61.3533 392.615 60.9367 392.341 60.65C392.075 60.3567 391.711 60.21 391.251 60.21C390.778 60.21 390.401 60.3633 390.121 60.67C389.841 60.97 389.701 61.4067 389.701 61.98V65H388.791V59.52H389.701V60.31C389.881 60.0233 390.121 59.8033 390.421 59.65C390.728 59.4967 391.065 59.42 391.431 59.42C391.891 59.42 392.298 59.5233 392.651 59.73C393.005 59.9367 393.268 60.24 393.441 60.64C393.595 60.2533 393.848 59.9533 394.201 59.74C394.555 59.5267 394.948 59.42 395.381 59.42ZM398.754 62.24C398.754 61.68 398.868 61.19 399.094 60.77C399.321 60.3433 399.631 60.0133 400.024 59.78C400.424 59.5467 400.868 59.43 401.354 59.43C401.834 59.43 402.251 59.5333 402.604 59.74C402.958 59.9467 403.221 60.2067 403.394 60.52V59.52H404.314V65H403.394V63.98C403.214 64.3 402.944 64.5667 402.584 64.78C402.231 64.9867 401.818 65.09 401.344 65.09C400.858 65.09 400.418 64.97 400.024 64.73C399.631 64.49 399.321 64.1533 399.094 63.72C398.868 63.2867 398.754 62.7933 398.754 62.24ZM403.394 62.25C403.394 61.8367 403.311 61.4767 403.144 61.17C402.978 60.8633 402.751 60.63 402.464 60.47C402.184 60.3033 401.874 60.22 401.534 60.22C401.194 60.22 400.884 60.3 400.604 60.46C400.324 60.62 400.101 60.8533 399.934 61.16C399.768 61.4667 399.684 61.8267 399.684 62.24C399.684 62.66 399.768 63.0267 399.934 63.34C400.101 63.6467 400.324 63.8833 400.604 64.05C400.884 64.21 401.194 64.29 401.534 64.29C401.874 64.29 402.184 64.21 402.464 64.05C402.751 63.8833 402.978 63.6467 403.144 63.34C403.311 63.0267 403.394 62.6633 403.394 62.25ZM406.792 63.74L405.672 66.43H405.062L405.792 63.74H406.792ZM317.88 75.27V78.5C317.88 78.7667 317.937 78.9567 318.05 79.07C318.163 79.1767 318.36 79.23 318.64 79.23H319.31V80H318.49C317.983 80 317.603 79.8833 317.35 79.65C317.097 79.4167 316.97 79.0333 316.97 78.5V75.27H316.26V74.52H316.97V73.14H317.88V74.52H319.31V75.27H317.88ZM325.273 74.52V80H324.363V79.19C324.189 79.47 323.946 79.69 323.633 79.85C323.326 80.0033 322.986 80.08 322.613 80.08C322.186 80.08 321.803 79.9933 321.463 79.82C321.123 79.64 320.853 79.3733 320.653 79.02C320.459 78.6667 320.363 78.2367 320.363 77.73V74.52H321.263V77.61C321.263 78.15 321.399 78.5667 321.673 78.86C321.946 79.1467 322.319 79.29 322.793 79.29C323.279 79.29 323.663 79.14 323.943 78.84C324.223 78.54 324.363 78.1033 324.363 77.53V74.52H325.273ZM326.469 77.24C326.469 76.68 326.582 76.19 326.809 75.77C327.036 75.3433 327.346 75.0133 327.739 74.78C328.139 74.5467 328.586 74.43 329.079 74.43C329.506 74.43 329.902 74.53 330.269 74.73C330.636 74.9233 330.916 75.18 331.109 75.5V72.6H332.029V80H331.109V78.97C330.929 79.2967 330.662 79.5667 330.309 79.78C329.956 79.9867 329.542 80.09 329.069 80.09C328.582 80.09 328.139 79.97 327.739 79.73C327.346 79.49 327.036 79.1533 326.809 78.72C326.582 78.2867 326.469 77.7933 326.469 77.24ZM331.109 77.25C331.109 76.8367 331.026 76.4767 330.859 76.17C330.692 75.8633 330.466 75.63 330.179 75.47C329.899 75.3033 329.589 75.22 329.249 75.22C328.909 75.22 328.599 75.3 328.319 75.46C328.039 75.62 327.816 75.8533 327.649 76.16C327.482 76.4667 327.399 76.8267 327.399 77.24C327.399 77.66 327.482 78.0267 327.649 78.34C327.816 78.6467 328.039 78.8833 328.319 79.05C328.599 79.21 328.909 79.29 329.249 79.29C329.589 79.29 329.899 79.21 330.179 79.05C330.466 78.8833 330.692 78.6467 330.859 78.34C331.026 78.0267 331.109 77.6633 331.109 77.25ZM335.957 80.09C335.444 80.09 334.977 79.9733 334.557 79.74C334.144 79.5067 333.817 79.1767 333.577 78.75C333.344 78.3167 333.227 77.8167 333.227 77.25C333.227 76.69 333.347 76.1967 333.587 75.77C333.834 75.3367 334.167 75.0067 334.587 74.78C335.007 74.5467 335.477 74.43 335.997 74.43C336.517 74.43 336.987 74.5467 337.407 74.78C337.827 75.0067 338.157 75.3333 338.397 75.76C338.644 76.1867 338.767 76.6833 338.767 77.25C338.767 77.8167 338.64 78.3167 338.387 78.75C338.14 79.1767 337.804 79.5067 337.377 79.74C336.95 79.9733 336.477 80.09 335.957 80.09ZM335.957 79.29C336.284 79.29 336.59 79.2133 336.877 79.06C337.164 78.9067 337.394 78.6767 337.567 78.37C337.747 78.0633 337.837 77.69 337.837 77.25C337.837 76.81 337.75 76.4367 337.577 76.13C337.404 75.8233 337.177 75.5967 336.897 75.45C336.617 75.2967 336.314 75.22 335.987 75.22C335.654 75.22 335.347 75.2967 335.067 75.45C334.794 75.5967 334.574 75.8233 334.407 76.13C334.24 76.4367 334.157 76.81 334.157 77.25C334.157 77.6967 334.237 78.0733 334.397 78.38C334.564 78.6867 334.784 78.9167 335.057 79.07C335.33 79.2167 335.63 79.29 335.957 79.29ZM342.289 77.24C342.289 76.68 342.403 76.19 342.629 75.77C342.856 75.3433 343.166 75.0133 343.559 74.78C343.959 74.5467 344.406 74.43 344.899 74.43C345.373 74.43 345.786 74.5367 346.139 74.75C346.499 74.9567 346.763 75.2133 346.929 75.52V74.52H347.849V82.6H346.929V78.99C346.756 79.2967 346.489 79.5567 346.129 79.77C345.769 79.9833 345.349 80.09 344.869 80.09C344.389 80.09 343.953 79.97 343.559 79.73C343.166 79.49 342.856 79.1533 342.629 78.72C342.403 78.2867 342.289 77.7933 342.289 77.24ZM346.929 77.25C346.929 76.8367 346.846 76.4767 346.679 76.17C346.513 75.8633 346.286 75.63 345.999 75.47C345.719 75.3033 345.409 75.22 345.069 75.22C344.729 75.22 344.419 75.3 344.139 75.46C343.859 75.62 343.636 75.8533 343.469 76.16C343.303 76.4667 343.219 76.8267 343.219 77.24C343.219 77.66 343.303 78.0267 343.469 78.34C343.636 78.6467 343.859 78.8833 344.139 79.05C344.419 79.21 344.729 79.29 345.069 79.29C345.409 79.29 345.719 79.21 345.999 79.05C346.286 78.8833 346.513 78.6467 346.679 78.34C346.846 78.0267 346.929 77.6633 346.929 77.25ZM354.247 74.52V80H353.337V79.19C353.164 79.47 352.921 79.69 352.607 79.85C352.301 80.0033 351.961 80.08 351.587 80.08C351.161 80.08 350.777 79.9933 350.437 79.82C350.097 79.64 349.827 79.3733 349.627 79.02C349.434 78.6667 349.337 78.2367 349.337 77.73V74.52H350.237V77.61C350.237 78.15 350.374 78.5667 350.647 78.86C350.921 79.1467 351.294 79.29 351.767 79.29C352.254 79.29 352.637 79.14 352.917 78.84C353.197 78.54 353.337 78.1033 353.337 77.53V74.52H354.247ZM360.784 77.05C360.784 77.2233 360.774 77.4067 360.754 77.6H356.374C356.407 78.14 356.59 78.5633 356.924 78.87C357.264 79.17 357.674 79.32 358.154 79.32C358.547 79.32 358.874 79.23 359.134 79.05C359.4 78.8633 359.587 78.6167 359.694 78.31H360.674C360.527 78.8367 360.234 79.2667 359.794 79.6C359.354 79.9267 358.807 80.09 358.154 80.09C357.634 80.09 357.167 79.9733 356.754 79.74C356.347 79.5067 356.027 79.1767 355.794 78.75C355.56 78.3167 355.444 77.8167 355.444 77.25C355.444 76.6833 355.557 76.1867 355.784 75.76C356.01 75.3333 356.327 75.0067 356.734 74.78C357.147 74.5467 357.62 74.43 358.154 74.43C358.674 74.43 359.134 74.5433 359.534 74.77C359.934 74.9967 360.24 75.31 360.454 75.71C360.674 76.1033 360.784 76.55 360.784 77.05ZM359.844 76.86C359.844 76.5133 359.767 76.2167 359.614 75.97C359.46 75.7167 359.25 75.5267 358.984 75.4C358.724 75.2667 358.434 75.2 358.114 75.2C357.654 75.2 357.26 75.3467 356.934 75.64C356.614 75.9333 356.43 76.34 356.384 76.86H359.844ZM369.651 77.05C369.651 77.2233 369.641 77.4067 369.621 77.6H365.241C365.274 78.14 365.458 78.5633 365.791 78.87C366.131 79.17 366.541 79.32 367.021 79.32C367.414 79.32 367.741 79.23 368.001 79.05C368.268 78.8633 368.454 78.6167 368.561 78.31H369.541C369.394 78.8367 369.101 79.2667 368.661 79.6C368.221 79.9267 367.674 80.09 367.021 80.09C366.501 80.09 366.034 79.9733 365.621 79.74C365.214 79.5067 364.894 79.1767 364.661 78.75C364.428 78.3167 364.311 77.8167 364.311 77.25C364.311 76.6833 364.424 76.1867 364.651 75.76C364.878 75.3333 365.194 75.0067 365.601 74.78C366.014 74.5467 366.488 74.43 367.021 74.43C367.541 74.43 368.001 74.5433 368.401 74.77C368.801 74.9967 369.108 75.31 369.321 75.71C369.541 76.1033 369.651 76.55 369.651 77.05ZM368.711 76.86C368.711 76.5133 368.634 76.2167 368.481 75.97C368.328 75.7167 368.118 75.5267 367.851 75.4C367.591 75.2667 367.301 75.2 366.981 75.2C366.521 75.2 366.128 75.3467 365.801 75.64C365.481 75.9333 365.298 76.34 365.251 76.86H368.711ZM375.712 74.52V80H374.802V79.19C374.629 79.47 374.385 79.69 374.072 79.85C373.765 80.0033 373.425 80.08 373.052 80.08C372.625 80.08 372.242 79.9933 371.902 79.82C371.562 79.64 371.292 79.3733 371.092 79.02C370.899 78.6667 370.802 78.2367 370.802 77.73V74.52H371.702V77.61C371.702 78.15 371.839 78.5667 372.112 78.86C372.385 79.1467 372.759 79.29 373.232 79.29C373.719 79.29 374.102 79.14 374.382 78.84C374.662 78.54 374.802 78.1033 374.802 77.53V74.52H375.712ZM381.855 80.09C381.435 80.09 381.058 80.02 380.725 79.88C380.391 79.7333 380.128 79.5333 379.935 79.28C379.741 79.02 379.635 78.7233 379.615 78.39H380.555C380.581 78.6633 380.708 78.8867 380.935 79.06C381.168 79.2333 381.471 79.32 381.845 79.32C382.191 79.32 382.465 79.2433 382.665 79.09C382.865 78.9367 382.965 78.7433 382.965 78.51C382.965 78.27 382.858 78.0933 382.645 77.98C382.431 77.86 382.101 77.7433 381.655 77.63C381.248 77.5233 380.915 77.4167 380.655 77.31C380.401 77.1967 380.181 77.0333 379.995 76.82C379.815 76.6 379.725 76.3133 379.725 75.96C379.725 75.68 379.808 75.4233 379.975 75.19C380.141 74.9567 380.378 74.7733 380.685 74.64C380.991 74.5 381.341 74.43 381.735 74.43C382.341 74.43 382.831 74.5833 383.205 74.89C383.578 75.1967 383.778 75.6167 383.805 76.15H382.895C382.875 75.8633 382.758 75.6333 382.545 75.46C382.338 75.2867 382.058 75.2 381.705 75.2C381.378 75.2 381.118 75.27 380.925 75.41C380.731 75.55 380.635 75.7333 380.635 75.96C380.635 76.14 380.691 76.29 380.805 76.41C380.925 76.5233 381.071 76.6167 381.245 76.69C381.425 76.7567 381.671 76.8333 381.985 76.92C382.378 77.0267 382.698 77.1333 382.945 77.24C383.191 77.34 383.401 77.4933 383.575 77.7C383.755 77.9067 383.848 78.1767 383.855 78.51C383.855 78.81 383.771 79.08 383.605 79.32C383.438 79.56 383.201 79.75 382.895 79.89C382.595 80.0233 382.248 80.09 381.855 80.09ZM390.139 77.05C390.139 77.2233 390.129 77.4067 390.109 77.6H385.729C385.762 78.14 385.946 78.5633 386.279 78.87C386.619 79.17 387.029 79.32 387.509 79.32C387.902 79.32 388.229 79.23 388.489 79.05C388.756 78.8633 388.942 78.6167 389.049 78.31H390.029C389.882 78.8367 389.589 79.2667 389.149 79.6C388.709 79.9267 388.162 80.09 387.509 80.09C386.989 80.09 386.522 79.9733 386.109 79.74C385.702 79.5067 385.382 79.1767 385.149 78.75C384.916 78.3167 384.799 77.8167 384.799 77.25C384.799 76.6833 384.912 76.1867 385.139 75.76C385.366 75.3333 385.682 75.0067 386.089 74.78C386.502 74.5467 386.976 74.43 387.509 74.43C388.029 74.43 388.489 74.5433 388.889 74.77C389.289 74.9967 389.596 75.31 389.809 75.71C390.029 76.1033 390.139 76.55 390.139 77.05ZM389.199 76.86C389.199 76.5133 389.122 76.2167 388.969 75.97C388.816 75.7167 388.606 75.5267 388.339 75.4C388.079 75.2667 387.789 75.2 387.469 75.2C387.009 75.2 386.616 75.3467 386.289 75.64C385.969 75.9333 385.786 76.34 385.739 76.86H389.199ZM397.93 74.42C398.357 74.42 398.737 74.51 399.07 74.69C399.404 74.8633 399.667 75.1267 399.86 75.48C400.054 75.8333 400.15 76.2633 400.15 76.77V80H399.25V76.9C399.25 76.3533 399.114 75.9367 398.84 75.65C398.574 75.3567 398.21 75.21 397.75 75.21C397.277 75.21 396.9 75.3633 396.62 75.67C396.34 75.97 396.2 76.4067 396.2 76.98V80H395.3V76.9C395.3 76.3533 395.164 75.9367 394.89 75.65C394.624 75.3567 394.26 75.21 393.8 75.21C393.327 75.21 392.95 75.3633 392.67 75.67C392.39 75.97 392.25 76.4067 392.25 76.98V80H391.34V74.52H392.25V75.31C392.43 75.0233 392.67 74.8033 392.97 74.65C393.277 74.4967 393.614 74.42 393.98 74.42C394.44 74.42 394.847 74.5233 395.2 74.73C395.554 74.9367 395.817 75.24 395.99 75.64C396.144 75.2533 396.397 74.9533 396.75 74.74C397.104 74.5267 397.497 74.42 397.93 74.42ZM402.553 75.53C402.733 75.2167 403 74.9567 403.353 74.75C403.713 74.5367 404.13 74.43 404.603 74.43C405.09 74.43 405.53 74.5467 405.923 74.78C406.323 75.0133 406.636 75.3433 406.863 75.77C407.09 76.19 407.203 76.68 407.203 77.24C407.203 77.7933 407.09 78.2867 406.863 78.72C406.636 79.1533 406.323 79.49 405.923 79.73C405.53 79.97 405.09 80.09 404.603 80.09C404.136 80.09 403.723 79.9867 403.363 79.78C403.01 79.5667 402.74 79.3033 402.553 78.99V82.6H401.643V74.52H402.553V75.53ZM406.273 77.24C406.273 76.8267 406.19 76.4667 406.023 76.16C405.856 75.8533 405.63 75.62 405.343 75.46C405.063 75.3 404.753 75.22 404.413 75.22C404.08 75.22 403.77 75.3033 403.483 75.47C403.203 75.63 402.976 75.8667 402.803 76.18C402.636 76.4867 402.553 76.8433 402.553 77.25C402.553 77.6633 402.636 78.0267 402.803 78.34C402.976 78.6467 403.203 78.8833 403.483 79.05C403.77 79.21 404.08 79.29 404.413 79.29C404.753 79.29 405.063 79.21 405.343 79.05C405.63 78.8833 405.856 78.6467 406.023 78.34C406.19 78.0267 406.273 77.66 406.273 77.24ZM409.311 75.41C409.471 75.0967 409.698 74.8533 409.991 74.68C410.291 74.5067 410.654 74.42 411.081 74.42V75.36H410.841C409.821 75.36 409.311 75.9133 409.311 77.02V80H408.401V74.52H409.311V75.41ZM417.131 77.05C417.131 77.2233 417.121 77.4067 417.101 77.6H412.721C412.755 78.14 412.938 78.5633 413.271 78.87C413.611 79.17 414.021 79.32 414.501 79.32C414.895 79.32 415.221 79.23 415.481 79.05C415.748 78.8633 415.935 78.6167 416.041 78.31H417.021C416.875 78.8367 416.581 79.2667 416.141 79.6C415.701 79.9267 415.155 80.09 414.501 80.09C413.981 80.09 413.515 79.9733 413.101 79.74C412.695 79.5067 412.375 79.1767 412.141 78.75C411.908 78.3167 411.791 77.8167 411.791 77.25C411.791 76.6833 411.905 76.1867 412.131 75.76C412.358 75.3333 412.675 75.0067 413.081 74.78C413.495 74.5467 413.968 74.43 414.501 74.43C415.021 74.43 415.481 74.5433 415.881 74.77C416.281 74.9967 416.588 75.31 416.801 75.71C417.021 76.1033 417.131 76.55 417.131 77.05ZM416.191 76.86C416.191 76.5133 416.115 76.2167 415.961 75.97C415.808 75.7167 415.598 75.5267 415.331 75.4C415.071 75.2667 414.781 75.2 414.461 75.2C414.001 75.2 413.608 75.3467 413.281 75.64C412.961 75.9333 412.778 76.34 412.731 76.86H416.191ZM316.43 92.24C316.43 91.68 316.543 91.19 316.77 90.77C316.997 90.3433 317.307 90.0133 317.7 89.78C318.1 89.5467 318.547 89.43 319.04 89.43C319.513 89.43 319.927 89.5367 320.28 89.75C320.64 89.9567 320.903 90.2133 321.07 90.52V89.52H321.99V97.6H321.07V93.99C320.897 94.2967 320.63 94.5567 320.27 94.77C319.91 94.9833 319.49 95.09 319.01 95.09C318.53 95.09 318.093 94.97 317.7 94.73C317.307 94.49 316.997 94.1533 316.77 93.72C316.543 93.2867 316.43 92.7933 316.43 92.24ZM321.07 92.25C321.07 91.8367 320.987 91.4767 320.82 91.17C320.653 90.8633 320.427 90.63 320.14 90.47C319.86 90.3033 319.55 90.22 319.21 90.22C318.87 90.22 318.56 90.3 318.28 90.46C318 90.62 317.777 90.8533 317.61 91.16C317.443 91.4667 317.36 91.8267 317.36 92.24C317.36 92.66 317.443 93.0267 317.61 93.34C317.777 93.6467 318 93.8833 318.28 94.05C318.56 94.21 318.87 94.29 319.21 94.29C319.55 94.29 319.86 94.21 320.14 94.05C320.427 93.8833 320.653 93.6467 320.82 93.34C320.987 93.0267 321.07 92.6633 321.07 92.25ZM328.388 89.52V95H327.478V94.19C327.304 94.47 327.061 94.69 326.748 94.85C326.441 95.0033 326.101 95.08 325.728 95.08C325.301 95.08 324.918 94.9933 324.578 94.82C324.238 94.64 323.968 94.3733 323.768 94.02C323.574 93.6667 323.478 93.2367 323.478 92.73V89.52H324.378V92.61C324.378 93.15 324.514 93.5667 324.788 93.86C325.061 94.1467 325.434 94.29 325.908 94.29C326.394 94.29 326.778 94.14 327.058 93.84C327.338 93.54 327.478 93.1033 327.478 92.53V89.52H328.388ZM330.394 88.63C330.221 88.63 330.074 88.57 329.954 88.45C329.834 88.33 329.774 88.1833 329.774 88.01C329.774 87.8367 329.834 87.69 329.954 87.57C330.074 87.45 330.221 87.39 330.394 87.39C330.561 87.39 330.701 87.45 330.814 87.57C330.934 87.69 330.994 87.8367 330.994 88.01C330.994 88.1833 330.934 88.33 330.814 88.45C330.701 88.57 330.561 88.63 330.394 88.63ZM330.834 89.52V95H329.924V89.52H330.834ZM334.325 95.09C333.905 95.09 333.529 95.02 333.195 94.88C332.862 94.7333 332.599 94.5333 332.405 94.28C332.212 94.02 332.105 93.7233 332.085 93.39H333.025C333.052 93.6633 333.179 93.8867 333.405 94.06C333.639 94.2333 333.942 94.32 334.315 94.32C334.662 94.32 334.935 94.2433 335.135 94.09C335.335 93.9367 335.435 93.7433 335.435 93.51C335.435 93.27 335.329 93.0933 335.115 92.98C334.902 92.86 334.572 92.7433 334.125 92.63C333.719 92.5233 333.385 92.4167 333.125 92.31C332.872 92.1967 332.652 92.0333 332.465 91.82C332.285 91.6 332.195 91.3133 332.195 90.96C332.195 90.68 332.279 90.4233 332.445 90.19C332.612 89.9567 332.849 89.7733 333.155 89.64C333.462 89.5 333.812 89.43 334.205 89.43C334.812 89.43 335.302 89.5833 335.675 89.89C336.049 90.1967 336.249 90.6167 336.275 91.15H335.365C335.345 90.8633 335.229 90.6333 335.015 90.46C334.809 90.2867 334.529 90.2 334.175 90.2C333.849 90.2 333.589 90.27 333.395 90.41C333.202 90.55 333.105 90.7333 333.105 90.96C333.105 91.14 333.162 91.29 333.275 91.41C333.395 91.5233 333.542 91.6167 333.715 91.69C333.895 91.7567 334.142 91.8333 334.455 91.92C334.849 92.0267 335.169 92.1333 335.415 92.24C335.662 92.34 335.872 92.4933 336.045 92.7C336.225 92.9067 336.319 93.1767 336.325 93.51C336.325 93.81 336.242 94.08 336.075 94.32C335.909 94.56 335.672 94.75 335.365 94.89C335.065 95.0233 334.719 95.09 334.325 95.09Z" fill="white"/>
<path d="M287.253 141.997C287.253 140.217 287.659 138.454 288.448 136.809C289.236 135.164 290.393 133.67 291.85 132.411C293.308 131.152 295.039 130.153 296.943 129.472C298.848 128.791 300.889 128.44 302.951 128.44C305.012 128.44 307.054 128.791 308.958 129.472C310.863 130.153 312.593 131.152 314.051 132.411C315.509 133.67 316.665 135.164 317.454 136.809C318.243 138.454 318.649 140.217 318.649 141.997L302.951 141.997H287.253Z" fill="#0077E4"/>
<path d="M404.276 270.437C404.276 268.656 404.682 266.893 405.471 265.248C406.26 263.604 407.416 262.109 408.874 260.85C410.331 259.591 412.062 258.592 413.967 257.911C415.871 257.23 417.912 256.879 419.974 256.879C422.035 256.879 424.077 257.23 425.981 257.911C427.886 258.592 429.617 259.591 431.074 260.85C432.532 262.109 433.688 263.604 434.477 265.248C435.266 266.893 435.672 268.656 435.672 270.437L419.974 270.437H404.276Z" fill="#0077E4"/>
<path d="M275.837 470.231C275.837 468.451 276.243 466.688 277.032 465.043C277.82 463.398 278.977 461.904 280.434 460.645C281.892 459.386 283.623 458.387 285.527 457.706C287.432 457.024 289.473 456.674 291.535 456.674C293.596 456.674 295.638 457.024 297.542 457.706C299.447 458.387 301.177 459.386 302.635 460.645C304.093 461.904 305.249 463.398 306.038 465.043C306.827 466.688 307.233 468.451 307.233 470.231L291.535 470.231H275.837Z" fill="#0077E4"/>
<path d="M489.188 204.076C490.969 204.076 492.732 204.482 494.377 205.271C496.021 206.06 497.516 207.217 498.775 208.674C500.034 210.132 501.033 211.862 501.714 213.767C502.395 215.672 502.746 217.713 502.746 219.775C502.746 221.836 502.395 223.877 501.714 225.782C501.033 227.687 500.034 229.417 498.775 230.875C497.516 232.332 496.021 233.489 494.377 234.278C492.732 235.067 490.969 235.473 489.188 235.473L489.188 219.774V204.076Z" fill="#0077E4"/>
<path d="M209.475 199.795C211.256 199.795 213.019 200.201 214.664 200.99C216.309 201.778 217.803 202.935 219.062 204.392C220.321 205.85 221.32 207.581 222.001 209.485C222.682 211.39 223.033 213.431 223.033 215.493C223.033 217.554 222.682 219.596 222.001 221.5C221.32 223.405 220.321 225.135 219.062 226.593C217.803 228.051 216.309 229.207 214.664 229.996C213.019 230.785 211.256 231.191 209.475 231.191L209.475 215.493V199.795Z" fill="#0077E4"/>
<path d="M192.351 356.777C194.131 356.777 195.894 357.183 197.539 357.971C199.184 358.76 200.679 359.917 201.938 361.374C203.196 362.832 204.195 364.563 204.876 366.467C205.558 368.372 205.908 370.413 205.908 372.475C205.908 374.536 205.558 376.578 204.876 378.482C204.195 380.387 203.196 382.117 201.938 383.575C200.679 385.033 199.184 386.189 197.539 386.978C195.894 387.767 194.131 388.173 192.351 388.173L192.351 372.475V356.777Z" fill="#0077E4"/>
<path d="M267.987 371.048C269.767 371.048 271.53 371.454 273.175 372.243C274.82 373.032 276.314 374.188 277.573 375.646C278.832 377.103 279.831 378.834 280.512 380.739C281.194 382.643 281.544 384.684 281.544 386.746C281.544 388.807 281.194 390.849 280.512 392.753C279.831 394.658 278.832 396.389 277.573 397.846C276.314 399.304 274.82 400.46 273.175 401.249C271.53 402.038 269.767 402.444 267.987 402.444L267.987 386.746V371.048Z" fill="#0077E4"/>
<path d="M323.644 239.754C321.863 239.754 320.1 239.348 318.455 238.559C316.811 237.77 315.316 236.614 314.057 235.156C312.798 233.699 311.8 231.968 311.118 230.063C310.437 228.159 310.086 226.118 310.086 224.056C310.086 221.995 310.437 219.953 311.118 218.049C311.8 216.144 312.798 214.414 314.057 212.956C315.316 211.498 316.811 210.342 318.455 209.553C320.1 208.764 321.863 208.358 323.644 208.358L323.644 224.056V239.754Z" fill="#0077E4"/>
<path d="M163.809 178.388C163.809 176.608 164.215 174.845 165.004 173.2C165.793 171.555 166.949 170.061 168.407 168.802C169.864 167.543 171.595 166.544 173.499 165.863C175.404 165.181 177.445 164.831 179.507 164.831C181.568 164.831 183.61 165.181 185.514 165.863C187.419 166.544 189.149 167.543 190.607 168.802C192.065 170.061 193.221 171.555 194.01 173.2C194.799 174.845 195.205 176.608 195.205 178.388L179.507 178.388H163.809Z" fill="#0077E4"/>
<path d="M241.586 337.51C241.586 339.291 241.18 341.054 240.391 342.699C239.602 344.343 238.446 345.838 236.988 347.097C235.53 348.356 233.8 349.355 231.895 350.036C229.99 350.717 227.949 351.068 225.888 351.068C223.826 351.068 221.785 350.717 219.88 350.036C217.976 349.355 216.245 348.356 214.787 347.097C213.33 345.838 212.173 344.343 211.384 342.699C210.595 341.054 210.189 339.291 210.189 337.51L225.888 337.51H241.586Z" fill="#0077E4"/>
<path d="M241.585 88.4808C241.585 90.3549 241.161 92.2106 240.336 93.9421C239.511 95.6735 238.302 97.2467 236.778 98.5719C235.254 99.8971 233.445 100.948 231.454 101.666C229.463 102.383 227.329 102.752 225.173 102.752C223.018 102.752 220.884 102.383 218.893 101.666C216.902 100.948 215.093 99.8971 213.569 98.5719C212.045 97.2467 210.836 95.6735 210.011 93.9421C209.186 92.2106 208.762 90.3549 208.762 88.4808L225.173 88.4808H241.585Z" fill="#0077E4"/>
<path d="M327.212 380.324C325.431 380.324 323.668 379.918 322.023 379.129C320.378 378.34 318.884 377.184 317.625 375.726C316.366 374.268 315.367 372.538 314.686 370.633C314.005 368.728 313.654 366.687 313.654 364.626C313.654 362.564 314.005 360.523 314.686 358.618C315.367 356.714 316.366 354.983 317.625 353.525C318.884 352.068 320.378 350.911 322.023 350.122C323.668 349.334 325.431 348.927 327.212 348.927L327.212 364.626V380.324Z" fill="#0077E4"/>
<path d="M302.951 40.6725C302.951 42.4529 302.544 44.2159 301.756 45.8607C300.967 47.5056 299.81 49.0002 298.353 50.2591C296.895 51.518 295.164 52.5167 293.26 53.198C291.355 53.8793 289.314 54.23 287.252 54.23C285.191 54.23 283.15 53.8793 281.245 53.198C279.34 52.5167 277.61 51.518 276.152 50.2591C274.694 49.0002 273.538 47.5056 272.749 45.8607C271.96 44.2158 271.554 42.4529 271.554 40.6725L287.252 40.6725H302.951Z" fill="#0077E4"/>
<path d="M241.585 35.6776C243.459 35.6776 245.315 36.1021 247.046 36.9268C248.778 37.7516 250.351 38.9605 251.676 40.4844C253.001 42.0084 254.053 43.8176 254.77 45.8088C255.487 47.7999 255.856 49.934 255.856 52.0893C255.856 54.2445 255.487 56.3786 254.77 58.3698C254.053 60.3609 253.001 62.1701 251.676 63.6941C250.351 65.2181 248.778 66.4269 247.046 67.2517C245.315 68.0765 243.459 68.501 241.585 68.501L241.585 52.0893V35.6776Z" fill="#0077E4"/>
</svg>
