<svg width="53" height="53" viewBox="0 0 53 53" fill="none" xmlns="http://www.w3.org/2000/svg">
<path d="M28.6067 25.652L35.1367 19.122L14.0449 7.26764C12.647 6.51239 11.3375 6.40639 10.1892 7.23231L28.6067 25.652ZM36.2497 33.2973L43.0381 29.4791C44.3631 28.7371 45.0897 27.6859 45.0897 26.5199C45.0897 25.3561 44.3631 24.3027 43.0403 23.5607L36.8945 20.1091L29.9758 27.0256L36.2497 33.2973ZM9.05409 8.83776C8.91275 9.27281 8.83325 9.75864 8.83325 10.2908V42.7644C8.83325 43.6058 9.01875 44.3301 9.35442 44.9065L27.2353 27.0234L9.05409 8.83776ZM28.6067 28.3926L10.8252 46.1763C11.1653 46.3066 11.5318 46.375 11.9183 46.375C12.6073 46.375 13.325 46.1719 14.056 45.7655L34.4941 34.2888L28.6067 28.3926Z" fill="white"/>
</svg>
