<svg width="38" height="38" viewBox="0 0 38 38" fill="none" xmlns="http://www.w3.org/2000/svg">
<path fill-rule="evenodd" clip-rule="evenodd" d="M24.9375 8.3125C24.9375 6.73778 24.3119 5.22755 23.1984 4.11405C22.0849 3.00056 20.5747 2.375 19 2.375C17.4253 2.375 15.9151 3.00056 14.8016 4.11405C13.6881 5.22755 13.0625 6.73778 13.0625 8.3125V9.5H24.9375V8.3125ZM27.3125 8.3125V9.5H35.625V33.25C35.625 34.5098 35.1246 35.718 34.2338 36.6088C33.343 37.4996 32.1348 38 30.875 38H7.125C5.86522 38 4.65704 37.4996 3.76624 36.6088C2.87545 35.718 2.375 34.5098 2.375 33.25V9.5H10.6875V8.3125C10.6875 6.10789 11.5633 3.99357 13.1222 2.43467C14.6811 0.875779 16.7954 0 19 0C21.2046 0 23.3189 0.875779 24.8778 2.43467C26.4367 3.99357 27.3125 6.10789 27.3125 8.3125ZM25.7782 21.0282C26.0012 20.8053 26.1265 20.5028 26.1265 20.1875C26.1265 19.8722 26.0012 19.5697 25.7782 19.3468C25.5553 19.1238 25.2528 18.9985 24.9375 18.9985C24.6222 18.9985 24.3197 19.1238 24.0968 19.3468L17.8125 25.6334L15.0907 22.9093C14.9803 22.7988 14.8493 22.7113 14.705 22.6515C14.5608 22.5918 14.4061 22.561 14.25 22.561C14.0939 22.561 13.9392 22.5918 13.795 22.6515C13.6507 22.7113 13.5197 22.7988 13.4093 22.9093C13.2988 23.0197 13.2113 23.1507 13.1515 23.295C13.0918 23.4392 13.061 23.5939 13.061 23.75C13.061 23.9061 13.0918 24.0608 13.1515 24.205C13.2113 24.3493 13.2988 24.4803 13.4093 24.5907L16.9718 28.1532C17.0821 28.2638 17.2131 28.3516 17.3574 28.4114C17.5016 28.4713 17.6563 28.5021 17.8125 28.5021C17.9687 28.5021 18.1234 28.4713 18.2676 28.4114C18.4119 28.3516 18.5429 28.2638 18.6532 28.1532L25.7782 21.0282Z" fill="#0077E4"/>
</svg>
