<svg width="34" height="38" viewBox="0 0 34 38" fill="none" xmlns="http://www.w3.org/2000/svg">
<path fill-rule="evenodd" clip-rule="evenodd" d="M22.5625 8.3125C22.5625 6.73778 21.9369 5.22755 20.8234 4.11405C19.7099 3.00056 18.1997 2.375 16.625 2.375C15.0503 2.375 13.5401 3.00056 12.4266 4.11405C11.3131 5.22755 10.6875 6.73778 10.6875 8.3125V9.5H22.5625V8.3125ZM24.9375 8.3125V9.5H33.25V33.25C33.25 34.5098 32.7496 35.718 31.8588 36.6088C30.968 37.4996 29.7598 38 28.5 38H4.75C3.49022 38 2.28204 37.4996 1.39124 36.6088C0.500445 35.718 0 34.5098 0 33.25V9.5H8.3125V8.3125C8.3125 6.10789 9.18828 3.99357 10.7472 2.43467C12.3061 0.875779 14.4204 0 16.625 0C18.8296 0 20.9439 0.875779 22.5028 2.43467C24.0617 3.99357 24.9375 6.10789 24.9375 8.3125ZM23.4032 21.0282C23.6262 20.8053 23.7515 20.5028 23.7515 20.1875C23.7515 19.8722 23.6262 19.5697 23.4032 19.3468C23.1803 19.1238 22.8778 18.9985 22.5625 18.9985C22.2472 18.9985 21.9447 19.1238 21.7218 19.3468L15.4375 25.6334L12.7157 22.9093C12.6053 22.7988 12.4743 22.7113 12.33 22.6515C12.1858 22.5918 12.0311 22.561 11.875 22.561C11.7189 22.561 11.5642 22.5918 11.42 22.6515C11.2757 22.7113 11.1447 22.7988 11.0343 22.9093C10.9238 23.0197 10.8363 23.1507 10.7765 23.295C10.7168 23.4392 10.686 23.5939 10.686 23.75C10.686 23.9061 10.7168 24.0608 10.7765 24.205C10.8363 24.3493 10.9238 24.4803 11.0343 24.5907L14.5968 28.1532C14.7071 28.2638 14.8381 28.3516 14.9824 28.4114C15.1266 28.4713 15.2813 28.5021 15.4375 28.5021C15.5937 28.5021 15.7484 28.4713 15.8926 28.4114C16.0369 28.3516 16.1679 28.2638 16.2782 28.1532L23.4032 21.0282Z" fill="#0077E4"/>
</svg>
