<svg width="25" height="26" viewBox="0 0 25 26" fill="none" xmlns="http://www.w3.org/2000/svg">
<path d="M23.4375 22.6564C23.4375 22.6564 25 22.6564 25 21.103C25 19.5496 23.4375 14.8894 17.1875 14.8894C10.9375 14.8894 9.375 19.5496 9.375 21.103C9.375 22.6564 10.9375 22.6564 10.9375 22.6564H23.4375ZM10.9719 21.103C10.9603 21.1014 10.9489 21.0993 10.9375 21.0968C10.9391 20.6867 11.1984 19.4968 12.125 18.4249C12.9875 17.4199 14.5031 16.4428 17.1875 16.4428C19.8703 16.4428 21.3859 17.4214 22.25 18.4249C23.1766 19.4968 23.4344 20.6882 23.4375 21.0968L23.425 21.0999C23.4177 21.1011 23.4104 21.1022 23.4031 21.103H10.9719V21.103ZM17.1875 11.7826C18.0163 11.7826 18.8112 11.4553 19.3972 10.8727C19.9833 10.29 20.3125 9.49979 20.3125 8.67582C20.3125 7.85185 19.9833 7.06162 19.3972 6.47898C18.8112 5.89635 18.0163 5.56902 17.1875 5.56902C16.3587 5.56902 15.5638 5.89635 14.9778 6.47898C14.3917 7.06162 14.0625 7.85185 14.0625 8.67582C14.0625 9.49979 14.3917 10.29 14.9778 10.8727C15.5638 11.4553 16.3587 11.7826 17.1875 11.7826ZM21.875 8.67582C21.875 9.2878 21.7538 9.8938 21.5182 10.4592C21.2826 11.0246 20.9373 11.5383 20.5021 11.9711C20.0668 12.4038 19.55 12.7471 18.9813 12.9813C18.4126 13.2155 17.8031 13.336 17.1875 13.336C16.5719 13.336 15.9624 13.2155 15.3937 12.9813C14.825 12.7471 14.3082 12.4038 13.8729 11.9711C13.4377 11.5383 13.0924 11.0246 12.8568 10.4592C12.6212 9.8938 12.5 9.2878 12.5 8.67582C12.5 7.43986 12.9939 6.25452 13.8729 5.38056C14.752 4.50661 15.9443 4.01562 17.1875 4.01562C18.4307 4.01562 19.623 4.50661 20.5021 5.38056C21.3811 6.25452 21.875 7.43986 21.875 8.67582V8.67582ZM10.8375 15.3244C10.2125 15.1287 9.56818 15.0001 8.91562 14.9407C8.54896 14.906 8.18082 14.8889 7.8125 14.8894C1.5625 14.8894 0 19.5496 0 21.103C0 22.1391 0.520313 22.6564 1.5625 22.6564H8.15C7.91837 22.1715 7.80285 21.6398 7.8125 21.103C7.8125 19.5341 8.40156 17.931 9.51563 16.5919C9.89531 16.1352 10.3375 15.7081 10.8375 15.3244ZM7.6875 16.4428C6.76274 17.8242 6.26319 19.4437 6.25 21.103H1.5625C1.5625 20.6991 1.81875 19.503 2.75 18.4249C3.60156 17.437 5.08125 16.4739 7.6875 16.4444V16.4428ZM2.34375 9.45252C2.34375 8.21656 2.83761 7.03122 3.71669 6.15726C4.59576 5.28331 5.78805 4.79232 7.03125 4.79232C8.27445 4.79232 9.46674 5.28331 10.3458 6.15726C11.2249 7.03122 11.7187 8.21656 11.7188 9.45252C11.7188 10.6885 11.2249 11.8738 10.3458 12.7478C9.46674 13.6217 8.27445 14.1127 7.03125 14.1127C5.78805 14.1127 4.59576 13.6217 3.71669 12.7478C2.83761 11.8738 2.34375 10.6885 2.34375 9.45252V9.45252ZM7.03125 6.34572C6.20245 6.34572 5.40759 6.67304 4.82154 7.25568C4.23549 7.83832 3.90625 8.62854 3.90625 9.45252C3.90625 10.2765 4.23549 11.0667 4.82154 11.6494C5.40759 12.232 6.20245 12.5593 7.03125 12.5593C7.86005 12.5593 8.65491 12.232 9.24096 11.6494C9.82701 11.0667 10.1562 10.2765 10.1562 9.45252C10.1562 8.62854 9.82701 7.83832 9.24096 7.25568C8.65491 6.67304 7.86005 6.34572 7.03125 6.34572Z" fill="#0077E4"/>
</svg>
