<svg width="38" height="38" viewBox="0 0 38 38" fill="none" xmlns="http://www.w3.org/2000/svg">
<path d="M26.9163 14.2501V11.0834C26.9163 6.65008 23.433 3.16675 18.9997 3.16675C14.5663 3.16675 11.083 6.65008 11.083 11.0834V14.2501C8.39134 14.2501 6.33301 16.3084 6.33301 19.0001V30.0834C6.33301 32.7751 8.39134 34.8334 11.083 34.8334H26.9163C29.608 34.8334 31.6663 32.7751 31.6663 30.0834V19.0001C31.6663 16.3084 29.608 14.2501 26.9163 14.2501ZM14.2497 11.0834C14.2497 8.39175 16.308 6.33341 18.9997 6.33341C21.6913 6.33341 23.7497 8.39175 23.7497 11.0834V14.2501H14.2497V11.0834ZM20.7413 24.5417L20.583 24.7001V26.9167C20.583 27.8667 19.9497 28.5001 18.9997 28.5001C18.0497 28.5001 17.4163 27.8667 17.4163 26.9167V24.7001C16.4663 23.7501 16.308 22.3251 17.258 21.3751C18.208 20.4251 19.633 20.2667 20.583 21.2167C21.533 22.0084 21.6913 23.5917 20.7413 24.5417Z" fill="#0077E4"/>
</svg>
