<svg width="32" height="32" viewBox="0 0 32 32" fill="none" xmlns="http://www.w3.org/2000/svg">
<path d="M22.6663 12V9.33335C22.6663 5.60002 19.733 2.66669 15.9997 2.66669C12.2663 2.66669 9.33301 5.60002 9.33301 9.33335V12C7.06634 12 5.33301 13.7334 5.33301 16V25.3334C5.33301 27.6 7.06634 29.3334 9.33301 29.3334H22.6663C24.933 29.3334 26.6663 27.6 26.6663 25.3334V16C26.6663 13.7334 24.933 12 22.6663 12ZM11.9997 9.33335C11.9997 7.06669 13.733 5.33335 15.9997 5.33335C18.2663 5.33335 19.9997 7.06669 19.9997 9.33335V12H11.9997V9.33335ZM17.4663 20.6667L17.333 20.8V22.6667C17.333 23.4667 16.7997 24 15.9997 24C15.1997 24 14.6663 23.4667 14.6663 22.6667V20.8C13.8663 20 13.733 18.8 14.533 18C15.333 17.2 16.533 17.0667 17.333 17.8667C18.133 18.5334 18.2663 19.8667 17.4663 20.6667Z" fill="#0077E4"/>
</svg>
