<svg width="53" height="53" viewBox="0 0 53 53" fill="none" xmlns="http://www.w3.org/2000/svg">
<path fill-rule="evenodd" clip-rule="evenodd" d="M49.6875 26.5C49.6875 32.6497 47.2445 38.5475 42.896 42.896C38.5475 47.2445 32.6497 49.6875 26.5 49.6875C20.3503 49.6875 14.4525 47.2445 10.104 42.896C5.75546 38.5475 3.3125 32.6497 3.3125 26.5C3.3125 20.3503 5.75546 14.4525 10.104 10.104C14.4525 5.75546 20.3503 3.3125 26.5 3.3125C32.6497 3.3125 38.5475 5.75546 42.896 10.104C47.2445 14.4525 49.6875 20.3503 49.6875 26.5ZM0 26.5C0 33.5282 2.79195 40.2686 7.76167 45.2383C12.7314 50.208 19.4718 53 26.5 53C33.5282 53 40.2686 50.208 45.2383 45.2383C50.208 40.2686 53 33.5282 53 26.5C53 19.4718 50.208 12.7314 45.2383 7.76167C40.2686 2.79196 33.5282 0 26.5 0C19.4718 0 12.7314 2.79196 7.76167 7.76167C2.79195 12.7314 0 19.4718 0 26.5ZM14.9062 24.8438C14.467 24.8438 14.0457 25.0182 13.7351 25.3289C13.4245 25.6395 13.25 26.0607 13.25 26.5C13.25 26.9393 13.4245 27.3605 13.7351 27.6711C14.0457 27.9818 14.467 28.1562 14.9062 28.1562H34.0956L26.9836 35.2649C26.8296 35.4189 26.7075 35.6017 26.6241 35.8029C26.5408 36.0041 26.4979 36.2197 26.4979 36.4375C26.4979 36.6553 26.5408 36.8709 26.6241 37.0721C26.7075 37.2733 26.8296 37.4561 26.9836 37.6101C27.1376 37.7641 27.3204 37.8863 27.5216 37.9696C27.7228 38.0529 27.9385 38.0958 28.1562 38.0958C28.374 38.0958 28.5897 38.0529 28.7909 37.9696C28.9921 37.8863 29.1749 37.7641 29.3289 37.6101L39.2664 27.6726C39.4206 27.5188 39.543 27.336 39.6265 27.1348C39.71 26.9336 39.753 26.7179 39.753 26.5C39.753 26.2821 39.71 26.0664 39.6265 25.8652C39.543 25.664 39.4206 25.4812 39.2664 25.3274L29.3289 15.3899C29.0179 15.0789 28.5961 14.9042 28.1562 14.9042C27.7164 14.9042 27.2946 15.0789 26.9836 15.3899C26.6726 15.7009 26.4979 16.1227 26.4979 16.5625C26.4979 17.0023 26.6726 17.4241 26.9836 17.7351L34.0956 24.8438H14.9062Z" fill="#0077E4"/>
</svg>
