<svg width="33" height="33" viewBox="0 0 33 33" fill="none" xmlns="http://www.w3.org/2000/svg">
<g clip-path="url(#clip0_793_1207)">
<path d="M16.5 33.0001C17.594 33.0001 18.6432 32.5655 19.4168 31.7919C20.1904 31.0183 20.625 29.9691 20.625 28.8751H12.375C12.375 29.9691 12.8096 31.0183 13.5832 31.7919C14.3568 32.5655 15.406 33.0001 16.5 33.0001ZM18.5522 2.26678C18.581 1.98 18.5493 1.69037 18.4593 1.41657C18.3693 1.14276 18.2229 0.890868 18.0295 0.677128C17.8361 0.463388 17.6001 0.292547 17.3367 0.175624C17.0732 0.0587006 16.7882 -0.00170898 16.5 -0.00170898C16.2118 -0.00170898 15.9268 0.0587006 15.6633 0.175624C15.3999 0.292547 15.1639 0.463388 14.9705 0.677128C14.7771 0.890868 14.6307 1.14276 14.5407 1.41657C14.4507 1.69037 14.419 1.98 14.4478 2.26678C12.1166 2.74095 10.0209 4.00621 8.51558 5.84832C7.01025 7.69042 6.1878 9.99615 6.1875 12.3751C6.1875 14.6397 5.15625 24.7501 2.0625 26.8126H30.9375C27.8438 24.7501 26.8125 14.6397 26.8125 12.3751C26.8125 7.38385 23.265 3.2176 18.5522 2.26678Z" fill="#0077E4"/>
</g>
<defs>
<clipPath id="clip0_793_1207">
<rect width="33" height="33" fill="white"/>
</clipPath>
</defs>
</svg>
