<svg width="32" height="33" viewBox="0 0 32 33" fill="none" xmlns="http://www.w3.org/2000/svg">
<path d="M29.1875 15.445H25.1875C24.6571 15.445 24.1484 15.6616 23.7733 16.0473C23.3982 16.4329 23.1875 16.9559 23.1875 17.5013V22.6421C23.1875 23.1874 23.3982 23.7105 23.7733 24.0961C24.1484 24.4817 24.6571 24.6984 25.1875 24.6984H27.1875C27.7179 24.6984 28.2266 24.4817 28.6017 24.0961C28.9768 23.7105 29.1875 23.1874 29.1875 22.6421V15.445ZM29.1875 15.445C29.1876 13.8161 28.8739 12.2033 28.2646 10.6996C27.6553 9.19598 26.7624 7.83127 25.6375 6.68424C24.5126 5.53721 23.1779 4.63056 21.7104 4.01661C20.2429 3.40265 18.6718 3.09354 17.0875 3.10712C15.5043 3.09525 13.9344 3.40562 12.4684 4.02033C11.0024 4.63505 9.66919 5.54197 8.5456 6.68883C7.42201 7.83569 6.53026 9.19982 5.92174 10.7026C5.31322 12.2054 4.99996 13.8172 5 15.445V22.6421C5 23.1874 5.21071 23.7105 5.58579 24.0961C5.96086 24.4817 6.46957 24.6984 7 24.6984H9C9.53043 24.6984 10.0391 24.4817 10.4142 24.0961C10.7893 23.7105 11 23.1874 11 22.6421V17.5013C11 16.9559 10.7893 16.4329 10.4142 16.0473C10.0391 15.6616 9.53043 15.445 9 15.445H5" stroke="#0077E4" stroke-width="2" stroke-linecap="round" stroke-linejoin="round"/>
<path d="M28.1875 23.6699V26.7544C28.1875 27.8451 27.7661 28.8912 27.0159 29.6624C26.2658 30.4337 25.2484 30.867 24.1875 30.867H17" stroke="#0077E4" stroke-width="2" stroke-linecap="round" stroke-linejoin="round"/>
</svg>
