<svg width="32" height="33" viewBox="0 0 32 33" fill="none" xmlns="http://www.w3.org/2000/svg">
<path d="M29.1875 15.4251H25.1875C24.6571 15.4251 24.1484 15.6346 23.7733 16.0075C23.3982 16.3804 23.1875 16.8861 23.1875 17.4135V22.3844C23.1875 22.9117 23.3982 23.4175 23.7733 23.7903C24.1484 24.1632 24.6571 24.3727 25.1875 24.3727H27.1875C27.7179 24.3727 28.2266 24.1632 28.6017 23.7903C28.9768 23.4175 29.1875 22.9117 29.1875 22.3844V15.4251ZM29.1875 15.4251C29.1876 13.8501 28.8739 12.2906 28.2646 10.8366C27.6553 9.38267 26.7624 8.06306 25.6375 6.95394C24.5126 5.84482 23.1779 4.96814 21.7104 4.37447C20.2429 3.78081 18.6718 3.48192 17.0875 3.49504C15.5043 3.48357 13.9344 3.78368 12.4684 4.37808C11.0024 4.97248 9.66919 5.84943 8.5456 6.95838C7.42201 8.06734 6.53026 9.38638 5.92174 10.8395C5.31322 12.2926 4.99996 13.8511 5 15.4251V22.3844C5 22.9117 5.21071 23.4175 5.58579 23.7903C5.96086 24.1632 6.46957 24.3727 7 24.3727H9C9.53043 24.3727 10.0391 24.1632 10.4142 23.7903C10.7893 23.4175 11 22.9117 11 22.3844V17.4135C11 16.8861 10.7893 16.3804 10.4142 16.0075C10.0391 15.6346 9.53043 15.4251 9 15.4251H5" stroke="#0077E4" stroke-width="2" stroke-linecap="round" stroke-linejoin="round"/>
<path d="M28.1875 23.3779V26.3605C28.1875 27.4151 27.7661 28.4266 27.0159 29.1724C26.2658 29.9182 25.2484 30.3372 24.1875 30.3372H17" stroke="#0077E4" stroke-width="2" stroke-linecap="round" stroke-linejoin="round"/>
</svg>
