<svg width="32" height="32" viewBox="0 0 32 32" fill="none" xmlns="http://www.w3.org/2000/svg">
<path d="M29.1875 15.0004H25.1875C24.6571 15.0004 24.1484 15.2111 23.7733 15.5861C23.3982 15.9612 23.1875 16.4699 23.1875 17.0004V22.0004C23.1875 22.5308 23.3982 23.0395 23.7733 23.4146C24.1484 23.7896 24.6571 24.0004 25.1875 24.0004H27.1875C27.7179 24.0004 28.2266 23.7896 28.6017 23.4146C28.9768 23.0395 29.1875 22.5308 29.1875 22.0004V15.0004ZM29.1875 15.0004C29.1876 13.416 28.8739 11.8474 28.2646 10.3849C27.6553 8.92248 26.7624 7.59514 25.6375 6.47952C24.5126 5.3639 23.1779 4.48208 21.7104 3.88494C20.2429 3.2878 18.6718 2.98715 17.0875 3.00036C15.5043 2.98881 13.9344 3.29068 12.4684 3.88856C11.0024 4.48645 9.66919 5.36853 8.5456 6.48399C7.42201 7.59944 6.53026 8.92621 5.92174 10.3879C5.31322 11.8495 4.99996 13.4171 5 15.0004V22.0004C5 22.5308 5.21071 23.0395 5.58579 23.4146C5.96086 23.7896 6.46957 24.0004 7 24.0004H9C9.53043 24.0004 10.0391 23.7896 10.4142 23.4146C10.7893 23.0395 11 22.5308 11 22.0004V17.0004C11 16.4699 10.7893 15.9612 10.4142 15.5861C10.0391 15.2111 9.53043 15.0004 9 15.0004H5" stroke="#0077E4" stroke-width="2" stroke-linecap="round" stroke-linejoin="round"/>
<path d="M28.1875 22.9999V25.9999C28.1875 27.0608 27.7661 28.0782 27.0159 28.8284C26.2658 29.5785 25.2484 29.9999 24.1875 29.9999H17" stroke="#0077E4" stroke-width="2" stroke-linecap="round" stroke-linejoin="round"/>
</svg>
