<svg width="43" height="43" viewBox="0 0 43 43" fill="none" xmlns="http://www.w3.org/2000/svg">
<path d="M34.1833 9.84044C33.9145 9.70146 33.653 9.54912 33.3995 9.38398C32.6629 8.89695 31.9875 8.32314 31.3879 7.6749C29.8858 5.95698 29.3249 4.21429 29.1197 2.99529H29.1268C28.9552 1.98152 29.0259 1.3269 29.0383 1.3269H22.2003V27.7645C22.2003 28.1184 22.2003 28.4704 22.1861 28.8172C22.1861 28.8597 22.1808 28.8986 22.179 28.9464C22.179 28.9641 22.179 28.9853 22.1737 29.0048V29.0207C22.1019 29.969 21.7981 30.8852 21.2891 31.6885C20.78 32.4919 20.0813 33.1578 19.2545 33.6278C18.3919 34.1185 17.4162 34.3758 16.4237 34.3744C13.2391 34.3744 10.656 31.7771 10.656 28.5695C10.656 25.3601 13.2391 22.7629 16.4237 22.7629C17.027 22.7629 17.6268 22.8584 18.2 23.046L18.2089 16.0823C16.468 15.8577 14.6994 15.9964 13.0148 16.4897C11.3302 16.9831 9.76622 17.8202 8.42148 18.9484C7.24292 19.972 6.25203 21.1934 5.4934 22.5577C5.20502 23.0548 4.11517 25.0558 3.98425 28.3006C3.9011 30.1406 4.45487 32.0514 4.71848 32.8387V32.8564C4.88302 33.3199 5.52702 34.9051 6.5744 36.2409C7.41903 37.3131 8.41697 38.255 9.5361 39.0363V39.0186L9.55202 39.0363C12.8605 41.2832 16.5316 41.1364 16.5316 41.1364C17.1668 41.1098 19.2952 41.1364 21.7119 39.9917C24.3923 38.7214 25.9174 36.8301 25.9174 36.8301C26.8924 35.6997 27.6678 34.4116 28.2103 33.0209C28.8296 31.3932 29.0348 29.4435 29.0348 28.6651V14.6368C29.1179 14.6864 30.2237 15.4171 30.2237 15.4171C30.2237 15.4171 31.816 16.4379 34.2983 17.1014C36.0781 17.5738 38.4789 17.6746 38.4789 17.6746V10.8861C37.6386 10.9781 35.9313 10.7127 34.1815 9.84221L34.1833 9.84044Z" fill="white"/>
</svg>
