<svg width="1159" height="111" viewBox="0 0 1159 111" fill="none" xmlns="http://www.w3.org/2000/svg">
<line x1="69" y1="74.5" x2="1091" y2="74.5001" stroke="#E0E0E0"/>
<circle cx="43" cy="76" r="35" fill="#0077E4"/>
<path d="M39.2323 71V67.775H45.2573V86H41.6573V71H39.2323Z" fill="white"/>
<path d="M1.26625 15.02C1.26625 13.66 1.57292 12.44 2.18625 11.36C2.79958 10.2667 3.63292 9.41333 4.68625 8.8C5.75292 8.18667 6.93292 7.88 8.22625 7.88C9.74625 7.88 11.0729 8.24667 12.2063 8.98C13.3396 9.71333 14.1663 10.7533 14.6863 12.1H12.5063C12.1196 11.26 11.5596 10.6133 10.8263 10.16C10.1063 9.70667 9.23958 9.48 8.22625 9.48C7.25292 9.48 6.37958 9.70667 5.60625 10.16C4.83292 10.6133 4.22625 11.26 3.78625 12.1C3.34625 12.9267 3.12625 13.9 3.12625 15.02C3.12625 16.1267 3.34625 17.1 3.78625 17.94C4.22625 18.7667 4.83292 19.4067 5.60625 19.86C6.37958 20.3133 7.25292 20.54 8.22625 20.54C9.23958 20.54 10.1063 20.32 10.8263 19.88C11.5596 19.4267 12.1196 18.78 12.5063 17.94H14.6863C14.1663 19.2733 13.3396 20.3067 12.2063 21.04C11.0729 21.76 9.74625 22.12 8.22625 22.12C6.93292 22.12 5.75292 21.82 4.68625 21.22C3.63292 20.6067 2.79958 19.76 2.18625 18.68C1.57292 17.6 1.26625 16.38 1.26625 15.02ZM16.7155 16.48C16.7155 15.36 16.9421 14.38 17.3955 13.54C17.8488 12.6867 18.4688 12.0267 19.2555 11.56C20.0555 11.0933 20.9421 10.86 21.9155 10.86C22.8755 10.86 23.7088 11.0667 24.4155 11.48C25.1221 11.8933 25.6488 12.4133 25.9955 13.04V11.04H27.8355V22H25.9955V19.96C25.6355 20.6 25.0955 21.1333 24.3755 21.56C23.6688 21.9733 22.8421 22.18 21.8955 22.18C20.9221 22.18 20.0421 21.94 19.2555 21.46C18.4688 20.98 17.8488 20.3067 17.3955 19.44C16.9421 18.5733 16.7155 17.5867 16.7155 16.48ZM25.9955 16.5C25.9955 15.6733 25.8288 14.9533 25.4955 14.34C25.1621 13.7267 24.7088 13.26 24.1355 12.94C23.5755 12.6067 22.9555 12.44 22.2755 12.44C21.5955 12.44 20.9755 12.6 20.4155 12.92C19.8555 13.24 19.4088 13.7067 19.0755 14.32C18.7421 14.9333 18.5755 15.6533 18.5755 16.48C18.5755 17.32 18.7421 18.0533 19.0755 18.68C19.4088 19.2933 19.8555 19.7667 20.4155 20.1C20.9755 20.42 21.5955 20.58 22.2755 20.58C22.9555 20.58 23.5755 20.42 24.1355 20.1C24.7088 19.7667 25.1621 19.2933 25.4955 18.68C25.8288 18.0533 25.9955 17.3267 25.9955 16.5ZM32.7311 12.82C33.0511 12.1933 33.5044 11.7067 34.0911 11.36C34.6911 11.0133 35.4178 10.84 36.2711 10.84V12.72H35.7911C33.7511 12.72 32.7311 13.8267 32.7311 16.04V22H30.9111V11.04H32.7311V12.82ZM40.192 12.82C40.512 12.1933 40.9654 11.7067 41.552 11.36C42.152 11.0133 42.8787 10.84 43.732 10.84V12.72H43.252C41.212 12.72 40.192 13.8267 40.192 16.04V22H38.372V11.04H40.192V12.82ZM46.773 9.26C46.4263 9.26 46.133 9.14 45.893 8.9C45.653 8.66 45.533 8.36667 45.533 8.02C45.533 7.67333 45.653 7.38 45.893 7.14C46.133 6.9 46.4263 6.78 46.773 6.78C47.1063 6.78 47.3863 6.9 47.613 7.14C47.853 7.38 47.973 7.67333 47.973 8.02C47.973 8.36667 47.853 8.66 47.613 8.9C47.3863 9.14 47.1063 9.26 46.773 9.26ZM47.653 11.04V22H45.833V11.04H47.653ZM56.0948 10.84C57.4282 10.84 58.5082 11.2467 59.3348 12.06C60.1615 12.86 60.5748 14.02 60.5748 15.54V22H58.7748V15.8C58.7748 14.7067 58.5015 13.8733 57.9548 13.3C57.4082 12.7133 56.6615 12.42 55.7148 12.42C54.7548 12.42 53.9882 12.72 53.4148 13.32C52.8548 13.92 52.5748 14.7933 52.5748 15.94V22H50.7548V11.04H52.5748V12.6C52.9348 12.04 53.4215 11.6067 54.0348 11.3C54.6615 10.9933 55.3482 10.84 56.0948 10.84ZM68.9878 10.84C69.8145 10.84 70.5611 11.02 71.2278 11.38C71.8945 11.7267 72.4145 12.2533 72.7878 12.96C73.1745 13.6667 73.3678 14.5267 73.3678 15.54V22H71.5678V15.8C71.5678 14.7067 71.2945 13.8733 70.7478 13.3C70.2011 12.7133 69.4545 12.42 68.5078 12.42C67.5478 12.42 66.7811 12.72 66.2078 13.32C65.6478 13.92 65.3678 14.7933 65.3678 15.94V22H63.5478V7.2H65.3678V12.6C65.7278 12.04 66.2211 11.6067 66.8478 11.3C67.4878 10.9933 68.2011 10.84 68.9878 10.84ZM81.1208 22.18C80.0941 22.18 79.1608 21.9467 78.3208 21.48C77.4941 21.0133 76.8408 20.3533 76.3608 19.5C75.8941 18.6333 75.6608 17.6333 75.6608 16.5C75.6608 15.38 75.9008 14.3933 76.3808 13.54C76.8741 12.6733 77.5408 12.0133 78.3808 11.56C79.2208 11.0933 80.1608 10.86 81.2008 10.86C82.2408 10.86 83.1808 11.0933 84.0208 11.56C84.8608 12.0133 85.5208 12.6667 86.0008 13.52C86.4941 14.3733 86.7408 15.3667 86.7408 16.5C86.7408 17.6333 86.4874 18.6333 85.9808 19.5C85.4874 20.3533 84.8141 21.0133 83.9608 21.48C83.1074 21.9467 82.1608 22.18 81.1208 22.18ZM81.1208 20.58C81.7741 20.58 82.3874 20.4267 82.9608 20.12C83.5341 19.8133 83.9941 19.3533 84.3408 18.74C84.7008 18.1267 84.8808 17.38 84.8808 16.5C84.8808 15.62 84.7074 14.8733 84.3608 14.26C84.0141 13.6467 83.5608 13.1933 83.0008 12.9C82.4408 12.5933 81.8341 12.44 81.1808 12.44C80.5141 12.44 79.9008 12.5933 79.3408 12.9C78.7941 13.1933 78.3541 13.6467 78.0208 14.26C77.6874 14.8733 77.5208 15.62 77.5208 16.5C77.5208 17.3933 77.6808 18.1467 78.0008 18.76C78.3341 19.3733 78.7741 19.8333 79.3208 20.14C79.8674 20.4333 80.4674 20.58 81.1208 20.58Z" fill="black"/>
<circle cx="563" cy="76" r="34.5" fill="white" stroke="#0077E4"/>
<path d="M558.747 81.05C560.347 79.7167 561.622 78.6083 562.572 77.725C563.522 76.825 564.314 75.8917 564.947 74.925C565.581 73.9583 565.897 73.0083 565.897 72.075C565.897 71.225 565.697 70.5583 565.297 70.075C564.897 69.5917 564.281 69.35 563.447 69.35C562.614 69.35 561.972 69.6333 561.522 70.2C561.072 70.75 560.839 71.5083 560.822 72.475H557.422C557.489 70.475 558.081 68.9583 559.197 67.925C560.331 66.8917 561.764 66.375 563.497 66.375C565.397 66.375 566.856 66.8833 567.872 67.9C568.889 68.9 569.397 70.225 569.397 71.875C569.397 73.175 569.047 74.4167 568.347 75.6C567.647 76.7833 566.847 77.8167 565.947 78.7C565.047 79.5667 563.872 80.6167 562.422 81.85H569.797V84.75H557.447V82.15L558.747 81.05Z" fill="#0077E4"/>
<path d="M501.628 8.06V22H499.808V8.06H501.628ZM504.049 16.48C504.049 15.36 504.276 14.38 504.729 13.54C505.183 12.6867 505.803 12.0267 506.589 11.56C507.389 11.0933 508.283 10.86 509.269 10.86C510.123 10.86 510.916 11.06 511.649 11.46C512.383 11.8467 512.943 12.36 513.329 13V7.2H515.169V22H513.329V19.94C512.969 20.5933 512.436 21.1333 511.729 21.56C511.023 21.9733 510.196 22.18 509.249 22.18C508.276 22.18 507.389 21.94 506.589 21.46C505.803 20.98 505.183 20.3067 504.729 19.44C504.276 18.5733 504.049 17.5867 504.049 16.48ZM513.329 16.5C513.329 15.6733 513.163 14.9533 512.829 14.34C512.496 13.7267 512.043 13.26 511.469 12.94C510.909 12.6067 510.289 12.44 509.609 12.44C508.929 12.44 508.309 12.6 507.749 12.92C507.189 13.24 506.743 13.7067 506.409 14.32C506.076 14.9333 505.909 15.6533 505.909 16.48C505.909 17.32 506.076 18.0533 506.409 18.68C506.743 19.2933 507.189 19.7667 507.749 20.1C508.309 20.42 508.929 20.58 509.609 20.58C510.289 20.58 510.909 20.42 511.469 20.1C512.043 19.7667 512.496 19.2933 512.829 18.68C513.163 18.0533 513.329 17.3267 513.329 16.5ZM528.245 16.1C528.245 16.4467 528.225 16.8133 528.185 17.2H519.425C519.492 18.28 519.858 19.1267 520.525 19.74C521.205 20.34 522.025 20.64 522.985 20.64C523.772 20.64 524.425 20.46 524.945 20.1C525.478 19.7267 525.852 19.2333 526.065 18.62H528.025C527.732 19.6733 527.145 20.5333 526.265 21.2C525.385 21.8533 524.292 22.18 522.985 22.18C521.945 22.18 521.012 21.9467 520.185 21.48C519.372 21.0133 518.732 20.3533 518.265 19.5C517.798 18.6333 517.565 17.6333 517.565 16.5C517.565 15.3667 517.792 14.3733 518.245 13.52C518.698 12.6667 519.332 12.0133 520.145 11.56C520.972 11.0933 521.918 10.86 522.985 10.86C524.025 10.86 524.945 11.0867 525.745 11.54C526.545 11.9933 527.158 12.62 527.585 13.42C528.025 14.2067 528.245 15.1 528.245 16.1ZM526.365 15.72C526.365 15.0267 526.212 14.4333 525.905 13.94C525.598 13.4333 525.178 13.0533 524.645 12.8C524.125 12.5333 523.545 12.4 522.905 12.4C521.985 12.4 521.198 12.6933 520.545 13.28C519.905 13.8667 519.538 14.68 519.445 15.72H526.365ZM535.987 10.84C537.321 10.84 538.401 11.2467 539.227 12.06C540.054 12.86 540.467 14.02 540.467 15.54V22H538.667V15.8C538.667 14.7067 538.394 13.8733 537.847 13.3C537.301 12.7133 536.554 12.42 535.607 12.42C534.647 12.42 533.881 12.72 533.307 13.32C532.747 13.92 532.467 14.7933 532.467 15.94V22H530.647V11.04H532.467V12.6C532.827 12.04 533.314 11.6067 533.927 11.3C534.554 10.9933 535.241 10.84 535.987 10.84ZM545.66 12.54V19C545.66 19.5333 545.774 19.9133 546 20.14C546.227 20.3533 546.62 20.46 547.18 20.46H548.52V22H546.88C545.867 22 545.107 21.7667 544.6 21.3C544.094 20.8333 543.84 20.0667 543.84 19V12.54H542.42V11.04H543.84V8.28H545.66V11.04H548.52V12.54H545.66ZM551.666 9.26C551.319 9.26 551.026 9.14 550.786 8.9C550.546 8.66 550.426 8.36667 550.426 8.02C550.426 7.67333 550.546 7.38 550.786 7.14C551.026 6.9 551.319 6.78 551.666 6.78C551.999 6.78 552.279 6.9 552.506 7.14C552.746 7.38 552.866 7.67333 552.866 8.02C552.866 8.36667 552.746 8.66 552.506 8.9C552.279 9.14 551.999 9.26 551.666 9.26ZM552.546 11.04V22H550.726V11.04H552.546ZM560.107 12.54H557.807V22H555.987V12.54H554.567V11.04H555.987V10.26C555.987 9.03333 556.301 8.14 556.927 7.58C557.567 7.00667 558.587 6.72 559.987 6.72V8.24C559.187 8.24 558.621 8.4 558.287 8.72C557.967 9.02667 557.807 9.54 557.807 10.26V11.04H560.107V12.54ZM563.169 9.26C562.823 9.26 562.529 9.14 562.289 8.9C562.049 8.66 561.929 8.36667 561.929 8.02C561.929 7.67333 562.049 7.38 562.289 7.14C562.529 6.9 562.823 6.78 563.169 6.78C563.503 6.78 563.783 6.9 564.009 7.14C564.249 7.38 564.369 7.67333 564.369 8.02C564.369 8.36667 564.249 8.66 564.009 8.9C563.783 9.14 563.503 9.26 563.169 9.26ZM564.049 11.04V22H562.229V11.04H564.049ZM566.471 16.5C566.471 15.3667 566.698 14.38 567.151 13.54C567.605 12.6867 568.231 12.0267 569.031 11.56C569.845 11.0933 570.771 10.86 571.811 10.86C573.158 10.86 574.265 11.1867 575.131 11.84C576.011 12.4933 576.591 13.4 576.871 14.56H574.911C574.725 13.8933 574.358 13.3667 573.811 12.98C573.278 12.5933 572.611 12.4 571.811 12.4C570.771 12.4 569.931 12.76 569.291 13.48C568.651 14.1867 568.331 15.1933 568.331 16.5C568.331 17.82 568.651 18.84 569.291 19.56C569.931 20.28 570.771 20.64 571.811 20.64C572.611 20.64 573.278 20.4533 573.811 20.08C574.345 19.7067 574.711 19.1733 574.911 18.48H576.871C576.578 19.6 575.991 20.5 575.111 21.18C574.231 21.8467 573.131 22.18 571.811 22.18C570.771 22.18 569.845 21.9467 569.031 21.48C568.231 21.0133 567.605 20.3533 567.151 19.5C566.698 18.6467 566.471 17.6467 566.471 16.5ZM578.62 16.48C578.62 15.36 578.846 14.38 579.3 13.54C579.753 12.6867 580.373 12.0267 581.16 11.56C581.96 11.0933 582.846 10.86 583.82 10.86C584.78 10.86 585.613 11.0667 586.32 11.48C587.026 11.8933 587.553 12.4133 587.9 13.04V11.04H589.74V22H587.9V19.96C587.54 20.6 587 21.1333 586.28 21.56C585.573 21.9733 584.746 22.18 583.8 22.18C582.826 22.18 581.946 21.94 581.16 21.46C580.373 20.98 579.753 20.3067 579.3 19.44C578.846 18.5733 578.62 17.5867 578.62 16.48ZM587.9 16.5C587.9 15.6733 587.733 14.9533 587.4 14.34C587.066 13.7267 586.613 13.26 586.04 12.94C585.48 12.6067 584.86 12.44 584.18 12.44C583.5 12.44 582.88 12.6 582.32 12.92C581.76 13.24 581.313 13.7067 580.98 14.32C580.646 14.9333 580.48 15.6533 580.48 16.48C580.48 17.32 580.646 18.0533 580.98 18.68C581.313 19.2933 581.76 19.7667 582.32 20.1C582.88 20.42 583.5 20.58 584.18 20.58C584.86 20.58 585.48 20.42 586.04 20.1C586.613 19.7667 587.066 19.2933 587.4 18.68C587.733 18.0533 587.9 17.3267 587.9 16.5ZM597.475 20.64C598.275 20.64 598.942 20.4533 599.475 20.08C600.009 19.7067 600.375 19.1733 600.575 18.48H602.535C602.269 19.52 601.742 20.3733 600.955 21.04C600.182 21.6933 599.209 22.0667 598.035 22.16V23.16C598.822 23.1467 599.449 23.3133 599.915 23.66C600.382 24.0067 600.615 24.5 600.615 25.14C600.615 25.7667 600.389 26.2667 599.935 26.64C599.482 27.0133 598.895 27.2 598.175 27.2H595.875V26.02H597.815C598.255 26.02 598.575 25.9533 598.775 25.82C598.989 25.6867 599.095 25.46 599.095 25.14C599.095 24.8333 598.989 24.6133 598.775 24.48C598.575 24.3467 598.255 24.28 597.815 24.28H596.815V22.14C595.895 22.0467 595.082 21.76 594.375 21.28C593.669 20.7867 593.115 20.1333 592.715 19.32C592.329 18.4933 592.135 17.5533 592.135 16.5C592.135 15.3667 592.362 14.38 592.815 13.54C593.269 12.6867 593.895 12.0267 594.695 11.56C595.509 11.0933 596.435 10.86 597.475 10.86C598.822 10.86 599.929 11.1867 600.795 11.84C601.675 12.4933 602.255 13.4 602.535 14.56H600.575C600.389 13.8933 600.022 13.3667 599.475 12.98C598.942 12.5933 598.275 12.4 597.475 12.4C596.435 12.4 595.595 12.76 594.955 13.48C594.315 14.1867 593.995 15.1933 593.995 16.5C593.995 17.82 594.315 18.84 594.955 19.56C595.595 20.28 596.435 20.64 597.475 20.64ZM604.284 16.48C604.284 15.36 604.51 14.38 604.964 13.54C605.417 12.6867 606.037 12.0267 606.824 11.56C607.624 11.0933 608.51 10.86 609.484 10.86C610.444 10.86 611.277 11.0667 611.984 11.48C612.69 11.8933 613.217 12.4133 613.564 13.04V11.04H615.404V22H613.564V19.96C613.204 20.6 612.664 21.1333 611.944 21.56C611.237 21.9733 610.41 22.18 609.464 22.18C608.49 22.18 607.61 21.94 606.824 21.46C606.037 20.98 605.417 20.3067 604.964 19.44C604.51 18.5733 604.284 17.5867 604.284 16.48ZM613.564 16.5C613.564 15.6733 613.397 14.9533 613.064 14.34C612.73 13.7267 612.277 13.26 611.704 12.94C611.144 12.6067 610.524 12.44 609.844 12.44C609.164 12.44 608.544 12.6 607.984 12.92C607.424 13.24 606.977 13.7067 606.644 14.32C606.31 14.9333 606.144 15.6533 606.144 16.48C606.144 17.32 606.31 18.0533 606.644 18.68C606.977 19.2933 607.424 19.7667 607.984 20.1C608.544 20.42 609.164 20.58 609.844 20.58C610.524 20.58 611.144 20.42 611.704 20.1C612.277 19.7667 612.73 19.2933 613.064 18.68C613.397 18.0533 613.564 17.3267 613.564 16.5ZM607.264 9.86C607.357 9.18 607.577 8.66 607.924 8.3C608.284 7.94 608.73 7.76 609.264 7.76C609.517 7.76 609.73 7.80667 609.904 7.9C610.09 7.98 610.31 8.1 610.564 8.26C610.75 8.39333 610.917 8.5 611.064 8.58C611.21 8.64667 611.37 8.68 611.544 8.68C611.77 8.68 611.964 8.60667 612.124 8.46C612.284 8.31333 612.384 8.1 612.424 7.82H613.464C613.384 8.48667 613.164 9 612.804 9.36C612.444 9.72 611.997 9.9 611.464 9.9C611.21 9.9 610.984 9.86 610.784 9.78C610.597 9.68667 610.384 9.55333 610.144 9.38C609.93 9.24667 609.757 9.14667 609.624 9.08C609.504 9.01333 609.357 8.98 609.184 8.98C608.957 8.98 608.764 9.05333 608.604 9.2C608.457 9.34667 608.364 9.56667 608.324 9.86H607.264ZM623.259 22.18C622.233 22.18 621.299 21.9467 620.459 21.48C619.633 21.0133 618.979 20.3533 618.499 19.5C618.033 18.6333 617.799 17.6333 617.799 16.5C617.799 15.38 618.039 14.3933 618.519 13.54C619.013 12.6733 619.679 12.0133 620.519 11.56C621.359 11.0933 622.299 10.86 623.339 10.86C624.379 10.86 625.319 11.0933 626.159 11.56C626.999 12.0133 627.659 12.6667 628.139 13.52C628.633 14.3733 628.879 15.3667 628.879 16.5C628.879 17.6333 628.626 18.6333 628.119 19.5C627.626 20.3533 626.953 21.0133 626.099 21.48C625.246 21.9467 624.299 22.18 623.259 22.18ZM623.259 20.58C623.913 20.58 624.526 20.4267 625.099 20.12C625.673 19.8133 626.133 19.3533 626.479 18.74C626.839 18.1267 627.019 17.38 627.019 16.5C627.019 15.62 626.846 14.8733 626.499 14.26C626.153 13.6467 625.699 13.1933 625.139 12.9C624.579 12.5933 623.973 12.44 623.319 12.44C622.653 12.44 622.039 12.5933 621.479 12.9C620.933 13.1933 620.493 13.6467 620.159 14.26C619.826 14.8733 619.659 15.62 619.659 16.5C619.659 17.3933 619.819 18.1467 620.139 18.76C620.473 19.3733 620.913 19.8333 621.459 20.14C622.006 20.4333 622.606 20.58 623.259 20.58Z" fill="black"/>
<circle cx="1098" cy="76" r="34.5" fill="white" stroke="#0077E4"/>
<path d="M1092.39 71.575C1092.48 69.9083 1093.06 68.625 1094.14 67.725C1095.24 66.8083 1096.68 66.35 1098.47 66.35C1099.68 66.35 1100.73 66.5667 1101.59 67C1102.46 67.4167 1103.11 67.9917 1103.54 68.725C1103.99 69.4417 1104.22 70.2583 1104.22 71.175C1104.22 72.225 1103.94 73.1167 1103.39 73.85C1102.86 74.5667 1102.22 75.05 1101.47 75.3V75.4C1102.43 75.7 1103.18 76.2333 1103.72 77C1104.27 77.7667 1104.54 78.75 1104.54 79.95C1104.54 80.95 1104.31 81.8417 1103.84 82.625C1103.39 83.4083 1102.72 84.025 1101.82 84.475C1100.93 84.9083 1099.87 85.125 1098.62 85.125C1096.73 85.125 1095.2 84.65 1094.02 83.7C1092.83 82.75 1092.21 81.35 1092.14 79.5H1095.54C1095.58 80.3167 1095.85 80.975 1096.37 81.475C1096.9 81.9583 1097.63 82.2 1098.54 82.2C1099.39 82.2 1100.04 81.9667 1100.49 81.5C1100.96 81.0167 1101.19 80.4 1101.19 79.65C1101.19 78.65 1100.88 77.9333 1100.24 77.5C1099.61 77.0667 1098.63 76.85 1097.29 76.85H1096.57V73.975H1097.29C1099.66 73.975 1100.84 73.1833 1100.84 71.6C1100.84 70.8833 1100.63 70.325 1100.19 69.925C1099.78 69.525 1099.17 69.325 1098.37 69.325C1097.58 69.325 1096.98 69.5417 1096.54 69.975C1096.13 70.3917 1095.88 70.925 1095.82 71.575H1092.39Z" fill="#0077E4"/>
<path d="M1051.36 12.14C1051.36 13.3 1050.96 14.2667 1050.16 15.04C1049.37 15.8 1048.16 16.18 1046.54 16.18H1043.86V22H1042.04V8.06H1046.54C1048.11 8.06 1049.3 8.44 1050.12 9.2C1050.94 9.96 1051.36 10.94 1051.36 12.14ZM1046.54 14.68C1047.55 14.68 1048.3 14.46 1048.78 14.02C1049.26 13.58 1049.5 12.9533 1049.5 12.14C1049.5 10.42 1048.51 9.56 1046.54 9.56H1043.86V14.68H1046.54ZM1052.94 16.48C1052.94 15.36 1053.16 14.38 1053.62 13.54C1054.07 12.6867 1054.69 12.0267 1055.48 11.56C1056.28 11.0933 1057.16 10.86 1058.14 10.86C1059.1 10.86 1059.93 11.0667 1060.64 11.48C1061.34 11.8933 1061.87 12.4133 1062.22 13.04V11.04H1064.06V22H1062.22V19.96C1061.86 20.6 1061.32 21.1333 1060.6 21.56C1059.89 21.9733 1059.06 22.18 1058.12 22.18C1057.14 22.18 1056.26 21.94 1055.48 21.46C1054.69 20.98 1054.07 20.3067 1053.62 19.44C1053.16 18.5733 1052.94 17.5867 1052.94 16.48ZM1062.22 16.5C1062.22 15.6733 1062.05 14.9533 1061.72 14.34C1061.38 13.7267 1060.93 13.26 1060.36 12.94C1059.8 12.6067 1059.18 12.44 1058.5 12.44C1057.82 12.44 1057.2 12.6 1056.64 12.92C1056.08 13.24 1055.63 13.7067 1055.3 14.32C1054.96 14.9333 1054.8 15.6533 1054.8 16.48C1054.8 17.32 1054.96 18.0533 1055.3 18.68C1055.63 19.2933 1056.08 19.7667 1056.64 20.1C1057.2 20.42 1057.82 20.58 1058.5 20.58C1059.18 20.58 1059.8 20.42 1060.36 20.1C1060.93 19.7667 1061.38 19.2933 1061.72 18.68C1062.05 18.0533 1062.22 17.3267 1062.22 16.5ZM1071.65 10.86C1072.6 10.86 1073.43 11.0667 1074.13 11.48C1074.85 11.8933 1075.39 12.4133 1075.73 13.04V11.04H1077.57V22.24C1077.57 23.24 1077.36 24.1267 1076.93 24.9C1076.51 25.6867 1075.89 26.3 1075.09 26.74C1074.31 27.18 1073.39 27.4 1072.33 27.4C1070.89 27.4 1069.69 27.06 1068.73 26.38C1067.77 25.7 1067.21 24.7733 1067.03 23.6H1068.83C1069.03 24.2667 1069.45 24.8 1070.07 25.2C1070.7 25.6133 1071.45 25.82 1072.33 25.82C1073.33 25.82 1074.15 25.5067 1074.77 24.88C1075.41 24.2533 1075.73 23.3733 1075.73 22.24V19.94C1075.37 20.58 1074.84 21.1133 1074.13 21.54C1073.43 21.9667 1072.6 22.18 1071.65 22.18C1070.68 22.18 1069.79 21.94 1068.99 21.46C1068.21 20.98 1067.59 20.3067 1067.13 19.44C1066.68 18.5733 1066.45 17.5867 1066.45 16.48C1066.45 15.36 1066.68 14.38 1067.13 13.54C1067.59 12.6867 1068.21 12.0267 1068.99 11.56C1069.79 11.0933 1070.68 10.86 1071.65 10.86ZM1075.73 16.5C1075.73 15.6733 1075.57 14.9533 1075.23 14.34C1074.9 13.7267 1074.45 13.26 1073.87 12.94C1073.31 12.6067 1072.69 12.44 1072.01 12.44C1071.33 12.44 1070.71 12.6 1070.15 12.92C1069.59 13.24 1069.15 13.7067 1068.81 14.32C1068.48 14.9333 1068.31 15.6533 1068.31 16.48C1068.31 17.32 1068.48 18.0533 1068.81 18.68C1069.15 19.2933 1069.59 19.7667 1070.15 20.1C1070.71 20.42 1071.33 20.58 1072.01 20.58C1072.69 20.58 1073.31 20.42 1073.87 20.1C1074.45 19.7667 1074.9 19.2933 1075.23 18.68C1075.57 18.0533 1075.73 17.3267 1075.73 16.5ZM1079.97 16.48C1079.97 15.36 1080.2 14.38 1080.65 13.54C1081.1 12.6867 1081.72 12.0267 1082.51 11.56C1083.31 11.0933 1084.2 10.86 1085.17 10.86C1086.13 10.86 1086.96 11.0667 1087.67 11.48C1088.38 11.8933 1088.9 12.4133 1089.25 13.04V11.04H1091.09V22H1089.25V19.96C1088.89 20.6 1088.35 21.1333 1087.63 21.56C1086.92 21.9733 1086.1 22.18 1085.15 22.18C1084.18 22.18 1083.3 21.94 1082.51 21.46C1081.72 20.98 1081.1 20.3067 1080.65 19.44C1080.2 18.5733 1079.97 17.5867 1079.97 16.48ZM1089.25 16.5C1089.25 15.6733 1089.08 14.9533 1088.75 14.34C1088.42 13.7267 1087.96 13.26 1087.39 12.94C1086.83 12.6067 1086.21 12.44 1085.53 12.44C1084.85 12.44 1084.23 12.6 1083.67 12.92C1083.11 13.24 1082.66 13.7067 1082.33 14.32C1082 14.9333 1081.83 15.6533 1081.83 16.48C1081.83 17.32 1082 18.0533 1082.33 18.68C1082.66 19.2933 1083.11 19.7667 1083.67 20.1C1084.23 20.42 1084.85 20.58 1085.53 20.58C1086.21 20.58 1086.83 20.42 1087.39 20.1C1087.96 19.7667 1088.42 19.2933 1088.75 18.68C1089.08 18.0533 1089.25 17.3267 1089.25 16.5ZM1107.35 10.84C1108.2 10.84 1108.96 11.02 1109.63 11.38C1110.29 11.7267 1110.82 12.2533 1111.21 12.96C1111.59 13.6667 1111.79 14.5267 1111.79 15.54V22H1109.99V15.8C1109.99 14.7067 1109.71 13.8733 1109.17 13.3C1108.63 12.7133 1107.91 12.42 1106.99 12.42C1106.04 12.42 1105.29 12.7267 1104.73 13.34C1104.17 13.94 1103.89 14.8133 1103.89 15.96V22H1102.09V15.8C1102.09 14.7067 1101.81 13.8733 1101.27 13.3C1100.73 12.7133 1100.01 12.42 1099.09 12.42C1098.14 12.42 1097.39 12.7267 1096.83 13.34C1096.27 13.94 1095.99 14.8133 1095.99 15.96V22H1094.17V11.04H1095.99V12.62C1096.35 12.0467 1096.83 11.6067 1097.43 11.3C1098.04 10.9933 1098.71 10.84 1099.45 10.84C1100.37 10.84 1101.18 11.0467 1101.89 11.46C1102.59 11.8733 1103.12 12.48 1103.47 13.28C1103.77 12.5067 1104.28 11.9067 1104.99 11.48C1105.69 11.0533 1106.48 10.84 1107.35 10.84ZM1124.77 16.1C1124.77 16.4467 1124.75 16.8133 1124.71 17.2H1115.95C1116.02 18.28 1116.38 19.1267 1117.05 19.74C1117.73 20.34 1118.55 20.64 1119.51 20.64C1120.3 20.64 1120.95 20.46 1121.47 20.1C1122 19.7267 1122.38 19.2333 1122.59 18.62H1124.55C1124.26 19.6733 1123.67 20.5333 1122.79 21.2C1121.91 21.8533 1120.82 22.18 1119.51 22.18C1118.47 22.18 1117.54 21.9467 1116.71 21.48C1115.9 21.0133 1115.26 20.3533 1114.79 19.5C1114.32 18.6333 1114.09 17.6333 1114.09 16.5C1114.09 15.3667 1114.32 14.3733 1114.77 13.52C1115.22 12.6667 1115.86 12.0133 1116.67 11.56C1117.5 11.0933 1118.44 10.86 1119.51 10.86C1120.55 10.86 1121.47 11.0867 1122.27 11.54C1123.07 11.9933 1123.68 12.62 1124.11 13.42C1124.55 14.2067 1124.77 15.1 1124.77 16.1ZM1122.89 15.72C1122.89 15.0267 1122.74 14.4333 1122.43 13.94C1122.12 13.4333 1121.7 13.0533 1121.17 12.8C1120.65 12.5333 1120.07 12.4 1119.43 12.4C1118.51 12.4 1117.72 12.6933 1117.07 13.28C1116.43 13.8667 1116.06 14.68 1115.97 15.72H1122.89ZM1132.51 10.84C1133.85 10.84 1134.93 11.2467 1135.75 12.06C1136.58 12.86 1136.99 14.02 1136.99 15.54V22H1135.19V15.8C1135.19 14.7067 1134.92 13.8733 1134.37 13.3C1133.83 12.7133 1133.08 12.42 1132.13 12.42C1131.17 12.42 1130.41 12.72 1129.83 13.32C1129.27 13.92 1128.99 14.7933 1128.99 15.94V22H1127.17V11.04H1128.99V12.6C1129.35 12.04 1129.84 11.6067 1130.45 11.3C1131.08 10.9933 1131.77 10.84 1132.51 10.84ZM1142.19 12.54V19C1142.19 19.5333 1142.3 19.9133 1142.53 20.14C1142.75 20.3533 1143.15 20.46 1143.71 20.46H1145.05V22H1143.41C1142.39 22 1141.63 21.7667 1141.13 21.3C1140.62 20.8333 1140.37 20.0667 1140.37 19V12.54H1138.95V11.04H1140.37V8.28H1142.19V11.04H1145.05V12.54H1142.19ZM1152.03 22.18C1151 22.18 1150.07 21.9467 1149.23 21.48C1148.4 21.0133 1147.75 20.3533 1147.27 19.5C1146.8 18.6333 1146.57 17.6333 1146.57 16.5C1146.57 15.38 1146.81 14.3933 1147.29 13.54C1147.78 12.6733 1148.45 12.0133 1149.29 11.56C1150.13 11.0933 1151.07 10.86 1152.11 10.86C1153.15 10.86 1154.09 11.0933 1154.93 11.56C1155.77 12.0133 1156.43 12.6667 1156.91 13.52C1157.4 14.3733 1157.65 15.3667 1157.65 16.5C1157.65 17.6333 1157.4 18.6333 1156.89 19.5C1156.4 20.3533 1155.72 21.0133 1154.87 21.48C1154.02 21.9467 1153.07 22.18 1152.03 22.18ZM1152.03 20.58C1152.68 20.58 1153.3 20.4267 1153.87 20.12C1154.44 19.8133 1154.9 19.3533 1155.25 18.74C1155.61 18.1267 1155.79 17.38 1155.79 16.5C1155.79 15.62 1155.62 14.8733 1155.27 14.26C1154.92 13.6467 1154.47 13.1933 1153.91 12.9C1153.35 12.5933 1152.74 12.44 1152.09 12.44C1151.42 12.44 1150.81 12.5933 1150.25 12.9C1149.7 13.1933 1149.26 13.6467 1148.93 14.26C1148.6 14.8733 1148.43 15.62 1148.43 16.5C1148.43 17.3933 1148.59 18.1467 1148.91 18.76C1149.24 19.3733 1149.68 19.8333 1150.23 20.14C1150.78 20.4333 1151.38 20.58 1152.03 20.58Z" fill="black"/>
</svg>
