<svg width="49" height="32" viewBox="0 0 49 32" fill="none" xmlns="http://www.w3.org/2000/svg">
<rect width="48.0822" height="31.0139" rx="4" fill="white"/>
<g clip-path="url(#clip0_1615_741)">
<path d="M21.2 22.7981H17.7977L19.9258 9.24573H23.3279L21.2 22.7981Z" fill="#00579F"/>
<path d="M33.5336 9.5771C32.8625 9.30289 31.7981 9.00012 30.482 9.00012C27.1221 9.00012 24.7561 10.8455 24.7416 13.4837C24.7137 15.4302 26.4356 16.5114 27.7234 17.1604C29.0397 17.8236 29.4872 18.2565 29.4872 18.8476C29.4738 19.7556 28.4235 20.1741 27.444 20.1741C26.0856 20.1741 25.3578 19.9583 24.2517 19.4532L23.8037 19.2366L23.3276 22.2789C24.1256 22.6533 25.5958 22.9856 27.1221 23.0001C30.692 23.0001 33.0162 21.1833 33.0437 18.3718C33.0573 16.8291 32.1481 15.647 30.1879 14.681C28.9979 14.0609 28.2691 13.6428 28.2691 13.0083C28.2831 12.4315 28.8855 11.8407 30.2288 11.8407C31.3349 11.8118 32.1475 12.0856 32.7632 12.3597L33.0709 12.5036L33.5336 9.5771V9.5771Z" fill="#00579F"/>
<path d="M38.0555 17.997C38.3357 17.2184 39.4139 14.2051 39.4139 14.2051C39.3997 14.2341 39.6935 13.4122 39.8615 12.9077L40.0993 14.0754C40.0993 14.0754 40.7436 17.3194 40.8835 17.997C40.3518 17.997 38.7275 17.997 38.0555 17.997ZM42.2552 9.24573H39.6236C38.812 9.24573 38.1954 9.49062 37.8453 10.3702L32.7916 22.7979H36.3615C36.3615 22.7979 36.9493 21.1252 37.0756 20.765C37.4672 20.765 40.9401 20.765 41.4439 20.765C41.5416 21.2408 41.8498 22.7979 41.8498 22.7979H45L42.2552 9.24573V9.24573Z" fill="#00579F"/>
<path d="M14.956 9.24573L11.624 18.4871L11.2599 16.6129C10.6439 14.4502 8.71198 12.1005 6.55603 10.9322L9.60799 22.7837H13.2058L18.5536 9.24573H14.956V9.24573Z" fill="#00579F"/>
<path d="M8.52996 9.24573H3.056L3 9.51956C7.27003 10.6442 10.098 13.3551 11.2599 16.6135L10.0699 10.3849C9.87398 9.51937 9.27193 9.27428 8.52996 9.24573Z" fill="#FAA61A"/>
</g>
<defs>
<clipPath id="clip0_1615_741">
<rect width="42" height="14" fill="white" transform="translate(3 9)"/>
</clipPath>
</defs>
</svg>
