<svg width="100" height="163" viewBox="0 0 100 163" fill="none" xmlns="http://www.w3.org/2000/svg">
<path d="M20.984 52.3747V122.175H6.98398V52.3747H20.984Z" fill="#FFC800"/>
<rect x="3.52124" y="39.3033" width="14.5711" height="14.5711" transform="rotate(-45 3.52124 39.3033)" fill="#FFC800"/>
<path d="M17.1798 140.04V154H14.3798V140.04H17.1798ZM26.0862 142.76C27.4062 142.76 28.4728 143.18 29.2862 144.02C30.0995 144.847 30.5062 146.007 30.5062 147.5V154H27.7062V147.88C27.7062 147 27.4862 146.327 27.0462 145.86C26.6062 145.38 26.0062 145.14 25.2462 145.14C24.4728 145.14 23.8595 145.38 23.4062 145.86C22.9662 146.327 22.7462 147 22.7462 147.88V154H19.9462V142.92H22.7462V144.3C23.1195 143.82 23.5928 143.447 24.1662 143.18C24.7528 142.9 25.3928 142.76 26.0862 142.76ZM32.4488 148.42C32.4488 147.3 32.6688 146.307 33.1088 145.44C33.5622 144.573 34.1755 143.907 34.9488 143.44C35.7222 142.973 36.5822 142.74 37.5288 142.74C38.2488 142.74 38.9355 142.9 39.5888 143.22C40.2422 143.527 40.7622 143.94 41.1488 144.46V139.2H43.9888V154H41.1488V152.36C40.8022 152.907 40.3155 153.347 39.6888 153.68C39.0622 154.013 38.3355 154.18 37.5088 154.18C36.5755 154.18 35.7222 153.94 34.9488 153.46C34.1755 152.98 33.5622 152.307 33.1088 151.44C32.6688 150.56 32.4488 149.553 32.4488 148.42ZM41.1688 148.46C41.1688 147.78 41.0355 147.2 40.7688 146.72C40.5022 146.227 40.1422 145.853 39.6888 145.6C39.2355 145.333 38.7488 145.2 38.2288 145.2C37.7088 145.2 37.2288 145.327 36.7888 145.58C36.3488 145.833 35.9888 146.207 35.7088 146.7C35.4422 147.18 35.3088 147.753 35.3088 148.42C35.3088 149.087 35.4422 149.673 35.7088 150.18C35.9888 150.673 36.3488 151.053 36.7888 151.32C37.2422 151.587 37.7222 151.72 38.2288 151.72C38.7488 151.72 39.2355 151.593 39.6888 151.34C40.1422 151.073 40.5022 150.7 40.7688 150.22C41.0355 149.727 41.1688 149.14 41.1688 148.46ZM48.1435 141.6C47.6502 141.6 47.2368 141.447 46.9035 141.14C46.5835 140.82 46.4235 140.427 46.4235 139.96C46.4235 139.493 46.5835 139.107 46.9035 138.8C47.2368 138.48 47.6502 138.32 48.1435 138.32C48.6368 138.32 49.0435 138.48 49.3635 138.8C49.6968 139.107 49.8635 139.493 49.8635 139.96C49.8635 140.427 49.6968 140.82 49.3635 141.14C49.0435 141.447 48.6368 141.6 48.1435 141.6ZM49.5235 142.92V154H46.7235V142.92H49.5235Z" fill="#0077E4"/>
<path d="M58.8499 154L55.0899 149.28V154H52.2899V139.2H55.0899V147.62L58.8099 142.92H62.4499L57.5699 148.48L62.4899 154H58.8499ZM74.2696 148.22C74.2696 148.62 74.2429 148.98 74.1896 149.3H66.0896C66.1563 150.1 66.4363 150.727 66.9296 151.18C67.4229 151.633 68.0296 151.86 68.7496 151.86C69.7896 151.86 70.5296 151.413 70.9696 150.52H73.9896C73.6696 151.587 73.0563 152.467 72.1496 153.16C71.2429 153.84 70.1296 154.18 68.8096 154.18C67.7429 154.18 66.7829 153.947 65.9296 153.48C65.0896 153 64.4296 152.327 63.9496 151.46C63.4829 150.593 63.2496 149.593 63.2496 148.46C63.2496 147.313 63.4829 146.307 63.9496 145.44C64.4163 144.573 65.0696 143.907 65.9096 143.44C66.7496 142.973 67.7163 142.74 68.8096 142.74C69.8629 142.74 70.8029 142.967 71.6296 143.42C72.4696 143.873 73.1163 144.52 73.5696 145.36C74.0363 146.187 74.2696 147.14 74.2696 148.22ZM71.3696 147.42C71.3563 146.7 71.0963 146.127 70.5896 145.7C70.0829 145.26 69.4629 145.04 68.7296 145.04C68.0363 145.04 67.4496 145.253 66.9696 145.68C66.5029 146.093 66.2163 146.673 66.1096 147.42H71.3696ZM86.9134 142.92L80.0533 159.24H77.0733L79.4733 153.72L75.0333 142.92H78.1733L81.0333 150.66L83.9333 142.92H86.9134Z" fill="#FFC800"/>
<path d="M78.7493 122.024L53.5426 90.7667L53.3498 121.866L39.3501 121.779L39.7827 51.9807L53.7825 52.0674L53.5885 83.3668L79.182 52.2249L96.0817 52.3297L67.0677 86.7505L96.449 122.133L78.7493 122.024Z" fill="#0077E4"/>
<circle cx="49.5784" cy="32.0572" r="23.5" transform="rotate(-29.707 49.5784 32.0572)" fill="#0077E4"/>
<circle cx="50.0727" cy="21.5515" r="7.00183" transform="rotate(-29.707 50.0727 21.5515)" fill="white"/>
<rect x="39.5212" y="122.057" width="14.1186" height="14.1186" transform="rotate(-42.1782 39.5212 122.057)" fill="#0077E4"/>
<rect x="39.5212" y="108.48" width="14.1186" height="14.1186" transform="rotate(-42.1782 39.5212 108.48)" fill="#0077E4"/>
<rect x="41.168" y="63.6102" width="12.2447" height="12.2447" transform="rotate(-42.1782 41.168 63.6102)" fill="#0077E4"/>
<rect x="44.5212" y="50" width="14.1186" height="14.1186" fill="#0077E4"/>
<rect x="41.5212" y="72.2216" width="12.2447" height="12.2447" transform="rotate(-42.1782 41.5212 72.2216)" fill="#0077E4"/>
</svg>
